ISO-10303-21;
HEADER;
/* Generated by software containing ST-Developer
 * from STEP Tools, Inc. (www.steptools.com) 
 */

FILE_DESCRIPTION(
/* description */ (''),
/* implementation_level */ '2;1');

FILE_NAME(
/* name */ 'Altitude Baseplate.step',
/* time_stamp */ '2026-09-08T22:00:47+05:30',
/* author */ (''),
/* organization */ (''),
/* preprocessor_version */ 'ST-DEVELOPER v20.2',
/* originating_system */ 'Autodesk Translation Framework v15.15.0.0',
/* authorisation */ '');

FILE_SCHEMA (('AUTOMOTIVE_DESIGN { 1 0 10303 214 3 1 1 }'));
ENDSEC;

DATA;
#10=MECHANICAL_DESIGN_GEOMETRIC_PRESENTATION_REPRESENTATION('',(#13),#1755);
#11=SHAPE_REPRESENTATION_RELATIONSHIP('SRR','None',#1762,#12);
#12=ADVANCED_BREP_SHAPE_REPRESENTATION('',(#14),#1754);
#13=STYLED_ITEM('',(#1771),#14);
#14=MANIFOLD_SOLID_BREP('Body1',#1039);
#15=FACE_BOUND('',#205,.T.);
#16=FACE_BOUND('',#208,.T.);
#17=FACE_BOUND('',#212,.T.);
#18=FACE_BOUND('',#213,.T.);
#19=FACE_BOUND('',#214,.T.);
#20=FACE_BOUND('',#215,.T.);
#21=FACE_BOUND('',#219,.T.);
#22=FACE_BOUND('',#220,.T.);
#23=FACE_BOUND('',#221,.T.);
#24=FACE_BOUND('',#222,.T.);
#25=FACE_BOUND('',#225,.T.);
#26=FACE_BOUND('',#226,.T.);
#27=FACE_BOUND('',#227,.T.);
#28=FACE_BOUND('',#228,.T.);
#29=FACE_BOUND('',#230,.T.);
#30=FACE_BOUND('',#231,.T.);
#31=FACE_BOUND('',#232,.T.);
#32=FACE_BOUND('',#233,.T.);
#33=FACE_BOUND('',#239,.T.);
#34=FACE_BOUND('',#240,.T.);
#35=FACE_BOUND('',#241,.T.);
#36=FACE_BOUND('',#242,.T.);
#37=FACE_BOUND('',#245,.T.);
#38=FACE_BOUND('',#246,.T.);
#39=FACE_BOUND('',#247,.T.);
#40=FACE_BOUND('',#248,.T.);
#41=CIRCLE('',#1056,3.00000000000004);
#42=CIRCLE('',#1057,3.00000000000004);
#43=CIRCLE('',#1059,3.00000000000004);
#44=CIRCLE('',#1060,3.00000000000004);
#45=CIRCLE('',#1062,3.00000000000004);
#46=CIRCLE('',#1063,3.00000000000004);
#47=CIRCLE('',#1068,3.00000000000004);
#48=CIRCLE('',#1069,3.00000000000004);
#49=CIRCLE('',#1071,3.00000000000004);
#50=CIRCLE('',#1072,3.00000000000004);
#51=CIRCLE('',#1074,3.00000000000001);
#52=CIRCLE('',#1075,3.00000000000001);
#53=CIRCLE('',#1079,3.00000000000001);
#54=CIRCLE('',#1080,3.00000000000001);
#55=CIRCLE('',#1083,3.00000000000004);
#56=CIRCLE('',#1084,3.00000000000004);
#57=CIRCLE('',#1088,2.10000000000001);
#58=CIRCLE('',#1089,2.10000000000001);
#59=CIRCLE('',#1091,2.10000000000001);
#60=CIRCLE('',#1092,2.10000000000001);
#61=CIRCLE('',#1094,2.10000000000001);
#62=CIRCLE('',#1095,2.10000000000001);
#63=CIRCLE('',#1099,2.10000000000001);
#64=CIRCLE('',#1100,2.10000000000001);
#65=CIRCLE('',#1104,2.10000000000001);
#66=CIRCLE('',#1105,2.10000000000001);
#67=CIRCLE('',#1107,2.10000000000001);
#68=CIRCLE('',#1108,2.10000000000001);
#69=CIRCLE('',#1110,2.10000000000001);
#70=CIRCLE('',#1111,2.10000000000001);
#71=CIRCLE('',#1115,2.10000000000001);
#72=CIRCLE('',#1116,2.10000000000001);
#73=CIRCLE('',#1118,41.5);
#74=CIRCLE('',#1119,41.5);
#75=CIRCLE('',#1121,34.);
#76=CIRCLE('',#1123,41.5);
#77=CIRCLE('',#1124,41.5);
#78=CIRCLE('',#1126,34.);
#79=CIRCLE('',#1128,34.);
#80=CIRCLE('',#1130,34.);
#81=CIRCLE('',#1132,250.);
#82=CIRCLE('',#1134,250.);
#83=CIRCLE('',#1137,250.);
#84=CIRCLE('',#1139,250.);
#85=CIRCLE('',#1142,2.12499999999999);
#86=CIRCLE('',#1143,2.12499999999999);
#87=CIRCLE('',#1144,2.12499999999999);
#88=CIRCLE('',#1145,2.12499999999999);
#89=CIRCLE('',#1147,2.12499999999999);
#90=CIRCLE('',#1149,2.12499999999999);
#91=CIRCLE('',#1151,2.12499999999999);
#92=CIRCLE('',#1153,2.12499999999999);
#93=CYLINDRICAL_SURFACE('',#1055,3.00000000000004);
#94=CYLINDRICAL_SURFACE('',#1058,3.00000000000004);
#95=CYLINDRICAL_SURFACE('',#1061,3.00000000000004);
#96=CYLINDRICAL_SURFACE('',#1067,3.00000000000004);
#97=CYLINDRICAL_SURFACE('',#1070,3.00000000000004);
#98=CYLINDRICAL_SURFACE('',#1073,3.00000000000001);
#99=CYLINDRICAL_SURFACE('',#1078,3.00000000000001);
#100=CYLINDRICAL_SURFACE('',#1082,3.00000000000004);
#101=CYLINDRICAL_SURFACE('',#1087,2.10000000000001);
#102=CYLINDRICAL_SURFACE('',#1090,2.10000000000001);
#103=CYLINDRICAL_SURFACE('',#1093,2.10000000000001);
#104=CYLINDRICAL_SURFACE('',#1098,2.10000000000001);
#105=CYLINDRICAL_SURFACE('',#1103,2.10000000000001);
#106=CYLINDRICAL_SURFACE('',#1106,2.10000000000001);
#107=CYLINDRICAL_SURFACE('',#1109,2.10000000000001);
#108=CYLINDRICAL_SURFACE('',#1114,2.10000000000001);
#109=CYLINDRICAL_SURFACE('',#1117,41.5);
#110=CYLINDRICAL_SURFACE('',#1122,41.5);
#111=CYLINDRICAL_SURFACE('',#1127,34.);
#112=CYLINDRICAL_SURFACE('',#1129,34.);
#113=CYLINDRICAL_SURFACE('',#1133,250.);
#114=CYLINDRICAL_SURFACE('',#1138,250.);
#115=CYLINDRICAL_SURFACE('',#1146,2.12499999999999);
#116=CYLINDRICAL_SURFACE('',#1148,2.12499999999999);
#117=CYLINDRICAL_SURFACE('',#1150,2.12499999999999);
#118=CYLINDRICAL_SURFACE('',#1152,2.12499999999999);
#119=FACE_OUTER_BOUND('',#171,.T.);
#120=FACE_OUTER_BOUND('',#172,.T.);
#121=FACE_OUTER_BOUND('',#173,.T.);
#122=FACE_OUTER_BOUND('',#174,.T.);
#123=FACE_OUTER_BOUND('',#175,.T.);
#124=FACE_OUTER_BOUND('',#176,.T.);
#125=FACE_OUTER_BOUND('',#177,.T.);
#126=FACE_OUTER_BOUND('',#178,.T.);
#127=FACE_OUTER_BOUND('',#179,.T.);
#128=FACE_OUTER_BOUND('',#180,.T.);
#129=FACE_OUTER_BOUND('',#181,.T.);
#130=FACE_OUTER_BOUND('',#182,.T.);
#131=FACE_OUTER_BOUND('',#183,.T.);
#132=FACE_OUTER_BOUND('',#184,.T.);
#133=FACE_OUTER_BOUND('',#185,.T.);
#134=FACE_OUTER_BOUND('',#186,.T.);
#135=FACE_OUTER_BOUND('',#187,.T.);
#136=FACE_OUTER_BOUND('',#188,.T.);
#137=FACE_OUTER_BOUND('',#189,.T.);
#138=FACE_OUTER_BOUND('',#190,.T.);
#139=FACE_OUTER_BOUND('',#191,.T.);
#140=FACE_OUTER_BOUND('',#192,.T.);
#141=FACE_OUTER_BOUND('',#193,.T.);
#142=FACE_OUTER_BOUND('',#194,.T.);
#143=FACE_OUTER_BOUND('',#195,.T.);
#144=FACE_OUTER_BOUND('',#196,.T.);
#145=FACE_OUTER_BOUND('',#197,.T.);
#146=FACE_OUTER_BOUND('',#198,.T.);
#147=FACE_OUTER_BOUND('',#199,.T.);
#148=FACE_OUTER_BOUND('',#200,.T.);
#149=FACE_OUTER_BOUND('',#201,.T.);
#150=FACE_OUTER_BOUND('',#202,.T.);
#151=FACE_OUTER_BOUND('',#203,.T.);
#152=FACE_OUTER_BOUND('',#204,.T.);
#153=FACE_OUTER_BOUND('',#206,.T.);
#154=FACE_OUTER_BOUND('',#207,.T.);
#155=FACE_OUTER_BOUND('',#209,.T.);
#156=FACE_OUTER_BOUND('',#210,.T.);
#157=FACE_OUTER_BOUND('',#211,.T.);
#158=FACE_OUTER_BOUND('',#216,.T.);
#159=FACE_OUTER_BOUND('',#217,.T.);
#160=FACE_OUTER_BOUND('',#218,.T.);
#161=FACE_OUTER_BOUND('',#223,.T.);
#162=FACE_OUTER_BOUND('',#224,.T.);
#163=FACE_OUTER_BOUND('',#229,.T.);
#164=FACE_OUTER_BOUND('',#234,.T.);
#165=FACE_OUTER_BOUND('',#235,.T.);
#166=FACE_OUTER_BOUND('',#236,.T.);
#167=FACE_OUTER_BOUND('',#237,.T.);
#168=FACE_OUTER_BOUND('',#238,.T.);
#169=FACE_OUTER_BOUND('',#243,.T.);
#170=FACE_OUTER_BOUND('',#244,.T.);
#171=EDGE_LOOP('',(#673,#674,#675,#676));
#172=EDGE_LOOP('',(#677,#678,#679,#680));
#173=EDGE_LOOP('',(#681,#682,#683,#684));
#174=EDGE_LOOP('',(#685,#686,#687,#688));
#175=EDGE_LOOP('',(#689,#690,#691,#692));
#176=EDGE_LOOP('',(#693,#694,#695,#696));
#177=EDGE_LOOP('',(#697,#698,#699,#700));
#178=EDGE_LOOP('',(#701,#702,#703,#704));
#179=EDGE_LOOP('',(#705,#706,#707,#708));
#180=EDGE_LOOP('',(#709,#710,#711,#712));
#181=EDGE_LOOP('',(#713,#714,#715,#716));
#182=EDGE_LOOP('',(#717,#718,#719,#720));
#183=EDGE_LOOP('',(#721,#722,#723,#724));
#184=EDGE_LOOP('',(#725,#726,#727,#728));
#185=EDGE_LOOP('',(#729,#730,#731,#732));
#186=EDGE_LOOP('',(#733,#734,#735,#736));
#187=EDGE_LOOP('',(#737,#738,#739,#740));
#188=EDGE_LOOP('',(#741,#742,#743,#744));
#189=EDGE_LOOP('',(#745,#746,#747,#748));
#190=EDGE_LOOP('',(#749,#750,#751,#752));
#191=EDGE_LOOP('',(#753,#754,#755,#756));
#192=EDGE_LOOP('',(#757,#758,#759,#760));
#193=EDGE_LOOP('',(#761,#762,#763,#764));
#194=EDGE_LOOP('',(#765,#766,#767,#768));
#195=EDGE_LOOP('',(#769,#770,#771,#772));
#196=EDGE_LOOP('',(#773,#774,#775,#776));
#197=EDGE_LOOP('',(#777,#778,#779,#780));
#198=EDGE_LOOP('',(#781,#782,#783,#784));
#199=EDGE_LOOP('',(#785,#786,#787,#788));
#200=EDGE_LOOP('',(#789,#790,#791,#792));
#201=EDGE_LOOP('',(#793,#794,#795,#796));
#202=EDGE_LOOP('',(#797,#798,#799,#800));
#203=EDGE_LOOP('',(#801,#802,#803,#804));
#204=EDGE_LOOP('',(#805));
#205=EDGE_LOOP('',(#806));
#206=EDGE_LOOP('',(#807,#808,#809,#810));
#207=EDGE_LOOP('',(#811));
#208=EDGE_LOOP('',(#812));
#209=EDGE_LOOP('',(#813,#814,#815,#816));
#210=EDGE_LOOP('',(#817,#818,#819,#820));
#211=EDGE_LOOP('',(#821,#822,#823,#824));
#212=EDGE_LOOP('',(#825));
#213=EDGE_LOOP('',(#826,#827,#828,#829));
#214=EDGE_LOOP('',(#830,#831,#832,#833));
#215=EDGE_LOOP('',(#834,#835,#836,#837,#838,#839,#840,#841));
#216=EDGE_LOOP('',(#842,#843,#844,#845));
#217=EDGE_LOOP('',(#846,#847,#848,#849,#850,#851,#852,#853));
#218=EDGE_LOOP('',(#854,#855,#856,#857));
#219=EDGE_LOOP('',(#858));
#220=EDGE_LOOP('',(#859,#860,#861,#862));
#221=EDGE_LOOP('',(#863,#864,#865,#866));
#222=EDGE_LOOP('',(#867,#868,#869,#870,#871,#872,#873,#874));
#223=EDGE_LOOP('',(#875,#876,#877,#878));
#224=EDGE_LOOP('',(#879,#880,#881,#882));
#225=EDGE_LOOP('',(#883));
#226=EDGE_LOOP('',(#884,#885,#886,#887));
#227=EDGE_LOOP('',(#888,#889,#890,#891));
#228=EDGE_LOOP('',(#892,#893,#894,#895,#896,#897,#898,#899));
#229=EDGE_LOOP('',(#900,#901,#902,#903));
#230=EDGE_LOOP('',(#904));
#231=EDGE_LOOP('',(#905));
#232=EDGE_LOOP('',(#906));
#233=EDGE_LOOP('',(#907));
#234=EDGE_LOOP('',(#908,#909,#910,#911));
#235=EDGE_LOOP('',(#912,#913,#914,#915));
#236=EDGE_LOOP('',(#916,#917,#918,#919));
#237=EDGE_LOOP('',(#920,#921,#922,#923));
#238=EDGE_LOOP('',(#924,#925,#926,#927));
#239=EDGE_LOOP('',(#928));
#240=EDGE_LOOP('',(#929,#930,#931,#932));
#241=EDGE_LOOP('',(#933,#934,#935,#936));
#242=EDGE_LOOP('',(#937,#938,#939,#940,#941,#942,#943,#944));
#243=EDGE_LOOP('',(#945,#946,#947,#948,#949,#950,#951,#952));
#244=EDGE_LOOP('',(#953,#954,#955,#956));
#245=EDGE_LOOP('',(#957));
#246=EDGE_LOOP('',(#958));
#247=EDGE_LOOP('',(#959));
#248=EDGE_LOOP('',(#960));
#249=LINE('',#1463,#341);
#250=LINE('',#1465,#342);
#251=LINE('',#1467,#343);
#252=LINE('',#1468,#344);
#253=LINE('',#1472,#345);
#254=LINE('',#1474,#346);
#255=LINE('',#1476,#347);
#256=LINE('',#1477,#348);
#257=LINE('',#1483,#349);
#258=LINE('',#1489,#350);
#259=LINE('',#1494,#351);
#260=LINE('',#1498,#352);
#261=LINE('',#1500,#353);
#262=LINE('',#1501,#354);
#263=LINE('',#1504,#355);
#264=LINE('',#1506,#356);
#265=LINE('',#1507,#357);
#266=LINE('',#1510,#358);
#267=LINE('',#1512,#359);
#268=LINE('',#1513,#360);
#269=LINE('',#1519,#361);
#270=LINE('',#1525,#362);
#271=LINE('',#1530,#363);
#272=LINE('',#1533,#364);
#273=LINE('',#1534,#365);
#274=LINE('',#1537,#366);
#275=LINE('',#1539,#367);
#276=LINE('',#1540,#368);
#277=LINE('',#1546,#369);
#278=LINE('',#1549,#370);
#279=LINE('',#1551,#371);
#280=LINE('',#1552,#372);
#281=LINE('',#1559,#373);
#282=LINE('',#1561,#374);
#283=LINE('',#1563,#375);
#284=LINE('',#1564,#376);
#285=LINE('',#1568,#377);
#286=LINE('',#1570,#378);
#287=LINE('',#1572,#379);
#288=LINE('',#1573,#380);
#289=LINE('',#1579,#381);
#290=LINE('',#1585,#382);
#291=LINE('',#1590,#383);
#292=LINE('',#1593,#384);
#293=LINE('',#1594,#385);
#294=LINE('',#1597,#386);
#295=LINE('',#1599,#387);
#296=LINE('',#1600,#388);
#297=LINE('',#1607,#389);
#298=LINE('',#1609,#390);
#299=LINE('',#1611,#391);
#300=LINE('',#1612,#392);
#301=LINE('',#1616,#393);
#302=LINE('',#1618,#394);
#303=LINE('',#1620,#395);
#304=LINE('',#1621,#396);
#305=LINE('',#1627,#397);
#306=LINE('',#1633,#398);
#307=LINE('',#1638,#399);
#308=LINE('',#1641,#400);
#309=LINE('',#1642,#401);
#310=LINE('',#1645,#402);
#311=LINE('',#1647,#403);
#312=LINE('',#1648,#404);
#313=LINE('',#1656,#405);
#314=LINE('',#1665,#406);
#315=LINE('',#1673,#407);
#316=LINE('',#1676,#408);
#317=LINE('',#1683,#409);
#318=LINE('',#1685,#410);
#319=LINE('',#1686,#411);
#320=LINE('',#1691,#412);
#321=LINE('',#1692,#413);
#322=LINE('',#1695,#414);
#323=LINE('',#1697,#415);
#324=LINE('',#1699,#416);
#325=LINE('',#1701,#417);
#326=LINE('',#1703,#418);
#327=LINE('',#1704,#419);
#328=LINE('',#1709,#420);
#329=LINE('',#1710,#421);
#330=LINE('',#1713,#422);
#331=LINE('',#1717,#423);
#332=LINE('',#1718,#424);
#333=LINE('',#1720,#425);
#334=LINE('',#1731,#426);
#335=LINE('',#1735,#427);
#336=LINE('',#1739,#428);
#337=LINE('',#1743,#429);
#338=LINE('',#1747,#430);
#339=LINE('',#1748,#431);
#340=LINE('',#1750,#432);
#341=VECTOR('',#1161,10.);
#342=VECTOR('',#1162,10.);
#343=VECTOR('',#1163,10.);
#344=VECTOR('',#1164,10.);
#345=VECTOR('',#1167,10.);
#346=VECTOR('',#1168,10.);
#347=VECTOR('',#1169,10.);
#348=VECTOR('',#1170,10.);
#349=VECTOR('',#1177,10.);
#350=VECTOR('',#1184,10.);
#351=VECTOR('',#1189,10.);
#352=VECTOR('',#1194,10.);
#353=VECTOR('',#1195,10.);
#354=VECTOR('',#1196,10.);
#355=VECTOR('',#1199,10.);
#356=VECTOR('',#1200,10.);
#357=VECTOR('',#1201,10.);
#358=VECTOR('',#1204,10.);
#359=VECTOR('',#1205,10.);
#360=VECTOR('',#1206,10.);
#361=VECTOR('',#1213,10.);
#362=VECTOR('',#1220,10.);
#363=VECTOR('',#1225,10.);
#364=VECTOR('',#1230,10.);
#365=VECTOR('',#1231,10.);
#366=VECTOR('',#1234,10.);
#367=VECTOR('',#1235,10.);
#368=VECTOR('',#1236,10.);
#369=VECTOR('',#1243,10.);
#370=VECTOR('',#1246,10.);
#371=VECTOR('',#1247,10.);
#372=VECTOR('',#1248,10.);
#373=VECTOR('',#1257,10.);
#374=VECTOR('',#1258,10.);
#375=VECTOR('',#1259,10.);
#376=VECTOR('',#1260,10.);
#377=VECTOR('',#1263,10.);
#378=VECTOR('',#1264,10.);
#379=VECTOR('',#1265,10.);
#380=VECTOR('',#1266,10.);
#381=VECTOR('',#1273,10.);
#382=VECTOR('',#1280,10.);
#383=VECTOR('',#1285,10.);
#384=VECTOR('',#1290,10.);
#385=VECTOR('',#1291,10.);
#386=VECTOR('',#1294,10.);
#387=VECTOR('',#1295,10.);
#388=VECTOR('',#1296,10.);
#389=VECTOR('',#1305,10.);
#390=VECTOR('',#1306,10.);
#391=VECTOR('',#1307,10.);
#392=VECTOR('',#1308,10.);
#393=VECTOR('',#1311,10.);
#394=VECTOR('',#1312,10.);
#395=VECTOR('',#1313,10.);
#396=VECTOR('',#1314,10.);
#397=VECTOR('',#1321,10.);
#398=VECTOR('',#1328,10.);
#399=VECTOR('',#1333,10.);
#400=VECTOR('',#1338,10.);
#401=VECTOR('',#1339,10.);
#402=VECTOR('',#1342,10.);
#403=VECTOR('',#1343,10.);
#404=VECTOR('',#1344,10.);
#405=VECTOR('',#1355,41.5);
#406=VECTOR('',#1366,41.5);
#407=VECTOR('',#1377,34.);
#408=VECTOR('',#1380,34.);
#409=VECTOR('',#1387,10.);
#410=VECTOR('',#1388,10.);
#411=VECTOR('',#1389,10.);
#412=VECTOR('',#1394,10.);
#413=VECTOR('',#1395,10.);
#414=VECTOR('',#1398,10.);
#415=VECTOR('',#1399,10.);
#416=VECTOR('',#1400,10.);
#417=VECTOR('',#1401,10.);
#418=VECTOR('',#1402,10.);
#419=VECTOR('',#1403,10.);
#420=VECTOR('',#1408,10.);
#421=VECTOR('',#1409,10.);
#422=VECTOR('',#1412,10.);
#423=VECTOR('',#1417,10.);
#424=VECTOR('',#1418,10.);
#425=VECTOR('',#1421,10.);
#426=VECTOR('',#1432,2.12499999999999);
#427=VECTOR('',#1437,2.12499999999999);
#428=VECTOR('',#1442,2.12499999999999);
#429=VECTOR('',#1447,2.12499999999999);
#430=VECTOR('',#1452,10.);
#431=VECTOR('',#1453,10.);
#432=VECTOR('',#1456,10.);
#433=VERTEX_POINT('',#1461);
#434=VERTEX_POINT('',#1462);
#435=VERTEX_POINT('',#1464);
#436=VERTEX_POINT('',#1466);
#437=VERTEX_POINT('',#1470);
#438=VERTEX_POINT('',#1471);
#439=VERTEX_POINT('',#1473);
#440=VERTEX_POINT('',#1475);
#441=VERTEX_POINT('',#1479);
#442=VERTEX_POINT('',#1481);
#443=VERTEX_POINT('',#1485);
#444=VERTEX_POINT('',#1487);
#445=VERTEX_POINT('',#1491);
#446=VERTEX_POINT('',#1493);
#447=VERTEX_POINT('',#1497);
#448=VERTEX_POINT('',#1499);
#449=VERTEX_POINT('',#1503);
#450=VERTEX_POINT('',#1505);
#451=VERTEX_POINT('',#1509);
#452=VERTEX_POINT('',#1511);
#453=VERTEX_POINT('',#1515);
#454=VERTEX_POINT('',#1517);
#455=VERTEX_POINT('',#1521);
#456=VERTEX_POINT('',#1523);
#457=VERTEX_POINT('',#1527);
#458=VERTEX_POINT('',#1529);
#459=VERTEX_POINT('',#1536);
#460=VERTEX_POINT('',#1538);
#461=VERTEX_POINT('',#1542);
#462=VERTEX_POINT('',#1544);
#463=VERTEX_POINT('',#1548);
#464=VERTEX_POINT('',#1550);
#465=VERTEX_POINT('',#1557);
#466=VERTEX_POINT('',#1558);
#467=VERTEX_POINT('',#1560);
#468=VERTEX_POINT('',#1562);
#469=VERTEX_POINT('',#1566);
#470=VERTEX_POINT('',#1567);
#471=VERTEX_POINT('',#1569);
#472=VERTEX_POINT('',#1571);
#473=VERTEX_POINT('',#1575);
#474=VERTEX_POINT('',#1577);
#475=VERTEX_POINT('',#1581);
#476=VERTEX_POINT('',#1583);
#477=VERTEX_POINT('',#1587);
#478=VERTEX_POINT('',#1589);
#479=VERTEX_POINT('',#1596);
#480=VERTEX_POINT('',#1598);
#481=VERTEX_POINT('',#1605);
#482=VERTEX_POINT('',#1606);
#483=VERTEX_POINT('',#1608);
#484=VERTEX_POINT('',#1610);
#485=VERTEX_POINT('',#1614);
#486=VERTEX_POINT('',#1615);
#487=VERTEX_POINT('',#1617);
#488=VERTEX_POINT('',#1619);
#489=VERTEX_POINT('',#1623);
#490=VERTEX_POINT('',#1625);
#491=VERTEX_POINT('',#1629);
#492=VERTEX_POINT('',#1631);
#493=VERTEX_POINT('',#1635);
#494=VERTEX_POINT('',#1637);
#495=VERTEX_POINT('',#1644);
#496=VERTEX_POINT('',#1646);
#497=VERTEX_POINT('',#1653);
#498=VERTEX_POINT('',#1655);
#499=VERTEX_POINT('',#1659);
#500=VERTEX_POINT('',#1662);
#501=VERTEX_POINT('',#1664);
#502=VERTEX_POINT('',#1668);
#503=VERTEX_POINT('',#1671);
#504=VERTEX_POINT('',#1675);
#505=VERTEX_POINT('',#1679);
#506=VERTEX_POINT('',#1680);
#507=VERTEX_POINT('',#1682);
#508=VERTEX_POINT('',#1684);
#509=VERTEX_POINT('',#1688);
#510=VERTEX_POINT('',#1689);
#511=VERTEX_POINT('',#1694);
#512=VERTEX_POINT('',#1696);
#513=VERTEX_POINT('',#1698);
#514=VERTEX_POINT('',#1700);
#515=VERTEX_POINT('',#1702);
#516=VERTEX_POINT('',#1706);
#517=VERTEX_POINT('',#1708);
#518=VERTEX_POINT('',#1712);
#519=VERTEX_POINT('',#1716);
#520=VERTEX_POINT('',#1721);
#521=VERTEX_POINT('',#1723);
#522=VERTEX_POINT('',#1725);
#523=VERTEX_POINT('',#1727);
#524=VERTEX_POINT('',#1730);
#525=VERTEX_POINT('',#1734);
#526=VERTEX_POINT('',#1738);
#527=VERTEX_POINT('',#1742);
#528=VERTEX_POINT('',#1746);
#529=EDGE_CURVE('',#433,#434,#249,.T.);
#530=EDGE_CURVE('',#433,#435,#250,.T.);
#531=EDGE_CURVE('',#436,#435,#251,.T.);
#532=EDGE_CURVE('',#434,#436,#252,.T.);
#533=EDGE_CURVE('',#437,#438,#253,.T.);
#534=EDGE_CURVE('',#437,#439,#254,.T.);
#535=EDGE_CURVE('',#440,#439,#255,.T.);
#536=EDGE_CURVE('',#438,#440,#256,.T.);
#537=EDGE_CURVE('',#434,#441,#41,.T.);
#538=EDGE_CURVE('',#442,#436,#42,.T.);
#539=EDGE_CURVE('',#441,#442,#257,.T.);
#540=EDGE_CURVE('',#438,#443,#43,.T.);
#541=EDGE_CURVE('',#444,#440,#44,.T.);
#542=EDGE_CURVE('',#443,#444,#258,.T.);
#543=EDGE_CURVE('',#445,#433,#45,.T.);
#544=EDGE_CURVE('',#445,#446,#259,.T.);
#545=EDGE_CURVE('',#435,#446,#46,.T.);
#546=EDGE_CURVE('',#441,#447,#260,.T.);
#547=EDGE_CURVE('',#448,#442,#261,.T.);
#548=EDGE_CURVE('',#448,#447,#262,.T.);
#549=EDGE_CURVE('',#443,#449,#263,.T.);
#550=EDGE_CURVE('',#450,#444,#264,.T.);
#551=EDGE_CURVE('',#450,#449,#265,.T.);
#552=EDGE_CURVE('',#451,#445,#266,.T.);
#553=EDGE_CURVE('',#451,#452,#267,.T.);
#554=EDGE_CURVE('',#446,#452,#268,.T.);
#555=EDGE_CURVE('',#447,#453,#47,.T.);
#556=EDGE_CURVE('',#454,#448,#48,.T.);
#557=EDGE_CURVE('',#453,#454,#269,.T.);
#558=EDGE_CURVE('',#449,#455,#49,.T.);
#559=EDGE_CURVE('',#456,#450,#50,.T.);
#560=EDGE_CURVE('',#455,#456,#270,.T.);
#561=EDGE_CURVE('',#457,#451,#51,.T.);
#562=EDGE_CURVE('',#457,#458,#271,.T.);
#563=EDGE_CURVE('',#452,#458,#52,.T.);
#564=EDGE_CURVE('',#453,#457,#272,.T.);
#565=EDGE_CURVE('',#458,#454,#273,.T.);
#566=EDGE_CURVE('',#455,#459,#274,.T.);
#567=EDGE_CURVE('',#460,#456,#275,.T.);
#568=EDGE_CURVE('',#459,#460,#276,.T.);
#569=EDGE_CURVE('',#459,#461,#53,.T.);
#570=EDGE_CURVE('',#462,#460,#54,.T.);
#571=EDGE_CURVE('',#461,#462,#277,.T.);
#572=EDGE_CURVE('',#461,#463,#278,.T.);
#573=EDGE_CURVE('',#464,#462,#279,.T.);
#574=EDGE_CURVE('',#463,#464,#280,.T.);
#575=EDGE_CURVE('',#463,#437,#55,.T.);
#576=EDGE_CURVE('',#439,#464,#56,.T.);
#577=EDGE_CURVE('',#465,#466,#281,.T.);
#578=EDGE_CURVE('',#465,#467,#282,.T.);
#579=EDGE_CURVE('',#468,#467,#283,.T.);
#580=EDGE_CURVE('',#468,#466,#284,.T.);
#581=EDGE_CURVE('',#469,#470,#285,.T.);
#582=EDGE_CURVE('',#469,#471,#286,.T.);
#583=EDGE_CURVE('',#472,#471,#287,.T.);
#584=EDGE_CURVE('',#472,#470,#288,.T.);
#585=EDGE_CURVE('',#466,#473,#57,.T.);
#586=EDGE_CURVE('',#474,#468,#58,.T.);
#587=EDGE_CURVE('',#473,#474,#289,.T.);
#588=EDGE_CURVE('',#470,#475,#59,.T.);
#589=EDGE_CURVE('',#476,#472,#60,.T.);
#590=EDGE_CURVE('',#475,#476,#290,.T.);
#591=EDGE_CURVE('',#477,#465,#61,.T.);
#592=EDGE_CURVE('',#477,#478,#291,.T.);
#593=EDGE_CURVE('',#467,#478,#62,.T.);
#594=EDGE_CURVE('',#473,#477,#292,.T.);
#595=EDGE_CURVE('',#478,#474,#293,.T.);
#596=EDGE_CURVE('',#475,#479,#294,.T.);
#597=EDGE_CURVE('',#480,#476,#295,.T.);
#598=EDGE_CURVE('',#479,#480,#296,.T.);
#599=EDGE_CURVE('',#479,#469,#63,.T.);
#600=EDGE_CURVE('',#471,#480,#64,.T.);
#601=EDGE_CURVE('',#481,#482,#297,.T.);
#602=EDGE_CURVE('',#481,#483,#298,.T.);
#603=EDGE_CURVE('',#484,#483,#299,.T.);
#604=EDGE_CURVE('',#484,#482,#300,.T.);
#605=EDGE_CURVE('',#485,#486,#301,.T.);
#606=EDGE_CURVE('',#485,#487,#302,.T.);
#607=EDGE_CURVE('',#488,#487,#303,.T.);
#608=EDGE_CURVE('',#488,#486,#304,.T.);
#609=EDGE_CURVE('',#482,#489,#65,.T.);
#610=EDGE_CURVE('',#490,#484,#66,.T.);
#611=EDGE_CURVE('',#489,#490,#305,.T.);
#612=EDGE_CURVE('',#486,#491,#67,.T.);
#613=EDGE_CURVE('',#492,#488,#68,.T.);
#614=EDGE_CURVE('',#491,#492,#306,.T.);
#615=EDGE_CURVE('',#493,#481,#69,.T.);
#616=EDGE_CURVE('',#493,#494,#307,.T.);
#617=EDGE_CURVE('',#483,#494,#70,.T.);
#618=EDGE_CURVE('',#489,#493,#308,.T.);
#619=EDGE_CURVE('',#494,#490,#309,.T.);
#620=EDGE_CURVE('',#491,#495,#310,.T.);
#621=EDGE_CURVE('',#496,#492,#311,.T.);
#622=EDGE_CURVE('',#495,#496,#312,.T.);
#623=EDGE_CURVE('',#495,#485,#71,.T.);
#624=EDGE_CURVE('',#487,#496,#72,.T.);
#625=EDGE_CURVE('',#497,#497,#73,.T.);
#626=EDGE_CURVE('',#497,#498,#313,.T.);
#627=EDGE_CURVE('',#498,#498,#74,.T.);
#628=EDGE_CURVE('',#499,#499,#75,.T.);
#629=EDGE_CURVE('',#500,#500,#76,.T.);
#630=EDGE_CURVE('',#500,#501,#314,.T.);
#631=EDGE_CURVE('',#501,#501,#77,.T.);
#632=EDGE_CURVE('',#502,#502,#78,.T.);
#633=EDGE_CURVE('',#503,#503,#79,.T.);
#634=EDGE_CURVE('',#503,#502,#315,.T.);
#635=EDGE_CURVE('',#499,#504,#316,.T.);
#636=EDGE_CURVE('',#504,#504,#80,.T.);
#637=EDGE_CURVE('',#505,#506,#81,.T.);
#638=EDGE_CURVE('',#507,#505,#317,.T.);
#639=EDGE_CURVE('',#508,#507,#318,.T.);
#640=EDGE_CURVE('',#508,#506,#319,.T.);
#641=EDGE_CURVE('',#509,#510,#82,.T.);
#642=EDGE_CURVE('',#510,#505,#320,.T.);
#643=EDGE_CURVE('',#506,#509,#321,.T.);
#644=EDGE_CURVE('',#511,#510,#322,.T.);
#645=EDGE_CURVE('',#511,#512,#323,.T.);
#646=EDGE_CURVE('',#512,#513,#324,.T.);
#647=EDGE_CURVE('',#514,#513,#325,.T.);
#648=EDGE_CURVE('',#515,#514,#326,.T.);
#649=EDGE_CURVE('',#507,#515,#327,.T.);
#650=EDGE_CURVE('',#513,#516,#83,.T.);
#651=EDGE_CURVE('',#512,#517,#328,.T.);
#652=EDGE_CURVE('',#517,#516,#329,.T.);
#653=EDGE_CURVE('',#516,#518,#330,.T.);
#654=EDGE_CURVE('',#518,#514,#84,.T.);
#655=EDGE_CURVE('',#519,#518,#331,.T.);
#656=EDGE_CURVE('',#515,#519,#332,.T.);
#657=EDGE_CURVE('',#519,#508,#333,.T.);
#658=EDGE_CURVE('',#520,#520,#85,.T.);
#659=EDGE_CURVE('',#521,#521,#86,.T.);
#660=EDGE_CURVE('',#522,#522,#87,.T.);
#661=EDGE_CURVE('',#523,#523,#88,.T.);
#662=EDGE_CURVE('',#520,#524,#334,.T.);
#663=EDGE_CURVE('',#524,#524,#89,.T.);
#664=EDGE_CURVE('',#521,#525,#335,.T.);
#665=EDGE_CURVE('',#525,#525,#90,.T.);
#666=EDGE_CURVE('',#522,#526,#336,.T.);
#667=EDGE_CURVE('',#526,#526,#91,.T.);
#668=EDGE_CURVE('',#523,#527,#337,.T.);
#669=EDGE_CURVE('',#527,#527,#92,.T.);
#670=EDGE_CURVE('',#528,#509,#338,.T.);
#671=EDGE_CURVE('',#528,#511,#339,.T.);
#672=EDGE_CURVE('',#517,#528,#340,.T.);
#673=ORIENTED_EDGE('',*,*,#529,.F.);
#674=ORIENTED_EDGE('',*,*,#530,.T.);
#675=ORIENTED_EDGE('',*,*,#531,.F.);
#676=ORIENTED_EDGE('',*,*,#532,.F.);
#677=ORIENTED_EDGE('',*,*,#533,.F.);
#678=ORIENTED_EDGE('',*,*,#534,.T.);
#679=ORIENTED_EDGE('',*,*,#535,.F.);
#680=ORIENTED_EDGE('',*,*,#536,.F.);
#681=ORIENTED_EDGE('',*,*,#537,.F.);
#682=ORIENTED_EDGE('',*,*,#532,.T.);
#683=ORIENTED_EDGE('',*,*,#538,.F.);
#684=ORIENTED_EDGE('',*,*,#539,.F.);
#685=ORIENTED_EDGE('',*,*,#540,.F.);
#686=ORIENTED_EDGE('',*,*,#536,.T.);
#687=ORIENTED_EDGE('',*,*,#541,.F.);
#688=ORIENTED_EDGE('',*,*,#542,.F.);
#689=ORIENTED_EDGE('',*,*,#543,.F.);
#690=ORIENTED_EDGE('',*,*,#544,.T.);
#691=ORIENTED_EDGE('',*,*,#545,.F.);
#692=ORIENTED_EDGE('',*,*,#530,.F.);
#693=ORIENTED_EDGE('',*,*,#546,.F.);
#694=ORIENTED_EDGE('',*,*,#539,.T.);
#695=ORIENTED_EDGE('',*,*,#547,.F.);
#696=ORIENTED_EDGE('',*,*,#548,.T.);
#697=ORIENTED_EDGE('',*,*,#549,.F.);
#698=ORIENTED_EDGE('',*,*,#542,.T.);
#699=ORIENTED_EDGE('',*,*,#550,.F.);
#700=ORIENTED_EDGE('',*,*,#551,.T.);
#701=ORIENTED_EDGE('',*,*,#552,.F.);
#702=ORIENTED_EDGE('',*,*,#553,.T.);
#703=ORIENTED_EDGE('',*,*,#554,.F.);
#704=ORIENTED_EDGE('',*,*,#544,.F.);
#705=ORIENTED_EDGE('',*,*,#555,.F.);
#706=ORIENTED_EDGE('',*,*,#548,.F.);
#707=ORIENTED_EDGE('',*,*,#556,.F.);
#708=ORIENTED_EDGE('',*,*,#557,.F.);
#709=ORIENTED_EDGE('',*,*,#558,.F.);
#710=ORIENTED_EDGE('',*,*,#551,.F.);
#711=ORIENTED_EDGE('',*,*,#559,.F.);
#712=ORIENTED_EDGE('',*,*,#560,.F.);
#713=ORIENTED_EDGE('',*,*,#561,.F.);
#714=ORIENTED_EDGE('',*,*,#562,.T.);
#715=ORIENTED_EDGE('',*,*,#563,.F.);
#716=ORIENTED_EDGE('',*,*,#553,.F.);
#717=ORIENTED_EDGE('',*,*,#564,.F.);
#718=ORIENTED_EDGE('',*,*,#557,.T.);
#719=ORIENTED_EDGE('',*,*,#565,.F.);
#720=ORIENTED_EDGE('',*,*,#562,.F.);
#721=ORIENTED_EDGE('',*,*,#566,.F.);
#722=ORIENTED_EDGE('',*,*,#560,.T.);
#723=ORIENTED_EDGE('',*,*,#567,.F.);
#724=ORIENTED_EDGE('',*,*,#568,.F.);
#725=ORIENTED_EDGE('',*,*,#569,.F.);
#726=ORIENTED_EDGE('',*,*,#568,.T.);
#727=ORIENTED_EDGE('',*,*,#570,.F.);
#728=ORIENTED_EDGE('',*,*,#571,.F.);
#729=ORIENTED_EDGE('',*,*,#572,.F.);
#730=ORIENTED_EDGE('',*,*,#571,.T.);
#731=ORIENTED_EDGE('',*,*,#573,.F.);
#732=ORIENTED_EDGE('',*,*,#574,.F.);
#733=ORIENTED_EDGE('',*,*,#575,.F.);
#734=ORIENTED_EDGE('',*,*,#574,.T.);
#735=ORIENTED_EDGE('',*,*,#576,.F.);
#736=ORIENTED_EDGE('',*,*,#534,.F.);
#737=ORIENTED_EDGE('',*,*,#577,.F.);
#738=ORIENTED_EDGE('',*,*,#578,.T.);
#739=ORIENTED_EDGE('',*,*,#579,.F.);
#740=ORIENTED_EDGE('',*,*,#580,.T.);
#741=ORIENTED_EDGE('',*,*,#581,.F.);
#742=ORIENTED_EDGE('',*,*,#582,.T.);
#743=ORIENTED_EDGE('',*,*,#583,.F.);
#744=ORIENTED_EDGE('',*,*,#584,.T.);
#745=ORIENTED_EDGE('',*,*,#585,.F.);
#746=ORIENTED_EDGE('',*,*,#580,.F.);
#747=ORIENTED_EDGE('',*,*,#586,.F.);
#748=ORIENTED_EDGE('',*,*,#587,.F.);
#749=ORIENTED_EDGE('',*,*,#588,.F.);
#750=ORIENTED_EDGE('',*,*,#584,.F.);
#751=ORIENTED_EDGE('',*,*,#589,.F.);
#752=ORIENTED_EDGE('',*,*,#590,.F.);
#753=ORIENTED_EDGE('',*,*,#591,.F.);
#754=ORIENTED_EDGE('',*,*,#592,.T.);
#755=ORIENTED_EDGE('',*,*,#593,.F.);
#756=ORIENTED_EDGE('',*,*,#578,.F.);
#757=ORIENTED_EDGE('',*,*,#594,.F.);
#758=ORIENTED_EDGE('',*,*,#587,.T.);
#759=ORIENTED_EDGE('',*,*,#595,.F.);
#760=ORIENTED_EDGE('',*,*,#592,.F.);
#761=ORIENTED_EDGE('',*,*,#596,.F.);
#762=ORIENTED_EDGE('',*,*,#590,.T.);
#763=ORIENTED_EDGE('',*,*,#597,.F.);
#764=ORIENTED_EDGE('',*,*,#598,.F.);
#765=ORIENTED_EDGE('',*,*,#599,.F.);
#766=ORIENTED_EDGE('',*,*,#598,.T.);
#767=ORIENTED_EDGE('',*,*,#600,.F.);
#768=ORIENTED_EDGE('',*,*,#582,.F.);
#769=ORIENTED_EDGE('',*,*,#601,.F.);
#770=ORIENTED_EDGE('',*,*,#602,.T.);
#771=ORIENTED_EDGE('',*,*,#603,.F.);
#772=ORIENTED_EDGE('',*,*,#604,.T.);
#773=ORIENTED_EDGE('',*,*,#605,.F.);
#774=ORIENTED_EDGE('',*,*,#606,.T.);
#775=ORIENTED_EDGE('',*,*,#607,.F.);
#776=ORIENTED_EDGE('',*,*,#608,.T.);
#777=ORIENTED_EDGE('',*,*,#609,.F.);
#778=ORIENTED_EDGE('',*,*,#604,.F.);
#779=ORIENTED_EDGE('',*,*,#610,.F.);
#780=ORIENTED_EDGE('',*,*,#611,.F.);
#781=ORIENTED_EDGE('',*,*,#612,.F.);
#782=ORIENTED_EDGE('',*,*,#608,.F.);
#783=ORIENTED_EDGE('',*,*,#613,.F.);
#784=ORIENTED_EDGE('',*,*,#614,.F.);
#785=ORIENTED_EDGE('',*,*,#615,.F.);
#786=ORIENTED_EDGE('',*,*,#616,.T.);
#787=ORIENTED_EDGE('',*,*,#617,.F.);
#788=ORIENTED_EDGE('',*,*,#602,.F.);
#789=ORIENTED_EDGE('',*,*,#618,.F.);
#790=ORIENTED_EDGE('',*,*,#611,.T.);
#791=ORIENTED_EDGE('',*,*,#619,.F.);
#792=ORIENTED_EDGE('',*,*,#616,.F.);
#793=ORIENTED_EDGE('',*,*,#620,.F.);
#794=ORIENTED_EDGE('',*,*,#614,.T.);
#795=ORIENTED_EDGE('',*,*,#621,.F.);
#796=ORIENTED_EDGE('',*,*,#622,.F.);
#797=ORIENTED_EDGE('',*,*,#623,.F.);
#798=ORIENTED_EDGE('',*,*,#622,.T.);
#799=ORIENTED_EDGE('',*,*,#624,.F.);
#800=ORIENTED_EDGE('',*,*,#606,.F.);
#801=ORIENTED_EDGE('',*,*,#625,.F.);
#802=ORIENTED_EDGE('',*,*,#626,.T.);
#803=ORIENTED_EDGE('',*,*,#627,.F.);
#804=ORIENTED_EDGE('',*,*,#626,.F.);
#805=ORIENTED_EDGE('',*,*,#625,.T.);
#806=ORIENTED_EDGE('',*,*,#628,.T.);
#807=ORIENTED_EDGE('',*,*,#629,.F.);
#808=ORIENTED_EDGE('',*,*,#630,.T.);
#809=ORIENTED_EDGE('',*,*,#631,.F.);
#810=ORIENTED_EDGE('',*,*,#630,.F.);
#811=ORIENTED_EDGE('',*,*,#629,.T.);
#812=ORIENTED_EDGE('',*,*,#632,.T.);
#813=ORIENTED_EDGE('',*,*,#633,.F.);
#814=ORIENTED_EDGE('',*,*,#634,.T.);
#815=ORIENTED_EDGE('',*,*,#632,.F.);
#816=ORIENTED_EDGE('',*,*,#634,.F.);
#817=ORIENTED_EDGE('',*,*,#628,.F.);
#818=ORIENTED_EDGE('',*,*,#635,.T.);
#819=ORIENTED_EDGE('',*,*,#636,.F.);
#820=ORIENTED_EDGE('',*,*,#635,.F.);
#821=ORIENTED_EDGE('',*,*,#637,.F.);
#822=ORIENTED_EDGE('',*,*,#638,.F.);
#823=ORIENTED_EDGE('',*,*,#639,.F.);
#824=ORIENTED_EDGE('',*,*,#640,.T.);
#825=ORIENTED_EDGE('',*,*,#627,.T.);
#826=ORIENTED_EDGE('',*,*,#620,.T.);
#827=ORIENTED_EDGE('',*,*,#623,.T.);
#828=ORIENTED_EDGE('',*,*,#605,.T.);
#829=ORIENTED_EDGE('',*,*,#612,.T.);
#830=ORIENTED_EDGE('',*,*,#596,.T.);
#831=ORIENTED_EDGE('',*,*,#599,.T.);
#832=ORIENTED_EDGE('',*,*,#581,.T.);
#833=ORIENTED_EDGE('',*,*,#588,.T.);
#834=ORIENTED_EDGE('',*,*,#566,.T.);
#835=ORIENTED_EDGE('',*,*,#569,.T.);
#836=ORIENTED_EDGE('',*,*,#572,.T.);
#837=ORIENTED_EDGE('',*,*,#575,.T.);
#838=ORIENTED_EDGE('',*,*,#533,.T.);
#839=ORIENTED_EDGE('',*,*,#540,.T.);
#840=ORIENTED_EDGE('',*,*,#549,.T.);
#841=ORIENTED_EDGE('',*,*,#558,.T.);
#842=ORIENTED_EDGE('',*,*,#641,.T.);
#843=ORIENTED_EDGE('',*,*,#642,.T.);
#844=ORIENTED_EDGE('',*,*,#637,.T.);
#845=ORIENTED_EDGE('',*,*,#643,.T.);
#846=ORIENTED_EDGE('',*,*,#642,.F.);
#847=ORIENTED_EDGE('',*,*,#644,.F.);
#848=ORIENTED_EDGE('',*,*,#645,.T.);
#849=ORIENTED_EDGE('',*,*,#646,.T.);
#850=ORIENTED_EDGE('',*,*,#647,.F.);
#851=ORIENTED_EDGE('',*,*,#648,.F.);
#852=ORIENTED_EDGE('',*,*,#649,.F.);
#853=ORIENTED_EDGE('',*,*,#638,.T.);
#854=ORIENTED_EDGE('',*,*,#650,.F.);
#855=ORIENTED_EDGE('',*,*,#646,.F.);
#856=ORIENTED_EDGE('',*,*,#651,.T.);
#857=ORIENTED_EDGE('',*,*,#652,.T.);
#858=ORIENTED_EDGE('',*,*,#633,.T.);
#859=ORIENTED_EDGE('',*,*,#618,.T.);
#860=ORIENTED_EDGE('',*,*,#615,.T.);
#861=ORIENTED_EDGE('',*,*,#601,.T.);
#862=ORIENTED_EDGE('',*,*,#609,.T.);
#863=ORIENTED_EDGE('',*,*,#594,.T.);
#864=ORIENTED_EDGE('',*,*,#591,.T.);
#865=ORIENTED_EDGE('',*,*,#577,.T.);
#866=ORIENTED_EDGE('',*,*,#585,.T.);
#867=ORIENTED_EDGE('',*,*,#564,.T.);
#868=ORIENTED_EDGE('',*,*,#561,.T.);
#869=ORIENTED_EDGE('',*,*,#552,.T.);
#870=ORIENTED_EDGE('',*,*,#543,.T.);
#871=ORIENTED_EDGE('',*,*,#529,.T.);
#872=ORIENTED_EDGE('',*,*,#537,.T.);
#873=ORIENTED_EDGE('',*,*,#546,.T.);
#874=ORIENTED_EDGE('',*,*,#555,.T.);
#875=ORIENTED_EDGE('',*,*,#650,.T.);
#876=ORIENTED_EDGE('',*,*,#653,.T.);
#877=ORIENTED_EDGE('',*,*,#654,.T.);
#878=ORIENTED_EDGE('',*,*,#647,.T.);
#879=ORIENTED_EDGE('',*,*,#654,.F.);
#880=ORIENTED_EDGE('',*,*,#655,.F.);
#881=ORIENTED_EDGE('',*,*,#656,.F.);
#882=ORIENTED_EDGE('',*,*,#648,.T.);
#883=ORIENTED_EDGE('',*,*,#631,.T.);
#884=ORIENTED_EDGE('',*,*,#619,.T.);
#885=ORIENTED_EDGE('',*,*,#610,.T.);
#886=ORIENTED_EDGE('',*,*,#603,.T.);
#887=ORIENTED_EDGE('',*,*,#617,.T.);
#888=ORIENTED_EDGE('',*,*,#595,.T.);
#889=ORIENTED_EDGE('',*,*,#586,.T.);
#890=ORIENTED_EDGE('',*,*,#579,.T.);
#891=ORIENTED_EDGE('',*,*,#593,.T.);
#892=ORIENTED_EDGE('',*,*,#565,.T.);
#893=ORIENTED_EDGE('',*,*,#556,.T.);
#894=ORIENTED_EDGE('',*,*,#547,.T.);
#895=ORIENTED_EDGE('',*,*,#538,.T.);
#896=ORIENTED_EDGE('',*,*,#531,.T.);
#897=ORIENTED_EDGE('',*,*,#545,.T.);
#898=ORIENTED_EDGE('',*,*,#554,.T.);
#899=ORIENTED_EDGE('',*,*,#563,.T.);
#900=ORIENTED_EDGE('',*,*,#639,.T.);
#901=ORIENTED_EDGE('',*,*,#649,.T.);
#902=ORIENTED_EDGE('',*,*,#656,.T.);
#903=ORIENTED_EDGE('',*,*,#657,.T.);
#904=ORIENTED_EDGE('',*,*,#658,.T.);
#905=ORIENTED_EDGE('',*,*,#659,.T.);
#906=ORIENTED_EDGE('',*,*,#660,.T.);
#907=ORIENTED_EDGE('',*,*,#661,.T.);
#908=ORIENTED_EDGE('',*,*,#658,.F.);
#909=ORIENTED_EDGE('',*,*,#662,.T.);
#910=ORIENTED_EDGE('',*,*,#663,.T.);
#911=ORIENTED_EDGE('',*,*,#662,.F.);
#912=ORIENTED_EDGE('',*,*,#659,.F.);
#913=ORIENTED_EDGE('',*,*,#664,.T.);
#914=ORIENTED_EDGE('',*,*,#665,.T.);
#915=ORIENTED_EDGE('',*,*,#664,.F.);
#916=ORIENTED_EDGE('',*,*,#660,.F.);
#917=ORIENTED_EDGE('',*,*,#666,.T.);
#918=ORIENTED_EDGE('',*,*,#667,.T.);
#919=ORIENTED_EDGE('',*,*,#666,.F.);
#920=ORIENTED_EDGE('',*,*,#661,.F.);
#921=ORIENTED_EDGE('',*,*,#668,.T.);
#922=ORIENTED_EDGE('',*,*,#669,.T.);
#923=ORIENTED_EDGE('',*,*,#668,.F.);
#924=ORIENTED_EDGE('',*,*,#641,.F.);
#925=ORIENTED_EDGE('',*,*,#670,.F.);
#926=ORIENTED_EDGE('',*,*,#671,.T.);
#927=ORIENTED_EDGE('',*,*,#644,.T.);
#928=ORIENTED_EDGE('',*,*,#636,.T.);
#929=ORIENTED_EDGE('',*,*,#621,.T.);
#930=ORIENTED_EDGE('',*,*,#613,.T.);
#931=ORIENTED_EDGE('',*,*,#607,.T.);
#932=ORIENTED_EDGE('',*,*,#624,.T.);
#933=ORIENTED_EDGE('',*,*,#597,.T.);
#934=ORIENTED_EDGE('',*,*,#589,.T.);
#935=ORIENTED_EDGE('',*,*,#583,.T.);
#936=ORIENTED_EDGE('',*,*,#600,.T.);
#937=ORIENTED_EDGE('',*,*,#567,.T.);
#938=ORIENTED_EDGE('',*,*,#559,.T.);
#939=ORIENTED_EDGE('',*,*,#550,.T.);
#940=ORIENTED_EDGE('',*,*,#541,.T.);
#941=ORIENTED_EDGE('',*,*,#535,.T.);
#942=ORIENTED_EDGE('',*,*,#576,.T.);
#943=ORIENTED_EDGE('',*,*,#573,.T.);
#944=ORIENTED_EDGE('',*,*,#570,.T.);
#945=ORIENTED_EDGE('',*,*,#643,.F.);
#946=ORIENTED_EDGE('',*,*,#640,.F.);
#947=ORIENTED_EDGE('',*,*,#657,.F.);
#948=ORIENTED_EDGE('',*,*,#655,.T.);
#949=ORIENTED_EDGE('',*,*,#653,.F.);
#950=ORIENTED_EDGE('',*,*,#652,.F.);
#951=ORIENTED_EDGE('',*,*,#672,.T.);
#952=ORIENTED_EDGE('',*,*,#670,.T.);
#953=ORIENTED_EDGE('',*,*,#651,.F.);
#954=ORIENTED_EDGE('',*,*,#645,.F.);
#955=ORIENTED_EDGE('',*,*,#671,.F.);
#956=ORIENTED_EDGE('',*,*,#672,.F.);
#957=ORIENTED_EDGE('',*,*,#669,.F.);
#958=ORIENTED_EDGE('',*,*,#667,.F.);
#959=ORIENTED_EDGE('',*,*,#665,.F.);
#960=ORIENTED_EDGE('',*,*,#663,.F.);
#961=PLANE('',#1053);
#962=PLANE('',#1054);
#963=PLANE('',#1064);
#964=PLANE('',#1065);
#965=PLANE('',#1066);
#966=PLANE('',#1076);
#967=PLANE('',#1077);
#968=PLANE('',#1081);
#969=PLANE('',#1085);
#970=PLANE('',#1086);
#971=PLANE('',#1096);
#972=PLANE('',#1097);
#973=PLANE('',#1101);
#974=PLANE('',#1102);
#975=PLANE('',#1112);
#976=PLANE('',#1113);
#977=PLANE('',#1120);
#978=PLANE('',#1125);
#979=PLANE('',#1131);
#980=PLANE('',#1135);
#981=PLANE('',#1136);
#982=PLANE('',#1140);
#983=PLANE('',#1141);
#984=PLANE('',#1154);
#985=PLANE('',#1155);
#986=PLANE('',#1156);
#987=ADVANCED_FACE('',(#119),#961,.F.);
#988=ADVANCED_FACE('',(#120),#962,.F.);
#989=ADVANCED_FACE('',(#121),#93,.F.);
#990=ADVANCED_FACE('',(#122),#94,.F.);
#991=ADVANCED_FACE('',(#123),#95,.F.);
#992=ADVANCED_FACE('',(#124),#963,.F.);
#993=ADVANCED_FACE('',(#125),#964,.F.);
#994=ADVANCED_FACE('',(#126),#965,.F.);
#995=ADVANCED_FACE('',(#127),#96,.F.);
#996=ADVANCED_FACE('',(#128),#97,.F.);
#997=ADVANCED_FACE('',(#129),#98,.F.);
#998=ADVANCED_FACE('',(#130),#966,.F.);
#999=ADVANCED_FACE('',(#131),#967,.F.);
#1000=ADVANCED_FACE('',(#132),#99,.F.);
#1001=ADVANCED_FACE('',(#133),#968,.F.);
#1002=ADVANCED_FACE('',(#134),#100,.F.);
#1003=ADVANCED_FACE('',(#135),#969,.F.);
#1004=ADVANCED_FACE('',(#136),#970,.F.);
#1005=ADVANCED_FACE('',(#137),#101,.F.);
#1006=ADVANCED_FACE('',(#138),#102,.F.);
#1007=ADVANCED_FACE('',(#139),#103,.F.);
#1008=ADVANCED_FACE('',(#140),#971,.F.);
#1009=ADVANCED_FACE('',(#141),#972,.F.);
#1010=ADVANCED_FACE('',(#142),#104,.F.);
#1011=ADVANCED_FACE('',(#143),#973,.F.);
#1012=ADVANCED_FACE('',(#144),#974,.F.);
#1013=ADVANCED_FACE('',(#145),#105,.F.);
#1014=ADVANCED_FACE('',(#146),#106,.F.);
#1015=ADVANCED_FACE('',(#147),#107,.F.);
#1016=ADVANCED_FACE('',(#148),#975,.F.);
#1017=ADVANCED_FACE('',(#149),#976,.F.);
#1018=ADVANCED_FACE('',(#150),#108,.F.);
#1019=ADVANCED_FACE('',(#151),#109,.T.);
#1020=ADVANCED_FACE('',(#152,#15),#977,.T.);
#1021=ADVANCED_FACE('',(#153),#110,.T.);
#1022=ADVANCED_FACE('',(#154,#16),#978,.T.);
#1023=ADVANCED_FACE('',(#155),#111,.F.);
#1024=ADVANCED_FACE('',(#156),#112,.F.);
#1025=ADVANCED_FACE('',(#157,#17,#18,#19,#20),#979,.T.);
#1026=ADVANCED_FACE('',(#158),#113,.T.);
#1027=ADVANCED_FACE('',(#159),#980,.T.);
#1028=ADVANCED_FACE('',(#160,#21,#22,#23,#24),#981,.T.);
#1029=ADVANCED_FACE('',(#161),#114,.T.);
#1030=ADVANCED_FACE('',(#162,#25,#26,#27,#28),#982,.T.);
#1031=ADVANCED_FACE('',(#163,#29,#30,#31,#32),#983,.T.);
#1032=ADVANCED_FACE('',(#164),#115,.F.);
#1033=ADVANCED_FACE('',(#165),#116,.F.);
#1034=ADVANCED_FACE('',(#166),#117,.F.);
#1035=ADVANCED_FACE('',(#167),#118,.F.);
#1036=ADVANCED_FACE('',(#168,#33,#34,#35,#36),#984,.T.);
#1037=ADVANCED_FACE('',(#169),#985,.T.);
#1038=ADVANCED_FACE('',(#170,#37,#38,#39,#40),#986,.F.);
#1039=CLOSED_SHELL('',(#987,#988,#989,#990,#991,#992,#993,#994,#995,#996,
#997,#998,#999,#1000,#1001,#1002,#1003,#1004,#1005,#1006,#1007,#1008,#1009,
#1010,#1011,#1012,#1013,#1014,#1015,#1016,#1017,#1018,#1019,#1020,#1021,
#1022,#1023,#1024,#1025,#1026,#1027,#1028,#1029,#1030,#1031,#1032,#1033,
#1034,#1035,#1036,#1037,#1038));
#1040=DERIVED_UNIT_ELEMENT(#1042,1.);
#1041=DERIVED_UNIT_ELEMENT(#1757,-3.);
#1042=(
MASS_UNIT()
NAMED_UNIT(*)
SI_UNIT(.KILO.,.GRAM.)
);
#1043=DERIVED_UNIT((#1040,#1041));
#1044=MEASURE_REPRESENTATION_ITEM('density measure',
POSITIVE_RATIO_MEASURE(7850.),#1043);
#1045=PROPERTY_DEFINITION_REPRESENTATION(#1050,#1047);
#1046=PROPERTY_DEFINITION_REPRESENTATION(#1051,#1048);
#1047=REPRESENTATION('material name',(#1049),#1754);
#1048=REPRESENTATION('density',(#1044),#1754);
#1049=DESCRIPTIVE_REPRESENTATION_ITEM('Steel','Steel');
#1050=PROPERTY_DEFINITION('material property','material name',#1764);
#1051=PROPERTY_DEFINITION('material property','density of part',#1764);
#1052=AXIS2_PLACEMENT_3D('',#1459,#1157,#1158);
#1053=AXIS2_PLACEMENT_3D('',#1460,#1159,#1160);
#1054=AXIS2_PLACEMENT_3D('',#1469,#1165,#1166);
#1055=AXIS2_PLACEMENT_3D('',#1478,#1171,#1172);
#1056=AXIS2_PLACEMENT_3D('',#1480,#1173,#1174);
#1057=AXIS2_PLACEMENT_3D('',#1482,#1175,#1176);
#1058=AXIS2_PLACEMENT_3D('',#1484,#1178,#1179);
#1059=AXIS2_PLACEMENT_3D('',#1486,#1180,#1181);
#1060=AXIS2_PLACEMENT_3D('',#1488,#1182,#1183);
#1061=AXIS2_PLACEMENT_3D('',#1490,#1185,#1186);
#1062=AXIS2_PLACEMENT_3D('',#1492,#1187,#1188);
#1063=AXIS2_PLACEMENT_3D('',#1495,#1190,#1191);
#1064=AXIS2_PLACEMENT_3D('',#1496,#1192,#1193);
#1065=AXIS2_PLACEMENT_3D('',#1502,#1197,#1198);
#1066=AXIS2_PLACEMENT_3D('',#1508,#1202,#1203);
#1067=AXIS2_PLACEMENT_3D('',#1514,#1207,#1208);
#1068=AXIS2_PLACEMENT_3D('',#1516,#1209,#1210);
#1069=AXIS2_PLACEMENT_3D('',#1518,#1211,#1212);
#1070=AXIS2_PLACEMENT_3D('',#1520,#1214,#1215);
#1071=AXIS2_PLACEMENT_3D('',#1522,#1216,#1217);
#1072=AXIS2_PLACEMENT_3D('',#1524,#1218,#1219);
#1073=AXIS2_PLACEMENT_3D('',#1526,#1221,#1222);
#1074=AXIS2_PLACEMENT_3D('',#1528,#1223,#1224);
#1075=AXIS2_PLACEMENT_3D('',#1531,#1226,#1227);
#1076=AXIS2_PLACEMENT_3D('',#1532,#1228,#1229);
#1077=AXIS2_PLACEMENT_3D('',#1535,#1232,#1233);
#1078=AXIS2_PLACEMENT_3D('',#1541,#1237,#1238);
#1079=AXIS2_PLACEMENT_3D('',#1543,#1239,#1240);
#1080=AXIS2_PLACEMENT_3D('',#1545,#1241,#1242);
#1081=AXIS2_PLACEMENT_3D('',#1547,#1244,#1245);
#1082=AXIS2_PLACEMENT_3D('',#1553,#1249,#1250);
#1083=AXIS2_PLACEMENT_3D('',#1554,#1251,#1252);
#1084=AXIS2_PLACEMENT_3D('',#1555,#1253,#1254);
#1085=AXIS2_PLACEMENT_3D('',#1556,#1255,#1256);
#1086=AXIS2_PLACEMENT_3D('',#1565,#1261,#1262);
#1087=AXIS2_PLACEMENT_3D('',#1574,#1267,#1268);
#1088=AXIS2_PLACEMENT_3D('',#1576,#1269,#1270);
#1089=AXIS2_PLACEMENT_3D('',#1578,#1271,#1272);
#1090=AXIS2_PLACEMENT_3D('',#1580,#1274,#1275);
#1091=AXIS2_PLACEMENT_3D('',#1582,#1276,#1277);
#1092=AXIS2_PLACEMENT_3D('',#1584,#1278,#1279);
#1093=AXIS2_PLACEMENT_3D('',#1586,#1281,#1282);
#1094=AXIS2_PLACEMENT_3D('',#1588,#1283,#1284);
#1095=AXIS2_PLACEMENT_3D('',#1591,#1286,#1287);
#1096=AXIS2_PLACEMENT_3D('',#1592,#1288,#1289);
#1097=AXIS2_PLACEMENT_3D('',#1595,#1292,#1293);
#1098=AXIS2_PLACEMENT_3D('',#1601,#1297,#1298);
#1099=AXIS2_PLACEMENT_3D('',#1602,#1299,#1300);
#1100=AXIS2_PLACEMENT_3D('',#1603,#1301,#1302);
#1101=AXIS2_PLACEMENT_3D('',#1604,#1303,#1304);
#1102=AXIS2_PLACEMENT_3D('',#1613,#1309,#1310);
#1103=AXIS2_PLACEMENT_3D('',#1622,#1315,#1316);
#1104=AXIS2_PLACEMENT_3D('',#1624,#1317,#1318);
#1105=AXIS2_PLACEMENT_3D('',#1626,#1319,#1320);
#1106=AXIS2_PLACEMENT_3D('',#1628,#1322,#1323);
#1107=AXIS2_PLACEMENT_3D('',#1630,#1324,#1325);
#1108=AXIS2_PLACEMENT_3D('',#1632,#1326,#1327);
#1109=AXIS2_PLACEMENT_3D('',#1634,#1329,#1330);
#1110=AXIS2_PLACEMENT_3D('',#1636,#1331,#1332);
#1111=AXIS2_PLACEMENT_3D('',#1639,#1334,#1335);
#1112=AXIS2_PLACEMENT_3D('',#1640,#1336,#1337);
#1113=AXIS2_PLACEMENT_3D('',#1643,#1340,#1341);
#1114=AXIS2_PLACEMENT_3D('',#1649,#1345,#1346);
#1115=AXIS2_PLACEMENT_3D('',#1650,#1347,#1348);
#1116=AXIS2_PLACEMENT_3D('',#1651,#1349,#1350);
#1117=AXIS2_PLACEMENT_3D('',#1652,#1351,#1352);
#1118=AXIS2_PLACEMENT_3D('',#1654,#1353,#1354);
#1119=AXIS2_PLACEMENT_3D('',#1657,#1356,#1357);
#1120=AXIS2_PLACEMENT_3D('',#1658,#1358,#1359);
#1121=AXIS2_PLACEMENT_3D('',#1660,#1360,#1361);
#1122=AXIS2_PLACEMENT_3D('',#1661,#1362,#1363);
#1123=AXIS2_PLACEMENT_3D('',#1663,#1364,#1365);
#1124=AXIS2_PLACEMENT_3D('',#1666,#1367,#1368);
#1125=AXIS2_PLACEMENT_3D('',#1667,#1369,#1370);
#1126=AXIS2_PLACEMENT_3D('',#1669,#1371,#1372);
#1127=AXIS2_PLACEMENT_3D('',#1670,#1373,#1374);
#1128=AXIS2_PLACEMENT_3D('',#1672,#1375,#1376);
#1129=AXIS2_PLACEMENT_3D('',#1674,#1378,#1379);
#1130=AXIS2_PLACEMENT_3D('',#1677,#1381,#1382);
#1131=AXIS2_PLACEMENT_3D('',#1678,#1383,#1384);
#1132=AXIS2_PLACEMENT_3D('',#1681,#1385,#1386);
#1133=AXIS2_PLACEMENT_3D('',#1687,#1390,#1391);
#1134=AXIS2_PLACEMENT_3D('',#1690,#1392,#1393);
#1135=AXIS2_PLACEMENT_3D('',#1693,#1396,#1397);
#1136=AXIS2_PLACEMENT_3D('',#1705,#1404,#1405);
#1137=AXIS2_PLACEMENT_3D('',#1707,#1406,#1407);
#1138=AXIS2_PLACEMENT_3D('',#1711,#1410,#1411);
#1139=AXIS2_PLACEMENT_3D('',#1714,#1413,#1414);
#1140=AXIS2_PLACEMENT_3D('',#1715,#1415,#1416);
#1141=AXIS2_PLACEMENT_3D('',#1719,#1419,#1420);
#1142=AXIS2_PLACEMENT_3D('',#1722,#1422,#1423);
#1143=AXIS2_PLACEMENT_3D('',#1724,#1424,#1425);
#1144=AXIS2_PLACEMENT_3D('',#1726,#1426,#1427);
#1145=AXIS2_PLACEMENT_3D('',#1728,#1428,#1429);
#1146=AXIS2_PLACEMENT_3D('',#1729,#1430,#1431);
#1147=AXIS2_PLACEMENT_3D('',#1732,#1433,#1434);
#1148=AXIS2_PLACEMENT_3D('',#1733,#1435,#1436);
#1149=AXIS2_PLACEMENT_3D('',#1736,#1438,#1439);
#1150=AXIS2_PLACEMENT_3D('',#1737,#1440,#1441);
#1151=AXIS2_PLACEMENT_3D('',#1740,#1443,#1444);
#1152=AXIS2_PLACEMENT_3D('',#1741,#1445,#1446);
#1153=AXIS2_PLACEMENT_3D('',#1744,#1448,#1449);
#1154=AXIS2_PLACEMENT_3D('',#1745,#1450,#1451);
#1155=AXIS2_PLACEMENT_3D('',#1749,#1454,#1455);
#1156=AXIS2_PLACEMENT_3D('',#1751,#1457,#1458);
#1157=DIRECTION('axis',(0.,0.,1.));
#1158=DIRECTION('refdir',(1.,0.,0.));
#1159=DIRECTION('center_axis',(0.,0.,-1.));
#1160=DIRECTION('ref_axis',(0.,-1.,0.));
#1161=DIRECTION('',(0.,1.,0.));
#1162=DIRECTION('',(1.,0.,0.));
#1163=DIRECTION('',(0.,-1.,0.));
#1164=DIRECTION('',(1.,0.,0.));
#1165=DIRECTION('center_axis',(0.,0.,-1.));
#1166=DIRECTION('ref_axis',(0.,-1.,0.));
#1167=DIRECTION('',(0.,1.,0.));
#1168=DIRECTION('',(1.,0.,0.));
#1169=DIRECTION('',(0.,-1.,0.));
#1170=DIRECTION('',(1.,0.,0.));
#1171=DIRECTION('center_axis',(-1.,0.,0.));
#1172=DIRECTION('ref_axis',(0.,1.18423789293348E-14,-1.));
#1173=DIRECTION('center_axis',(1.,0.,0.));
#1174=DIRECTION('ref_axis',(0.,1.18423789293348E-14,-1.));
#1175=DIRECTION('center_axis',(-1.,0.,0.));
#1176=DIRECTION('ref_axis',(0.,1.18423789293348E-14,-1.));
#1177=DIRECTION('',(1.,0.,0.));
#1178=DIRECTION('center_axis',(-1.,0.,0.));
#1179=DIRECTION('ref_axis',(0.,1.18423789293348E-14,-1.));
#1180=DIRECTION('center_axis',(1.,0.,0.));
#1181=DIRECTION('ref_axis',(0.,1.18423789293348E-14,-1.));
#1182=DIRECTION('center_axis',(-1.,0.,0.));
#1183=DIRECTION('ref_axis',(0.,1.18423789293348E-14,-1.));
#1184=DIRECTION('',(1.,0.,0.));
#1185=DIRECTION('center_axis',(-1.,0.,0.));
#1186=DIRECTION('ref_axis',(0.,-1.,-1.18423789293348E-14));
#1187=DIRECTION('center_axis',(1.,0.,0.));
#1188=DIRECTION('ref_axis',(0.,-1.,-1.18423789293348E-14));
#1189=DIRECTION('',(1.,0.,0.));
#1190=DIRECTION('center_axis',(-1.,0.,0.));
#1191=DIRECTION('ref_axis',(0.,-1.,-1.18423789293348E-14));
#1192=DIRECTION('center_axis',(0.,1.,0.));
#1193=DIRECTION('ref_axis',(0.,0.,-1.));
#1194=DIRECTION('',(0.,0.,1.));
#1195=DIRECTION('',(0.,0.,-1.));
#1196=DIRECTION('',(-1.,0.,0.));
#1197=DIRECTION('center_axis',(0.,1.,0.));
#1198=DIRECTION('ref_axis',(0.,0.,-1.));
#1199=DIRECTION('',(0.,0.,1.));
#1200=DIRECTION('',(0.,0.,-1.));
#1201=DIRECTION('',(-1.,0.,0.));
#1202=DIRECTION('center_axis',(0.,-1.,8.43874983088006E-16));
#1203=DIRECTION('ref_axis',(0.,8.43874983088006E-16,1.));
#1204=DIRECTION('',(0.,-8.43874983088006E-16,-1.));
#1205=DIRECTION('',(1.,0.,0.));
#1206=DIRECTION('',(0.,8.43874983088006E-16,1.));
#1207=DIRECTION('center_axis',(-1.,0.,0.));
#1208=DIRECTION('ref_axis',(0.,1.,1.18423789293348E-14));
#1209=DIRECTION('center_axis',(1.,0.,0.));
#1210=DIRECTION('ref_axis',(0.,1.,1.18423789293348E-14));
#1211=DIRECTION('center_axis',(-1.,0.,0.));
#1212=DIRECTION('ref_axis',(0.,1.,1.18423789293348E-14));
#1213=DIRECTION('',(1.,0.,0.));
#1214=DIRECTION('center_axis',(-1.,0.,0.));
#1215=DIRECTION('ref_axis',(0.,1.,1.18423789293348E-14));
#1216=DIRECTION('center_axis',(1.,0.,0.));
#1217=DIRECTION('ref_axis',(0.,1.,1.18423789293348E-14));
#1218=DIRECTION('center_axis',(-1.,0.,0.));
#1219=DIRECTION('ref_axis',(0.,1.,1.18423789293348E-14));
#1220=DIRECTION('',(1.,0.,0.));
#1221=DIRECTION('center_axis',(-1.,0.,0.));
#1222=DIRECTION('ref_axis',(0.,0.,1.));
#1223=DIRECTION('center_axis',(1.,0.,0.));
#1224=DIRECTION('ref_axis',(0.,0.,1.));
#1225=DIRECTION('',(1.,0.,0.));
#1226=DIRECTION('center_axis',(-1.,0.,0.));
#1227=DIRECTION('ref_axis',(0.,0.,1.));
#1228=DIRECTION('center_axis',(0.,-1.68774996617601E-15,1.));
#1229=DIRECTION('ref_axis',(0.,1.,1.68774996617601E-15));
#1230=DIRECTION('',(0.,-1.,-1.68774996617601E-15));
#1231=DIRECTION('',(0.,1.,1.68774996617601E-15));
#1232=DIRECTION('center_axis',(0.,-1.68774996617601E-15,1.));
#1233=DIRECTION('ref_axis',(0.,1.,1.68774996617601E-15));
#1234=DIRECTION('',(0.,-1.,-1.68774996617601E-15));
#1235=DIRECTION('',(0.,1.,1.68774996617601E-15));
#1236=DIRECTION('',(1.,0.,0.));
#1237=DIRECTION('center_axis',(-1.,0.,0.));
#1238=DIRECTION('ref_axis',(0.,0.,1.));
#1239=DIRECTION('center_axis',(1.,0.,0.));
#1240=DIRECTION('ref_axis',(0.,0.,1.));
#1241=DIRECTION('center_axis',(-1.,0.,0.));
#1242=DIRECTION('ref_axis',(0.,0.,1.));
#1243=DIRECTION('',(1.,0.,0.));
#1244=DIRECTION('center_axis',(0.,-1.,8.43874983088006E-16));
#1245=DIRECTION('ref_axis',(0.,8.43874983088006E-16,1.));
#1246=DIRECTION('',(0.,-8.43874983088006E-16,-1.));
#1247=DIRECTION('',(0.,8.43874983088006E-16,1.));
#1248=DIRECTION('',(1.,0.,0.));
#1249=DIRECTION('center_axis',(-1.,0.,0.));
#1250=DIRECTION('ref_axis',(0.,-1.,-1.18423789293348E-14));
#1251=DIRECTION('center_axis',(1.,0.,0.));
#1252=DIRECTION('ref_axis',(0.,-1.,-1.18423789293348E-14));
#1253=DIRECTION('center_axis',(-1.,0.,0.));
#1254=DIRECTION('ref_axis',(0.,-1.,-1.18423789293348E-14));
#1255=DIRECTION('center_axis',(0.,3.92219590139576E-13,-1.));
#1256=DIRECTION('ref_axis',(0.,-1.,-3.92219590139576E-13));
#1257=DIRECTION('',(0.,1.,3.92219590139576E-13));
#1258=DIRECTION('',(1.,0.,0.));
#1259=DIRECTION('',(0.,-1.,-3.92219590139576E-13));
#1260=DIRECTION('',(-1.,0.,0.));
#1261=DIRECTION('center_axis',(0.,3.92219590139576E-13,-1.));
#1262=DIRECTION('ref_axis',(0.,-1.,-3.92219590139576E-13));
#1263=DIRECTION('',(0.,1.,3.92219590139576E-13));
#1264=DIRECTION('',(1.,0.,0.));
#1265=DIRECTION('',(0.,-1.,-3.92219590139576E-13));
#1266=DIRECTION('',(-1.,0.,0.));
#1267=DIRECTION('center_axis',(-1.,0.,0.));
#1268=DIRECTION('ref_axis',(0.,4.06024420434341E-13,-1.));
#1269=DIRECTION('center_axis',(1.,0.,0.));
#1270=DIRECTION('ref_axis',(0.,4.06024420434341E-13,-1.));
#1271=DIRECTION('center_axis',(-1.,0.,0.));
#1272=DIRECTION('ref_axis',(0.,4.06024420434341E-13,-1.));
#1273=DIRECTION('',(1.,0.,0.));
#1274=DIRECTION('center_axis',(-1.,0.,0.));
#1275=DIRECTION('ref_axis',(0.,4.06024420434341E-13,-1.));
#1276=DIRECTION('center_axis',(1.,0.,0.));
#1277=DIRECTION('ref_axis',(0.,4.06024420434341E-13,-1.));
#1278=DIRECTION('center_axis',(-1.,0.,0.));
#1279=DIRECTION('ref_axis',(0.,4.06024420434341E-13,-1.));
#1280=DIRECTION('',(1.,0.,0.));
#1281=DIRECTION('center_axis',(-1.,0.,0.));
#1282=DIRECTION('ref_axis',(0.,-3.72189052064813E-13,1.));
#1283=DIRECTION('center_axis',(1.,0.,0.));
#1284=DIRECTION('ref_axis',(0.,-3.72189052064813E-13,1.));
#1285=DIRECTION('',(1.,0.,0.));
#1286=DIRECTION('center_axis',(-1.,0.,0.));
#1287=DIRECTION('ref_axis',(0.,-3.72189052064813E-13,1.));
#1288=DIRECTION('center_axis',(0.,-3.92219590139588E-13,1.));
#1289=DIRECTION('ref_axis',(0.,1.,3.92219590139588E-13));
#1290=DIRECTION('',(0.,-1.,-3.92219590139588E-13));
#1291=DIRECTION('',(0.,1.,3.92219590139588E-13));
#1292=DIRECTION('center_axis',(0.,-3.92219590139588E-13,1.));
#1293=DIRECTION('ref_axis',(0.,1.,3.92219590139588E-13));
#1294=DIRECTION('',(0.,-1.,-3.92219590139588E-13));
#1295=DIRECTION('',(0.,1.,3.92219590139588E-13));
#1296=DIRECTION('',(1.,0.,0.));
#1297=DIRECTION('center_axis',(-1.,0.,0.));
#1298=DIRECTION('ref_axis',(0.,-3.72189052064813E-13,1.));
#1299=DIRECTION('center_axis',(1.,0.,0.));
#1300=DIRECTION('ref_axis',(0.,-3.72189052064813E-13,1.));
#1301=DIRECTION('center_axis',(-1.,0.,0.));
#1302=DIRECTION('ref_axis',(0.,-3.72189052064813E-13,1.));
#1303=DIRECTION('center_axis',(0.,0.,1.));
#1304=DIRECTION('ref_axis',(0.,1.,0.));
#1305=DIRECTION('',(0.,-1.,0.));
#1306=DIRECTION('',(1.,0.,0.));
#1307=DIRECTION('',(0.,1.,0.));
#1308=DIRECTION('',(-1.,0.,0.));
#1309=DIRECTION('center_axis',(0.,0.,1.));
#1310=DIRECTION('ref_axis',(0.,1.,0.));
#1311=DIRECTION('',(0.,-1.,0.));
#1312=DIRECTION('',(1.,0.,0.));
#1313=DIRECTION('',(0.,1.,0.));
#1314=DIRECTION('',(-1.,0.,0.));
#1315=DIRECTION('center_axis',(-1.,0.,0.));
#1316=DIRECTION('ref_axis',(0.,0.,1.));
#1317=DIRECTION('center_axis',(1.,0.,0.));
#1318=DIRECTION('ref_axis',(0.,0.,1.));
#1319=DIRECTION('center_axis',(-1.,0.,0.));
#1320=DIRECTION('ref_axis',(0.,0.,1.));
#1321=DIRECTION('',(1.,0.,0.));
#1322=DIRECTION('center_axis',(-1.,0.,0.));
#1323=DIRECTION('ref_axis',(0.,0.,1.));
#1324=DIRECTION('center_axis',(1.,0.,0.));
#1325=DIRECTION('ref_axis',(0.,0.,1.));
#1326=DIRECTION('center_axis',(-1.,0.,0.));
#1327=DIRECTION('ref_axis',(0.,0.,1.));
#1328=DIRECTION('',(1.,0.,0.));
#1329=DIRECTION('center_axis',(-1.,0.,0.));
#1330=DIRECTION('ref_axis',(0.,0.,-1.));
#1331=DIRECTION('center_axis',(1.,0.,0.));
#1332=DIRECTION('ref_axis',(0.,0.,-1.));
#1333=DIRECTION('',(1.,0.,0.));
#1334=DIRECTION('center_axis',(-1.,0.,0.));
#1335=DIRECTION('ref_axis',(0.,0.,-1.));
#1336=DIRECTION('center_axis',(0.,0.,-1.));
#1337=DIRECTION('ref_axis',(0.,-1.,0.));
#1338=DIRECTION('',(0.,1.,0.));
#1339=DIRECTION('',(0.,-1.,0.));
#1340=DIRECTION('center_axis',(0.,0.,-1.));
#1341=DIRECTION('ref_axis',(0.,-1.,0.));
#1342=DIRECTION('',(0.,1.,0.));
#1343=DIRECTION('',(0.,-1.,0.));
#1344=DIRECTION('',(1.,0.,0.));
#1345=DIRECTION('center_axis',(-1.,0.,0.));
#1346=DIRECTION('ref_axis',(0.,0.,-1.));
#1347=DIRECTION('center_axis',(1.,0.,0.));
#1348=DIRECTION('ref_axis',(0.,0.,-1.));
#1349=DIRECTION('center_axis',(-1.,0.,0.));
#1350=DIRECTION('ref_axis',(0.,0.,-1.));
#1351=DIRECTION('center_axis',(-1.,0.,0.));
#1352=DIRECTION('ref_axis',(0.,-1.,0.));
#1353=DIRECTION('center_axis',(-1.,0.,0.));
#1354=DIRECTION('ref_axis',(0.,-1.,0.));
#1355=DIRECTION('',(1.,0.,0.));
#1356=DIRECTION('center_axis',(1.,0.,0.));
#1357=DIRECTION('ref_axis',(0.,-1.,0.));
#1358=DIRECTION('center_axis',(-1.,0.,0.));
#1359=DIRECTION('ref_axis',(0.,-1.,0.));
#1360=DIRECTION('center_axis',(1.,0.,0.));
#1361=DIRECTION('ref_axis',(0.,-1.,0.));
#1362=DIRECTION('center_axis',(1.,0.,0.));
#1363=DIRECTION('ref_axis',(0.,1.,0.));
#1364=DIRECTION('center_axis',(1.,0.,0.));
#1365=DIRECTION('ref_axis',(0.,1.,0.));
#1366=DIRECTION('',(-1.,0.,0.));
#1367=DIRECTION('center_axis',(-1.,0.,0.));
#1368=DIRECTION('ref_axis',(0.,1.,0.));
#1369=DIRECTION('center_axis',(1.,0.,0.));
#1370=DIRECTION('ref_axis',(0.,1.,0.));
#1371=DIRECTION('center_axis',(-1.,0.,0.));
#1372=DIRECTION('ref_axis',(0.,1.,0.));
#1373=DIRECTION('center_axis',(1.,0.,0.));
#1374=DIRECTION('ref_axis',(0.,-1.,0.));
#1375=DIRECTION('center_axis',(1.,0.,0.));
#1376=DIRECTION('ref_axis',(0.,-1.,0.));
#1377=DIRECTION('',(1.,0.,0.));
#1378=DIRECTION('center_axis',(1.,0.,0.));
#1379=DIRECTION('ref_axis',(0.,-1.,0.));
#1380=DIRECTION('',(1.,0.,0.));
#1381=DIRECTION('center_axis',(-1.,0.,0.));
#1382=DIRECTION('ref_axis',(0.,-1.,0.));
#1383=DIRECTION('center_axis',(-1.,0.,0.));
#1384=DIRECTION('ref_axis',(0.,-1.,0.));
#1385=DIRECTION('center_axis',(1.,0.,0.));
#1386=DIRECTION('ref_axis',(0.,-0.707106781186548,0.707106781186548));
#1387=DIRECTION('',(0.,0.,1.));
#1388=DIRECTION('',(0.,1.,0.));
#1389=DIRECTION('',(0.,0.,1.));
#1390=DIRECTION('center_axis',(-1.,0.,0.));
#1391=DIRECTION('ref_axis',(0.,0.707106781186548,0.707106781186548));
#1392=DIRECTION('center_axis',(-1.,0.,0.));
#1393=DIRECTION('ref_axis',(0.,0.707106781186548,0.707106781186548));
#1394=DIRECTION('',(-1.,0.,0.));
#1395=DIRECTION('',(1.,0.,0.));
#1396=DIRECTION('center_axis',(0.,1.,0.));
#1397=DIRECTION('ref_axis',(-1.,0.,0.));
#1398=DIRECTION('',(0.,0.,1.));
#1399=DIRECTION('',(-1.,0.,0.));
#1400=DIRECTION('',(0.,0.,1.));
#1401=DIRECTION('',(-1.,0.,0.));
#1402=DIRECTION('',(0.,0.,1.));
#1403=DIRECTION('',(-1.,0.,0.));
#1404=DIRECTION('center_axis',(-1.,0.,0.));
#1405=DIRECTION('ref_axis',(0.,-1.,0.));
#1406=DIRECTION('center_axis',(1.,0.,0.));
#1407=DIRECTION('ref_axis',(0.,-0.707106781186548,0.707106781186548));
#1408=DIRECTION('',(0.,-1.,0.));
#1409=DIRECTION('',(0.,0.,1.));
#1410=DIRECTION('center_axis',(-1.,0.,0.));
#1411=DIRECTION('ref_axis',(0.,0.707106781186548,0.707106781186548));
#1412=DIRECTION('',(1.,0.,0.));
#1413=DIRECTION('center_axis',(-1.,0.,0.));
#1414=DIRECTION('ref_axis',(0.,0.707106781186548,0.707106781186548));
#1415=DIRECTION('center_axis',(1.,0.,0.));
#1416=DIRECTION('ref_axis',(0.,1.,0.));
#1417=DIRECTION('',(0.,0.,1.));
#1418=DIRECTION('',(0.,-1.,0.));
#1419=DIRECTION('center_axis',(0.,0.,1.));
#1420=DIRECTION('ref_axis',(1.,0.,0.));
#1421=DIRECTION('',(1.,0.,0.));
#1422=DIRECTION('center_axis',(0.,0.,-1.));
#1423=DIRECTION('ref_axis',(1.,0.,0.));
#1424=DIRECTION('center_axis',(0.,0.,-1.));
#1425=DIRECTION('ref_axis',(1.,0.,0.));
#1426=DIRECTION('center_axis',(0.,0.,-1.));
#1427=DIRECTION('ref_axis',(1.,0.,0.));
#1428=DIRECTION('center_axis',(0.,0.,-1.));
#1429=DIRECTION('ref_axis',(1.,0.,0.));
#1430=DIRECTION('center_axis',(0.,0.,1.));
#1431=DIRECTION('ref_axis',(1.,0.,0.));
#1432=DIRECTION('',(0.,0.,-1.));
#1433=DIRECTION('center_axis',(0.,0.,-1.));
#1434=DIRECTION('ref_axis',(1.,0.,0.));
#1435=DIRECTION('center_axis',(0.,0.,1.));
#1436=DIRECTION('ref_axis',(1.,0.,0.));
#1437=DIRECTION('',(0.,0.,-1.));
#1438=DIRECTION('center_axis',(0.,0.,-1.));
#1439=DIRECTION('ref_axis',(1.,0.,0.));
#1440=DIRECTION('center_axis',(0.,0.,1.));
#1441=DIRECTION('ref_axis',(1.,0.,0.));
#1442=DIRECTION('',(0.,0.,-1.));
#1443=DIRECTION('center_axis',(0.,0.,-1.));
#1444=DIRECTION('ref_axis',(1.,0.,0.));
#1445=DIRECTION('center_axis',(0.,0.,1.));
#1446=DIRECTION('ref_axis',(1.,0.,0.));
#1447=DIRECTION('',(0.,0.,-1.));
#1448=DIRECTION('center_axis',(0.,0.,-1.));
#1449=DIRECTION('ref_axis',(1.,0.,0.));
#1450=DIRECTION('center_axis',(1.,0.,0.));
#1451=DIRECTION('ref_axis',(0.,1.,0.));
#1452=DIRECTION('',(0.,0.,1.));
#1453=DIRECTION('',(0.,1.,0.));
#1454=DIRECTION('center_axis',(0.,-1.,0.));
#1455=DIRECTION('ref_axis',(1.,0.,0.));
#1456=DIRECTION('',(1.,0.,0.));
#1457=DIRECTION('center_axis',(0.,0.,1.));
#1458=DIRECTION('ref_axis',(1.,0.,0.));
#1459=CARTESIAN_POINT('',(0.,0.,0.));
#1460=CARTESIAN_POINT('Origin',(500.,268.05,277.65));
#1461=CARTESIAN_POINT('',(0.,231.95,277.65));
#1462=CARTESIAN_POINT('',(0.,268.05,277.65));
#1463=CARTESIAN_POINT('',(0.,384.025,277.65));
#1464=CARTESIAN_POINT('',(18.,231.95,277.65));
#1465=CARTESIAN_POINT('',(500.,231.95,277.65));
#1466=CARTESIAN_POINT('',(18.,268.05,277.65));
#1467=CARTESIAN_POINT('',(18.,134.025,277.65));
#1468=CARTESIAN_POINT('',(500.,268.05,277.65));
#1469=CARTESIAN_POINT('Origin',(500.,268.05,277.65));
#1470=CARTESIAN_POINT('',(503.,231.95,277.65));
#1471=CARTESIAN_POINT('',(503.,268.05,277.65));
#1472=CARTESIAN_POINT('',(503.,384.025,277.65));
#1473=CARTESIAN_POINT('',(521.,231.95,277.65));
#1474=CARTESIAN_POINT('',(500.,231.95,277.65));
#1475=CARTESIAN_POINT('',(521.,268.05,277.65));
#1476=CARTESIAN_POINT('',(521.,134.025,277.65));
#1477=CARTESIAN_POINT('',(500.,268.05,277.65));
#1478=CARTESIAN_POINT('Origin',(500.,268.05,280.65));
#1479=CARTESIAN_POINT('',(0.,271.05,280.65));
#1480=CARTESIAN_POINT('Origin',(0.,268.05,280.65));
#1481=CARTESIAN_POINT('',(18.,271.05,280.65));
#1482=CARTESIAN_POINT('Origin',(18.,268.05,280.65));
#1483=CARTESIAN_POINT('',(500.,271.05,280.65));
#1484=CARTESIAN_POINT('Origin',(500.,268.05,280.65));
#1485=CARTESIAN_POINT('',(503.,271.05,280.65));
#1486=CARTESIAN_POINT('Origin',(503.,268.05,280.65));
#1487=CARTESIAN_POINT('',(521.,271.05,280.65));
#1488=CARTESIAN_POINT('Origin',(521.,268.05,280.65));
#1489=CARTESIAN_POINT('',(500.,271.05,280.65));
#1490=CARTESIAN_POINT('Origin',(500.,231.95,280.65));
#1491=CARTESIAN_POINT('',(0.,228.95,280.65));
#1492=CARTESIAN_POINT('Origin',(0.,231.95,280.65));
#1493=CARTESIAN_POINT('',(18.,228.95,280.65));
#1494=CARTESIAN_POINT('',(500.,228.95,280.65));
#1495=CARTESIAN_POINT('Origin',(18.,231.95,280.65));
#1496=CARTESIAN_POINT('Origin',(500.,271.05,316.75));
#1497=CARTESIAN_POINT('',(0.,271.05,316.75));
#1498=CARTESIAN_POINT('',(0.,271.05,158.375));
#1499=CARTESIAN_POINT('',(18.,271.05,316.75));
#1500=CARTESIAN_POINT('',(18.,271.05,167.375));
#1501=CARTESIAN_POINT('',(500.,271.05,316.75));
#1502=CARTESIAN_POINT('Origin',(500.,271.05,316.75));
#1503=CARTESIAN_POINT('',(503.,271.05,316.75));
#1504=CARTESIAN_POINT('',(503.,271.05,167.375));
#1505=CARTESIAN_POINT('',(521.,271.05,316.75));
#1506=CARTESIAN_POINT('',(521.,271.05,158.375));
#1507=CARTESIAN_POINT('',(500.,271.05,316.75));
#1508=CARTESIAN_POINT('Origin',(500.,228.95,280.65));
#1509=CARTESIAN_POINT('',(0.,228.95,316.75));
#1510=CARTESIAN_POINT('',(0.,228.95,140.325));
#1511=CARTESIAN_POINT('',(18.,228.95,316.75));
#1512=CARTESIAN_POINT('',(500.,228.95,316.75));
#1513=CARTESIAN_POINT('',(18.,228.95,149.325));
#1514=CARTESIAN_POINT('Origin',(500.,268.05,316.75));
#1515=CARTESIAN_POINT('',(0.,268.05,319.75));
#1516=CARTESIAN_POINT('Origin',(0.,268.05,316.75));
#1517=CARTESIAN_POINT('',(18.,268.05,319.75));
#1518=CARTESIAN_POINT('Origin',(18.,268.05,316.75));
#1519=CARTESIAN_POINT('',(500.,268.05,319.75));
#1520=CARTESIAN_POINT('Origin',(500.,268.05,316.75));
#1521=CARTESIAN_POINT('',(503.,268.05,319.75));
#1522=CARTESIAN_POINT('Origin',(503.,268.05,316.75));
#1523=CARTESIAN_POINT('',(521.,268.05,319.75));
#1524=CARTESIAN_POINT('Origin',(521.,268.05,316.75));
#1525=CARTESIAN_POINT('',(500.,268.05,319.75));
#1526=CARTESIAN_POINT('Origin',(500.,231.95,316.75));
#1527=CARTESIAN_POINT('',(0.,231.95,319.75));
#1528=CARTESIAN_POINT('Origin',(0.,231.95,316.75));
#1529=CARTESIAN_POINT('',(18.,231.95,319.75));
#1530=CARTESIAN_POINT('',(500.,231.95,319.75));
#1531=CARTESIAN_POINT('Origin',(18.,231.95,316.75));
#1532=CARTESIAN_POINT('Origin',(500.,231.95,319.75));
#1533=CARTESIAN_POINT('',(0.,365.975,319.75));
#1534=CARTESIAN_POINT('',(18.,115.975,319.75));
#1535=CARTESIAN_POINT('Origin',(500.,231.95,319.75));
#1536=CARTESIAN_POINT('',(503.,231.95,319.75));
#1537=CARTESIAN_POINT('',(503.,365.975,319.75));
#1538=CARTESIAN_POINT('',(521.,231.95,319.75));
#1539=CARTESIAN_POINT('',(521.,115.975,319.75));
#1540=CARTESIAN_POINT('',(500.,231.95,319.75));
#1541=CARTESIAN_POINT('Origin',(500.,231.95,316.75));
#1542=CARTESIAN_POINT('',(503.,228.95,316.75));
#1543=CARTESIAN_POINT('Origin',(503.,231.95,316.75));
#1544=CARTESIAN_POINT('',(521.,228.95,316.75));
#1545=CARTESIAN_POINT('Origin',(521.,231.95,316.75));
#1546=CARTESIAN_POINT('',(500.,228.95,316.75));
#1547=CARTESIAN_POINT('Origin',(500.,228.95,280.65));
#1548=CARTESIAN_POINT('',(503.,228.95,280.65));
#1549=CARTESIAN_POINT('',(503.,228.95,149.325));
#1550=CARTESIAN_POINT('',(521.,228.95,280.65));
#1551=CARTESIAN_POINT('',(521.,228.95,140.325));
#1552=CARTESIAN_POINT('',(500.,228.95,280.65));
#1553=CARTESIAN_POINT('Origin',(500.,231.95,280.65));
#1554=CARTESIAN_POINT('Origin',(503.,231.95,280.65));
#1555=CARTESIAN_POINT('Origin',(521.,231.95,280.65));
#1556=CARTESIAN_POINT('Origin',(500.,306.050000000001,312.80000000001));
#1557=CARTESIAN_POINT('',(0.,281.050000000001,312.8));
#1558=CARTESIAN_POINT('',(0.,306.050000000001,312.80000000001));
#1559=CARTESIAN_POINT('',(0.,403.024999999939,312.800000000048));
#1560=CARTESIAN_POINT('',(18.,281.050000000001,312.8));
#1561=CARTESIAN_POINT('',(500.,281.050000000001,312.8));
#1562=CARTESIAN_POINT('',(18.,306.050000000001,312.80000000001));
#1563=CARTESIAN_POINT('',(18.,153.024999999943,312.79999999995));
#1564=CARTESIAN_POINT('',(500.,306.050000000001,312.80000000001));
#1565=CARTESIAN_POINT('Origin',(500.,306.050000000001,312.80000000001));
#1566=CARTESIAN_POINT('',(503.,281.050000000001,312.8));
#1567=CARTESIAN_POINT('',(503.,306.050000000001,312.80000000001));
#1568=CARTESIAN_POINT('',(503.,403.024999999943,312.800000000048));
#1569=CARTESIAN_POINT('',(521.,281.050000000001,312.8));
#1570=CARTESIAN_POINT('',(500.,281.050000000001,312.8));
#1571=CARTESIAN_POINT('',(521.,306.050000000001,312.80000000001));
#1572=CARTESIAN_POINT('',(521.,153.024999999939,312.79999999995));
#1573=CARTESIAN_POINT('',(500.,306.050000000001,312.80000000001));
#1574=CARTESIAN_POINT('Origin',(500.,306.05,314.90000000001));
#1575=CARTESIAN_POINT('',(0.,306.049999999999,317.00000000001));
#1576=CARTESIAN_POINT('Origin',(0.,306.05,314.90000000001));
#1577=CARTESIAN_POINT('',(18.,306.049999999999,317.00000000001));
#1578=CARTESIAN_POINT('Origin',(18.,306.05,314.90000000001));
#1579=CARTESIAN_POINT('',(500.,306.049999999999,317.00000000001));
#1580=CARTESIAN_POINT('Origin',(500.,306.05,314.90000000001));
#1581=CARTESIAN_POINT('',(503.,306.049999999999,317.00000000001));
#1582=CARTESIAN_POINT('Origin',(503.,306.05,314.90000000001));
#1583=CARTESIAN_POINT('',(521.,306.049999999999,317.00000000001));
#1584=CARTESIAN_POINT('Origin',(521.,306.05,314.90000000001));
#1585=CARTESIAN_POINT('',(500.,306.049999999999,317.00000000001));
#1586=CARTESIAN_POINT('Origin',(500.,281.05,314.9));
#1587=CARTESIAN_POINT('',(0.,281.049999999999,317.));
#1588=CARTESIAN_POINT('Origin',(0.,281.05,314.9));
#1589=CARTESIAN_POINT('',(18.,281.049999999999,317.));
#1590=CARTESIAN_POINT('',(500.,281.049999999999,317.));
#1591=CARTESIAN_POINT('Origin',(18.,281.05,314.9));
#1592=CARTESIAN_POINT('Origin',(500.,281.049999999999,317.));
#1593=CARTESIAN_POINT('',(0.,390.524999999938,317.000000000043));
#1594=CARTESIAN_POINT('',(18.,140.524999999941,316.999999999945));
#1595=CARTESIAN_POINT('Origin',(500.,281.049999999999,317.));
#1596=CARTESIAN_POINT('',(503.,281.049999999999,317.));
#1597=CARTESIAN_POINT('',(503.,390.524999999941,317.000000000043));
#1598=CARTESIAN_POINT('',(521.,281.049999999999,317.));
#1599=CARTESIAN_POINT('',(521.,140.524999999937,316.999999999945));
#1600=CARTESIAN_POINT('',(500.,281.049999999999,317.));
#1601=CARTESIAN_POINT('Origin',(500.,281.05,314.9));
#1602=CARTESIAN_POINT('Origin',(503.,281.05,314.9));
#1603=CARTESIAN_POINT('Origin',(521.,281.05,314.9));
#1604=CARTESIAN_POINT('Origin',(500.,281.05,284.6));
#1605=CARTESIAN_POINT('',(0.,306.05,284.6));
#1606=CARTESIAN_POINT('',(0.,281.05,284.6));
#1607=CARTESIAN_POINT('',(0.,390.525,284.6));
#1608=CARTESIAN_POINT('',(18.,306.05,284.6));
#1609=CARTESIAN_POINT('',(500.,306.05,284.6));
#1610=CARTESIAN_POINT('',(18.,281.05,284.6));
#1611=CARTESIAN_POINT('',(18.,140.525,284.6));
#1612=CARTESIAN_POINT('',(500.,281.05,284.6));
#1613=CARTESIAN_POINT('Origin',(500.,281.05,284.6));
#1614=CARTESIAN_POINT('',(503.,306.05,284.6));
#1615=CARTESIAN_POINT('',(503.,281.05,284.6));
#1616=CARTESIAN_POINT('',(503.,390.525,284.6));
#1617=CARTESIAN_POINT('',(521.,306.05,284.6));
#1618=CARTESIAN_POINT('',(500.,306.05,284.6));
#1619=CARTESIAN_POINT('',(521.,281.05,284.6));
#1620=CARTESIAN_POINT('',(521.,140.525,284.6));
#1621=CARTESIAN_POINT('',(500.,281.05,284.6));
#1622=CARTESIAN_POINT('Origin',(500.,281.05,282.5));
#1623=CARTESIAN_POINT('',(0.,281.05,280.4));
#1624=CARTESIAN_POINT('Origin',(0.,281.05,282.5));
#1625=CARTESIAN_POINT('',(18.,281.05,280.4));
#1626=CARTESIAN_POINT('Origin',(18.,281.05,282.5));
#1627=CARTESIAN_POINT('',(500.,281.05,280.4));
#1628=CARTESIAN_POINT('Origin',(500.,281.05,282.5));
#1629=CARTESIAN_POINT('',(503.,281.05,280.4));
#1630=CARTESIAN_POINT('Origin',(503.,281.05,282.5));
#1631=CARTESIAN_POINT('',(521.,281.05,280.4));
#1632=CARTESIAN_POINT('Origin',(521.,281.05,282.5));
#1633=CARTESIAN_POINT('',(500.,281.05,280.4));
#1634=CARTESIAN_POINT('Origin',(500.,306.05,282.5));
#1635=CARTESIAN_POINT('',(0.,306.05,280.4));
#1636=CARTESIAN_POINT('Origin',(0.,306.05,282.5));
#1637=CARTESIAN_POINT('',(18.,306.05,280.4));
#1638=CARTESIAN_POINT('',(500.,306.05,280.4));
#1639=CARTESIAN_POINT('Origin',(18.,306.05,282.5));
#1640=CARTESIAN_POINT('Origin',(500.,306.05,280.4));
#1641=CARTESIAN_POINT('',(0.,403.025,280.4));
#1642=CARTESIAN_POINT('',(18.,153.025,280.4));
#1643=CARTESIAN_POINT('Origin',(500.,306.05,280.4));
#1644=CARTESIAN_POINT('',(503.,306.05,280.4));
#1645=CARTESIAN_POINT('',(503.,403.025,280.4));
#1646=CARTESIAN_POINT('',(521.,306.05,280.4));
#1647=CARTESIAN_POINT('',(521.,153.025,280.4));
#1648=CARTESIAN_POINT('',(500.,306.05,280.4));
#1649=CARTESIAN_POINT('Origin',(500.,306.05,282.5));
#1650=CARTESIAN_POINT('Origin',(503.,306.05,282.5));
#1651=CARTESIAN_POINT('Origin',(521.,306.05,282.5));
#1652=CARTESIAN_POINT('Origin',(503.,250.,407.5));
#1653=CARTESIAN_POINT('',(495.5,291.5,407.5));
#1654=CARTESIAN_POINT('Origin',(495.5,250.,407.5));
#1655=CARTESIAN_POINT('',(503.,291.5,407.5));
#1656=CARTESIAN_POINT('',(503.,291.5,407.5));
#1657=CARTESIAN_POINT('Origin',(503.,250.,407.5));
#1658=CARTESIAN_POINT('Origin',(495.5,250.,407.5));
#1659=CARTESIAN_POINT('',(495.5,284.,407.5));
#1660=CARTESIAN_POINT('Origin',(495.5,250.,407.5));
#1661=CARTESIAN_POINT('Origin',(18.,250.,407.5));
#1662=CARTESIAN_POINT('',(25.5,208.5,407.5));
#1663=CARTESIAN_POINT('Origin',(25.5,250.,407.5));
#1664=CARTESIAN_POINT('',(18.,208.5,407.5));
#1665=CARTESIAN_POINT('',(18.,208.5,407.5));
#1666=CARTESIAN_POINT('Origin',(18.,250.,407.5));
#1667=CARTESIAN_POINT('Origin',(25.5,250.,407.5));
#1668=CARTESIAN_POINT('',(25.5000000000001,284.,407.5));
#1669=CARTESIAN_POINT('Origin',(25.5,250.,407.5));
#1670=CARTESIAN_POINT('Origin',(3000.,250.,407.5));
#1671=CARTESIAN_POINT('',(0.,284.,407.5));
#1672=CARTESIAN_POINT('Origin',(0.,250.,407.5));
#1673=CARTESIAN_POINT('',(3000.,284.,407.5));
#1674=CARTESIAN_POINT('Origin',(3000.,250.,407.5));
#1675=CARTESIAN_POINT('',(521.,284.,407.5));
#1676=CARTESIAN_POINT('',(3000.,284.,407.5));
#1677=CARTESIAN_POINT('Origin',(521.,250.,407.5));
#1678=CARTESIAN_POINT('Origin',(503.,500.,18.));
#1679=CARTESIAN_POINT('',(503.,500.,268.));
#1680=CARTESIAN_POINT('',(503.,0.,268.));
#1681=CARTESIAN_POINT('Origin',(503.,250.,268.));
#1682=CARTESIAN_POINT('',(503.,500.,18.));
#1683=CARTESIAN_POINT('',(503.,500.,18.));
#1684=CARTESIAN_POINT('',(503.,0.,18.));
#1685=CARTESIAN_POINT('',(503.,375.,18.));
#1686=CARTESIAN_POINT('',(503.,0.,18.));
#1687=CARTESIAN_POINT('Origin',(516.5,250.,268.));
#1688=CARTESIAN_POINT('',(521.,0.,268.));
#1689=CARTESIAN_POINT('',(521.,500.,268.));
#1690=CARTESIAN_POINT('Origin',(521.,250.,268.));
#1691=CARTESIAN_POINT('',(516.5,500.,268.));
#1692=CARTESIAN_POINT('',(256.,0.,268.));
#1693=CARTESIAN_POINT('Origin',(521.,500.,0.));
#1694=CARTESIAN_POINT('',(521.,500.,0.));
#1695=CARTESIAN_POINT('',(521.,500.,0.));
#1696=CARTESIAN_POINT('',(0.,500.,0.));
#1697=CARTESIAN_POINT('',(521.,500.,0.));
#1698=CARTESIAN_POINT('',(0.,500.,268.));
#1699=CARTESIAN_POINT('',(0.,500.,0.));
#1700=CARTESIAN_POINT('',(18.,500.,268.));
#1701=CARTESIAN_POINT('',(265.,500.,268.));
#1702=CARTESIAN_POINT('',(18.,500.,18.));
#1703=CARTESIAN_POINT('',(18.,500.,18.));
#1704=CARTESIAN_POINT('',(521.,500.,18.));
#1705=CARTESIAN_POINT('Origin',(0.,500.,0.));
#1706=CARTESIAN_POINT('',(0.,0.,268.));
#1707=CARTESIAN_POINT('Origin',(0.,250.,268.));
#1708=CARTESIAN_POINT('',(0.,0.,0.));
#1709=CARTESIAN_POINT('',(0.,500.,0.));
#1710=CARTESIAN_POINT('',(0.,0.,0.));
#1711=CARTESIAN_POINT('Origin',(265.,250.,268.));
#1712=CARTESIAN_POINT('',(18.,0.,268.));
#1713=CARTESIAN_POINT('',(4.5,0.,268.));
#1714=CARTESIAN_POINT('Origin',(18.,250.,268.));
#1715=CARTESIAN_POINT('Origin',(18.,0.,18.));
#1716=CARTESIAN_POINT('',(18.,0.,18.));
#1717=CARTESIAN_POINT('',(18.,0.,18.));
#1718=CARTESIAN_POINT('',(18.,125.,18.));
#1719=CARTESIAN_POINT('Origin',(260.5,250.,18.));
#1720=CARTESIAN_POINT('',(0.,0.,18.));
#1721=CARTESIAN_POINT('',(258.3749225625,313.999999999995,18.));
#1722=CARTESIAN_POINT('Origin',(260.4999225625,313.999999999995,18.));
#1723=CARTESIAN_POINT('',(258.374921751655,185.999999999995,18.));
#1724=CARTESIAN_POINT('Origin',(260.499921751655,185.999999999995,18.));
#1725=CARTESIAN_POINT('',(194.374999999999,250.000001070296,18.));
#1726=CARTESIAN_POINT('Origin',(196.499999999999,250.000001070296,18.));
#1727=CARTESIAN_POINT('',(322.374999999999,250.000001350459,18.));
#1728=CARTESIAN_POINT('Origin',(324.499999999999,250.000001350459,18.));
#1729=CARTESIAN_POINT('Origin',(260.4999225625,313.999999999995,0.));
#1730=CARTESIAN_POINT('',(258.3749225625,313.999999999995,0.));
#1731=CARTESIAN_POINT('',(258.3749225625,313.999999999995,0.));
#1732=CARTESIAN_POINT('Origin',(260.4999225625,313.999999999995,0.));
#1733=CARTESIAN_POINT('Origin',(260.499921751655,185.999999999995,0.));
#1734=CARTESIAN_POINT('',(258.374921751655,185.999999999995,0.));
#1735=CARTESIAN_POINT('',(258.374921751655,185.999999999995,0.));
#1736=CARTESIAN_POINT('Origin',(260.499921751655,185.999999999995,0.));
#1737=CARTESIAN_POINT('Origin',(196.499999999999,250.000001070296,0.));
#1738=CARTESIAN_POINT('',(194.374999999999,250.000001070296,0.));
#1739=CARTESIAN_POINT('',(194.374999999999,250.000001070296,0.));
#1740=CARTESIAN_POINT('Origin',(196.499999999999,250.000001070296,0.));
#1741=CARTESIAN_POINT('Origin',(324.499999999999,250.000001350459,0.));
#1742=CARTESIAN_POINT('',(322.374999999999,250.000001350459,0.));
#1743=CARTESIAN_POINT('',(322.374999999999,250.000001350459,0.));
#1744=CARTESIAN_POINT('Origin',(324.499999999999,250.000001350459,0.));
#1745=CARTESIAN_POINT('Origin',(521.,0.,0.));
#1746=CARTESIAN_POINT('',(521.,0.,0.));
#1747=CARTESIAN_POINT('',(521.,0.,0.));
#1748=CARTESIAN_POINT('',(521.,0.,0.));
#1749=CARTESIAN_POINT('Origin',(0.,0.,0.));
#1750=CARTESIAN_POINT('',(0.,0.,0.));
#1751=CARTESIAN_POINT('Origin',(260.5,250.,0.));
#1752=UNCERTAINTY_MEASURE_WITH_UNIT(LENGTH_MEASURE(0.01),#1756,
'DISTANCE_ACCURACY_VALUE',
'Maximum model space distance between geometric entities at asserted c
onnectivities');
#1753=UNCERTAINTY_MEASURE_WITH_UNIT(LENGTH_MEASURE(0.01),#1756,
'DISTANCE_ACCURACY_VALUE',
'Maximum model space distance between geometric entities at asserted c
onnectivities');
#1754=(
GEOMETRIC_REPRESENTATION_CONTEXT(3)
GLOBAL_UNCERTAINTY_ASSIGNED_CONTEXT((#1752))
GLOBAL_UNIT_ASSIGNED_CONTEXT((#1756,#1758,#1759))
REPRESENTATION_CONTEXT('','3D')
);
#1755=(
GEOMETRIC_REPRESENTATION_CONTEXT(3)
GLOBAL_UNCERTAINTY_ASSIGNED_CONTEXT((#1753))
GLOBAL_UNIT_ASSIGNED_CONTEXT((#1756,#1758,#1759))
REPRESENTATION_CONTEXT('','3D')
);
#1756=(
LENGTH_UNIT()
NAMED_UNIT(*)
SI_UNIT(.MILLI.,.METRE.)
);
#1757=(
LENGTH_UNIT()
NAMED_UNIT(*)
SI_UNIT($,.METRE.)
);
#1758=(
NAMED_UNIT(*)
PLANE_ANGLE_UNIT()
SI_UNIT($,.RADIAN.)
);
#1759=(
NAMED_UNIT(*)
SI_UNIT($,.STERADIAN.)
SOLID_ANGLE_UNIT()
);
#1760=SHAPE_DEFINITION_REPRESENTATION(#1761,#1762);
#1761=PRODUCT_DEFINITION_SHAPE('',$,#1764);
#1762=SHAPE_REPRESENTATION('',(#1052),#1754);
#1763=PRODUCT_DEFINITION_CONTEXT('part definition',#1768,'design');
#1764=PRODUCT_DEFINITION('2026-04-09-23-56-47-011','Altitude Baseplate',
#1765,#1763);
#1765=PRODUCT_DEFINITION_FORMATION('',$,#1770);
#1766=PRODUCT_RELATED_PRODUCT_CATEGORY('Altitude Baseplate',
'Altitude Baseplate',(#1770));
#1767=APPLICATION_PROTOCOL_DEFINITION('international standard',
'automotive_design',2009,#1768);
#1768=APPLICATION_CONTEXT(
'Core Data for Automotive Mechanical Design Process');
#1769=PRODUCT_CONTEXT('part definition',#1768,'mechanical');
#1770=PRODUCT('2026-04-09-23-56-47-011','Altitude Baseplate',$,(#1769));
#1771=PRESENTATION_STYLE_ASSIGNMENT((#1772));
#1772=SURFACE_STYLE_USAGE(.BOTH.,#1773);
#1773=SURFACE_SIDE_STYLE('',(#1774));
#1774=SURFACE_STYLE_FILL_AREA(#1775);
#1775=FILL_AREA_STYLE('Steel - Satin',(#1776));
#1776=FILL_AREA_STYLE_COLOUR('Steel - Satin',#1777);
#1777=COLOUR_RGB('Steel - Satin',0.627450980392157,0.627450980392157,0.627450980392157);
ENDSEC;
END-ISO-10303-21;
