ISO-10303-21;
HEADER;
/* Generated by software containing ST-Developer
 * from STEP Tools, Inc. (www.steptools.com) 
 */

FILE_DESCRIPTION(
/* description */ (''),
/* implementation_level */ '2;1');

FILE_NAME(
/* name */ 'BasePlate.step',
/* time_stamp */ '2026-09-08T21:59:59+05:30',
/* author */ (''),
/* organization */ (''),
/* preprocessor_version */ 'ST-DEVELOPER v20.2',
/* originating_system */ 'Autodesk Translation Framework v15.15.0.0',
/* authorisation */ '');

FILE_SCHEMA (('AUTOMOTIVE_DESIGN { 1 0 10303 214 3 1 1 }'));
ENDSEC;

DATA;
#10=MECHANICAL_DESIGN_GEOMETRIC_PRESENTATION_REPRESENTATION('',(#13,#14,
#15),#1578);
#11=SHAPE_REPRESENTATION_RELATIONSHIP('SRR','None',#1585,#12);
#12=ADVANCED_BREP_SHAPE_REPRESENTATION('',(#16,#17,#18),#1577);
#13=STYLED_ITEM('',(#1594),#16);
#14=STYLED_ITEM('',(#1594),#17);
#15=STYLED_ITEM('',(#1594),#18);
#16=MANIFOLD_SOLID_BREP('Body3',#924);
#17=MANIFOLD_SOLID_BREP('Body4',#925);
#18=MANIFOLD_SOLID_BREP('Body5',#926);
#19=FACE_BOUND('',#132,.T.);
#20=FACE_BOUND('',#133,.T.);
#21=FACE_BOUND('',#134,.T.);
#22=FACE_BOUND('',#135,.T.);
#23=FACE_BOUND('',#137,.T.);
#24=FACE_BOUND('',#138,.T.);
#25=FACE_BOUND('',#139,.T.);
#26=FACE_BOUND('',#140,.T.);
#27=FACE_BOUND('',#158,.T.);
#28=FACE_BOUND('',#160,.T.);
#29=FACE_BOUND('',#162,.T.);
#30=FACE_BOUND('',#166,.T.);
#31=PLANE('',#943);
#32=PLANE('',#947);
#33=PLANE('',#951);
#34=PLANE('',#955);
#35=PLANE('',#959);
#36=PLANE('',#963);
#37=PLANE('',#967);
#38=PLANE('',#971);
#39=PLANE('',#975);
#40=PLANE('',#979);
#41=PLANE('',#983);
#42=PLANE('',#987);
#43=PLANE('',#991);
#44=PLANE('',#992);
#45=PLANE('',#993);
#46=PLANE('',#997);
#47=PLANE('',#1001);
#48=PLANE('',#1005);
#49=PLANE('',#1009);
#50=PLANE('',#1013);
#51=PLANE('',#1017);
#52=PLANE('',#1021);
#53=PLANE('',#1025);
#54=PLANE('',#1026);
#55=PLANE('',#1027);
#56=PLANE('',#1034);
#57=FACE_OUTER_BOUND('',#106,.T.);
#58=FACE_OUTER_BOUND('',#107,.T.);
#59=FACE_OUTER_BOUND('',#108,.T.);
#60=FACE_OUTER_BOUND('',#109,.T.);
#61=FACE_OUTER_BOUND('',#110,.T.);
#62=FACE_OUTER_BOUND('',#111,.T.);
#63=FACE_OUTER_BOUND('',#112,.T.);
#64=FACE_OUTER_BOUND('',#113,.T.);
#65=FACE_OUTER_BOUND('',#114,.T.);
#66=FACE_OUTER_BOUND('',#115,.T.);
#67=FACE_OUTER_BOUND('',#116,.T.);
#68=FACE_OUTER_BOUND('',#117,.T.);
#69=FACE_OUTER_BOUND('',#118,.T.);
#70=FACE_OUTER_BOUND('',#119,.T.);
#71=FACE_OUTER_BOUND('',#120,.T.);
#72=FACE_OUTER_BOUND('',#121,.T.);
#73=FACE_OUTER_BOUND('',#122,.T.);
#74=FACE_OUTER_BOUND('',#123,.T.);
#75=FACE_OUTER_BOUND('',#124,.T.);
#76=FACE_OUTER_BOUND('',#125,.T.);
#77=FACE_OUTER_BOUND('',#126,.T.);
#78=FACE_OUTER_BOUND('',#127,.T.);
#79=FACE_OUTER_BOUND('',#128,.T.);
#80=FACE_OUTER_BOUND('',#129,.T.);
#81=FACE_OUTER_BOUND('',#130,.T.);
#82=FACE_OUTER_BOUND('',#131,.T.);
#83=FACE_OUTER_BOUND('',#136,.T.);
#84=FACE_OUTER_BOUND('',#141,.T.);
#85=FACE_OUTER_BOUND('',#142,.T.);
#86=FACE_OUTER_BOUND('',#143,.T.);
#87=FACE_OUTER_BOUND('',#144,.T.);
#88=FACE_OUTER_BOUND('',#145,.T.);
#89=FACE_OUTER_BOUND('',#146,.T.);
#90=FACE_OUTER_BOUND('',#147,.T.);
#91=FACE_OUTER_BOUND('',#148,.T.);
#92=FACE_OUTER_BOUND('',#149,.T.);
#93=FACE_OUTER_BOUND('',#150,.T.);
#94=FACE_OUTER_BOUND('',#151,.T.);
#95=FACE_OUTER_BOUND('',#152,.T.);
#96=FACE_OUTER_BOUND('',#153,.T.);
#97=FACE_OUTER_BOUND('',#154,.T.);
#98=FACE_OUTER_BOUND('',#155,.T.);
#99=FACE_OUTER_BOUND('',#156,.T.);
#100=FACE_OUTER_BOUND('',#157,.T.);
#101=FACE_OUTER_BOUND('',#159,.T.);
#102=FACE_OUTER_BOUND('',#161,.T.);
#103=FACE_OUTER_BOUND('',#163,.T.);
#104=FACE_OUTER_BOUND('',#164,.T.);
#105=FACE_OUTER_BOUND('',#165,.T.);
#106=EDGE_LOOP('',(#594,#595,#596,#597));
#107=EDGE_LOOP('',(#598,#599,#600,#601));
#108=EDGE_LOOP('',(#602,#603,#604,#605));
#109=EDGE_LOOP('',(#606,#607,#608,#609));
#110=EDGE_LOOP('',(#610,#611,#612,#613));
#111=EDGE_LOOP('',(#614,#615,#616,#617));
#112=EDGE_LOOP('',(#618,#619,#620,#621));
#113=EDGE_LOOP('',(#622,#623,#624,#625));
#114=EDGE_LOOP('',(#626,#627,#628,#629));
#115=EDGE_LOOP('',(#630,#631,#632,#633));
#116=EDGE_LOOP('',(#634,#635,#636,#637));
#117=EDGE_LOOP('',(#638,#639,#640,#641));
#118=EDGE_LOOP('',(#642,#643,#644,#645));
#119=EDGE_LOOP('',(#646,#647,#648,#649));
#120=EDGE_LOOP('',(#650,#651,#652,#653));
#121=EDGE_LOOP('',(#654,#655,#656,#657));
#122=EDGE_LOOP('',(#658,#659,#660,#661));
#123=EDGE_LOOP('',(#662,#663,#664,#665));
#124=EDGE_LOOP('',(#666,#667,#668,#669));
#125=EDGE_LOOP('',(#670,#671,#672,#673));
#126=EDGE_LOOP('',(#674,#675,#676,#677));
#127=EDGE_LOOP('',(#678,#679,#680,#681));
#128=EDGE_LOOP('',(#682,#683,#684,#685));
#129=EDGE_LOOP('',(#686,#687,#688,#689));
#130=EDGE_LOOP('',(#690,#691,#692,#693));
#131=EDGE_LOOP('',(#694,#695,#696,#697,#698,#699,#700,#701));
#132=EDGE_LOOP('',(#702));
#133=EDGE_LOOP('',(#703,#704,#705,#706,#707,#708,#709,#710));
#134=EDGE_LOOP('',(#711,#712,#713,#714));
#135=EDGE_LOOP('',(#715,#716,#717,#718));
#136=EDGE_LOOP('',(#719,#720,#721,#722,#723,#724,#725,#726));
#137=EDGE_LOOP('',(#727,#728,#729,#730,#731,#732,#733,#734));
#138=EDGE_LOOP('',(#735,#736,#737,#738));
#139=EDGE_LOOP('',(#739,#740,#741,#742));
#140=EDGE_LOOP('',(#743));
#141=EDGE_LOOP('',(#744,#745,#746,#747));
#142=EDGE_LOOP('',(#748,#749,#750,#751));
#143=EDGE_LOOP('',(#752,#753,#754,#755));
#144=EDGE_LOOP('',(#756,#757,#758,#759));
#145=EDGE_LOOP('',(#760,#761,#762,#763));
#146=EDGE_LOOP('',(#764,#765,#766,#767));
#147=EDGE_LOOP('',(#768,#769,#770,#771));
#148=EDGE_LOOP('',(#772,#773,#774,#775));
#149=EDGE_LOOP('',(#776,#777,#778,#779));
#150=EDGE_LOOP('',(#780,#781,#782,#783));
#151=EDGE_LOOP('',(#784,#785,#786,#787));
#152=EDGE_LOOP('',(#788,#789,#790,#791));
#153=EDGE_LOOP('',(#792,#793,#794,#795));
#154=EDGE_LOOP('',(#796,#797,#798,#799));
#155=EDGE_LOOP('',(#800,#801,#802,#803));
#156=EDGE_LOOP('',(#804,#805,#806,#807));
#157=EDGE_LOOP('',(#808,#809,#810,#811,#812,#813,#814,#815));
#158=EDGE_LOOP('',(#816,#817,#818,#819,#820,#821,#822,#823));
#159=EDGE_LOOP('',(#824,#825,#826,#827,#828,#829,#830,#831));
#160=EDGE_LOOP('',(#832,#833,#834,#835,#836,#837,#838,#839));
#161=EDGE_LOOP('',(#840));
#162=EDGE_LOOP('',(#841));
#163=EDGE_LOOP('',(#842,#843,#844,#845));
#164=EDGE_LOOP('',(#846,#847,#848,#849));
#165=EDGE_LOOP('',(#850));
#166=EDGE_LOOP('',(#851));
#167=LINE('',#1315,#250);
#168=LINE('',#1320,#251);
#169=LINE('',#1322,#252);
#170=LINE('',#1324,#253);
#171=LINE('',#1325,#254);
#172=LINE('',#1331,#255);
#173=LINE('',#1334,#256);
#174=LINE('',#1336,#257);
#175=LINE('',#1337,#258);
#176=LINE('',#1344,#259);
#177=LINE('',#1346,#260);
#178=LINE('',#1348,#261);
#179=LINE('',#1349,#262);
#180=LINE('',#1355,#263);
#181=LINE('',#1358,#264);
#182=LINE('',#1360,#265);
#183=LINE('',#1361,#266);
#184=LINE('',#1368,#267);
#185=LINE('',#1370,#268);
#186=LINE('',#1372,#269);
#187=LINE('',#1373,#270);
#188=LINE('',#1379,#271);
#189=LINE('',#1382,#272);
#190=LINE('',#1384,#273);
#191=LINE('',#1385,#274);
#192=LINE('',#1391,#275);
#193=LINE('',#1394,#276);
#194=LINE('',#1396,#277);
#195=LINE('',#1397,#278);
#196=LINE('',#1403,#279);
#197=LINE('',#1406,#280);
#198=LINE('',#1408,#281);
#199=LINE('',#1409,#282);
#200=LINE('',#1416,#283);
#201=LINE('',#1418,#284);
#202=LINE('',#1420,#285);
#203=LINE('',#1421,#286);
#204=LINE('',#1427,#287);
#205=LINE('',#1430,#288);
#206=LINE('',#1432,#289);
#207=LINE('',#1433,#290);
#208=LINE('',#1439,#291);
#209=LINE('',#1442,#292);
#210=LINE('',#1444,#293);
#211=LINE('',#1445,#294);
#212=LINE('',#1451,#295);
#213=LINE('',#1454,#296);
#214=LINE('',#1456,#297);
#215=LINE('',#1457,#298);
#216=LINE('',#1466,#299);
#217=LINE('',#1468,#300);
#218=LINE('',#1470,#301);
#219=LINE('',#1471,#302);
#220=LINE('',#1477,#303);
#221=LINE('',#1480,#304);
#222=LINE('',#1482,#305);
#223=LINE('',#1483,#306);
#224=LINE('',#1489,#307);
#225=LINE('',#1492,#308);
#226=LINE('',#1494,#309);
#227=LINE('',#1495,#310);
#228=LINE('',#1501,#311);
#229=LINE('',#1504,#312);
#230=LINE('',#1506,#313);
#231=LINE('',#1507,#314);
#232=LINE('',#1514,#315);
#233=LINE('',#1516,#316);
#234=LINE('',#1518,#317);
#235=LINE('',#1519,#318);
#236=LINE('',#1525,#319);
#237=LINE('',#1528,#320);
#238=LINE('',#1530,#321);
#239=LINE('',#1531,#322);
#240=LINE('',#1537,#323);
#241=LINE('',#1540,#324);
#242=LINE('',#1542,#325);
#243=LINE('',#1543,#326);
#244=LINE('',#1549,#327);
#245=LINE('',#1552,#328);
#246=LINE('',#1554,#329);
#247=LINE('',#1555,#330);
#248=LINE('',#1568,#331);
#249=LINE('',#1572,#332);
#250=VECTOR('',#1041,34.);
#251=VECTOR('',#1046,10.);
#252=VECTOR('',#1047,10.);
#253=VECTOR('',#1048,10.);
#254=VECTOR('',#1049,10.);
#255=VECTOR('',#1056,10.);
#256=VECTOR('',#1059,10.);
#257=VECTOR('',#1060,10.);
#258=VECTOR('',#1061,10.);
#259=VECTOR('',#1070,10.);
#260=VECTOR('',#1071,10.);
#261=VECTOR('',#1072,10.);
#262=VECTOR('',#1073,10.);
#263=VECTOR('',#1080,10.);
#264=VECTOR('',#1083,10.);
#265=VECTOR('',#1084,10.);
#266=VECTOR('',#1085,10.);
#267=VECTOR('',#1094,10.);
#268=VECTOR('',#1095,10.);
#269=VECTOR('',#1096,10.);
#270=VECTOR('',#1097,10.);
#271=VECTOR('',#1104,10.);
#272=VECTOR('',#1107,10.);
#273=VECTOR('',#1108,10.);
#274=VECTOR('',#1109,10.);
#275=VECTOR('',#1116,10.);
#276=VECTOR('',#1119,10.);
#277=VECTOR('',#1120,10.);
#278=VECTOR('',#1121,10.);
#279=VECTOR('',#1128,10.);
#280=VECTOR('',#1131,10.);
#281=VECTOR('',#1132,10.);
#282=VECTOR('',#1133,10.);
#283=VECTOR('',#1142,10.);
#284=VECTOR('',#1143,10.);
#285=VECTOR('',#1144,10.);
#286=VECTOR('',#1145,10.);
#287=VECTOR('',#1152,10.);
#288=VECTOR('',#1155,10.);
#289=VECTOR('',#1156,10.);
#290=VECTOR('',#1157,10.);
#291=VECTOR('',#1164,10.);
#292=VECTOR('',#1167,10.);
#293=VECTOR('',#1168,10.);
#294=VECTOR('',#1169,10.);
#295=VECTOR('',#1176,10.);
#296=VECTOR('',#1179,10.);
#297=VECTOR('',#1180,10.);
#298=VECTOR('',#1181,10.);
#299=VECTOR('',#1194,10.);
#300=VECTOR('',#1195,10.);
#301=VECTOR('',#1196,10.);
#302=VECTOR('',#1197,10.);
#303=VECTOR('',#1204,10.);
#304=VECTOR('',#1207,10.);
#305=VECTOR('',#1208,10.);
#306=VECTOR('',#1209,10.);
#307=VECTOR('',#1216,10.);
#308=VECTOR('',#1219,10.);
#309=VECTOR('',#1220,10.);
#310=VECTOR('',#1221,10.);
#311=VECTOR('',#1228,10.);
#312=VECTOR('',#1231,10.);
#313=VECTOR('',#1232,10.);
#314=VECTOR('',#1233,10.);
#315=VECTOR('',#1242,10.);
#316=VECTOR('',#1243,10.);
#317=VECTOR('',#1244,10.);
#318=VECTOR('',#1245,10.);
#319=VECTOR('',#1252,10.);
#320=VECTOR('',#1255,10.);
#321=VECTOR('',#1256,10.);
#322=VECTOR('',#1257,10.);
#323=VECTOR('',#1264,10.);
#324=VECTOR('',#1267,10.);
#325=VECTOR('',#1268,10.);
#326=VECTOR('',#1269,10.);
#327=VECTOR('',#1276,10.);
#328=VECTOR('',#1279,10.);
#329=VECTOR('',#1280,10.);
#330=VECTOR('',#1281,10.);
#331=VECTOR('',#1300,34.);
#332=VECTOR('',#1305,44.);
#333=CIRCLE('',#941,34.);
#334=CIRCLE('',#942,34.);
#335=CIRCLE('',#945,2.10000000000001);
#336=CIRCLE('',#946,2.10000000000001);
#337=CIRCLE('',#949,2.10000000000001);
#338=CIRCLE('',#950,2.10000000000001);
#339=CIRCLE('',#953,2.10000000000001);
#340=CIRCLE('',#954,2.10000000000001);
#341=CIRCLE('',#957,2.10000000000001);
#342=CIRCLE('',#958,2.10000000000001);
#343=CIRCLE('',#961,2.99999999999976);
#344=CIRCLE('',#962,2.99999999999976);
#345=CIRCLE('',#965,2.9999999999999);
#346=CIRCLE('',#966,2.9999999999999);
#347=CIRCLE('',#969,2.9999999999999);
#348=CIRCLE('',#970,2.9999999999999);
#349=CIRCLE('',#973,2.99999999999969);
#350=CIRCLE('',#974,2.99999999999969);
#351=CIRCLE('',#977,0.0961505532331325);
#352=CIRCLE('',#978,0.0961505532331325);
#353=CIRCLE('',#981,7.84422324655125);
#354=CIRCLE('',#982,7.84422324655125);
#355=CIRCLE('',#985,0.453566411870838);
#356=CIRCLE('',#986,0.453566411870838);
#357=CIRCLE('',#989,1.67148853073002);
#358=CIRCLE('',#990,1.67148853073002);
#359=CIRCLE('',#995,0.0188985081818771);
#360=CIRCLE('',#996,0.0188985081818771);
#361=CIRCLE('',#999,1.23768856328086);
#362=CIRCLE('',#1000,1.23768856328086);
#363=CIRCLE('',#1003,0.296656763530661);
#364=CIRCLE('',#1004,0.296656763530661);
#365=CIRCLE('',#1007,2.7943389900048);
#366=CIRCLE('',#1008,2.7943389900048);
#367=CIRCLE('',#1011,1.76745748625706);
#368=CIRCLE('',#1012,1.76745748625706);
#369=CIRCLE('',#1015,2.7891364158728);
#370=CIRCLE('',#1016,2.7891364158728);
#371=CIRCLE('',#1019,2.06766015568974);
#372=CIRCLE('',#1020,2.06766015568974);
#373=CIRCLE('',#1023,7.84422324655119);
#374=CIRCLE('',#1024,7.84422324655119);
#375=CIRCLE('',#1028,44.);
#376=CIRCLE('',#1029,34.);
#377=CIRCLE('',#1031,34.);
#378=CIRCLE('',#1033,44.);
#379=VERTEX_POINT('',#1312);
#380=VERTEX_POINT('',#1314);
#381=VERTEX_POINT('',#1318);
#382=VERTEX_POINT('',#1319);
#383=VERTEX_POINT('',#1321);
#384=VERTEX_POINT('',#1323);
#385=VERTEX_POINT('',#1327);
#386=VERTEX_POINT('',#1329);
#387=VERTEX_POINT('',#1333);
#388=VERTEX_POINT('',#1335);
#389=VERTEX_POINT('',#1342);
#390=VERTEX_POINT('',#1343);
#391=VERTEX_POINT('',#1345);
#392=VERTEX_POINT('',#1347);
#393=VERTEX_POINT('',#1351);
#394=VERTEX_POINT('',#1353);
#395=VERTEX_POINT('',#1357);
#396=VERTEX_POINT('',#1359);
#397=VERTEX_POINT('',#1366);
#398=VERTEX_POINT('',#1367);
#399=VERTEX_POINT('',#1369);
#400=VERTEX_POINT('',#1371);
#401=VERTEX_POINT('',#1375);
#402=VERTEX_POINT('',#1377);
#403=VERTEX_POINT('',#1381);
#404=VERTEX_POINT('',#1383);
#405=VERTEX_POINT('',#1387);
#406=VERTEX_POINT('',#1389);
#407=VERTEX_POINT('',#1393);
#408=VERTEX_POINT('',#1395);
#409=VERTEX_POINT('',#1399);
#410=VERTEX_POINT('',#1401);
#411=VERTEX_POINT('',#1405);
#412=VERTEX_POINT('',#1407);
#413=VERTEX_POINT('',#1414);
#414=VERTEX_POINT('',#1415);
#415=VERTEX_POINT('',#1417);
#416=VERTEX_POINT('',#1419);
#417=VERTEX_POINT('',#1423);
#418=VERTEX_POINT('',#1425);
#419=VERTEX_POINT('',#1429);
#420=VERTEX_POINT('',#1431);
#421=VERTEX_POINT('',#1435);
#422=VERTEX_POINT('',#1437);
#423=VERTEX_POINT('',#1441);
#424=VERTEX_POINT('',#1443);
#425=VERTEX_POINT('',#1447);
#426=VERTEX_POINT('',#1449);
#427=VERTEX_POINT('',#1453);
#428=VERTEX_POINT('',#1455);
#429=VERTEX_POINT('',#1464);
#430=VERTEX_POINT('',#1465);
#431=VERTEX_POINT('',#1467);
#432=VERTEX_POINT('',#1469);
#433=VERTEX_POINT('',#1473);
#434=VERTEX_POINT('',#1475);
#435=VERTEX_POINT('',#1479);
#436=VERTEX_POINT('',#1481);
#437=VERTEX_POINT('',#1485);
#438=VERTEX_POINT('',#1487);
#439=VERTEX_POINT('',#1491);
#440=VERTEX_POINT('',#1493);
#441=VERTEX_POINT('',#1497);
#442=VERTEX_POINT('',#1499);
#443=VERTEX_POINT('',#1503);
#444=VERTEX_POINT('',#1505);
#445=VERTEX_POINT('',#1512);
#446=VERTEX_POINT('',#1513);
#447=VERTEX_POINT('',#1515);
#448=VERTEX_POINT('',#1517);
#449=VERTEX_POINT('',#1521);
#450=VERTEX_POINT('',#1523);
#451=VERTEX_POINT('',#1527);
#452=VERTEX_POINT('',#1529);
#453=VERTEX_POINT('',#1533);
#454=VERTEX_POINT('',#1535);
#455=VERTEX_POINT('',#1539);
#456=VERTEX_POINT('',#1541);
#457=VERTEX_POINT('',#1545);
#458=VERTEX_POINT('',#1547);
#459=VERTEX_POINT('',#1551);
#460=VERTEX_POINT('',#1553);
#461=VERTEX_POINT('',#1562);
#462=VERTEX_POINT('',#1564);
#463=VERTEX_POINT('',#1567);
#464=VERTEX_POINT('',#1571);
#465=EDGE_CURVE('',#379,#379,#333,.T.);
#466=EDGE_CURVE('',#379,#380,#167,.T.);
#467=EDGE_CURVE('',#380,#380,#334,.T.);
#468=EDGE_CURVE('',#381,#382,#168,.T.);
#469=EDGE_CURVE('',#382,#383,#169,.T.);
#470=EDGE_CURVE('',#384,#383,#170,.T.);
#471=EDGE_CURVE('',#381,#384,#171,.T.);
#472=EDGE_CURVE('',#385,#381,#335,.T.);
#473=EDGE_CURVE('',#386,#384,#336,.T.);
#474=EDGE_CURVE('',#385,#386,#172,.T.);
#475=EDGE_CURVE('',#387,#385,#173,.T.);
#476=EDGE_CURVE('',#388,#386,#174,.T.);
#477=EDGE_CURVE('',#387,#388,#175,.T.);
#478=EDGE_CURVE('',#382,#387,#337,.T.);
#479=EDGE_CURVE('',#383,#388,#338,.T.);
#480=EDGE_CURVE('',#389,#390,#176,.T.);
#481=EDGE_CURVE('',#390,#391,#177,.T.);
#482=EDGE_CURVE('',#392,#391,#178,.T.);
#483=EDGE_CURVE('',#389,#392,#179,.T.);
#484=EDGE_CURVE('',#393,#389,#339,.T.);
#485=EDGE_CURVE('',#394,#392,#340,.T.);
#486=EDGE_CURVE('',#393,#394,#180,.T.);
#487=EDGE_CURVE('',#395,#393,#181,.T.);
#488=EDGE_CURVE('',#396,#394,#182,.T.);
#489=EDGE_CURVE('',#395,#396,#183,.T.);
#490=EDGE_CURVE('',#390,#395,#341,.T.);
#491=EDGE_CURVE('',#391,#396,#342,.T.);
#492=EDGE_CURVE('',#397,#398,#184,.T.);
#493=EDGE_CURVE('',#398,#399,#185,.T.);
#494=EDGE_CURVE('',#400,#399,#186,.T.);
#495=EDGE_CURVE('',#397,#400,#187,.T.);
#496=EDGE_CURVE('',#401,#397,#343,.T.);
#497=EDGE_CURVE('',#402,#400,#344,.T.);
#498=EDGE_CURVE('',#401,#402,#188,.T.);
#499=EDGE_CURVE('',#403,#401,#189,.T.);
#500=EDGE_CURVE('',#404,#402,#190,.T.);
#501=EDGE_CURVE('',#403,#404,#191,.T.);
#502=EDGE_CURVE('',#405,#403,#345,.T.);
#503=EDGE_CURVE('',#406,#404,#346,.T.);
#504=EDGE_CURVE('',#405,#406,#192,.T.);
#505=EDGE_CURVE('',#407,#405,#193,.T.);
#506=EDGE_CURVE('',#408,#406,#194,.T.);
#507=EDGE_CURVE('',#407,#408,#195,.T.);
#508=EDGE_CURVE('',#409,#407,#347,.T.);
#509=EDGE_CURVE('',#410,#408,#348,.T.);
#510=EDGE_CURVE('',#409,#410,#196,.T.);
#511=EDGE_CURVE('',#411,#409,#197,.T.);
#512=EDGE_CURVE('',#412,#410,#198,.T.);
#513=EDGE_CURVE('',#411,#412,#199,.T.);
#514=EDGE_CURVE('',#398,#411,#349,.T.);
#515=EDGE_CURVE('',#399,#412,#350,.T.);
#516=EDGE_CURVE('',#413,#414,#200,.T.);
#517=EDGE_CURVE('',#414,#415,#201,.T.);
#518=EDGE_CURVE('',#416,#415,#202,.T.);
#519=EDGE_CURVE('',#413,#416,#203,.T.);
#520=EDGE_CURVE('',#417,#413,#351,.T.);
#521=EDGE_CURVE('',#418,#416,#352,.T.);
#522=EDGE_CURVE('',#417,#418,#204,.T.);
#523=EDGE_CURVE('',#419,#417,#205,.T.);
#524=EDGE_CURVE('',#420,#418,#206,.T.);
#525=EDGE_CURVE('',#419,#420,#207,.T.);
#526=EDGE_CURVE('',#421,#419,#353,.T.);
#527=EDGE_CURVE('',#422,#420,#354,.T.);
#528=EDGE_CURVE('',#421,#422,#208,.T.);
#529=EDGE_CURVE('',#423,#421,#209,.T.);
#530=EDGE_CURVE('',#424,#422,#210,.T.);
#531=EDGE_CURVE('',#423,#424,#211,.T.);
#532=EDGE_CURVE('',#425,#423,#355,.T.);
#533=EDGE_CURVE('',#426,#424,#356,.T.);
#534=EDGE_CURVE('',#425,#426,#212,.T.);
#535=EDGE_CURVE('',#427,#425,#213,.T.);
#536=EDGE_CURVE('',#428,#426,#214,.T.);
#537=EDGE_CURVE('',#427,#428,#215,.T.);
#538=EDGE_CURVE('',#414,#427,#357,.T.);
#539=EDGE_CURVE('',#415,#428,#358,.T.);
#540=EDGE_CURVE('',#429,#430,#216,.T.);
#541=EDGE_CURVE('',#430,#431,#217,.T.);
#542=EDGE_CURVE('',#432,#431,#218,.T.);
#543=EDGE_CURVE('',#429,#432,#219,.T.);
#544=EDGE_CURVE('',#433,#429,#359,.T.);
#545=EDGE_CURVE('',#434,#432,#360,.T.);
#546=EDGE_CURVE('',#433,#434,#220,.T.);
#547=EDGE_CURVE('',#435,#433,#221,.T.);
#548=EDGE_CURVE('',#436,#434,#222,.T.);
#549=EDGE_CURVE('',#435,#436,#223,.T.);
#550=EDGE_CURVE('',#437,#435,#361,.T.);
#551=EDGE_CURVE('',#438,#436,#362,.T.);
#552=EDGE_CURVE('',#437,#438,#224,.T.);
#553=EDGE_CURVE('',#439,#437,#225,.T.);
#554=EDGE_CURVE('',#440,#438,#226,.T.);
#555=EDGE_CURVE('',#439,#440,#227,.T.);
#556=EDGE_CURVE('',#441,#439,#363,.T.);
#557=EDGE_CURVE('',#442,#440,#364,.T.);
#558=EDGE_CURVE('',#441,#442,#228,.T.);
#559=EDGE_CURVE('',#443,#441,#229,.T.);
#560=EDGE_CURVE('',#444,#442,#230,.T.);
#561=EDGE_CURVE('',#443,#444,#231,.T.);
#562=EDGE_CURVE('',#430,#443,#365,.T.);
#563=EDGE_CURVE('',#431,#444,#366,.T.);
#564=EDGE_CURVE('',#445,#446,#232,.T.);
#565=EDGE_CURVE('',#445,#447,#233,.T.);
#566=EDGE_CURVE('',#448,#447,#234,.T.);
#567=EDGE_CURVE('',#446,#448,#235,.T.);
#568=EDGE_CURVE('',#449,#446,#367,.T.);
#569=EDGE_CURVE('',#450,#448,#368,.T.);
#570=EDGE_CURVE('',#449,#450,#236,.T.);
#571=EDGE_CURVE('',#449,#451,#237,.T.);
#572=EDGE_CURVE('',#452,#450,#238,.T.);
#573=EDGE_CURVE('',#451,#452,#239,.T.);
#574=EDGE_CURVE('',#453,#451,#369,.T.);
#575=EDGE_CURVE('',#454,#452,#370,.T.);
#576=EDGE_CURVE('',#453,#454,#240,.T.);
#577=EDGE_CURVE('',#453,#455,#241,.T.);
#578=EDGE_CURVE('',#456,#454,#242,.T.);
#579=EDGE_CURVE('',#455,#456,#243,.T.);
#580=EDGE_CURVE('',#457,#455,#371,.T.);
#581=EDGE_CURVE('',#458,#456,#372,.T.);
#582=EDGE_CURVE('',#457,#458,#244,.T.);
#583=EDGE_CURVE('',#457,#459,#245,.T.);
#584=EDGE_CURVE('',#460,#458,#246,.T.);
#585=EDGE_CURVE('',#459,#460,#247,.T.);
#586=EDGE_CURVE('',#445,#459,#373,.T.);
#587=EDGE_CURVE('',#447,#460,#374,.T.);
#588=EDGE_CURVE('',#461,#461,#375,.T.);
#589=EDGE_CURVE('',#462,#462,#376,.T.);
#590=EDGE_CURVE('',#462,#463,#248,.T.);
#591=EDGE_CURVE('',#463,#463,#377,.T.);
#592=EDGE_CURVE('',#461,#464,#249,.T.);
#593=EDGE_CURVE('',#464,#464,#378,.T.);
#594=ORIENTED_EDGE('',*,*,#465,.F.);
#595=ORIENTED_EDGE('',*,*,#466,.T.);
#596=ORIENTED_EDGE('',*,*,#467,.T.);
#597=ORIENTED_EDGE('',*,*,#466,.F.);
#598=ORIENTED_EDGE('',*,*,#468,.T.);
#599=ORIENTED_EDGE('',*,*,#469,.T.);
#600=ORIENTED_EDGE('',*,*,#470,.F.);
#601=ORIENTED_EDGE('',*,*,#471,.F.);
#602=ORIENTED_EDGE('',*,*,#472,.T.);
#603=ORIENTED_EDGE('',*,*,#471,.T.);
#604=ORIENTED_EDGE('',*,*,#473,.F.);
#605=ORIENTED_EDGE('',*,*,#474,.F.);
#606=ORIENTED_EDGE('',*,*,#475,.T.);
#607=ORIENTED_EDGE('',*,*,#474,.T.);
#608=ORIENTED_EDGE('',*,*,#476,.F.);
#609=ORIENTED_EDGE('',*,*,#477,.F.);
#610=ORIENTED_EDGE('',*,*,#478,.T.);
#611=ORIENTED_EDGE('',*,*,#477,.T.);
#612=ORIENTED_EDGE('',*,*,#479,.F.);
#613=ORIENTED_EDGE('',*,*,#469,.F.);
#614=ORIENTED_EDGE('',*,*,#480,.T.);
#615=ORIENTED_EDGE('',*,*,#481,.T.);
#616=ORIENTED_EDGE('',*,*,#482,.F.);
#617=ORIENTED_EDGE('',*,*,#483,.F.);
#618=ORIENTED_EDGE('',*,*,#484,.T.);
#619=ORIENTED_EDGE('',*,*,#483,.T.);
#620=ORIENTED_EDGE('',*,*,#485,.F.);
#621=ORIENTED_EDGE('',*,*,#486,.F.);
#622=ORIENTED_EDGE('',*,*,#487,.T.);
#623=ORIENTED_EDGE('',*,*,#486,.T.);
#624=ORIENTED_EDGE('',*,*,#488,.F.);
#625=ORIENTED_EDGE('',*,*,#489,.F.);
#626=ORIENTED_EDGE('',*,*,#490,.T.);
#627=ORIENTED_EDGE('',*,*,#489,.T.);
#628=ORIENTED_EDGE('',*,*,#491,.F.);
#629=ORIENTED_EDGE('',*,*,#481,.F.);
#630=ORIENTED_EDGE('',*,*,#492,.T.);
#631=ORIENTED_EDGE('',*,*,#493,.T.);
#632=ORIENTED_EDGE('',*,*,#494,.F.);
#633=ORIENTED_EDGE('',*,*,#495,.F.);
#634=ORIENTED_EDGE('',*,*,#496,.T.);
#635=ORIENTED_EDGE('',*,*,#495,.T.);
#636=ORIENTED_EDGE('',*,*,#497,.F.);
#637=ORIENTED_EDGE('',*,*,#498,.F.);
#638=ORIENTED_EDGE('',*,*,#499,.T.);
#639=ORIENTED_EDGE('',*,*,#498,.T.);
#640=ORIENTED_EDGE('',*,*,#500,.F.);
#641=ORIENTED_EDGE('',*,*,#501,.F.);
#642=ORIENTED_EDGE('',*,*,#502,.T.);
#643=ORIENTED_EDGE('',*,*,#501,.T.);
#644=ORIENTED_EDGE('',*,*,#503,.F.);
#645=ORIENTED_EDGE('',*,*,#504,.F.);
#646=ORIENTED_EDGE('',*,*,#505,.T.);
#647=ORIENTED_EDGE('',*,*,#504,.T.);
#648=ORIENTED_EDGE('',*,*,#506,.F.);
#649=ORIENTED_EDGE('',*,*,#507,.F.);
#650=ORIENTED_EDGE('',*,*,#508,.T.);
#651=ORIENTED_EDGE('',*,*,#507,.T.);
#652=ORIENTED_EDGE('',*,*,#509,.F.);
#653=ORIENTED_EDGE('',*,*,#510,.F.);
#654=ORIENTED_EDGE('',*,*,#511,.T.);
#655=ORIENTED_EDGE('',*,*,#510,.T.);
#656=ORIENTED_EDGE('',*,*,#512,.F.);
#657=ORIENTED_EDGE('',*,*,#513,.F.);
#658=ORIENTED_EDGE('',*,*,#514,.T.);
#659=ORIENTED_EDGE('',*,*,#513,.T.);
#660=ORIENTED_EDGE('',*,*,#515,.F.);
#661=ORIENTED_EDGE('',*,*,#493,.F.);
#662=ORIENTED_EDGE('',*,*,#516,.T.);
#663=ORIENTED_EDGE('',*,*,#517,.T.);
#664=ORIENTED_EDGE('',*,*,#518,.F.);
#665=ORIENTED_EDGE('',*,*,#519,.F.);
#666=ORIENTED_EDGE('',*,*,#520,.T.);
#667=ORIENTED_EDGE('',*,*,#519,.T.);
#668=ORIENTED_EDGE('',*,*,#521,.F.);
#669=ORIENTED_EDGE('',*,*,#522,.F.);
#670=ORIENTED_EDGE('',*,*,#523,.T.);
#671=ORIENTED_EDGE('',*,*,#522,.T.);
#672=ORIENTED_EDGE('',*,*,#524,.F.);
#673=ORIENTED_EDGE('',*,*,#525,.F.);
#674=ORIENTED_EDGE('',*,*,#526,.T.);
#675=ORIENTED_EDGE('',*,*,#525,.T.);
#676=ORIENTED_EDGE('',*,*,#527,.F.);
#677=ORIENTED_EDGE('',*,*,#528,.F.);
#678=ORIENTED_EDGE('',*,*,#529,.T.);
#679=ORIENTED_EDGE('',*,*,#528,.T.);
#680=ORIENTED_EDGE('',*,*,#530,.F.);
#681=ORIENTED_EDGE('',*,*,#531,.F.);
#682=ORIENTED_EDGE('',*,*,#532,.T.);
#683=ORIENTED_EDGE('',*,*,#531,.T.);
#684=ORIENTED_EDGE('',*,*,#533,.F.);
#685=ORIENTED_EDGE('',*,*,#534,.F.);
#686=ORIENTED_EDGE('',*,*,#535,.T.);
#687=ORIENTED_EDGE('',*,*,#534,.T.);
#688=ORIENTED_EDGE('',*,*,#536,.F.);
#689=ORIENTED_EDGE('',*,*,#537,.F.);
#690=ORIENTED_EDGE('',*,*,#538,.T.);
#691=ORIENTED_EDGE('',*,*,#537,.T.);
#692=ORIENTED_EDGE('',*,*,#539,.F.);
#693=ORIENTED_EDGE('',*,*,#517,.F.);
#694=ORIENTED_EDGE('',*,*,#539,.T.);
#695=ORIENTED_EDGE('',*,*,#536,.T.);
#696=ORIENTED_EDGE('',*,*,#533,.T.);
#697=ORIENTED_EDGE('',*,*,#530,.T.);
#698=ORIENTED_EDGE('',*,*,#527,.T.);
#699=ORIENTED_EDGE('',*,*,#524,.T.);
#700=ORIENTED_EDGE('',*,*,#521,.T.);
#701=ORIENTED_EDGE('',*,*,#518,.T.);
#702=ORIENTED_EDGE('',*,*,#465,.T.);
#703=ORIENTED_EDGE('',*,*,#515,.T.);
#704=ORIENTED_EDGE('',*,*,#512,.T.);
#705=ORIENTED_EDGE('',*,*,#509,.T.);
#706=ORIENTED_EDGE('',*,*,#506,.T.);
#707=ORIENTED_EDGE('',*,*,#503,.T.);
#708=ORIENTED_EDGE('',*,*,#500,.T.);
#709=ORIENTED_EDGE('',*,*,#497,.T.);
#710=ORIENTED_EDGE('',*,*,#494,.T.);
#711=ORIENTED_EDGE('',*,*,#491,.T.);
#712=ORIENTED_EDGE('',*,*,#488,.T.);
#713=ORIENTED_EDGE('',*,*,#485,.T.);
#714=ORIENTED_EDGE('',*,*,#482,.T.);
#715=ORIENTED_EDGE('',*,*,#479,.T.);
#716=ORIENTED_EDGE('',*,*,#476,.T.);
#717=ORIENTED_EDGE('',*,*,#473,.T.);
#718=ORIENTED_EDGE('',*,*,#470,.T.);
#719=ORIENTED_EDGE('',*,*,#538,.F.);
#720=ORIENTED_EDGE('',*,*,#516,.F.);
#721=ORIENTED_EDGE('',*,*,#520,.F.);
#722=ORIENTED_EDGE('',*,*,#523,.F.);
#723=ORIENTED_EDGE('',*,*,#526,.F.);
#724=ORIENTED_EDGE('',*,*,#529,.F.);
#725=ORIENTED_EDGE('',*,*,#532,.F.);
#726=ORIENTED_EDGE('',*,*,#535,.F.);
#727=ORIENTED_EDGE('',*,*,#514,.F.);
#728=ORIENTED_EDGE('',*,*,#492,.F.);
#729=ORIENTED_EDGE('',*,*,#496,.F.);
#730=ORIENTED_EDGE('',*,*,#499,.F.);
#731=ORIENTED_EDGE('',*,*,#502,.F.);
#732=ORIENTED_EDGE('',*,*,#505,.F.);
#733=ORIENTED_EDGE('',*,*,#508,.F.);
#734=ORIENTED_EDGE('',*,*,#511,.F.);
#735=ORIENTED_EDGE('',*,*,#490,.F.);
#736=ORIENTED_EDGE('',*,*,#480,.F.);
#737=ORIENTED_EDGE('',*,*,#484,.F.);
#738=ORIENTED_EDGE('',*,*,#487,.F.);
#739=ORIENTED_EDGE('',*,*,#478,.F.);
#740=ORIENTED_EDGE('',*,*,#468,.F.);
#741=ORIENTED_EDGE('',*,*,#472,.F.);
#742=ORIENTED_EDGE('',*,*,#475,.F.);
#743=ORIENTED_EDGE('',*,*,#467,.F.);
#744=ORIENTED_EDGE('',*,*,#540,.T.);
#745=ORIENTED_EDGE('',*,*,#541,.T.);
#746=ORIENTED_EDGE('',*,*,#542,.F.);
#747=ORIENTED_EDGE('',*,*,#543,.F.);
#748=ORIENTED_EDGE('',*,*,#544,.T.);
#749=ORIENTED_EDGE('',*,*,#543,.T.);
#750=ORIENTED_EDGE('',*,*,#545,.F.);
#751=ORIENTED_EDGE('',*,*,#546,.F.);
#752=ORIENTED_EDGE('',*,*,#547,.T.);
#753=ORIENTED_EDGE('',*,*,#546,.T.);
#754=ORIENTED_EDGE('',*,*,#548,.F.);
#755=ORIENTED_EDGE('',*,*,#549,.F.);
#756=ORIENTED_EDGE('',*,*,#550,.T.);
#757=ORIENTED_EDGE('',*,*,#549,.T.);
#758=ORIENTED_EDGE('',*,*,#551,.F.);
#759=ORIENTED_EDGE('',*,*,#552,.F.);
#760=ORIENTED_EDGE('',*,*,#553,.T.);
#761=ORIENTED_EDGE('',*,*,#552,.T.);
#762=ORIENTED_EDGE('',*,*,#554,.F.);
#763=ORIENTED_EDGE('',*,*,#555,.F.);
#764=ORIENTED_EDGE('',*,*,#556,.T.);
#765=ORIENTED_EDGE('',*,*,#555,.T.);
#766=ORIENTED_EDGE('',*,*,#557,.F.);
#767=ORIENTED_EDGE('',*,*,#558,.F.);
#768=ORIENTED_EDGE('',*,*,#559,.T.);
#769=ORIENTED_EDGE('',*,*,#558,.T.);
#770=ORIENTED_EDGE('',*,*,#560,.F.);
#771=ORIENTED_EDGE('',*,*,#561,.F.);
#772=ORIENTED_EDGE('',*,*,#562,.T.);
#773=ORIENTED_EDGE('',*,*,#561,.T.);
#774=ORIENTED_EDGE('',*,*,#563,.F.);
#775=ORIENTED_EDGE('',*,*,#541,.F.);
#776=ORIENTED_EDGE('',*,*,#564,.F.);
#777=ORIENTED_EDGE('',*,*,#565,.T.);
#778=ORIENTED_EDGE('',*,*,#566,.F.);
#779=ORIENTED_EDGE('',*,*,#567,.F.);
#780=ORIENTED_EDGE('',*,*,#568,.T.);
#781=ORIENTED_EDGE('',*,*,#567,.T.);
#782=ORIENTED_EDGE('',*,*,#569,.F.);
#783=ORIENTED_EDGE('',*,*,#570,.F.);
#784=ORIENTED_EDGE('',*,*,#571,.F.);
#785=ORIENTED_EDGE('',*,*,#570,.T.);
#786=ORIENTED_EDGE('',*,*,#572,.F.);
#787=ORIENTED_EDGE('',*,*,#573,.F.);
#788=ORIENTED_EDGE('',*,*,#574,.T.);
#789=ORIENTED_EDGE('',*,*,#573,.T.);
#790=ORIENTED_EDGE('',*,*,#575,.F.);
#791=ORIENTED_EDGE('',*,*,#576,.F.);
#792=ORIENTED_EDGE('',*,*,#577,.F.);
#793=ORIENTED_EDGE('',*,*,#576,.T.);
#794=ORIENTED_EDGE('',*,*,#578,.F.);
#795=ORIENTED_EDGE('',*,*,#579,.F.);
#796=ORIENTED_EDGE('',*,*,#580,.T.);
#797=ORIENTED_EDGE('',*,*,#579,.T.);
#798=ORIENTED_EDGE('',*,*,#581,.F.);
#799=ORIENTED_EDGE('',*,*,#582,.F.);
#800=ORIENTED_EDGE('',*,*,#583,.F.);
#801=ORIENTED_EDGE('',*,*,#582,.T.);
#802=ORIENTED_EDGE('',*,*,#584,.F.);
#803=ORIENTED_EDGE('',*,*,#585,.F.);
#804=ORIENTED_EDGE('',*,*,#586,.T.);
#805=ORIENTED_EDGE('',*,*,#585,.T.);
#806=ORIENTED_EDGE('',*,*,#587,.F.);
#807=ORIENTED_EDGE('',*,*,#565,.F.);
#808=ORIENTED_EDGE('',*,*,#587,.T.);
#809=ORIENTED_EDGE('',*,*,#584,.T.);
#810=ORIENTED_EDGE('',*,*,#581,.T.);
#811=ORIENTED_EDGE('',*,*,#578,.T.);
#812=ORIENTED_EDGE('',*,*,#575,.T.);
#813=ORIENTED_EDGE('',*,*,#572,.T.);
#814=ORIENTED_EDGE('',*,*,#569,.T.);
#815=ORIENTED_EDGE('',*,*,#566,.T.);
#816=ORIENTED_EDGE('',*,*,#563,.T.);
#817=ORIENTED_EDGE('',*,*,#560,.T.);
#818=ORIENTED_EDGE('',*,*,#557,.T.);
#819=ORIENTED_EDGE('',*,*,#554,.T.);
#820=ORIENTED_EDGE('',*,*,#551,.T.);
#821=ORIENTED_EDGE('',*,*,#548,.T.);
#822=ORIENTED_EDGE('',*,*,#545,.T.);
#823=ORIENTED_EDGE('',*,*,#542,.T.);
#824=ORIENTED_EDGE('',*,*,#586,.F.);
#825=ORIENTED_EDGE('',*,*,#564,.T.);
#826=ORIENTED_EDGE('',*,*,#568,.F.);
#827=ORIENTED_EDGE('',*,*,#571,.T.);
#828=ORIENTED_EDGE('',*,*,#574,.F.);
#829=ORIENTED_EDGE('',*,*,#577,.T.);
#830=ORIENTED_EDGE('',*,*,#580,.F.);
#831=ORIENTED_EDGE('',*,*,#583,.T.);
#832=ORIENTED_EDGE('',*,*,#562,.F.);
#833=ORIENTED_EDGE('',*,*,#540,.F.);
#834=ORIENTED_EDGE('',*,*,#544,.F.);
#835=ORIENTED_EDGE('',*,*,#547,.F.);
#836=ORIENTED_EDGE('',*,*,#550,.F.);
#837=ORIENTED_EDGE('',*,*,#553,.F.);
#838=ORIENTED_EDGE('',*,*,#556,.F.);
#839=ORIENTED_EDGE('',*,*,#559,.F.);
#840=ORIENTED_EDGE('',*,*,#588,.T.);
#841=ORIENTED_EDGE('',*,*,#589,.T.);
#842=ORIENTED_EDGE('',*,*,#589,.F.);
#843=ORIENTED_EDGE('',*,*,#590,.T.);
#844=ORIENTED_EDGE('',*,*,#591,.T.);
#845=ORIENTED_EDGE('',*,*,#590,.F.);
#846=ORIENTED_EDGE('',*,*,#588,.F.);
#847=ORIENTED_EDGE('',*,*,#592,.T.);
#848=ORIENTED_EDGE('',*,*,#593,.T.);
#849=ORIENTED_EDGE('',*,*,#592,.F.);
#850=ORIENTED_EDGE('',*,*,#593,.F.);
#851=ORIENTED_EDGE('',*,*,#591,.F.);
#852=CYLINDRICAL_SURFACE('',#940,34.);
#853=CYLINDRICAL_SURFACE('',#944,2.10000000000001);
#854=CYLINDRICAL_SURFACE('',#948,2.10000000000001);
#855=CYLINDRICAL_SURFACE('',#952,2.10000000000001);
#856=CYLINDRICAL_SURFACE('',#956,2.10000000000001);
#857=CYLINDRICAL_SURFACE('',#960,2.99999999999976);
#858=CYLINDRICAL_SURFACE('',#964,2.9999999999999);
#859=CYLINDRICAL_SURFACE('',#968,2.9999999999999);
#860=CYLINDRICAL_SURFACE('',#972,2.99999999999969);
#861=CYLINDRICAL_SURFACE('',#976,0.0961505532331325);
#862=CYLINDRICAL_SURFACE('',#980,7.84422324655125);
#863=CYLINDRICAL_SURFACE('',#984,0.453566411870838);
#864=CYLINDRICAL_SURFACE('',#988,1.67148853073002);
#865=CYLINDRICAL_SURFACE('',#994,0.0188985081818771);
#866=CYLINDRICAL_SURFACE('',#998,1.23768856328086);
#867=CYLINDRICAL_SURFACE('',#1002,0.296656763530661);
#868=CYLINDRICAL_SURFACE('',#1006,2.7943389900048);
#869=CYLINDRICAL_SURFACE('',#1010,1.76745748625706);
#870=CYLINDRICAL_SURFACE('',#1014,2.7891364158728);
#871=CYLINDRICAL_SURFACE('',#1018,2.06766015568974);
#872=CYLINDRICAL_SURFACE('',#1022,7.84422324655119);
#873=CYLINDRICAL_SURFACE('',#1030,34.);
#874=CYLINDRICAL_SURFACE('',#1032,44.);
#875=ADVANCED_FACE('',(#57),#852,.F.);
#876=ADVANCED_FACE('',(#58),#31,.T.);
#877=ADVANCED_FACE('',(#59),#853,.F.);
#878=ADVANCED_FACE('',(#60),#32,.T.);
#879=ADVANCED_FACE('',(#61),#854,.F.);
#880=ADVANCED_FACE('',(#62),#33,.T.);
#881=ADVANCED_FACE('',(#63),#855,.F.);
#882=ADVANCED_FACE('',(#64),#34,.T.);
#883=ADVANCED_FACE('',(#65),#856,.F.);
#884=ADVANCED_FACE('',(#66),#35,.T.);
#885=ADVANCED_FACE('',(#67),#857,.F.);
#886=ADVANCED_FACE('',(#68),#36,.T.);
#887=ADVANCED_FACE('',(#69),#858,.F.);
#888=ADVANCED_FACE('',(#70),#37,.T.);
#889=ADVANCED_FACE('',(#71),#859,.F.);
#890=ADVANCED_FACE('',(#72),#38,.T.);
#891=ADVANCED_FACE('',(#73),#860,.F.);
#892=ADVANCED_FACE('',(#74),#39,.T.);
#893=ADVANCED_FACE('',(#75),#861,.T.);
#894=ADVANCED_FACE('',(#76),#40,.T.);
#895=ADVANCED_FACE('',(#77),#862,.T.);
#896=ADVANCED_FACE('',(#78),#41,.T.);
#897=ADVANCED_FACE('',(#79),#863,.T.);
#898=ADVANCED_FACE('',(#80),#42,.T.);
#899=ADVANCED_FACE('',(#81),#864,.T.);
#900=ADVANCED_FACE('',(#82,#19,#20,#21,#22),#43,.T.);
#901=ADVANCED_FACE('',(#83,#23,#24,#25,#26),#44,.F.);
#902=ADVANCED_FACE('',(#84),#45,.T.);
#903=ADVANCED_FACE('',(#85),#865,.F.);
#904=ADVANCED_FACE('',(#86),#46,.T.);
#905=ADVANCED_FACE('',(#87),#866,.F.);
#906=ADVANCED_FACE('',(#88),#47,.T.);
#907=ADVANCED_FACE('',(#89),#867,.F.);
#908=ADVANCED_FACE('',(#90),#48,.T.);
#909=ADVANCED_FACE('',(#91),#868,.F.);
#910=ADVANCED_FACE('',(#92),#49,.T.);
#911=ADVANCED_FACE('',(#93),#869,.T.);
#912=ADVANCED_FACE('',(#94),#50,.T.);
#913=ADVANCED_FACE('',(#95),#870,.T.);
#914=ADVANCED_FACE('',(#96),#51,.T.);
#915=ADVANCED_FACE('',(#97),#871,.T.);
#916=ADVANCED_FACE('',(#98),#52,.T.);
#917=ADVANCED_FACE('',(#99),#872,.T.);
#918=ADVANCED_FACE('',(#100,#27),#53,.T.);
#919=ADVANCED_FACE('',(#101,#28),#54,.F.);
#920=ADVANCED_FACE('',(#102,#29),#55,.T.);
#921=ADVANCED_FACE('',(#103),#873,.F.);
#922=ADVANCED_FACE('',(#104),#874,.T.);
#923=ADVANCED_FACE('',(#105,#30),#56,.F.);
#924=CLOSED_SHELL('',(#875,#876,#877,#878,#879,#880,#881,#882,#883,#884,
#885,#886,#887,#888,#889,#890,#891,#892,#893,#894,#895,#896,#897,#898,#899,
#900,#901));
#925=CLOSED_SHELL('',(#902,#903,#904,#905,#906,#907,#908,#909,#910,#911,
#912,#913,#914,#915,#916,#917,#918,#919));
#926=CLOSED_SHELL('',(#920,#921,#922,#923));
#927=DERIVED_UNIT_ELEMENT(#929,1.);
#928=DERIVED_UNIT_ELEMENT(#1580,-3.);
#929=(
MASS_UNIT()
NAMED_UNIT(*)
SI_UNIT(.KILO.,.GRAM.)
);
#930=DERIVED_UNIT((#927,#928));
#931=MEASURE_REPRESENTATION_ITEM('density measure',
POSITIVE_RATIO_MEASURE(7850.),#930);
#932=PROPERTY_DEFINITION_REPRESENTATION(#937,#934);
#933=PROPERTY_DEFINITION_REPRESENTATION(#938,#935);
#934=REPRESENTATION('material name',(#936),#1577);
#935=REPRESENTATION('density',(#931),#1577);
#936=DESCRIPTIVE_REPRESENTATION_ITEM('Steel','Steel');
#937=PROPERTY_DEFINITION('material property','material name',#1587);
#938=PROPERTY_DEFINITION('material property','density of part',#1587);
#939=AXIS2_PLACEMENT_3D('',#1310,#1035,#1036);
#940=AXIS2_PLACEMENT_3D('',#1311,#1037,#1038);
#941=AXIS2_PLACEMENT_3D('',#1313,#1039,#1040);
#942=AXIS2_PLACEMENT_3D('',#1316,#1042,#1043);
#943=AXIS2_PLACEMENT_3D('',#1317,#1044,#1045);
#944=AXIS2_PLACEMENT_3D('',#1326,#1050,#1051);
#945=AXIS2_PLACEMENT_3D('',#1328,#1052,#1053);
#946=AXIS2_PLACEMENT_3D('',#1330,#1054,#1055);
#947=AXIS2_PLACEMENT_3D('',#1332,#1057,#1058);
#948=AXIS2_PLACEMENT_3D('',#1338,#1062,#1063);
#949=AXIS2_PLACEMENT_3D('',#1339,#1064,#1065);
#950=AXIS2_PLACEMENT_3D('',#1340,#1066,#1067);
#951=AXIS2_PLACEMENT_3D('',#1341,#1068,#1069);
#952=AXIS2_PLACEMENT_3D('',#1350,#1074,#1075);
#953=AXIS2_PLACEMENT_3D('',#1352,#1076,#1077);
#954=AXIS2_PLACEMENT_3D('',#1354,#1078,#1079);
#955=AXIS2_PLACEMENT_3D('',#1356,#1081,#1082);
#956=AXIS2_PLACEMENT_3D('',#1362,#1086,#1087);
#957=AXIS2_PLACEMENT_3D('',#1363,#1088,#1089);
#958=AXIS2_PLACEMENT_3D('',#1364,#1090,#1091);
#959=AXIS2_PLACEMENT_3D('',#1365,#1092,#1093);
#960=AXIS2_PLACEMENT_3D('',#1374,#1098,#1099);
#961=AXIS2_PLACEMENT_3D('',#1376,#1100,#1101);
#962=AXIS2_PLACEMENT_3D('',#1378,#1102,#1103);
#963=AXIS2_PLACEMENT_3D('',#1380,#1105,#1106);
#964=AXIS2_PLACEMENT_3D('',#1386,#1110,#1111);
#965=AXIS2_PLACEMENT_3D('',#1388,#1112,#1113);
#966=AXIS2_PLACEMENT_3D('',#1390,#1114,#1115);
#967=AXIS2_PLACEMENT_3D('',#1392,#1117,#1118);
#968=AXIS2_PLACEMENT_3D('',#1398,#1122,#1123);
#969=AXIS2_PLACEMENT_3D('',#1400,#1124,#1125);
#970=AXIS2_PLACEMENT_3D('',#1402,#1126,#1127);
#971=AXIS2_PLACEMENT_3D('',#1404,#1129,#1130);
#972=AXIS2_PLACEMENT_3D('',#1410,#1134,#1135);
#973=AXIS2_PLACEMENT_3D('',#1411,#1136,#1137);
#974=AXIS2_PLACEMENT_3D('',#1412,#1138,#1139);
#975=AXIS2_PLACEMENT_3D('',#1413,#1140,#1141);
#976=AXIS2_PLACEMENT_3D('',#1422,#1146,#1147);
#977=AXIS2_PLACEMENT_3D('',#1424,#1148,#1149);
#978=AXIS2_PLACEMENT_3D('',#1426,#1150,#1151);
#979=AXIS2_PLACEMENT_3D('',#1428,#1153,#1154);
#980=AXIS2_PLACEMENT_3D('',#1434,#1158,#1159);
#981=AXIS2_PLACEMENT_3D('',#1436,#1160,#1161);
#982=AXIS2_PLACEMENT_3D('',#1438,#1162,#1163);
#983=AXIS2_PLACEMENT_3D('',#1440,#1165,#1166);
#984=AXIS2_PLACEMENT_3D('',#1446,#1170,#1171);
#985=AXIS2_PLACEMENT_3D('',#1448,#1172,#1173);
#986=AXIS2_PLACEMENT_3D('',#1450,#1174,#1175);
#987=AXIS2_PLACEMENT_3D('',#1452,#1177,#1178);
#988=AXIS2_PLACEMENT_3D('',#1458,#1182,#1183);
#989=AXIS2_PLACEMENT_3D('',#1459,#1184,#1185);
#990=AXIS2_PLACEMENT_3D('',#1460,#1186,#1187);
#991=AXIS2_PLACEMENT_3D('',#1461,#1188,#1189);
#992=AXIS2_PLACEMENT_3D('',#1462,#1190,#1191);
#993=AXIS2_PLACEMENT_3D('',#1463,#1192,#1193);
#994=AXIS2_PLACEMENT_3D('',#1472,#1198,#1199);
#995=AXIS2_PLACEMENT_3D('',#1474,#1200,#1201);
#996=AXIS2_PLACEMENT_3D('',#1476,#1202,#1203);
#997=AXIS2_PLACEMENT_3D('',#1478,#1205,#1206);
#998=AXIS2_PLACEMENT_3D('',#1484,#1210,#1211);
#999=AXIS2_PLACEMENT_3D('',#1486,#1212,#1213);
#1000=AXIS2_PLACEMENT_3D('',#1488,#1214,#1215);
#1001=AXIS2_PLACEMENT_3D('',#1490,#1217,#1218);
#1002=AXIS2_PLACEMENT_3D('',#1496,#1222,#1223);
#1003=AXIS2_PLACEMENT_3D('',#1498,#1224,#1225);
#1004=AXIS2_PLACEMENT_3D('',#1500,#1226,#1227);
#1005=AXIS2_PLACEMENT_3D('',#1502,#1229,#1230);
#1006=AXIS2_PLACEMENT_3D('',#1508,#1234,#1235);
#1007=AXIS2_PLACEMENT_3D('',#1509,#1236,#1237);
#1008=AXIS2_PLACEMENT_3D('',#1510,#1238,#1239);
#1009=AXIS2_PLACEMENT_3D('',#1511,#1240,#1241);
#1010=AXIS2_PLACEMENT_3D('',#1520,#1246,#1247);
#1011=AXIS2_PLACEMENT_3D('',#1522,#1248,#1249);
#1012=AXIS2_PLACEMENT_3D('',#1524,#1250,#1251);
#1013=AXIS2_PLACEMENT_3D('',#1526,#1253,#1254);
#1014=AXIS2_PLACEMENT_3D('',#1532,#1258,#1259);
#1015=AXIS2_PLACEMENT_3D('',#1534,#1260,#1261);
#1016=AXIS2_PLACEMENT_3D('',#1536,#1262,#1263);
#1017=AXIS2_PLACEMENT_3D('',#1538,#1265,#1266);
#1018=AXIS2_PLACEMENT_3D('',#1544,#1270,#1271);
#1019=AXIS2_PLACEMENT_3D('',#1546,#1272,#1273);
#1020=AXIS2_PLACEMENT_3D('',#1548,#1274,#1275);
#1021=AXIS2_PLACEMENT_3D('',#1550,#1277,#1278);
#1022=AXIS2_PLACEMENT_3D('',#1556,#1282,#1283);
#1023=AXIS2_PLACEMENT_3D('',#1557,#1284,#1285);
#1024=AXIS2_PLACEMENT_3D('',#1558,#1286,#1287);
#1025=AXIS2_PLACEMENT_3D('',#1559,#1288,#1289);
#1026=AXIS2_PLACEMENT_3D('',#1560,#1290,#1291);
#1027=AXIS2_PLACEMENT_3D('',#1561,#1292,#1293);
#1028=AXIS2_PLACEMENT_3D('',#1563,#1294,#1295);
#1029=AXIS2_PLACEMENT_3D('',#1565,#1296,#1297);
#1030=AXIS2_PLACEMENT_3D('',#1566,#1298,#1299);
#1031=AXIS2_PLACEMENT_3D('',#1569,#1301,#1302);
#1032=AXIS2_PLACEMENT_3D('',#1570,#1303,#1304);
#1033=AXIS2_PLACEMENT_3D('',#1573,#1306,#1307);
#1034=AXIS2_PLACEMENT_3D('',#1574,#1308,#1309);
#1035=DIRECTION('axis',(0.,0.,1.));
#1036=DIRECTION('refdir',(1.,0.,0.));
#1037=DIRECTION('center_axis',(0.,0.,1.));
#1038=DIRECTION('ref_axis',(1.,0.,0.));
#1039=DIRECTION('center_axis',(0.,0.,-1.));
#1040=DIRECTION('ref_axis',(1.,0.,0.));
#1041=DIRECTION('',(0.,0.,-1.));
#1042=DIRECTION('center_axis',(0.,0.,-1.));
#1043=DIRECTION('ref_axis',(1.,0.,0.));
#1044=DIRECTION('center_axis',(0.,-1.,0.));
#1045=DIRECTION('ref_axis',(1.,0.,0.));
#1046=DIRECTION('',(1.,0.,0.));
#1047=DIRECTION('',(0.,0.,1.));
#1048=DIRECTION('',(1.,0.,0.));
#1049=DIRECTION('',(0.,0.,1.));
#1050=DIRECTION('center_axis',(0.,0.,1.));
#1051=DIRECTION('ref_axis',(0.,1.,0.));
#1052=DIRECTION('center_axis',(0.,0.,-1.));
#1053=DIRECTION('ref_axis',(0.,1.,0.));
#1054=DIRECTION('center_axis',(0.,0.,-1.));
#1055=DIRECTION('ref_axis',(0.,1.,0.));
#1056=DIRECTION('',(0.,0.,1.));
#1057=DIRECTION('center_axis',(0.,1.,0.));
#1058=DIRECTION('ref_axis',(-1.,0.,0.));
#1059=DIRECTION('',(-1.,0.,0.));
#1060=DIRECTION('',(-1.,0.,0.));
#1061=DIRECTION('',(0.,0.,1.));
#1062=DIRECTION('center_axis',(0.,0.,1.));
#1063=DIRECTION('ref_axis',(0.,-1.,0.));
#1064=DIRECTION('center_axis',(0.,0.,-1.));
#1065=DIRECTION('ref_axis',(0.,-1.,0.));
#1066=DIRECTION('center_axis',(0.,0.,-1.));
#1067=DIRECTION('ref_axis',(0.,-1.,0.));
#1068=DIRECTION('center_axis',(0.,-1.,0.));
#1069=DIRECTION('ref_axis',(1.,0.,0.));
#1070=DIRECTION('',(1.,0.,0.));
#1071=DIRECTION('',(0.,0.,1.));
#1072=DIRECTION('',(1.,0.,0.));
#1073=DIRECTION('',(0.,0.,1.));
#1074=DIRECTION('center_axis',(0.,0.,1.));
#1075=DIRECTION('ref_axis',(0.,1.,0.));
#1076=DIRECTION('center_axis',(0.,0.,-1.));
#1077=DIRECTION('ref_axis',(0.,1.,0.));
#1078=DIRECTION('center_axis',(0.,0.,-1.));
#1079=DIRECTION('ref_axis',(0.,1.,0.));
#1080=DIRECTION('',(0.,0.,1.));
#1081=DIRECTION('center_axis',(0.,1.,0.));
#1082=DIRECTION('ref_axis',(-1.,0.,0.));
#1083=DIRECTION('',(-1.,0.,0.));
#1084=DIRECTION('',(-1.,0.,0.));
#1085=DIRECTION('',(0.,0.,1.));
#1086=DIRECTION('center_axis',(0.,0.,1.));
#1087=DIRECTION('ref_axis',(0.,-1.,0.));
#1088=DIRECTION('center_axis',(0.,0.,-1.));
#1089=DIRECTION('ref_axis',(0.,-1.,0.));
#1090=DIRECTION('center_axis',(0.,0.,-1.));
#1091=DIRECTION('ref_axis',(0.,-1.,0.));
#1092=DIRECTION('center_axis',(0.,-1.,0.));
#1093=DIRECTION('ref_axis',(1.,0.,0.));
#1094=DIRECTION('',(1.,0.,0.));
#1095=DIRECTION('',(0.,0.,1.));
#1096=DIRECTION('',(1.,0.,0.));
#1097=DIRECTION('',(0.,0.,1.));
#1098=DIRECTION('center_axis',(0.,0.,1.));
#1099=DIRECTION('ref_axis',(4.73695157173438E-14,1.,0.));
#1100=DIRECTION('center_axis',(0.,0.,-1.));
#1101=DIRECTION('ref_axis',(4.73695157173438E-14,1.,0.));
#1102=DIRECTION('center_axis',(0.,0.,-1.));
#1103=DIRECTION('ref_axis',(4.73695157173438E-14,1.,0.));
#1104=DIRECTION('',(0.,0.,1.));
#1105=DIRECTION('center_axis',(1.,-1.96826242592825E-15,0.));
#1106=DIRECTION('ref_axis',(1.96826242592825E-15,1.,0.));
#1107=DIRECTION('',(1.96826242592825E-15,1.,0.));
#1108=DIRECTION('',(1.96826242592825E-15,1.,0.));
#1109=DIRECTION('',(0.,0.,1.));
#1110=DIRECTION('center_axis',(0.,0.,1.));
#1111=DIRECTION('ref_axis',(-1.,2.36847578586708E-14,0.));
#1112=DIRECTION('center_axis',(0.,0.,-1.));
#1113=DIRECTION('ref_axis',(-1.,2.36847578586708E-14,0.));
#1114=DIRECTION('center_axis',(0.,0.,-1.));
#1115=DIRECTION('ref_axis',(-1.,2.36847578586708E-14,0.));
#1116=DIRECTION('',(0.,0.,1.));
#1117=DIRECTION('center_axis',(-1.96826242592824E-15,1.,0.));
#1118=DIRECTION('ref_axis',(-1.,-1.96826242592824E-15,0.));
#1119=DIRECTION('',(-1.,-1.96826242592824E-15,0.));
#1120=DIRECTION('',(-1.,-1.96826242592824E-15,0.));
#1121=DIRECTION('',(0.,0.,1.));
#1122=DIRECTION('center_axis',(0.,0.,1.));
#1123=DIRECTION('ref_axis',(4.73695157173416E-14,-1.,0.));
#1124=DIRECTION('center_axis',(0.,0.,-1.));
#1125=DIRECTION('ref_axis',(4.73695157173416E-14,-1.,0.));
#1126=DIRECTION('center_axis',(0.,0.,-1.));
#1127=DIRECTION('ref_axis',(4.73695157173416E-14,-1.,0.));
#1128=DIRECTION('',(0.,0.,1.));
#1129=DIRECTION('center_axis',(-1.,0.,0.));
#1130=DIRECTION('ref_axis',(0.,-1.,0.));
#1131=DIRECTION('',(0.,-1.,0.));
#1132=DIRECTION('',(0.,-1.,0.));
#1133=DIRECTION('',(0.,0.,1.));
#1134=DIRECTION('center_axis',(0.,0.,1.));
#1135=DIRECTION('ref_axis',(1.,-9.47390314346899E-14,0.));
#1136=DIRECTION('center_axis',(0.,0.,-1.));
#1137=DIRECTION('ref_axis',(1.,-9.47390314346899E-14,0.));
#1138=DIRECTION('center_axis',(0.,0.,-1.));
#1139=DIRECTION('ref_axis',(1.,-9.47390314346899E-14,0.));
#1140=DIRECTION('center_axis',(0.,-1.,0.));
#1141=DIRECTION('ref_axis',(1.,0.,0.));
#1142=DIRECTION('',(1.,0.,0.));
#1143=DIRECTION('',(0.,0.,1.));
#1144=DIRECTION('',(1.,0.,0.));
#1145=DIRECTION('',(0.,0.,1.));
#1146=DIRECTION('center_axis',(0.,0.,1.));
#1147=DIRECTION('ref_axis',(-1.,0.,0.));
#1148=DIRECTION('center_axis',(0.,0.,1.));
#1149=DIRECTION('ref_axis',(-1.,0.,0.));
#1150=DIRECTION('center_axis',(0.,0.,1.));
#1151=DIRECTION('ref_axis',(-1.,0.,0.));
#1152=DIRECTION('',(0.,0.,1.));
#1153=DIRECTION('center_axis',(-1.,1.00723394174374E-16,0.));
#1154=DIRECTION('ref_axis',(-1.00723394174374E-16,-1.,0.));
#1155=DIRECTION('',(-1.00723394174374E-16,-1.,0.));
#1156=DIRECTION('',(-1.00723394174374E-16,-1.,0.));
#1157=DIRECTION('',(0.,0.,1.));
#1158=DIRECTION('center_axis',(0.,0.,1.));
#1159=DIRECTION('ref_axis',(0.,1.,0.));
#1160=DIRECTION('center_axis',(0.,0.,1.));
#1161=DIRECTION('ref_axis',(0.,1.,0.));
#1162=DIRECTION('center_axis',(0.,0.,1.));
#1163=DIRECTION('ref_axis',(0.,1.,0.));
#1164=DIRECTION('',(0.,0.,1.));
#1165=DIRECTION('center_axis',(0.,1.,0.));
#1166=DIRECTION('ref_axis',(-1.,0.,0.));
#1167=DIRECTION('',(-1.,0.,0.));
#1168=DIRECTION('',(-1.,0.,0.));
#1169=DIRECTION('',(0.,0.,1.));
#1170=DIRECTION('center_axis',(0.,0.,1.));
#1171=DIRECTION('ref_axis',(1.,0.,0.));
#1172=DIRECTION('center_axis',(0.,0.,1.));
#1173=DIRECTION('ref_axis',(1.,0.,0.));
#1174=DIRECTION('center_axis',(0.,0.,1.));
#1175=DIRECTION('ref_axis',(1.,0.,0.));
#1176=DIRECTION('',(0.,0.,1.));
#1177=DIRECTION('center_axis',(1.,0.,0.));
#1178=DIRECTION('ref_axis',(0.,1.,0.));
#1179=DIRECTION('',(0.,1.,0.));
#1180=DIRECTION('',(0.,1.,0.));
#1181=DIRECTION('',(0.,0.,1.));
#1182=DIRECTION('center_axis',(0.,0.,1.));
#1183=DIRECTION('ref_axis',(0.,-1.,0.));
#1184=DIRECTION('center_axis',(0.,0.,1.));
#1185=DIRECTION('ref_axis',(0.,-1.,0.));
#1186=DIRECTION('center_axis',(0.,0.,1.));
#1187=DIRECTION('ref_axis',(0.,-1.,0.));
#1188=DIRECTION('center_axis',(0.,0.,1.));
#1189=DIRECTION('ref_axis',(1.,0.,0.));
#1190=DIRECTION('center_axis',(0.,0.,1.));
#1191=DIRECTION('ref_axis',(1.,0.,0.));
#1192=DIRECTION('center_axis',(-1.,4.29859020813724E-16,0.));
#1193=DIRECTION('ref_axis',(4.29859020813724E-16,1.,0.));
#1194=DIRECTION('',(4.29859020813724E-16,1.,0.));
#1195=DIRECTION('',(0.,0.,-1.));
#1196=DIRECTION('',(4.29859020813724E-16,1.,0.));
#1197=DIRECTION('',(0.,0.,-1.));
#1198=DIRECTION('center_axis',(0.,0.,-1.));
#1199=DIRECTION('ref_axis',(1.,0.,0.));
#1200=DIRECTION('center_axis',(0.,0.,1.));
#1201=DIRECTION('ref_axis',(1.,0.,0.));
#1202=DIRECTION('center_axis',(0.,0.,1.));
#1203=DIRECTION('ref_axis',(1.,0.,0.));
#1204=DIRECTION('',(0.,0.,-1.));
#1205=DIRECTION('center_axis',(-7.3708485260757E-17,1.,0.));
#1206=DIRECTION('ref_axis',(1.,7.3708485260757E-17,0.));
#1207=DIRECTION('',(1.,7.3708485260757E-17,0.));
#1208=DIRECTION('',(1.,7.3708485260757E-17,0.));
#1209=DIRECTION('',(0.,0.,-1.));
#1210=DIRECTION('center_axis',(0.,0.,-1.));
#1211=DIRECTION('ref_axis',(-7.17610589650878E-15,-1.,0.));
#1212=DIRECTION('center_axis',(0.,0.,1.));
#1213=DIRECTION('ref_axis',(-7.17610589650878E-15,-1.,0.));
#1214=DIRECTION('center_axis',(0.,0.,1.));
#1215=DIRECTION('ref_axis',(-7.17610589650878E-15,-1.,0.));
#1216=DIRECTION('',(0.,0.,-1.));
#1217=DIRECTION('center_axis',(1.,8.70124798651802E-15,0.));
#1218=DIRECTION('ref_axis',(8.70124798651802E-15,-1.,0.));
#1219=DIRECTION('',(8.70124798651802E-15,-1.,0.));
#1220=DIRECTION('',(8.70124798651802E-15,-1.,0.));
#1221=DIRECTION('',(0.,0.,-1.));
#1222=DIRECTION('center_axis',(0.,0.,-1.));
#1223=DIRECTION('ref_axis',(-1.,4.79033565460349E-13,0.));
#1224=DIRECTION('center_axis',(0.,0.,1.));
#1225=DIRECTION('ref_axis',(-1.,4.79033565460349E-13,0.));
#1226=DIRECTION('center_axis',(0.,0.,1.));
#1227=DIRECTION('ref_axis',(-1.,4.79033565460349E-13,0.));
#1228=DIRECTION('',(0.,0.,-1.));
#1229=DIRECTION('center_axis',(1.53997208112361E-12,-1.,0.));
#1230=DIRECTION('ref_axis',(-1.,-1.53997208112361E-12,0.));
#1231=DIRECTION('',(-1.,-1.53997208112361E-12,0.));
#1232=DIRECTION('',(-1.,-1.53997208112361E-12,0.));
#1233=DIRECTION('',(0.,0.,-1.));
#1234=DIRECTION('center_axis',(0.,0.,-1.));
#1235=DIRECTION('ref_axis',(-1.32225268271627E-12,1.,0.));
#1236=DIRECTION('center_axis',(0.,0.,1.));
#1237=DIRECTION('ref_axis',(-1.32225268271627E-12,1.,0.));
#1238=DIRECTION('center_axis',(0.,0.,1.));
#1239=DIRECTION('ref_axis',(-1.32225268271627E-12,1.,0.));
#1240=DIRECTION('center_axis',(-1.,4.5776075414562E-17,0.));
#1241=DIRECTION('ref_axis',(4.5776075414562E-17,1.,0.));
#1242=DIRECTION('',(-4.5776075414562E-17,-1.,0.));
#1243=DIRECTION('',(0.,0.,-1.));
#1244=DIRECTION('',(4.5776075414562E-17,1.,0.));
#1245=DIRECTION('',(0.,0.,-1.));
#1246=DIRECTION('center_axis',(0.,0.,-1.));
#1247=DIRECTION('ref_axis',(-2.01007023163204E-14,-1.,0.));
#1248=DIRECTION('center_axis',(0.,0.,-1.));
#1249=DIRECTION('ref_axis',(-2.01007023163204E-14,-1.,0.));
#1250=DIRECTION('center_axis',(0.,0.,-1.));
#1251=DIRECTION('ref_axis',(-2.01007023163204E-14,-1.,0.));
#1252=DIRECTION('',(0.,0.,-1.));
#1253=DIRECTION('center_axis',(9.25734726294803E-17,-1.,0.));
#1254=DIRECTION('ref_axis',(-1.,-9.25734726294803E-17,0.));
#1255=DIRECTION('',(1.,9.25734726294803E-17,0.));
#1256=DIRECTION('',(-1.,-9.25734726294803E-17,0.));
#1257=DIRECTION('',(0.,0.,-1.));
#1258=DIRECTION('center_axis',(0.,0.,-1.));
#1259=DIRECTION('ref_axis',(1.,6.36884172925753E-15,0.));
#1260=DIRECTION('center_axis',(0.,0.,-1.));
#1261=DIRECTION('ref_axis',(1.,6.36884172925753E-15,0.));
#1262=DIRECTION('center_axis',(0.,0.,-1.));
#1263=DIRECTION('ref_axis',(1.,6.36884172925753E-15,0.));
#1264=DIRECTION('',(0.,0.,-1.));
#1265=DIRECTION('center_axis',(1.,0.,0.));
#1266=DIRECTION('ref_axis',(0.,-1.,0.));
#1267=DIRECTION('',(0.,1.,0.));
#1268=DIRECTION('',(0.,-1.,0.));
#1269=DIRECTION('',(0.,0.,-1.));
#1270=DIRECTION('center_axis',(0.,0.,-1.));
#1271=DIRECTION('ref_axis',(-1.58077069652974E-12,1.,0.));
#1272=DIRECTION('center_axis',(0.,0.,-1.));
#1273=DIRECTION('ref_axis',(-1.58077069652974E-12,1.,0.));
#1274=DIRECTION('center_axis',(0.,0.,-1.));
#1275=DIRECTION('ref_axis',(-1.58077069652974E-12,1.,0.));
#1276=DIRECTION('',(0.,0.,-1.));
#1277=DIRECTION('center_axis',(-1.76998191998341E-12,1.,0.));
#1278=DIRECTION('ref_axis',(1.,1.76998191998341E-12,0.));
#1279=DIRECTION('',(-1.,-1.76998191998341E-12,0.));
#1280=DIRECTION('',(1.,1.76998191998341E-12,0.));
#1281=DIRECTION('',(0.,0.,-1.));
#1282=DIRECTION('center_axis',(0.,0.,-1.));
#1283=DIRECTION('ref_axis',(-1.,-1.81163313033575E-14,0.));
#1284=DIRECTION('center_axis',(0.,0.,-1.));
#1285=DIRECTION('ref_axis',(-1.,-1.81163313033575E-14,0.));
#1286=DIRECTION('center_axis',(0.,0.,-1.));
#1287=DIRECTION('ref_axis',(-1.,-1.81163313033575E-14,0.));
#1288=DIRECTION('center_axis',(0.,0.,-1.));
#1289=DIRECTION('ref_axis',(1.,0.,0.));
#1290=DIRECTION('center_axis',(0.,0.,-1.));
#1291=DIRECTION('ref_axis',(1.,0.,0.));
#1292=DIRECTION('center_axis',(0.,0.,-1.));
#1293=DIRECTION('ref_axis',(1.,0.,0.));
#1294=DIRECTION('center_axis',(0.,0.,-1.));
#1295=DIRECTION('ref_axis',(1.,0.,0.));
#1296=DIRECTION('center_axis',(0.,0.,1.));
#1297=DIRECTION('ref_axis',(1.,0.,0.));
#1298=DIRECTION('center_axis',(0.,0.,-1.));
#1299=DIRECTION('ref_axis',(1.,0.,0.));
#1300=DIRECTION('',(0.,0.,1.));
#1301=DIRECTION('center_axis',(0.,0.,1.));
#1302=DIRECTION('ref_axis',(1.,0.,0.));
#1303=DIRECTION('center_axis',(0.,0.,-1.));
#1304=DIRECTION('ref_axis',(1.,0.,0.));
#1305=DIRECTION('',(0.,0.,1.));
#1306=DIRECTION('center_axis',(0.,0.,-1.));
#1307=DIRECTION('ref_axis',(1.,0.,0.));
#1308=DIRECTION('center_axis',(0.,0.,-1.));
#1309=DIRECTION('ref_axis',(1.,0.,0.));
#1310=CARTESIAN_POINT('',(0.,0.,0.));
#1311=CARTESIAN_POINT('Origin',(350.,350.,0.));
#1312=CARTESIAN_POINT('',(316.,350.,18.));
#1313=CARTESIAN_POINT('Origin',(350.,350.,18.));
#1314=CARTESIAN_POINT('',(316.,350.,0.));
#1315=CARTESIAN_POINT('',(316.,350.,0.));
#1316=CARTESIAN_POINT('Origin',(350.,350.,0.));
#1317=CARTESIAN_POINT('Origin',(293.95,408.65,0.));
#1318=CARTESIAN_POINT('',(293.95,408.65,0.));
#1319=CARTESIAN_POINT('',(318.95,408.65,0.));
#1320=CARTESIAN_POINT('',(318.95,408.65,0.));
#1321=CARTESIAN_POINT('',(318.95,408.65,18.));
#1322=CARTESIAN_POINT('',(318.95,408.65,0.));
#1323=CARTESIAN_POINT('',(293.95,408.65,18.));
#1324=CARTESIAN_POINT('',(318.95,408.65,18.));
#1325=CARTESIAN_POINT('',(293.95,408.65,0.));
#1326=CARTESIAN_POINT('Origin',(293.95,406.55,0.));
#1327=CARTESIAN_POINT('',(293.95,404.45,0.));
#1328=CARTESIAN_POINT('Origin',(293.95,406.55,0.));
#1329=CARTESIAN_POINT('',(293.95,404.45,18.));
#1330=CARTESIAN_POINT('Origin',(293.95,406.55,18.));
#1331=CARTESIAN_POINT('',(293.95,404.45,0.));
#1332=CARTESIAN_POINT('Origin',(318.95,404.45,0.));
#1333=CARTESIAN_POINT('',(318.95,404.45,0.));
#1334=CARTESIAN_POINT('',(293.95,404.45,0.));
#1335=CARTESIAN_POINT('',(318.95,404.45,18.));
#1336=CARTESIAN_POINT('',(293.95,404.45,18.));
#1337=CARTESIAN_POINT('',(318.95,404.45,0.));
#1338=CARTESIAN_POINT('Origin',(318.95,406.55,0.));
#1339=CARTESIAN_POINT('Origin',(318.95,406.55,0.));
#1340=CARTESIAN_POINT('Origin',(318.95,406.55,18.));
#1341=CARTESIAN_POINT('Origin',(293.95,441.05,0.));
#1342=CARTESIAN_POINT('',(293.95,441.05,0.));
#1343=CARTESIAN_POINT('',(318.95,441.05,0.));
#1344=CARTESIAN_POINT('',(318.95,441.05,0.));
#1345=CARTESIAN_POINT('',(318.95,441.05,18.));
#1346=CARTESIAN_POINT('',(318.95,441.05,0.));
#1347=CARTESIAN_POINT('',(293.95,441.05,18.));
#1348=CARTESIAN_POINT('',(318.95,441.05,18.));
#1349=CARTESIAN_POINT('',(293.95,441.05,0.));
#1350=CARTESIAN_POINT('Origin',(293.95,438.95,0.));
#1351=CARTESIAN_POINT('',(293.95,436.85,0.));
#1352=CARTESIAN_POINT('Origin',(293.95,438.95,0.));
#1353=CARTESIAN_POINT('',(293.95,436.85,18.));
#1354=CARTESIAN_POINT('Origin',(293.95,438.95,18.));
#1355=CARTESIAN_POINT('',(293.95,436.85,0.));
#1356=CARTESIAN_POINT('Origin',(318.95,436.85,0.));
#1357=CARTESIAN_POINT('',(318.95,436.85,0.));
#1358=CARTESIAN_POINT('',(293.95,436.85,0.));
#1359=CARTESIAN_POINT('',(318.95,436.85,18.));
#1360=CARTESIAN_POINT('',(293.95,436.85,18.));
#1361=CARTESIAN_POINT('',(318.95,436.85,0.));
#1362=CARTESIAN_POINT('Origin',(318.95,438.95,0.));
#1363=CARTESIAN_POINT('Origin',(318.95,438.95,0.));
#1364=CARTESIAN_POINT('Origin',(318.95,438.95,18.));
#1365=CARTESIAN_POINT('Origin',(331.95,443.8,0.));
#1366=CARTESIAN_POINT('',(331.95,443.8,0.));
#1367=CARTESIAN_POINT('',(368.05,443.8,0.));
#1368=CARTESIAN_POINT('',(331.95,443.8,0.));
#1369=CARTESIAN_POINT('',(368.05,443.8,18.));
#1370=CARTESIAN_POINT('',(368.05,443.8,0.));
#1371=CARTESIAN_POINT('',(331.95,443.8,18.));
#1372=CARTESIAN_POINT('',(331.95,443.8,18.));
#1373=CARTESIAN_POINT('',(331.95,443.8,0.));
#1374=CARTESIAN_POINT('Origin',(331.95,440.8,0.));
#1375=CARTESIAN_POINT('',(328.95,440.8,0.));
#1376=CARTESIAN_POINT('Origin',(331.95,440.8,0.));
#1377=CARTESIAN_POINT('',(328.95,440.8,18.));
#1378=CARTESIAN_POINT('Origin',(331.95,440.8,18.));
#1379=CARTESIAN_POINT('',(328.95,440.8,0.));
#1380=CARTESIAN_POINT('Origin',(328.95,404.7,0.));
#1381=CARTESIAN_POINT('',(328.95,404.7,0.));
#1382=CARTESIAN_POINT('',(328.95,404.7,0.));
#1383=CARTESIAN_POINT('',(328.95,404.7,18.));
#1384=CARTESIAN_POINT('',(328.95,404.7,18.));
#1385=CARTESIAN_POINT('',(328.95,404.7,0.));
#1386=CARTESIAN_POINT('Origin',(331.95,404.7,0.));
#1387=CARTESIAN_POINT('',(331.95,401.7,0.));
#1388=CARTESIAN_POINT('Origin',(331.95,404.7,0.));
#1389=CARTESIAN_POINT('',(331.95,401.7,18.));
#1390=CARTESIAN_POINT('Origin',(331.95,404.7,18.));
#1391=CARTESIAN_POINT('',(331.95,401.7,0.));
#1392=CARTESIAN_POINT('Origin',(368.05,401.7,0.));
#1393=CARTESIAN_POINT('',(368.05,401.7,0.));
#1394=CARTESIAN_POINT('',(368.05,401.7,0.));
#1395=CARTESIAN_POINT('',(368.05,401.7,18.));
#1396=CARTESIAN_POINT('',(368.05,401.7,18.));
#1397=CARTESIAN_POINT('',(368.05,401.7,0.));
#1398=CARTESIAN_POINT('Origin',(368.05,404.7,0.));
#1399=CARTESIAN_POINT('',(371.05,404.7,0.));
#1400=CARTESIAN_POINT('Origin',(368.05,404.7,0.));
#1401=CARTESIAN_POINT('',(371.05,404.7,18.));
#1402=CARTESIAN_POINT('Origin',(368.05,404.7,18.));
#1403=CARTESIAN_POINT('',(371.05,404.7,0.));
#1404=CARTESIAN_POINT('Origin',(371.05,440.8,0.));
#1405=CARTESIAN_POINT('',(371.05,440.8,0.));
#1406=CARTESIAN_POINT('',(371.05,440.8,0.));
#1407=CARTESIAN_POINT('',(371.05,440.8,18.));
#1408=CARTESIAN_POINT('',(371.05,440.8,18.));
#1409=CARTESIAN_POINT('',(371.05,440.8,0.));
#1410=CARTESIAN_POINT('Origin',(368.05,440.8,0.));
#1411=CARTESIAN_POINT('Origin',(368.05,440.8,0.));
#1412=CARTESIAN_POINT('Origin',(368.05,440.8,18.));
#1413=CARTESIAN_POINT('Origin',(0.0961505532330964,0.,0.));
#1414=CARTESIAN_POINT('',(0.0961505532330964,-5.55111512312578E-16,0.));
#1415=CARTESIAN_POINT('',(698.32851146927,0.,0.));
#1416=CARTESIAN_POINT('',(0.0961505532330964,0.,0.));
#1417=CARTESIAN_POINT('',(698.32851146927,0.,18.));
#1418=CARTESIAN_POINT('',(698.32851146927,0.,0.));
#1419=CARTESIAN_POINT('',(0.0961505532330875,0.,18.));
#1420=CARTESIAN_POINT('',(0.0961505532330964,0.,18.));
#1421=CARTESIAN_POINT('',(0.0961505532330964,-5.55111512312578E-16,0.));
#1422=CARTESIAN_POINT('Origin',(0.0961505532330964,0.0961505532331319,0.));
#1423=CARTESIAN_POINT('',(-3.60822483003176E-14,0.0961505532331319,0.));
#1424=CARTESIAN_POINT('Origin',(0.0961505532330964,0.0961505532331319,0.));
#1425=CARTESIAN_POINT('',(-7.105427357601E-14,0.0961505532331586,18.));
#1426=CARTESIAN_POINT('Origin',(0.0961505532330964,0.0961505532331319,18.));
#1427=CARTESIAN_POINT('',(-3.60822483003176E-14,0.0961505532331319,0.));
#1428=CARTESIAN_POINT('Origin',(3.36295506825901E-14,692.155776753449,0.));
#1429=CARTESIAN_POINT('',(3.5527136788005E-14,692.155776753449,0.));
#1430=CARTESIAN_POINT('',(3.36295506825901E-14,692.155776753449,0.));
#1431=CARTESIAN_POINT('',(7.105427357601E-14,692.155776753449,18.));
#1432=CARTESIAN_POINT('',(3.36295506825901E-14,692.155776753449,18.));
#1433=CARTESIAN_POINT('',(3.5527136788005E-14,692.155776753449,0.));
#1434=CARTESIAN_POINT('Origin',(7.84422324655129,692.155776753449,0.));
#1435=CARTESIAN_POINT('',(7.84422324655129,700.,0.));
#1436=CARTESIAN_POINT('Origin',(7.84422324655129,692.155776753449,0.));
#1437=CARTESIAN_POINT('',(7.84422324655132,700.,18.));
#1438=CARTESIAN_POINT('Origin',(7.84422324655129,692.155776753449,18.));
#1439=CARTESIAN_POINT('',(7.84422324655129,700.,0.));
#1440=CARTESIAN_POINT('Origin',(699.546433588129,700.,0.));
#1441=CARTESIAN_POINT('',(699.546433588129,700.,0.));
#1442=CARTESIAN_POINT('',(699.546433588129,700.,0.));
#1443=CARTESIAN_POINT('',(699.546433588129,700.,18.));
#1444=CARTESIAN_POINT('',(699.546433588129,700.,18.));
#1445=CARTESIAN_POINT('',(699.546433588129,700.,0.));
#1446=CARTESIAN_POINT('Origin',(699.546433588129,699.546433588129,0.));
#1447=CARTESIAN_POINT('',(700.,699.546433588129,0.));
#1448=CARTESIAN_POINT('Origin',(699.546433588129,699.546433588129,0.));
#1449=CARTESIAN_POINT('',(700.,699.546433588129,18.));
#1450=CARTESIAN_POINT('Origin',(699.546433588129,699.546433588129,18.));
#1451=CARTESIAN_POINT('',(700.,699.546433588129,0.));
#1452=CARTESIAN_POINT('Origin',(700.,1.67148853073002,0.));
#1453=CARTESIAN_POINT('',(700.,1.67148853073002,0.));
#1454=CARTESIAN_POINT('',(700.,1.67148853073002,0.));
#1455=CARTESIAN_POINT('',(700.,1.67148853073002,18.));
#1456=CARTESIAN_POINT('',(700.,1.67148853073002,18.));
#1457=CARTESIAN_POINT('',(700.,1.67148853073002,0.));
#1458=CARTESIAN_POINT('Origin',(698.32851146927,1.67148853073002,0.));
#1459=CARTESIAN_POINT('Origin',(698.32851146927,1.67148853073002,0.));
#1460=CARTESIAN_POINT('Origin',(698.32851146927,1.67148853073002,18.));
#1461=CARTESIAN_POINT('Origin',(350.,350.,18.));
#1462=CARTESIAN_POINT('Origin',(350.,350.,0.));
#1463=CARTESIAN_POINT('Origin',(682.,18.0188985081821,0.));
#1464=CARTESIAN_POINT('',(682.,18.0188985081821,0.));
#1465=CARTESIAN_POINT('',(682.,679.205661010029,0.));
#1466=CARTESIAN_POINT('',(682.,18.0188985081821,0.));
#1467=CARTESIAN_POINT('',(682.,679.205661010029,-50.));
#1468=CARTESIAN_POINT('',(682.,679.205661010029,0.));
#1469=CARTESIAN_POINT('',(682.,18.0188985081821,-50.));
#1470=CARTESIAN_POINT('',(682.,18.0188985081821,-50.));
#1471=CARTESIAN_POINT('',(682.,18.0188985081821,0.));
#1472=CARTESIAN_POINT('Origin',(681.981101491818,18.0188985081821,0.));
#1473=CARTESIAN_POINT('',(681.981101491818,18.0000000000002,0.));
#1474=CARTESIAN_POINT('Origin',(681.981101491818,18.0188985081821,0.));
#1475=CARTESIAN_POINT('',(681.981101491818,18.0000000000003,-50.));
#1476=CARTESIAN_POINT('Origin',(681.981101491818,18.0188985081821,-50.));
#1477=CARTESIAN_POINT('',(681.981101491818,18.0000000000002,0.));
#1478=CARTESIAN_POINT('Origin',(19.2376885632808,18.,0.));
#1479=CARTESIAN_POINT('',(19.2376885632808,18.,0.));
#1480=CARTESIAN_POINT('',(19.2376885632808,18.,0.));
#1481=CARTESIAN_POINT('',(19.2376885632808,18.,-50.));
#1482=CARTESIAN_POINT('',(19.2376885632808,18.,-50.));
#1483=CARTESIAN_POINT('',(19.2376885632808,18.,0.));
#1484=CARTESIAN_POINT('Origin',(19.2376885632808,19.2376885632809,0.));
#1485=CARTESIAN_POINT('',(18.,19.2376885632809,0.));
#1486=CARTESIAN_POINT('Origin',(19.2376885632808,19.2376885632809,0.));
#1487=CARTESIAN_POINT('',(18.,19.2376885632808,-50.));
#1488=CARTESIAN_POINT('Origin',(19.2376885632808,19.2376885632809,-50.));
#1489=CARTESIAN_POINT('',(18.,19.2376885632809,0.));
#1490=CARTESIAN_POINT('Origin',(17.9999999999942,681.70334323548,0.));
#1491=CARTESIAN_POINT('',(17.9999999999942,681.70334323548,0.));
#1492=CARTESIAN_POINT('',(17.9999999999942,681.70334323548,0.));
#1493=CARTESIAN_POINT('',(17.9999999999941,681.70334323548,-50.));
#1494=CARTESIAN_POINT('',(17.9999999999942,681.70334323548,-50.));
#1495=CARTESIAN_POINT('',(17.9999999999942,681.70334323548,0.));
#1496=CARTESIAN_POINT('Origin',(18.2966567635249,681.70334323548,0.));
#1497=CARTESIAN_POINT('',(18.2966567635245,681.99999999901,0.));
#1498=CARTESIAN_POINT('Origin',(18.2966567635249,681.70334323548,0.));
#1499=CARTESIAN_POINT('',(18.2966567635245,681.99999999901,-50.));
#1500=CARTESIAN_POINT('Origin',(18.2966567635249,681.70334323548,-50.));
#1501=CARTESIAN_POINT('',(18.2966567635245,681.99999999901,0.));
#1502=CARTESIAN_POINT('Origin',(679.205661009992,682.000000000034,0.));
#1503=CARTESIAN_POINT('',(679.205661009992,682.000000000034,0.));
#1504=CARTESIAN_POINT('',(679.205661009992,682.000000000034,0.));
#1505=CARTESIAN_POINT('',(679.205661009992,682.000000000034,-50.));
#1506=CARTESIAN_POINT('',(679.205661009992,682.000000000034,-50.));
#1507=CARTESIAN_POINT('',(679.205661009992,682.000000000034,0.));
#1508=CARTESIAN_POINT('Origin',(679.205661009996,679.205661010029,0.));
#1509=CARTESIAN_POINT('Origin',(679.205661009996,679.205661010029,0.));
#1510=CARTESIAN_POINT('Origin',(679.205661009996,679.205661010029,-50.));
#1511=CARTESIAN_POINT('Origin',(-3.62989291327388E-14,1.76745748625706,
0.));
#1512=CARTESIAN_POINT('',(-4.69566136463118E-15,692.155776753449,0.));
#1513=CARTESIAN_POINT('',(-3.63598040564739E-14,1.76745748625702,0.));
#1514=CARTESIAN_POINT('',(-4.41319600787072E-15,698.326365957577,0.));
#1515=CARTESIAN_POINT('',(0.,692.155776753449,-50.));
#1516=CARTESIAN_POINT('',(-4.69566136463118E-15,692.155776753449,0.));
#1517=CARTESIAN_POINT('',(0.,1.76745748625706,-50.));
#1518=CARTESIAN_POINT('',(-4.41319600787072E-15,698.326365957577,-50.));
#1519=CARTESIAN_POINT('',(-3.63598040564739E-14,1.76745748625702,0.));
#1520=CARTESIAN_POINT('Origin',(1.76745748625702,1.76745748625706,0.));
#1521=CARTESIAN_POINT('',(1.76745748625699,-8.32667268468867E-16,0.));
#1522=CARTESIAN_POINT('Origin',(1.76745748625702,1.76745748625706,0.));
#1523=CARTESIAN_POINT('',(1.76745748625706,0.,-50.));
#1524=CARTESIAN_POINT('Origin',(1.76745748625702,1.76745748625706,-50.));
#1525=CARTESIAN_POINT('',(1.76745748625699,-8.32667268468867E-16,0.));
#1526=CARTESIAN_POINT('Origin',(697.210863584128,6.34179644750558E-14,0.));
#1527=CARTESIAN_POINT('',(697.210863584127,0.,0.));
#1528=CARTESIAN_POINT('',(1.76745748625699,-9.61646644698002E-16,0.));
#1529=CARTESIAN_POINT('',(697.210863584127,0.,-50.));
#1530=CARTESIAN_POINT('',(1.76745748625699,-9.61646644698002E-16,-50.));
#1531=CARTESIAN_POINT('',(697.210863584127,0.,0.));
#1532=CARTESIAN_POINT('Origin',(697.210863584127,2.7891364158728,0.));
#1533=CARTESIAN_POINT('',(700.,2.78913641587282,0.));
#1534=CARTESIAN_POINT('Origin',(697.210863584127,2.7891364158728,0.));
#1535=CARTESIAN_POINT('',(700.,2.7891364158728,-50.));
#1536=CARTESIAN_POINT('Origin',(697.210863584127,2.7891364158728,-50.));
#1537=CARTESIAN_POINT('',(700.,2.78913641587282,0.));
#1538=CARTESIAN_POINT('Origin',(700.,697.932339844453,0.));
#1539=CARTESIAN_POINT('',(700.,697.932339844453,0.));
#1540=CARTESIAN_POINT('',(700.,2.78913641587282,0.));
#1541=CARTESIAN_POINT('',(700.,697.932339844453,-50.));
#1542=CARTESIAN_POINT('',(700.,2.78913641587282,-50.));
#1543=CARTESIAN_POINT('',(700.,697.932339844453,0.));
#1544=CARTESIAN_POINT('Origin',(697.93233984431,697.932339844453,0.));
#1545=CARTESIAN_POINT('',(697.932339844307,700.000000000142,0.));
#1546=CARTESIAN_POINT('Origin',(697.93233984431,697.932339844453,0.));
#1547=CARTESIAN_POINT('',(697.932339844307,700.000000000142,-50.));
#1548=CARTESIAN_POINT('Origin',(697.93233984431,697.932339844453,-50.));
#1549=CARTESIAN_POINT('',(697.932339844307,700.000000000142,0.));
#1550=CARTESIAN_POINT('Origin',(7.84422324655125,699.999999998921,0.));
#1551=CARTESIAN_POINT('',(7.84422324655125,699.999999998921,0.));
#1552=CARTESIAN_POINT('',(697.932339844307,700.000000000142,0.));
#1553=CARTESIAN_POINT('',(7.84422324655125,699.999999998921,-50.));
#1554=CARTESIAN_POINT('',(697.932339844307,700.000000000142,-50.));
#1555=CARTESIAN_POINT('',(7.84422324655125,699.999999998921,0.));
#1556=CARTESIAN_POINT('Origin',(7.84422324655123,692.155776753449,0.));
#1557=CARTESIAN_POINT('Origin',(7.84422324655123,692.155776753449,0.));
#1558=CARTESIAN_POINT('Origin',(7.84422324655123,692.155776753449,-50.));
#1559=CARTESIAN_POINT('Origin',(350.,350.000000000071,-50.));
#1560=CARTESIAN_POINT('Origin',(350.,350.000000000071,0.));
#1561=CARTESIAN_POINT('Origin',(350.,350.,-50.));
#1562=CARTESIAN_POINT('',(306.,350.,-50.));
#1563=CARTESIAN_POINT('Origin',(350.,350.,-50.));
#1564=CARTESIAN_POINT('',(316.,350.,-50.));
#1565=CARTESIAN_POINT('Origin',(350.,350.,-50.));
#1566=CARTESIAN_POINT('Origin',(350.,350.,0.));
#1567=CARTESIAN_POINT('',(316.,350.,0.));
#1568=CARTESIAN_POINT('',(316.,350.,0.));
#1569=CARTESIAN_POINT('Origin',(350.,350.,0.));
#1570=CARTESIAN_POINT('Origin',(350.,350.,0.));
#1571=CARTESIAN_POINT('',(306.,350.,0.));
#1572=CARTESIAN_POINT('',(306.,350.,0.));
#1573=CARTESIAN_POINT('Origin',(350.,350.,0.));
#1574=CARTESIAN_POINT('Origin',(350.,350.,0.));
#1575=UNCERTAINTY_MEASURE_WITH_UNIT(LENGTH_MEASURE(0.01),#1579,
'DISTANCE_ACCURACY_VALUE',
'Maximum model space distance between geometric entities at asserted c
onnectivities');
#1576=UNCERTAINTY_MEASURE_WITH_UNIT(LENGTH_MEASURE(0.01),#1579,
'DISTANCE_ACCURACY_VALUE',
'Maximum model space distance between geometric entities at asserted c
onnectivities');
#1577=(
GEOMETRIC_REPRESENTATION_CONTEXT(3)
GLOBAL_UNCERTAINTY_ASSIGNED_CONTEXT((#1575))
GLOBAL_UNIT_ASSIGNED_CONTEXT((#1579,#1581,#1582))
REPRESENTATION_CONTEXT('','3D')
);
#1578=(
GEOMETRIC_REPRESENTATION_CONTEXT(3)
GLOBAL_UNCERTAINTY_ASSIGNED_CONTEXT((#1576))
GLOBAL_UNIT_ASSIGNED_CONTEXT((#1579,#1581,#1582))
REPRESENTATION_CONTEXT('','3D')
);
#1579=(
LENGTH_UNIT()
NAMED_UNIT(*)
SI_UNIT(.MILLI.,.METRE.)
);
#1580=(
LENGTH_UNIT()
NAMED_UNIT(*)
SI_UNIT($,.METRE.)
);
#1581=(
NAMED_UNIT(*)
PLANE_ANGLE_UNIT()
SI_UNIT($,.RADIAN.)
);
#1582=(
NAMED_UNIT(*)
SI_UNIT($,.STERADIAN.)
SOLID_ANGLE_UNIT()
);
#1583=SHAPE_DEFINITION_REPRESENTATION(#1584,#1585);
#1584=PRODUCT_DEFINITION_SHAPE('',$,#1587);
#1585=SHAPE_REPRESENTATION('',(#939),#1577);
#1586=PRODUCT_DEFINITION_CONTEXT('part definition',#1591,'design');
#1587=PRODUCT_DEFINITION('2026-04-09-20-58-55-173','BasePlate',#1588,#1586);
#1588=PRODUCT_DEFINITION_FORMATION('',$,#1593);
#1589=PRODUCT_RELATED_PRODUCT_CATEGORY('BasePlate','BasePlate',(#1593));
#1590=APPLICATION_PROTOCOL_DEFINITION('international standard',
'automotive_design',2009,#1591);
#1591=APPLICATION_CONTEXT(
'Core Data for Automotive Mechanical Design Process');
#1592=PRODUCT_CONTEXT('part definition',#1591,'mechanical');
#1593=PRODUCT('2026-04-09-20-58-55-173','BasePlate',$,(#1592));
#1594=PRESENTATION_STYLE_ASSIGNMENT((#1595));
#1595=SURFACE_STYLE_USAGE(.BOTH.,#1596);
#1596=SURFACE_SIDE_STYLE('',(#1597));
#1597=SURFACE_STYLE_FILL_AREA(#1598);
#1598=FILL_AREA_STYLE('Steel - Satin',(#1599));
#1599=FILL_AREA_STYLE_COLOUR('Steel - Satin',#1600);
#1600=COLOUR_RGB('Steel - Satin',0.627450980392157,0.627450980392157,0.627450980392157);
ENDSEC;
END-ISO-10303-21;
