ISO-10303-21;
HEADER;
/* Generated by software containing ST-Developer
 * from STEP Tools, Inc. (www.steptools.com) 
 */

FILE_DESCRIPTION(
/* description */ (''),
/* implementation_level */ '2;1');

FILE_NAME(
/* name */ 'Nema Mounting Bracket Straight.step',
/* time_stamp */ '2026-09-08T22:23:59+05:30',
/* author */ (''),
/* organization */ (''),
/* preprocessor_version */ 'ST-DEVELOPER v20.2',
/* originating_system */ 'Autodesk Translation Framework v15.15.0.0',
/* authorisation */ '');

FILE_SCHEMA (('AUTOMOTIVE_DESIGN { 1 0 10303 214 3 1 1 }'));
ENDSEC;

DATA;
#10=MECHANICAL_DESIGN_GEOMETRIC_PRESENTATION_REPRESENTATION('',(#13),#798);
#11=SHAPE_REPRESENTATION_RELATIONSHIP('SRR','None',#805,#12);
#12=ADVANCED_BREP_SHAPE_REPRESENTATION('',(#14),#797);
#13=STYLED_ITEM('',(#814),#14);
#14=MANIFOLD_SOLID_BREP('Body1',#466);
#15=FACE_BOUND('',#65,.T.);
#16=FACE_BOUND('',#66,.T.);
#17=FACE_BOUND('',#67,.T.);
#18=FACE_BOUND('',#68,.T.);
#19=FACE_BOUND('',#69,.T.);
#20=FACE_BOUND('',#70,.T.);
#21=FACE_BOUND('',#71,.T.);
#22=FACE_BOUND('',#92,.T.);
#23=FACE_BOUND('',#93,.T.);
#24=FACE_BOUND('',#94,.T.);
#25=FACE_BOUND('',#95,.T.);
#26=FACE_BOUND('',#96,.T.);
#27=FACE_BOUND('',#97,.T.);
#28=FACE_BOUND('',#98,.T.);
#29=PLANE('',#483);
#30=PLANE('',#484);
#31=PLANE('',#499);
#32=PLANE('',#510);
#33=PLANE('',#513);
#34=PLANE('',#518);
#35=PLANE('',#521);
#36=PLANE('',#526);
#37=PLANE('',#527);
#38=PLANE('',#528);
#39=FACE_OUTER_BOUND('',#62,.T.);
#40=FACE_OUTER_BOUND('',#63,.T.);
#41=FACE_OUTER_BOUND('',#64,.T.);
#42=FACE_OUTER_BOUND('',#72,.T.);
#43=FACE_OUTER_BOUND('',#73,.T.);
#44=FACE_OUTER_BOUND('',#74,.T.);
#45=FACE_OUTER_BOUND('',#75,.T.);
#46=FACE_OUTER_BOUND('',#76,.T.);
#47=FACE_OUTER_BOUND('',#77,.T.);
#48=FACE_OUTER_BOUND('',#78,.T.);
#49=FACE_OUTER_BOUND('',#79,.T.);
#50=FACE_OUTER_BOUND('',#80,.T.);
#51=FACE_OUTER_BOUND('',#81,.T.);
#52=FACE_OUTER_BOUND('',#82,.T.);
#53=FACE_OUTER_BOUND('',#83,.T.);
#54=FACE_OUTER_BOUND('',#84,.T.);
#55=FACE_OUTER_BOUND('',#85,.T.);
#56=FACE_OUTER_BOUND('',#86,.T.);
#57=FACE_OUTER_BOUND('',#87,.T.);
#58=FACE_OUTER_BOUND('',#88,.T.);
#59=FACE_OUTER_BOUND('',#89,.T.);
#60=FACE_OUTER_BOUND('',#90,.T.);
#61=FACE_OUTER_BOUND('',#91,.T.);
#62=EDGE_LOOP('',(#304,#305,#306,#307));
#63=EDGE_LOOP('',(#308,#309,#310,#311));
#64=EDGE_LOOP('',(#312,#313,#314,#315,#316,#317,#318,#319));
#65=EDGE_LOOP('',(#320));
#66=EDGE_LOOP('',(#321,#322,#323,#324));
#67=EDGE_LOOP('',(#325));
#68=EDGE_LOOP('',(#326));
#69=EDGE_LOOP('',(#327,#328,#329,#330));
#70=EDGE_LOOP('',(#331));
#71=EDGE_LOOP('',(#332));
#72=EDGE_LOOP('',(#333,#334,#335,#336));
#73=EDGE_LOOP('',(#337,#338,#339,#340));
#74=EDGE_LOOP('',(#341,#342,#343,#344));
#75=EDGE_LOOP('',(#345,#346,#347,#348));
#76=EDGE_LOOP('',(#349,#350,#351,#352));
#77=EDGE_LOOP('',(#353,#354,#355,#356));
#78=EDGE_LOOP('',(#357,#358,#359,#360));
#79=EDGE_LOOP('',(#361,#362,#363,#364));
#80=EDGE_LOOP('',(#365,#366,#367,#368));
#81=EDGE_LOOP('',(#369,#370,#371,#372));
#82=EDGE_LOOP('',(#373,#374,#375,#376));
#83=EDGE_LOOP('',(#377,#378,#379,#380));
#84=EDGE_LOOP('',(#381,#382,#383,#384));
#85=EDGE_LOOP('',(#385,#386,#387,#388));
#86=EDGE_LOOP('',(#389,#390,#391,#392));
#87=EDGE_LOOP('',(#393,#394,#395,#396));
#88=EDGE_LOOP('',(#397,#398,#399,#400));
#89=EDGE_LOOP('',(#401,#402,#403,#404));
#90=EDGE_LOOP('',(#405,#406,#407,#408));
#91=EDGE_LOOP('',(#409,#410,#411,#412,#413,#414,#415,#416));
#92=EDGE_LOOP('',(#417));
#93=EDGE_LOOP('',(#418,#419,#420,#421));
#94=EDGE_LOOP('',(#422));
#95=EDGE_LOOP('',(#423));
#96=EDGE_LOOP('',(#424,#425,#426,#427));
#97=EDGE_LOOP('',(#428));
#98=EDGE_LOOP('',(#429));
#99=LINE('',#672,#136);
#100=LINE('',#675,#137);
#101=LINE('',#678,#138);
#102=LINE('',#680,#139);
#103=LINE('',#681,#140);
#104=LINE('',#684,#141);
#105=LINE('',#688,#142);
#106=LINE('',#692,#143);
#107=LINE('',#700,#144);
#108=LINE('',#703,#145);
#109=LINE('',#710,#146);
#110=LINE('',#714,#147);
#111=LINE('',#724,#148);
#112=LINE('',#725,#149);
#113=LINE('',#728,#150);
#114=LINE('',#729,#151);
#115=LINE('',#733,#152);
#116=LINE('',#737,#153);
#117=LINE('',#741,#154);
#118=LINE('',#745,#155);
#119=LINE('',#748,#156);
#120=LINE('',#751,#157);
#121=LINE('',#754,#158);
#122=LINE('',#755,#159);
#123=LINE('',#759,#160);
#124=LINE('',#761,#161);
#125=LINE('',#765,#162);
#126=LINE('',#769,#163);
#127=LINE('',#772,#164);
#128=LINE('',#774,#165);
#129=LINE('',#775,#166);
#130=LINE('',#779,#167);
#131=LINE('',#782,#168);
#132=LINE('',#783,#169);
#133=LINE('',#789,#170);
#134=LINE('',#791,#171);
#135=LINE('',#793,#172);
#136=VECTOR('',#535,10.);
#137=VECTOR('',#538,10.);
#138=VECTOR('',#541,10.);
#139=VECTOR('',#542,10.);
#140=VECTOR('',#543,10.);
#141=VECTOR('',#546,10.);
#142=VECTOR('',#549,10.);
#143=VECTOR('',#552,10.);
#144=VECTOR('',#559,10.);
#145=VECTOR('',#562,10.);
#146=VECTOR('',#567,10.);
#147=VECTOR('',#570,10.);
#148=VECTOR('',#581,10.);
#149=VECTOR('',#582,10.);
#150=VECTOR('',#585,10.);
#151=VECTOR('',#586,10.);
#152=VECTOR('',#591,10.);
#153=VECTOR('',#596,10.);
#154=VECTOR('',#601,1.75);
#155=VECTOR('',#606,1.75);
#156=VECTOR('',#609,10.);
#157=VECTOR('',#612,10.);
#158=VECTOR('',#615,10.);
#159=VECTOR('',#616,10.);
#160=VECTOR('',#621,10.);
#161=VECTOR('',#624,10.);
#162=VECTOR('',#629,1.75);
#163=VECTOR('',#634,11.25);
#164=VECTOR('',#637,10.);
#165=VECTOR('',#638,10.);
#166=VECTOR('',#639,10.);
#167=VECTOR('',#644,10.);
#168=VECTOR('',#647,10.);
#169=VECTOR('',#648,10.);
#170=VECTOR('',#657,1.75);
#171=VECTOR('',#660,10.);
#172=VECTOR('',#663,10.);
#173=CIRCLE('',#481,3.);
#174=CIRCLE('',#482,3.);
#175=CIRCLE('',#485,3.);
#176=CIRCLE('',#486,3.);
#177=CIRCLE('',#487,3.);
#178=CIRCLE('',#488,1.75);
#179=CIRCLE('',#489,2.09999999999021);
#180=CIRCLE('',#490,2.1);
#181=CIRCLE('',#491,11.25);
#182=CIRCLE('',#492,1.75);
#183=CIRCLE('',#493,2.19999999999727);
#184=CIRCLE('',#494,2.1);
#185=CIRCLE('',#495,1.75);
#186=CIRCLE('',#496,1.75);
#187=CIRCLE('',#498,3.);
#188=CIRCLE('',#501,3.);
#189=CIRCLE('',#503,3.);
#190=CIRCLE('',#505,1.75);
#191=CIRCLE('',#507,1.75);
#192=CIRCLE('',#509,2.19999999999727);
#193=CIRCLE('',#512,2.1);
#194=CIRCLE('',#515,1.75);
#195=CIRCLE('',#517,11.25);
#196=CIRCLE('',#520,2.1);
#197=CIRCLE('',#523,2.09999999999021);
#198=CIRCLE('',#525,1.75);
#199=VERTEX_POINT('',#668);
#200=VERTEX_POINT('',#669);
#201=VERTEX_POINT('',#671);
#202=VERTEX_POINT('',#673);
#203=VERTEX_POINT('',#677);
#204=VERTEX_POINT('',#679);
#205=VERTEX_POINT('',#683);
#206=VERTEX_POINT('',#685);
#207=VERTEX_POINT('',#687);
#208=VERTEX_POINT('',#689);
#209=VERTEX_POINT('',#691);
#210=VERTEX_POINT('',#694);
#211=VERTEX_POINT('',#696);
#212=VERTEX_POINT('',#697);
#213=VERTEX_POINT('',#699);
#214=VERTEX_POINT('',#701);
#215=VERTEX_POINT('',#704);
#216=VERTEX_POINT('',#706);
#217=VERTEX_POINT('',#708);
#218=VERTEX_POINT('',#709);
#219=VERTEX_POINT('',#711);
#220=VERTEX_POINT('',#713);
#221=VERTEX_POINT('',#716);
#222=VERTEX_POINT('',#718);
#223=VERTEX_POINT('',#721);
#224=VERTEX_POINT('',#722);
#225=VERTEX_POINT('',#727);
#226=VERTEX_POINT('',#731);
#227=VERTEX_POINT('',#735);
#228=VERTEX_POINT('',#739);
#229=VERTEX_POINT('',#743);
#230=VERTEX_POINT('',#747);
#231=VERTEX_POINT('',#749);
#232=VERTEX_POINT('',#753);
#233=VERTEX_POINT('',#757);
#234=VERTEX_POINT('',#763);
#235=VERTEX_POINT('',#767);
#236=VERTEX_POINT('',#771);
#237=VERTEX_POINT('',#773);
#238=VERTEX_POINT('',#777);
#239=VERTEX_POINT('',#781);
#240=VERTEX_POINT('',#787);
#241=EDGE_CURVE('',#199,#200,#173,.T.);
#242=EDGE_CURVE('',#200,#201,#99,.T.);
#243=EDGE_CURVE('',#201,#202,#174,.T.);
#244=EDGE_CURVE('',#202,#199,#100,.T.);
#245=EDGE_CURVE('',#203,#202,#101,.T.);
#246=EDGE_CURVE('',#204,#203,#102,.T.);
#247=EDGE_CURVE('',#199,#204,#103,.T.);
#248=EDGE_CURVE('',#201,#205,#104,.T.);
#249=EDGE_CURVE('',#206,#205,#175,.T.);
#250=EDGE_CURVE('',#206,#207,#105,.T.);
#251=EDGE_CURVE('',#208,#207,#176,.T.);
#252=EDGE_CURVE('',#208,#209,#106,.T.);
#253=EDGE_CURVE('',#203,#209,#177,.T.);
#254=EDGE_CURVE('',#210,#210,#178,.T.);
#255=EDGE_CURVE('',#211,#212,#179,.T.);
#256=EDGE_CURVE('',#213,#211,#107,.T.);
#257=EDGE_CURVE('',#214,#213,#180,.T.);
#258=EDGE_CURVE('',#212,#214,#108,.T.);
#259=EDGE_CURVE('',#215,#215,#181,.T.);
#260=EDGE_CURVE('',#216,#216,#182,.T.);
#261=EDGE_CURVE('',#217,#218,#109,.T.);
#262=EDGE_CURVE('',#219,#217,#183,.T.);
#263=EDGE_CURVE('',#220,#219,#110,.T.);
#264=EDGE_CURVE('',#218,#220,#184,.T.);
#265=EDGE_CURVE('',#221,#221,#185,.T.);
#266=EDGE_CURVE('',#222,#222,#186,.T.);
#267=EDGE_CURVE('',#223,#224,#187,.T.);
#268=EDGE_CURVE('',#224,#206,#111,.T.);
#269=EDGE_CURVE('',#205,#223,#112,.T.);
#270=EDGE_CURVE('',#225,#224,#113,.T.);
#271=EDGE_CURVE('',#207,#225,#114,.T.);
#272=EDGE_CURVE('',#225,#226,#188,.T.);
#273=EDGE_CURVE('',#226,#208,#115,.T.);
#274=EDGE_CURVE('',#227,#204,#189,.T.);
#275=EDGE_CURVE('',#209,#227,#116,.T.);
#276=EDGE_CURVE('',#228,#228,#190,.T.);
#277=EDGE_CURVE('',#228,#222,#117,.T.);
#278=EDGE_CURVE('',#229,#229,#191,.T.);
#279=EDGE_CURVE('',#229,#221,#118,.T.);
#280=EDGE_CURVE('',#217,#230,#119,.T.);
#281=EDGE_CURVE('',#231,#230,#192,.T.);
#282=EDGE_CURVE('',#219,#231,#120,.T.);
#283=EDGE_CURVE('',#232,#231,#121,.T.);
#284=EDGE_CURVE('',#220,#232,#122,.T.);
#285=EDGE_CURVE('',#233,#232,#193,.T.);
#286=EDGE_CURVE('',#218,#233,#123,.T.);
#287=EDGE_CURVE('',#230,#233,#124,.T.);
#288=EDGE_CURVE('',#234,#234,#194,.T.);
#289=EDGE_CURVE('',#234,#216,#125,.T.);
#290=EDGE_CURVE('',#235,#235,#195,.T.);
#291=EDGE_CURVE('',#235,#215,#126,.T.);
#292=EDGE_CURVE('',#211,#236,#127,.T.);
#293=EDGE_CURVE('',#237,#236,#128,.T.);
#294=EDGE_CURVE('',#213,#237,#129,.T.);
#295=EDGE_CURVE('',#238,#237,#196,.T.);
#296=EDGE_CURVE('',#214,#238,#130,.T.);
#297=EDGE_CURVE('',#239,#238,#131,.T.);
#298=EDGE_CURVE('',#212,#239,#132,.T.);
#299=EDGE_CURVE('',#236,#239,#197,.T.);
#300=EDGE_CURVE('',#240,#240,#198,.T.);
#301=EDGE_CURVE('',#240,#210,#133,.T.);
#302=EDGE_CURVE('',#223,#200,#134,.T.);
#303=EDGE_CURVE('',#227,#226,#135,.T.);
#304=ORIENTED_EDGE('',*,*,#241,.T.);
#305=ORIENTED_EDGE('',*,*,#242,.T.);
#306=ORIENTED_EDGE('',*,*,#243,.T.);
#307=ORIENTED_EDGE('',*,*,#244,.T.);
#308=ORIENTED_EDGE('',*,*,#244,.F.);
#309=ORIENTED_EDGE('',*,*,#245,.F.);
#310=ORIENTED_EDGE('',*,*,#246,.F.);
#311=ORIENTED_EDGE('',*,*,#247,.F.);
#312=ORIENTED_EDGE('',*,*,#243,.F.);
#313=ORIENTED_EDGE('',*,*,#248,.T.);
#314=ORIENTED_EDGE('',*,*,#249,.F.);
#315=ORIENTED_EDGE('',*,*,#250,.T.);
#316=ORIENTED_EDGE('',*,*,#251,.F.);
#317=ORIENTED_EDGE('',*,*,#252,.T.);
#318=ORIENTED_EDGE('',*,*,#253,.F.);
#319=ORIENTED_EDGE('',*,*,#245,.T.);
#320=ORIENTED_EDGE('',*,*,#254,.F.);
#321=ORIENTED_EDGE('',*,*,#255,.F.);
#322=ORIENTED_EDGE('',*,*,#256,.F.);
#323=ORIENTED_EDGE('',*,*,#257,.F.);
#324=ORIENTED_EDGE('',*,*,#258,.F.);
#325=ORIENTED_EDGE('',*,*,#259,.F.);
#326=ORIENTED_EDGE('',*,*,#260,.F.);
#327=ORIENTED_EDGE('',*,*,#261,.F.);
#328=ORIENTED_EDGE('',*,*,#262,.F.);
#329=ORIENTED_EDGE('',*,*,#263,.F.);
#330=ORIENTED_EDGE('',*,*,#264,.F.);
#331=ORIENTED_EDGE('',*,*,#265,.F.);
#332=ORIENTED_EDGE('',*,*,#266,.F.);
#333=ORIENTED_EDGE('',*,*,#267,.T.);
#334=ORIENTED_EDGE('',*,*,#268,.T.);
#335=ORIENTED_EDGE('',*,*,#249,.T.);
#336=ORIENTED_EDGE('',*,*,#269,.T.);
#337=ORIENTED_EDGE('',*,*,#268,.F.);
#338=ORIENTED_EDGE('',*,*,#270,.F.);
#339=ORIENTED_EDGE('',*,*,#271,.F.);
#340=ORIENTED_EDGE('',*,*,#250,.F.);
#341=ORIENTED_EDGE('',*,*,#272,.T.);
#342=ORIENTED_EDGE('',*,*,#273,.T.);
#343=ORIENTED_EDGE('',*,*,#251,.T.);
#344=ORIENTED_EDGE('',*,*,#271,.T.);
#345=ORIENTED_EDGE('',*,*,#274,.T.);
#346=ORIENTED_EDGE('',*,*,#246,.T.);
#347=ORIENTED_EDGE('',*,*,#253,.T.);
#348=ORIENTED_EDGE('',*,*,#275,.T.);
#349=ORIENTED_EDGE('',*,*,#276,.F.);
#350=ORIENTED_EDGE('',*,*,#277,.T.);
#351=ORIENTED_EDGE('',*,*,#266,.T.);
#352=ORIENTED_EDGE('',*,*,#277,.F.);
#353=ORIENTED_EDGE('',*,*,#278,.F.);
#354=ORIENTED_EDGE('',*,*,#279,.T.);
#355=ORIENTED_EDGE('',*,*,#265,.T.);
#356=ORIENTED_EDGE('',*,*,#279,.F.);
#357=ORIENTED_EDGE('',*,*,#262,.T.);
#358=ORIENTED_EDGE('',*,*,#280,.T.);
#359=ORIENTED_EDGE('',*,*,#281,.F.);
#360=ORIENTED_EDGE('',*,*,#282,.F.);
#361=ORIENTED_EDGE('',*,*,#263,.T.);
#362=ORIENTED_EDGE('',*,*,#282,.T.);
#363=ORIENTED_EDGE('',*,*,#283,.F.);
#364=ORIENTED_EDGE('',*,*,#284,.F.);
#365=ORIENTED_EDGE('',*,*,#264,.T.);
#366=ORIENTED_EDGE('',*,*,#284,.T.);
#367=ORIENTED_EDGE('',*,*,#285,.F.);
#368=ORIENTED_EDGE('',*,*,#286,.F.);
#369=ORIENTED_EDGE('',*,*,#261,.T.);
#370=ORIENTED_EDGE('',*,*,#286,.T.);
#371=ORIENTED_EDGE('',*,*,#287,.F.);
#372=ORIENTED_EDGE('',*,*,#280,.F.);
#373=ORIENTED_EDGE('',*,*,#288,.F.);
#374=ORIENTED_EDGE('',*,*,#289,.T.);
#375=ORIENTED_EDGE('',*,*,#260,.T.);
#376=ORIENTED_EDGE('',*,*,#289,.F.);
#377=ORIENTED_EDGE('',*,*,#290,.F.);
#378=ORIENTED_EDGE('',*,*,#291,.T.);
#379=ORIENTED_EDGE('',*,*,#259,.T.);
#380=ORIENTED_EDGE('',*,*,#291,.F.);
#381=ORIENTED_EDGE('',*,*,#256,.T.);
#382=ORIENTED_EDGE('',*,*,#292,.T.);
#383=ORIENTED_EDGE('',*,*,#293,.F.);
#384=ORIENTED_EDGE('',*,*,#294,.F.);
#385=ORIENTED_EDGE('',*,*,#257,.T.);
#386=ORIENTED_EDGE('',*,*,#294,.T.);
#387=ORIENTED_EDGE('',*,*,#295,.F.);
#388=ORIENTED_EDGE('',*,*,#296,.F.);
#389=ORIENTED_EDGE('',*,*,#258,.T.);
#390=ORIENTED_EDGE('',*,*,#296,.T.);
#391=ORIENTED_EDGE('',*,*,#297,.F.);
#392=ORIENTED_EDGE('',*,*,#298,.F.);
#393=ORIENTED_EDGE('',*,*,#255,.T.);
#394=ORIENTED_EDGE('',*,*,#298,.T.);
#395=ORIENTED_EDGE('',*,*,#299,.F.);
#396=ORIENTED_EDGE('',*,*,#292,.F.);
#397=ORIENTED_EDGE('',*,*,#300,.F.);
#398=ORIENTED_EDGE('',*,*,#301,.T.);
#399=ORIENTED_EDGE('',*,*,#254,.T.);
#400=ORIENTED_EDGE('',*,*,#301,.F.);
#401=ORIENTED_EDGE('',*,*,#242,.F.);
#402=ORIENTED_EDGE('',*,*,#302,.F.);
#403=ORIENTED_EDGE('',*,*,#269,.F.);
#404=ORIENTED_EDGE('',*,*,#248,.F.);
#405=ORIENTED_EDGE('',*,*,#273,.F.);
#406=ORIENTED_EDGE('',*,*,#303,.F.);
#407=ORIENTED_EDGE('',*,*,#275,.F.);
#408=ORIENTED_EDGE('',*,*,#252,.F.);
#409=ORIENTED_EDGE('',*,*,#241,.F.);
#410=ORIENTED_EDGE('',*,*,#247,.T.);
#411=ORIENTED_EDGE('',*,*,#274,.F.);
#412=ORIENTED_EDGE('',*,*,#303,.T.);
#413=ORIENTED_EDGE('',*,*,#272,.F.);
#414=ORIENTED_EDGE('',*,*,#270,.T.);
#415=ORIENTED_EDGE('',*,*,#267,.F.);
#416=ORIENTED_EDGE('',*,*,#302,.T.);
#417=ORIENTED_EDGE('',*,*,#300,.T.);
#418=ORIENTED_EDGE('',*,*,#299,.T.);
#419=ORIENTED_EDGE('',*,*,#297,.T.);
#420=ORIENTED_EDGE('',*,*,#295,.T.);
#421=ORIENTED_EDGE('',*,*,#293,.T.);
#422=ORIENTED_EDGE('',*,*,#290,.T.);
#423=ORIENTED_EDGE('',*,*,#288,.T.);
#424=ORIENTED_EDGE('',*,*,#287,.T.);
#425=ORIENTED_EDGE('',*,*,#285,.T.);
#426=ORIENTED_EDGE('',*,*,#283,.T.);
#427=ORIENTED_EDGE('',*,*,#281,.T.);
#428=ORIENTED_EDGE('',*,*,#278,.T.);
#429=ORIENTED_EDGE('',*,*,#276,.T.);
#430=CYLINDRICAL_SURFACE('',#480,3.);
#431=CYLINDRICAL_SURFACE('',#497,3.);
#432=CYLINDRICAL_SURFACE('',#500,3.);
#433=CYLINDRICAL_SURFACE('',#502,3.);
#434=CYLINDRICAL_SURFACE('',#504,1.75);
#435=CYLINDRICAL_SURFACE('',#506,1.75);
#436=CYLINDRICAL_SURFACE('',#508,2.19999999999727);
#437=CYLINDRICAL_SURFACE('',#511,2.1);
#438=CYLINDRICAL_SURFACE('',#514,1.75);
#439=CYLINDRICAL_SURFACE('',#516,11.25);
#440=CYLINDRICAL_SURFACE('',#519,2.1);
#441=CYLINDRICAL_SURFACE('',#522,2.09999999999021);
#442=CYLINDRICAL_SURFACE('',#524,1.75);
#443=ADVANCED_FACE('',(#39),#430,.T.);
#444=ADVANCED_FACE('',(#40),#29,.T.);
#445=ADVANCED_FACE('',(#41,#15,#16,#17,#18,#19,#20,#21),#30,.F.);
#446=ADVANCED_FACE('',(#42),#431,.T.);
#447=ADVANCED_FACE('',(#43),#31,.T.);
#448=ADVANCED_FACE('',(#44),#432,.T.);
#449=ADVANCED_FACE('',(#45),#433,.T.);
#450=ADVANCED_FACE('',(#46),#434,.F.);
#451=ADVANCED_FACE('',(#47),#435,.F.);
#452=ADVANCED_FACE('',(#48),#436,.F.);
#453=ADVANCED_FACE('',(#49),#32,.T.);
#454=ADVANCED_FACE('',(#50),#437,.F.);
#455=ADVANCED_FACE('',(#51),#33,.T.);
#456=ADVANCED_FACE('',(#52),#438,.F.);
#457=ADVANCED_FACE('',(#53),#439,.F.);
#458=ADVANCED_FACE('',(#54),#34,.T.);
#459=ADVANCED_FACE('',(#55),#440,.F.);
#460=ADVANCED_FACE('',(#56),#35,.T.);
#461=ADVANCED_FACE('',(#57),#441,.F.);
#462=ADVANCED_FACE('',(#58),#442,.F.);
#463=ADVANCED_FACE('',(#59),#36,.T.);
#464=ADVANCED_FACE('',(#60),#37,.T.);
#465=ADVANCED_FACE('',(#61,#22,#23,#24,#25,#26,#27,#28),#38,.T.);
#466=CLOSED_SHELL('',(#443,#444,#445,#446,#447,#448,#449,#450,#451,#452,
#453,#454,#455,#456,#457,#458,#459,#460,#461,#462,#463,#464,#465));
#467=DERIVED_UNIT_ELEMENT(#469,1.);
#468=DERIVED_UNIT_ELEMENT(#800,-3.);
#469=(
MASS_UNIT()
NAMED_UNIT(*)
SI_UNIT(.KILO.,.GRAM.)
);
#470=DERIVED_UNIT((#467,#468));
#471=MEASURE_REPRESENTATION_ITEM('density measure',
POSITIVE_RATIO_MEASURE(7850.),#470);
#472=PROPERTY_DEFINITION_REPRESENTATION(#477,#474);
#473=PROPERTY_DEFINITION_REPRESENTATION(#478,#475);
#474=REPRESENTATION('material name',(#476),#797);
#475=REPRESENTATION('density',(#471),#797);
#476=DESCRIPTIVE_REPRESENTATION_ITEM('Steel','Steel');
#477=PROPERTY_DEFINITION('material property','material name',#807);
#478=PROPERTY_DEFINITION('material property','density of part',#807);
#479=AXIS2_PLACEMENT_3D('',#666,#529,#530);
#480=AXIS2_PLACEMENT_3D('',#667,#531,#532);
#481=AXIS2_PLACEMENT_3D('',#670,#533,#534);
#482=AXIS2_PLACEMENT_3D('',#674,#536,#537);
#483=AXIS2_PLACEMENT_3D('',#676,#539,#540);
#484=AXIS2_PLACEMENT_3D('',#682,#544,#545);
#485=AXIS2_PLACEMENT_3D('',#686,#547,#548);
#486=AXIS2_PLACEMENT_3D('',#690,#550,#551);
#487=AXIS2_PLACEMENT_3D('',#693,#553,#554);
#488=AXIS2_PLACEMENT_3D('',#695,#555,#556);
#489=AXIS2_PLACEMENT_3D('',#698,#557,#558);
#490=AXIS2_PLACEMENT_3D('',#702,#560,#561);
#491=AXIS2_PLACEMENT_3D('',#705,#563,#564);
#492=AXIS2_PLACEMENT_3D('',#707,#565,#566);
#493=AXIS2_PLACEMENT_3D('',#712,#568,#569);
#494=AXIS2_PLACEMENT_3D('',#715,#571,#572);
#495=AXIS2_PLACEMENT_3D('',#717,#573,#574);
#496=AXIS2_PLACEMENT_3D('',#719,#575,#576);
#497=AXIS2_PLACEMENT_3D('',#720,#577,#578);
#498=AXIS2_PLACEMENT_3D('',#723,#579,#580);
#499=AXIS2_PLACEMENT_3D('',#726,#583,#584);
#500=AXIS2_PLACEMENT_3D('',#730,#587,#588);
#501=AXIS2_PLACEMENT_3D('',#732,#589,#590);
#502=AXIS2_PLACEMENT_3D('',#734,#592,#593);
#503=AXIS2_PLACEMENT_3D('',#736,#594,#595);
#504=AXIS2_PLACEMENT_3D('',#738,#597,#598);
#505=AXIS2_PLACEMENT_3D('',#740,#599,#600);
#506=AXIS2_PLACEMENT_3D('',#742,#602,#603);
#507=AXIS2_PLACEMENT_3D('',#744,#604,#605);
#508=AXIS2_PLACEMENT_3D('',#746,#607,#608);
#509=AXIS2_PLACEMENT_3D('',#750,#610,#611);
#510=AXIS2_PLACEMENT_3D('',#752,#613,#614);
#511=AXIS2_PLACEMENT_3D('',#756,#617,#618);
#512=AXIS2_PLACEMENT_3D('',#758,#619,#620);
#513=AXIS2_PLACEMENT_3D('',#760,#622,#623);
#514=AXIS2_PLACEMENT_3D('',#762,#625,#626);
#515=AXIS2_PLACEMENT_3D('',#764,#627,#628);
#516=AXIS2_PLACEMENT_3D('',#766,#630,#631);
#517=AXIS2_PLACEMENT_3D('',#768,#632,#633);
#518=AXIS2_PLACEMENT_3D('',#770,#635,#636);
#519=AXIS2_PLACEMENT_3D('',#776,#640,#641);
#520=AXIS2_PLACEMENT_3D('',#778,#642,#643);
#521=AXIS2_PLACEMENT_3D('',#780,#645,#646);
#522=AXIS2_PLACEMENT_3D('',#784,#649,#650);
#523=AXIS2_PLACEMENT_3D('',#785,#651,#652);
#524=AXIS2_PLACEMENT_3D('',#786,#653,#654);
#525=AXIS2_PLACEMENT_3D('',#788,#655,#656);
#526=AXIS2_PLACEMENT_3D('',#790,#658,#659);
#527=AXIS2_PLACEMENT_3D('',#792,#661,#662);
#528=AXIS2_PLACEMENT_3D('',#794,#664,#665);
#529=DIRECTION('axis',(0.,0.,1.));
#530=DIRECTION('refdir',(1.,0.,0.));
#531=DIRECTION('center_axis',(0.,0.,1.));
#532=DIRECTION('ref_axis',(-0.707106781186549,-0.707106781186546,0.));
#533=DIRECTION('center_axis',(0.,0.,-1.));
#534=DIRECTION('ref_axis',(-0.707106781186549,-0.707106781186546,0.));
#535=DIRECTION('',(0.,0.,-1.));
#536=DIRECTION('center_axis',(0.,0.,1.));
#537=DIRECTION('ref_axis',(-0.707106781186549,-0.707106781186546,0.));
#538=DIRECTION('',(0.,0.,1.));
#539=DIRECTION('center_axis',(0.,-1.,0.));
#540=DIRECTION('ref_axis',(1.,0.,0.));
#541=DIRECTION('',(-1.,0.,0.));
#542=DIRECTION('',(0.,0.,-1.));
#543=DIRECTION('',(1.,0.,0.));
#544=DIRECTION('center_axis',(0.,0.,1.));
#545=DIRECTION('ref_axis',(1.,0.,0.));
#546=DIRECTION('',(0.,1.,0.));
#547=DIRECTION('center_axis',(0.,0.,1.));
#548=DIRECTION('ref_axis',(-0.707106781186548,0.707106781186547,0.));
#549=DIRECTION('',(1.,-5.41572207134223E-17,0.));
#550=DIRECTION('center_axis',(0.,0.,1.));
#551=DIRECTION('ref_axis',(0.707106781186547,0.707106781186547,0.));
#552=DIRECTION('',(0.,-1.,0.));
#553=DIRECTION('center_axis',(0.,0.,1.));
#554=DIRECTION('ref_axis',(0.707106781186547,-0.707106781186547,0.));
#555=DIRECTION('center_axis',(0.,0.,-1.));
#556=DIRECTION('ref_axis',(1.,0.,0.));
#557=DIRECTION('center_axis',(0.,0.,-1.));
#558=DIRECTION('ref_axis',(-3.91221446774499E-13,1.,0.));
#559=DIRECTION('',(-1.,-3.91331411719875E-13,0.));
#560=DIRECTION('center_axis',(0.,0.,-1.));
#561=DIRECTION('ref_axis',(3.91221446772674E-13,-1.,0.));
#562=DIRECTION('',(1.,3.91509047403827E-13,0.));
#563=DIRECTION('center_axis',(0.,0.,-1.));
#564=DIRECTION('ref_axis',(1.,0.,0.));
#565=DIRECTION('center_axis',(0.,0.,-1.));
#566=DIRECTION('ref_axis',(1.,0.,0.));
#567=DIRECTION('',(0.999991999968,-0.00399999999989096,0.));
#568=DIRECTION('center_axis',(0.,0.,-1.));
#569=DIRECTION('ref_axis',(0.00399999999989139,0.999991999968,0.));
#570=DIRECTION('',(-0.999991989205065,-0.00400268980774505,0.));
#571=DIRECTION('center_axis',(0.,0.,-1.));
#572=DIRECTION('ref_axis',(-0.00399999999989087,-0.999991999968,0.));
#573=DIRECTION('center_axis',(0.,0.,-1.));
#574=DIRECTION('ref_axis',(1.,0.,0.));
#575=DIRECTION('center_axis',(0.,0.,-1.));
#576=DIRECTION('ref_axis',(1.,0.,0.));
#577=DIRECTION('center_axis',(0.,0.,1.));
#578=DIRECTION('ref_axis',(-0.707106781186548,0.707106781186547,0.));
#579=DIRECTION('center_axis',(0.,0.,-1.));
#580=DIRECTION('ref_axis',(-0.707106781186548,0.707106781186547,0.));
#581=DIRECTION('',(0.,0.,-1.));
#582=DIRECTION('',(0.,0.,1.));
#583=DIRECTION('center_axis',(5.41572207134223E-17,1.,0.));
#584=DIRECTION('ref_axis',(-1.,5.41572207134223E-17,0.));
#585=DIRECTION('',(-1.,5.41572207134223E-17,0.));
#586=DIRECTION('',(0.,0.,1.));
#587=DIRECTION('center_axis',(0.,0.,1.));
#588=DIRECTION('ref_axis',(0.707106781186547,0.707106781186547,0.));
#589=DIRECTION('center_axis',(0.,0.,-1.));
#590=DIRECTION('ref_axis',(0.707106781186547,0.707106781186547,0.));
#591=DIRECTION('',(0.,0.,-1.));
#592=DIRECTION('center_axis',(0.,0.,1.));
#593=DIRECTION('ref_axis',(0.707106781186547,-0.707106781186547,0.));
#594=DIRECTION('center_axis',(0.,0.,-1.));
#595=DIRECTION('ref_axis',(0.707106781186547,-0.707106781186547,0.));
#596=DIRECTION('',(0.,0.,1.));
#597=DIRECTION('center_axis',(0.,0.,1.));
#598=DIRECTION('ref_axis',(1.,0.,0.));
#599=DIRECTION('center_axis',(0.,0.,-1.));
#600=DIRECTION('ref_axis',(1.,0.,0.));
#601=DIRECTION('',(0.,0.,-1.));
#602=DIRECTION('center_axis',(0.,0.,1.));
#603=DIRECTION('ref_axis',(1.,0.,0.));
#604=DIRECTION('center_axis',(0.,0.,-1.));
#605=DIRECTION('ref_axis',(1.,0.,0.));
#606=DIRECTION('',(0.,0.,-1.));
#607=DIRECTION('center_axis',(0.,0.,1.));
#608=DIRECTION('ref_axis',(-0.999999999999096,-1.34491469316593E-6,0.));
#609=DIRECTION('',(0.,0.,1.));
#610=DIRECTION('center_axis',(0.,0.,-1.));
#611=DIRECTION('ref_axis',(0.00399999999989139,0.999991999968,0.));
#612=DIRECTION('',(0.,0.,1.));
#613=DIRECTION('center_axis',(-0.00400268980774505,0.999991989205065,0.));
#614=DIRECTION('ref_axis',(-0.999991989205065,-0.00400268980774505,0.));
#615=DIRECTION('',(-0.999991989205065,-0.00400268980774505,0.));
#616=DIRECTION('',(0.,0.,1.));
#617=DIRECTION('center_axis',(0.,0.,1.));
#618=DIRECTION('ref_axis',(-0.00399999999989087,-0.999991999968,0.));
#619=DIRECTION('center_axis',(0.,0.,-1.));
#620=DIRECTION('ref_axis',(-0.00399999999989087,-0.999991999968,0.));
#621=DIRECTION('',(0.,0.,1.));
#622=DIRECTION('center_axis',(-0.00399999999989096,-0.999991999968,0.));
#623=DIRECTION('ref_axis',(0.999991999968,-0.00399999999989096,0.));
#624=DIRECTION('',(0.999991999968,-0.00399999999989096,0.));
#625=DIRECTION('center_axis',(0.,0.,1.));
#626=DIRECTION('ref_axis',(1.,0.,0.));
#627=DIRECTION('center_axis',(0.,0.,-1.));
#628=DIRECTION('ref_axis',(1.,0.,0.));
#629=DIRECTION('',(0.,0.,-1.));
#630=DIRECTION('center_axis',(0.,0.,1.));
#631=DIRECTION('ref_axis',(1.,0.,0.));
#632=DIRECTION('center_axis',(0.,0.,-1.));
#633=DIRECTION('ref_axis',(1.,0.,0.));
#634=DIRECTION('',(0.,0.,-1.));
#635=DIRECTION('center_axis',(-3.91331411719875E-13,1.,0.));
#636=DIRECTION('ref_axis',(-1.,-3.91331411719875E-13,0.));
#637=DIRECTION('',(0.,0.,1.));
#638=DIRECTION('',(-1.,-3.91331411719875E-13,0.));
#639=DIRECTION('',(0.,0.,1.));
#640=DIRECTION('center_axis',(0.,0.,1.));
#641=DIRECTION('ref_axis',(3.91221446772674E-13,-1.,0.));
#642=DIRECTION('center_axis',(0.,0.,-1.));
#643=DIRECTION('ref_axis',(3.91221446772674E-13,-1.,0.));
#644=DIRECTION('',(0.,0.,1.));
#645=DIRECTION('center_axis',(3.91509047403827E-13,-1.,0.));
#646=DIRECTION('ref_axis',(1.,3.91509047403827E-13,0.));
#647=DIRECTION('',(1.,3.91509047403827E-13,0.));
#648=DIRECTION('',(0.,0.,1.));
#649=DIRECTION('center_axis',(0.,0.,1.));
#650=DIRECTION('ref_axis',(-3.91221446774499E-13,1.,0.));
#651=DIRECTION('center_axis',(0.,0.,-1.));
#652=DIRECTION('ref_axis',(-3.91221446774499E-13,1.,0.));
#653=DIRECTION('center_axis',(0.,0.,1.));
#654=DIRECTION('ref_axis',(1.,0.,0.));
#655=DIRECTION('center_axis',(0.,0.,-1.));
#656=DIRECTION('ref_axis',(1.,0.,0.));
#657=DIRECTION('',(0.,0.,-1.));
#658=DIRECTION('center_axis',(-1.,0.,0.));
#659=DIRECTION('ref_axis',(0.,-1.,0.));
#660=DIRECTION('',(0.,-1.,0.));
#661=DIRECTION('center_axis',(1.,0.,0.));
#662=DIRECTION('ref_axis',(0.,1.,0.));
#663=DIRECTION('',(0.,1.,0.));
#664=DIRECTION('center_axis',(0.,0.,1.));
#665=DIRECTION('ref_axis',(1.,0.,0.));
#666=CARTESIAN_POINT('',(0.,0.,0.));
#667=CARTESIAN_POINT('Origin',(-45.0947499175773,-17.6114153859674,0.));
#668=CARTESIAN_POINT('',(-45.0947499175773,-20.6114153859673,2.));
#669=CARTESIAN_POINT('',(-48.0947499175773,-17.6114153859674,2.));
#670=CARTESIAN_POINT('Origin',(-45.0947499175773,-17.6114153859674,2.));
#671=CARTESIAN_POINT('',(-48.0947499175773,-17.6114153859674,0.));
#672=CARTESIAN_POINT('',(-48.0947499175773,-17.6114153859674,0.));
#673=CARTESIAN_POINT('',(-45.0947499175773,-20.6114153859673,0.));
#674=CARTESIAN_POINT('Origin',(-45.0947499175773,-17.6114153859674,0.));
#675=CARTESIAN_POINT('',(-45.0947499175773,-20.6114153859673,0.));
#676=CARTESIAN_POINT('Origin',(-48.0947499175773,-20.6114153859673,0.));
#677=CARTESIAN_POINT('',(30.9052500824227,-20.6114153859673,0.));
#678=CARTESIAN_POINT('',(33.9052500824227,-20.6114153859673,0.));
#679=CARTESIAN_POINT('',(30.9052500824227,-20.6114153859673,2.));
#680=CARTESIAN_POINT('',(30.9052500824227,-20.6114153859673,0.));
#681=CARTESIAN_POINT('',(33.9052500824227,-20.6114153859673,2.));
#682=CARTESIAN_POINT('Origin',(-7.09474991757727,0.438584614032655,0.));
#683=CARTESIAN_POINT('',(-48.0947499175773,18.4885846140327,0.));
#684=CARTESIAN_POINT('',(-48.0947499175773,-20.6114153859673,0.));
#685=CARTESIAN_POINT('',(-45.0947499175773,21.4885846140327,0.));
#686=CARTESIAN_POINT('Origin',(-45.0947499175773,18.4885846140327,0.));
#687=CARTESIAN_POINT('',(30.9052500824227,21.4885846140326,0.));
#688=CARTESIAN_POINT('',(-48.0947499175773,21.4885846140327,0.));
#689=CARTESIAN_POINT('',(33.9052500824227,18.4885846140327,0.));
#690=CARTESIAN_POINT('Origin',(30.9052500824227,18.4885846140327,0.));
#691=CARTESIAN_POINT('',(33.9052500824227,-17.6114153859674,0.));
#692=CARTESIAN_POINT('',(33.9052500824227,21.4885846140326,0.));
#693=CARTESIAN_POINT('Origin',(30.9052500824227,-17.6114153859674,0.));
#694=CARTESIAN_POINT('',(-13.4947499175773,-14.8614153859674,0.));
#695=CARTESIAN_POINT('Origin',(-11.7447499175773,-14.8614153859674,0.));
#696=CARTESIAN_POINT('',(4.05525008242356,14.5385846140424,0.));
#697=CARTESIAN_POINT('',(4.05525008242192,18.7385846140229,0.));
#698=CARTESIAN_POINT('Origin',(4.05525008242274,16.6385846140327,0.));
#699=CARTESIAN_POINT('',(29.0552500824236,14.5385846140326,0.));
#700=CARTESIAN_POINT('',(4.05525008242356,14.5385846140229,0.));
#701=CARTESIAN_POINT('',(29.0552500824212,18.7385846140326,0.));
#702=CARTESIAN_POINT('Origin',(29.0552500824227,16.6385846140326,0.));
#703=CARTESIAN_POINT('',(29.0552500824212,18.7385846140326,0.));
#704=CARTESIAN_POINT('',(-38.2947499175773,0.43858461403265,0.));
#705=CARTESIAN_POINT('Origin',(-27.0447499175773,0.438584614032651,0.));
#706=CARTESIAN_POINT('',(-44.0947499175773,15.7385846140327,0.));
#707=CARTESIAN_POINT('Origin',(-42.3447499175773,15.7385846140327,0.));
#708=CARTESIAN_POINT('',(4.06405008242249,-13.5614329860405,0.));
#709=CARTESIAN_POINT('',(29.0636500824225,-13.6614321860345,0.));
#710=CARTESIAN_POINT('',(29.0636500824225,-13.6614321860345,0.));
#711=CARTESIAN_POINT('',(4.06405599999977,-17.9613977622158,0.));
#712=CARTESIAN_POINT('Origin',(4.05525008242274,-15.7614153859673,0.));
#713=CARTESIAN_POINT('',(29.046850082423,-17.8613985859002,0.));
#714=CARTESIAN_POINT('',(29.046850082423,-17.8613985859002,0.));
#715=CARTESIAN_POINT('Origin',(29.0552500824227,-15.7614153859674,0.));
#716=CARTESIAN_POINT('',(-13.4947499175773,15.7385846140327,0.));
#717=CARTESIAN_POINT('Origin',(-11.7447499175773,15.7385846140327,0.));
#718=CARTESIAN_POINT('',(-44.0947499175773,-14.8614153859674,0.));
#719=CARTESIAN_POINT('Origin',(-42.3447499175773,-14.8614153859674,0.));
#720=CARTESIAN_POINT('Origin',(-45.0947499175773,18.4885846140327,0.));
#721=CARTESIAN_POINT('',(-48.0947499175773,18.4885846140327,2.));
#722=CARTESIAN_POINT('',(-45.0947499175773,21.4885846140327,2.));
#723=CARTESIAN_POINT('Origin',(-45.0947499175773,18.4885846140327,2.));
#724=CARTESIAN_POINT('',(-45.0947499175773,21.4885846140327,0.));
#725=CARTESIAN_POINT('',(-48.0947499175773,18.4885846140327,0.));
#726=CARTESIAN_POINT('Origin',(33.9052500824227,21.4885846140326,0.));
#727=CARTESIAN_POINT('',(30.9052500824227,21.4885846140326,2.));
#728=CARTESIAN_POINT('',(-48.0947499175773,21.4885846140327,2.));
#729=CARTESIAN_POINT('',(30.9052500824227,21.4885846140326,0.));
#730=CARTESIAN_POINT('Origin',(30.9052500824227,18.4885846140327,0.));
#731=CARTESIAN_POINT('',(33.9052500824227,18.4885846140327,2.));
#732=CARTESIAN_POINT('Origin',(30.9052500824227,18.4885846140327,2.));
#733=CARTESIAN_POINT('',(33.9052500824227,18.4885846140327,0.));
#734=CARTESIAN_POINT('Origin',(30.9052500824227,-17.6114153859674,0.));
#735=CARTESIAN_POINT('',(33.9052500824227,-17.6114153859674,2.));
#736=CARTESIAN_POINT('Origin',(30.9052500824227,-17.6114153859674,2.));
#737=CARTESIAN_POINT('',(33.9052500824227,-17.6114153859674,0.));
#738=CARTESIAN_POINT('Origin',(-42.3447499175773,-14.8614153859674,0.));
#739=CARTESIAN_POINT('',(-44.0947499175773,-14.8614153859674,2.));
#740=CARTESIAN_POINT('Origin',(-42.3447499175773,-14.8614153859674,2.));
#741=CARTESIAN_POINT('',(-44.0947499175773,-14.8614153859674,0.));
#742=CARTESIAN_POINT('Origin',(-11.7447499175773,15.7385846140327,0.));
#743=CARTESIAN_POINT('',(-13.4947499175773,15.7385846140327,2.));
#744=CARTESIAN_POINT('Origin',(-11.7447499175773,15.7385846140327,2.));
#745=CARTESIAN_POINT('',(-13.4947499175773,15.7385846140327,0.));
#746=CARTESIAN_POINT('Origin',(4.05525008242274,-15.7614153859673,0.));
#747=CARTESIAN_POINT('',(4.06405008242249,-13.5614329860405,2.));
#748=CARTESIAN_POINT('',(4.06405008242249,-13.5614329860405,0.));
#749=CARTESIAN_POINT('',(4.06405599999977,-17.9613977622158,2.));
#750=CARTESIAN_POINT('Origin',(4.05525008242274,-15.7614153859673,2.));
#751=CARTESIAN_POINT('',(4.06405599999977,-17.9613977622158,0.));
#752=CARTESIAN_POINT('Origin',(29.046850082423,-17.8613985859002,0.));
#753=CARTESIAN_POINT('',(29.046850082423,-17.8613985859002,2.));
#754=CARTESIAN_POINT('',(29.046850082423,-17.8613985859002,2.));
#755=CARTESIAN_POINT('',(29.046850082423,-17.8613985859002,0.));
#756=CARTESIAN_POINT('Origin',(29.0552500824227,-15.7614153859674,0.));
#757=CARTESIAN_POINT('',(29.0636500824225,-13.6614321860345,2.));
#758=CARTESIAN_POINT('Origin',(29.0552500824227,-15.7614153859674,2.));
#759=CARTESIAN_POINT('',(29.0636500824225,-13.6614321860345,0.));
#760=CARTESIAN_POINT('Origin',(4.06405008242249,-13.5614329860405,0.));
#761=CARTESIAN_POINT('',(29.0636500824225,-13.6614321860345,2.));
#762=CARTESIAN_POINT('Origin',(-42.3447499175773,15.7385846140327,0.));
#763=CARTESIAN_POINT('',(-44.0947499175773,15.7385846140327,2.));
#764=CARTESIAN_POINT('Origin',(-42.3447499175773,15.7385846140327,2.));
#765=CARTESIAN_POINT('',(-44.0947499175773,15.7385846140327,0.));
#766=CARTESIAN_POINT('Origin',(-27.0447499175773,0.438584614032651,0.));
#767=CARTESIAN_POINT('',(-38.2947499175773,0.438584614032649,2.));
#768=CARTESIAN_POINT('Origin',(-27.0447499175773,0.438584614032651,2.));
#769=CARTESIAN_POINT('',(-38.2947499175773,0.43858461403265,0.));
#770=CARTESIAN_POINT('Origin',(29.0552500824236,14.5385846140326,0.));
#771=CARTESIAN_POINT('',(4.05525008242356,14.5385846140424,2.));
#772=CARTESIAN_POINT('',(4.05525008242356,14.5385846140424,0.));
#773=CARTESIAN_POINT('',(29.0552500824236,14.5385846140326,2.));
#774=CARTESIAN_POINT('',(4.05525008242356,14.5385846140229,2.));
#775=CARTESIAN_POINT('',(29.0552500824236,14.5385846140326,0.));
#776=CARTESIAN_POINT('Origin',(29.0552500824227,16.6385846140326,0.));
#777=CARTESIAN_POINT('',(29.0552500824212,18.7385846140326,2.));
#778=CARTESIAN_POINT('Origin',(29.0552500824227,16.6385846140326,2.));
#779=CARTESIAN_POINT('',(29.0552500824212,18.7385846140326,0.));
#780=CARTESIAN_POINT('Origin',(4.05525008242192,18.7385846140229,0.));
#781=CARTESIAN_POINT('',(4.05525008242192,18.7385846140229,2.));
#782=CARTESIAN_POINT('',(29.0552500824212,18.7385846140326,2.));
#783=CARTESIAN_POINT('',(4.05525008242192,18.7385846140229,0.));
#784=CARTESIAN_POINT('Origin',(4.05525008242274,16.6385846140327,0.));
#785=CARTESIAN_POINT('Origin',(4.05525008242274,16.6385846140327,2.));
#786=CARTESIAN_POINT('Origin',(-11.7447499175773,-14.8614153859674,0.));
#787=CARTESIAN_POINT('',(-13.4947499175773,-14.8614153859674,2.));
#788=CARTESIAN_POINT('Origin',(-11.7447499175773,-14.8614153859674,2.));
#789=CARTESIAN_POINT('',(-13.4947499175773,-14.8614153859674,0.));
#790=CARTESIAN_POINT('Origin',(-48.0947499175773,21.4885846140327,0.));
#791=CARTESIAN_POINT('',(-48.0947499175773,-20.6114153859673,2.));
#792=CARTESIAN_POINT('Origin',(33.9052500824227,-20.6114153859673,0.));
#793=CARTESIAN_POINT('',(33.9052500824227,21.4885846140326,2.));
#794=CARTESIAN_POINT('Origin',(-7.09474991757727,0.438584614032655,2.));
#795=UNCERTAINTY_MEASURE_WITH_UNIT(LENGTH_MEASURE(0.01),#799,
'DISTANCE_ACCURACY_VALUE',
'Maximum model space distance between geometric entities at asserted c
onnectivities');
#796=UNCERTAINTY_MEASURE_WITH_UNIT(LENGTH_MEASURE(0.01),#799,
'DISTANCE_ACCURACY_VALUE',
'Maximum model space distance between geometric entities at asserted c
onnectivities');
#797=(
GEOMETRIC_REPRESENTATION_CONTEXT(3)
GLOBAL_UNCERTAINTY_ASSIGNED_CONTEXT((#795))
GLOBAL_UNIT_ASSIGNED_CONTEXT((#799,#801,#802))
REPRESENTATION_CONTEXT('','3D')
);
#798=(
GEOMETRIC_REPRESENTATION_CONTEXT(3)
GLOBAL_UNCERTAINTY_ASSIGNED_CONTEXT((#796))
GLOBAL_UNIT_ASSIGNED_CONTEXT((#799,#801,#802))
REPRESENTATION_CONTEXT('','3D')
);
#799=(
LENGTH_UNIT()
NAMED_UNIT(*)
SI_UNIT(.MILLI.,.METRE.)
);
#800=(
LENGTH_UNIT()
NAMED_UNIT(*)
SI_UNIT($,.METRE.)
);
#801=(
NAMED_UNIT(*)
PLANE_ANGLE_UNIT()
SI_UNIT($,.RADIAN.)
);
#802=(
NAMED_UNIT(*)
SI_UNIT($,.STERADIAN.)
SOLID_ANGLE_UNIT()
);
#803=SHAPE_DEFINITION_REPRESENTATION(#804,#805);
#804=PRODUCT_DEFINITION_SHAPE('',$,#807);
#805=SHAPE_REPRESENTATION('',(#479),#797);
#806=PRODUCT_DEFINITION_CONTEXT('part definition',#811,'design');
#807=PRODUCT_DEFINITION('2026-08-24-21-39-07-717',
'Nema Mounting Bracket Straight',#808,#806);
#808=PRODUCT_DEFINITION_FORMATION('',$,#813);
#809=PRODUCT_RELATED_PRODUCT_CATEGORY('Nema Mounting Bracket Straight',
'Nema Mounting Bracket Straight',(#813));
#810=APPLICATION_PROTOCOL_DEFINITION('international standard',
'automotive_design',2009,#811);
#811=APPLICATION_CONTEXT(
'Core Data for Automotive Mechanical Design Process');
#812=PRODUCT_CONTEXT('part definition',#811,'mechanical');
#813=PRODUCT('2026-08-24-21-39-07-717','Nema Mounting Bracket Straight',
$,(#812));
#814=PRESENTATION_STYLE_ASSIGNMENT((#815));
#815=SURFACE_STYLE_USAGE(.BOTH.,#816);
#816=SURFACE_SIDE_STYLE('',(#817));
#817=SURFACE_STYLE_FILL_AREA(#818);
#818=FILL_AREA_STYLE('Steel - Satin',(#819));
#819=FILL_AREA_STYLE_COLOUR('Steel - Satin',#820);
#820=COLOUR_RGB('Steel - Satin',0.627450980392157,0.627450980392157,0.627450980392157);
ENDSEC;
END-ISO-10303-21;
