ISO-10303-21;
HEADER;
/* Generated by software containing ST-Developer
 * from STEP Tools, Inc. (www.steptools.com) 
 */

FILE_DESCRIPTION(
/* description */ (''),
/* implementation_level */ '2;1');

FILE_NAME(
/* name */ 'Caantenna feed.step',
/* time_stamp */ '2026-09-08T21:59:23+05:30',
/* author */ (''),
/* organization */ (''),
/* preprocessor_version */ 'ST-DEVELOPER v20.2',
/* originating_system */ 'Autodesk Translation Framework v15.15.0.0',
/* authorisation */ '');

FILE_SCHEMA (('AUTOMOTIVE_DESIGN { 1 0 10303 214 3 1 1 }'));
ENDSEC;

DATA;
#10=MECHANICAL_DESIGN_GEOMETRIC_PRESENTATION_REPRESENTATION('',(#13,#14),
#433);
#11=SHAPE_REPRESENTATION_RELATIONSHIP('SRR','None',#440,#12);
#12=ADVANCED_BREP_SHAPE_REPRESENTATION('',(#15,#16),#432);
#13=STYLED_ITEM('',(#449),#15);
#14=STYLED_ITEM('',(#449),#16);
#15=MANIFOLD_SOLID_BREP('Body1',#197);
#16=MANIFOLD_SOLID_BREP('Body2',#198);
#17=FACE_BOUND('',#44,.T.);
#18=FACE_BOUND('',#46,.T.);
#19=FACE_BOUND('',#49,.T.);
#20=FACE_BOUND('',#51,.T.);
#21=PLANE('',#214);
#22=PLANE('',#218);
#23=PLANE('',#226);
#24=PLANE('',#227);
#25=PLANE('',#231);
#26=PLANE('',#232);
#27=FACE_OUTER_BOUND('',#39,.T.);
#28=FACE_OUTER_BOUND('',#40,.T.);
#29=FACE_OUTER_BOUND('',#41,.T.);
#30=FACE_OUTER_BOUND('',#42,.T.);
#31=FACE_OUTER_BOUND('',#43,.T.);
#32=FACE_OUTER_BOUND('',#45,.T.);
#33=FACE_OUTER_BOUND('',#47,.T.);
#34=FACE_OUTER_BOUND('',#48,.T.);
#35=FACE_OUTER_BOUND('',#50,.T.);
#36=FACE_OUTER_BOUND('',#52,.T.);
#37=FACE_OUTER_BOUND('',#53,.T.);
#38=FACE_OUTER_BOUND('',#54,.T.);
#39=EDGE_LOOP('',(#129,#130,#131));
#40=EDGE_LOOP('',(#132));
#41=EDGE_LOOP('',(#133,#134,#135,#136,#137,#138,#139,#140,#141,#142,#143));
#42=EDGE_LOOP('',(#144,#145));
#43=EDGE_LOOP('',(#146,#147,#148,#149));
#44=EDGE_LOOP('',(#150,#151,#152,#153,#154));
#45=EDGE_LOOP('',(#155,#156,#157,#158));
#46=EDGE_LOOP('',(#159,#160,#161,#162));
#47=EDGE_LOOP('',(#163,#164,#165,#166,#167,#168));
#48=EDGE_LOOP('',(#169));
#49=EDGE_LOOP('',(#170));
#50=EDGE_LOOP('',(#171));
#51=EDGE_LOOP('',(#172));
#52=EDGE_LOOP('',(#173,#174,#175,#176));
#53=EDGE_LOOP('',(#177));
#54=EDGE_LOOP('',(#178));
#55=B_SPLINE_CURVE_WITH_KNOTS('',3,(#291,#292,#293,#294,#295,#296,#297,
#298,#299,#300),.UNSPECIFIED.,.F.,.F.,(4,2,2,2,4),(0.301353086623283,0.339022222470234,
0.376691358317184,0.414360494126054,0.452029629934925),.UNSPECIFIED.);
#56=B_SPLINE_CURVE_WITH_KNOTS('',3,(#306,#307,#308,#309),.UNSPECIFIED.,
 .F.,.F.,(4,4),(0.300177160116274,0.301353086623283),.UNSPECIFIED.);
#57=B_SPLINE_CURVE_WITH_KNOTS('',3,(#313,#314,#315,#316),.UNSPECIFIED.,
 .F.,.F.,(4,4),(0.904059560171486,0.905235486686929),.UNSPECIFIED.);
#58=B_SPLINE_CURVE_WITH_KNOTS('',3,(#319,#320,#321,#322,#323,#324,#325,
#326,#327,#328,#329,#330,#331,#332,#333,#334,#335,#336,#337,#338,#339),
 .UNSPECIFIED.,.F.,.F.,(4,3,2,2,2,2,2,2,2,4),(0.601530446932221,0.602706373447657,
0.640375521808212,0.678044670168766,0.715713818489169,0.753382966809572,
0.791052115129974,0.828721263450377,0.866390411810931,0.904059560171486),
 .UNSPECIFIED.);
#59=B_SPLINE_CURVE_WITH_KNOTS('',3,(#342,#343,#344,#345,#346,#347,#348,
#349,#350,#351,#352,#353,#354),.UNSPECIFIED.,.F.,.F.,(4,2,2,2,3,4),(0.452029629934925,
0.489698765743796,0.527367901552666,0.565037037399617,0.602706173246567,
0.603882099753582),.UNSPECIFIED.);
#60=B_SPLINE_CURVE_WITH_KNOTS('',3,(#364,#365,#366,#367),.UNSPECIFIED.,
 .F.,.F.,(4,4),(0.601530246716492,0.602706173246567),.UNSPECIFIED.);
#61=B_SPLINE_CURVE_WITH_KNOTS('',3,(#368,#369,#370,#371,#372,#373,#374,
#375,#376,#377,#378,#379,#380,#381,#382,#383,#384,#385,#386,#387),
 .UNSPECIFIED.,.F.,.F.,(4,2,2,2,2,2,2,2,2,4),(0.,0.0376691358469503,0.0753382716939005,
0.113007407502771,0.150676543311642,0.188345679120512,0.226014814929383,
0.263683950776333,0.301353086623283,0.302529013153362),.UNSPECIFIED.);
#62=B_SPLINE_CURVE_WITH_KNOTS('',3,(#395,#396,#397,#398,#399,#400,#401,
#402,#403,#404,#405,#406,#407,#408,#409,#410,#411,#412,#413,#414),
 .UNSPECIFIED.,.F.,.F.,(4,2,2,2,2,2,2,2,2,4),(0.300177260185328,0.301353186723828,
0.339022335084383,0.376691483444937,0.41436063176534,0.452029780085743,
0.489698928406145,0.527368076726548,0.565037225087103,0.602706373447657),
 .UNSPECIFIED.);
#63=B_SPLINE_CURVE_WITH_KNOTS('',3,(#415,#416,#417,#418),.UNSPECIFIED.,
 .F.,.F.,(4,4),(0.,0.00117592653850707),.UNSPECIFIED.);
#64=CIRCLE('',#213,1.);
#65=CIRCLE('',#215,1.);
#66=CIRCLE('',#217,1.);
#67=CIRCLE('',#220,76.);
#68=CIRCLE('',#221,76.);
#69=CIRCLE('',#223,75.);
#70=CIRCLE('',#224,75.);
#71=CIRCLE('',#229,75.);
#72=CIRCLE('',#230,75.);
#73=LINE('',#288,#80);
#74=LINE('',#311,#81);
#75=LINE('',#317,#82);
#76=LINE('',#341,#83);
#77=LINE('',#361,#84);
#78=LINE('',#392,#85);
#79=LINE('',#426,#86);
#80=VECTOR('',#237,1.);
#81=VECTOR('',#246,10.);
#82=VECTOR('',#247,1.);
#83=VECTOR('',#248,10.);
#84=VECTOR('',#257,76.);
#85=VECTOR('',#264,75.);
#86=VECTOR('',#277,75.);
#87=VERTEX_POINT('',#286);
#88=VERTEX_POINT('',#287);
#89=VERTEX_POINT('',#289);
#90=VERTEX_POINT('',#302);
#91=VERTEX_POINT('',#305);
#92=VERTEX_POINT('',#310);
#93=VERTEX_POINT('',#312);
#94=VERTEX_POINT('',#318);
#95=VERTEX_POINT('',#340);
#96=VERTEX_POINT('',#358);
#97=VERTEX_POINT('',#360);
#98=VERTEX_POINT('',#363);
#99=VERTEX_POINT('',#389);
#100=VERTEX_POINT('',#391);
#101=VERTEX_POINT('',#394);
#102=VERTEX_POINT('',#423);
#103=VERTEX_POINT('',#425);
#104=EDGE_CURVE('',#87,#88,#73,.T.);
#105=EDGE_CURVE('',#89,#87,#64,.T.);
#106=EDGE_CURVE('',#88,#89,#55,.T.);
#107=EDGE_CURVE('',#90,#90,#65,.T.);
#108=EDGE_CURVE('',#91,#88,#56,.T.);
#109=EDGE_CURVE('',#92,#91,#74,.T.);
#110=EDGE_CURVE('',#93,#92,#57,.T.);
#111=EDGE_CURVE('',#93,#90,#75,.T.);
#112=EDGE_CURVE('',#94,#93,#58,.T.);
#113=EDGE_CURVE('',#95,#94,#76,.T.);
#114=EDGE_CURVE('',#89,#95,#59,.T.);
#115=EDGE_CURVE('',#87,#89,#66,.T.);
#116=EDGE_CURVE('',#96,#96,#67,.T.);
#117=EDGE_CURVE('',#96,#97,#77,.T.);
#118=EDGE_CURVE('',#97,#97,#68,.T.);
#119=EDGE_CURVE('',#95,#98,#60,.T.);
#120=EDGE_CURVE('',#98,#91,#61,.T.);
#121=EDGE_CURVE('',#99,#99,#69,.T.);
#122=EDGE_CURVE('',#99,#100,#78,.T.);
#123=EDGE_CURVE('',#100,#100,#70,.T.);
#124=EDGE_CURVE('',#92,#101,#62,.T.);
#125=EDGE_CURVE('',#101,#94,#63,.T.);
#126=EDGE_CURVE('',#102,#102,#71,.T.);
#127=EDGE_CURVE('',#102,#103,#79,.T.);
#128=EDGE_CURVE('',#103,#103,#72,.T.);
#129=ORIENTED_EDGE('',*,*,#104,.F.);
#130=ORIENTED_EDGE('',*,*,#105,.F.);
#131=ORIENTED_EDGE('',*,*,#106,.F.);
#132=ORIENTED_EDGE('',*,*,#107,.F.);
#133=ORIENTED_EDGE('',*,*,#104,.T.);
#134=ORIENTED_EDGE('',*,*,#108,.F.);
#135=ORIENTED_EDGE('',*,*,#109,.F.);
#136=ORIENTED_EDGE('',*,*,#110,.F.);
#137=ORIENTED_EDGE('',*,*,#111,.T.);
#138=ORIENTED_EDGE('',*,*,#107,.T.);
#139=ORIENTED_EDGE('',*,*,#111,.F.);
#140=ORIENTED_EDGE('',*,*,#112,.F.);
#141=ORIENTED_EDGE('',*,*,#113,.F.);
#142=ORIENTED_EDGE('',*,*,#114,.F.);
#143=ORIENTED_EDGE('',*,*,#115,.F.);
#144=ORIENTED_EDGE('',*,*,#105,.T.);
#145=ORIENTED_EDGE('',*,*,#115,.T.);
#146=ORIENTED_EDGE('',*,*,#116,.F.);
#147=ORIENTED_EDGE('',*,*,#117,.T.);
#148=ORIENTED_EDGE('',*,*,#118,.T.);
#149=ORIENTED_EDGE('',*,*,#117,.F.);
#150=ORIENTED_EDGE('',*,*,#114,.T.);
#151=ORIENTED_EDGE('',*,*,#119,.T.);
#152=ORIENTED_EDGE('',*,*,#120,.T.);
#153=ORIENTED_EDGE('',*,*,#108,.T.);
#154=ORIENTED_EDGE('',*,*,#106,.T.);
#155=ORIENTED_EDGE('',*,*,#121,.F.);
#156=ORIENTED_EDGE('',*,*,#122,.T.);
#157=ORIENTED_EDGE('',*,*,#123,.T.);
#158=ORIENTED_EDGE('',*,*,#122,.F.);
#159=ORIENTED_EDGE('',*,*,#112,.T.);
#160=ORIENTED_EDGE('',*,*,#110,.T.);
#161=ORIENTED_EDGE('',*,*,#124,.T.);
#162=ORIENTED_EDGE('',*,*,#125,.T.);
#163=ORIENTED_EDGE('',*,*,#113,.T.);
#164=ORIENTED_EDGE('',*,*,#125,.F.);
#165=ORIENTED_EDGE('',*,*,#124,.F.);
#166=ORIENTED_EDGE('',*,*,#109,.T.);
#167=ORIENTED_EDGE('',*,*,#120,.F.);
#168=ORIENTED_EDGE('',*,*,#119,.F.);
#169=ORIENTED_EDGE('',*,*,#116,.T.);
#170=ORIENTED_EDGE('',*,*,#121,.T.);
#171=ORIENTED_EDGE('',*,*,#118,.F.);
#172=ORIENTED_EDGE('',*,*,#123,.F.);
#173=ORIENTED_EDGE('',*,*,#126,.F.);
#174=ORIENTED_EDGE('',*,*,#127,.T.);
#175=ORIENTED_EDGE('',*,*,#128,.T.);
#176=ORIENTED_EDGE('',*,*,#127,.F.);
#177=ORIENTED_EDGE('',*,*,#126,.T.);
#178=ORIENTED_EDGE('',*,*,#128,.F.);
#179=CYLINDRICAL_SURFACE('',#212,1.);
#180=CYLINDRICAL_SURFACE('',#216,1.);
#181=CYLINDRICAL_SURFACE('',#219,76.);
#182=CYLINDRICAL_SURFACE('',#222,75.);
#183=CYLINDRICAL_SURFACE('',#225,0.999999999999999);
#184=CYLINDRICAL_SURFACE('',#228,75.);
#185=ADVANCED_FACE('',(#27),#179,.T.);
#186=ADVANCED_FACE('',(#28),#21,.F.);
#187=ADVANCED_FACE('',(#29),#180,.T.);
#188=ADVANCED_FACE('',(#30),#22,.T.);
#189=ADVANCED_FACE('',(#31,#17),#181,.T.);
#190=ADVANCED_FACE('',(#32,#18),#182,.F.);
#191=ADVANCED_FACE('',(#33),#183,.F.);
#192=ADVANCED_FACE('',(#34,#19),#23,.T.);
#193=ADVANCED_FACE('',(#35,#20),#24,.F.);
#194=ADVANCED_FACE('',(#36),#184,.T.);
#195=ADVANCED_FACE('',(#37),#25,.T.);
#196=ADVANCED_FACE('',(#38),#26,.F.);
#197=CLOSED_SHELL('',(#185,#186,#187,#188,#189,#190,#191,#192,#193));
#198=CLOSED_SHELL('',(#194,#195,#196));
#199=DERIVED_UNIT_ELEMENT(#201,1.);
#200=DERIVED_UNIT_ELEMENT(#435,-3.);
#201=(
MASS_UNIT()
NAMED_UNIT(*)
SI_UNIT(.KILO.,.GRAM.)
);
#202=DERIVED_UNIT((#199,#200));
#203=MEASURE_REPRESENTATION_ITEM('density measure',
POSITIVE_RATIO_MEASURE(7850.),#202);
#204=PROPERTY_DEFINITION_REPRESENTATION(#209,#206);
#205=PROPERTY_DEFINITION_REPRESENTATION(#210,#207);
#206=REPRESENTATION('material name',(#208),#432);
#207=REPRESENTATION('density',(#203),#432);
#208=DESCRIPTIVE_REPRESENTATION_ITEM('Steel','Steel');
#209=PROPERTY_DEFINITION('material property','material name',#442);
#210=PROPERTY_DEFINITION('material property','density of part',#442);
#211=AXIS2_PLACEMENT_3D('',#284,#233,#234);
#212=AXIS2_PLACEMENT_3D('',#285,#235,#236);
#213=AXIS2_PLACEMENT_3D('',#290,#238,#239);
#214=AXIS2_PLACEMENT_3D('',#301,#240,#241);
#215=AXIS2_PLACEMENT_3D('',#303,#242,#243);
#216=AXIS2_PLACEMENT_3D('',#304,#244,#245);
#217=AXIS2_PLACEMENT_3D('',#355,#249,#250);
#218=AXIS2_PLACEMENT_3D('',#356,#251,#252);
#219=AXIS2_PLACEMENT_3D('',#357,#253,#254);
#220=AXIS2_PLACEMENT_3D('',#359,#255,#256);
#221=AXIS2_PLACEMENT_3D('',#362,#258,#259);
#222=AXIS2_PLACEMENT_3D('',#388,#260,#261);
#223=AXIS2_PLACEMENT_3D('',#390,#262,#263);
#224=AXIS2_PLACEMENT_3D('',#393,#265,#266);
#225=AXIS2_PLACEMENT_3D('',#419,#267,#268);
#226=AXIS2_PLACEMENT_3D('',#420,#269,#270);
#227=AXIS2_PLACEMENT_3D('',#421,#271,#272);
#228=AXIS2_PLACEMENT_3D('',#422,#273,#274);
#229=AXIS2_PLACEMENT_3D('',#424,#275,#276);
#230=AXIS2_PLACEMENT_3D('',#427,#278,#279);
#231=AXIS2_PLACEMENT_3D('',#428,#280,#281);
#232=AXIS2_PLACEMENT_3D('',#429,#282,#283);
#233=DIRECTION('axis',(0.,0.,1.));
#234=DIRECTION('refdir',(1.,0.,0.));
#235=DIRECTION('center_axis',(1.,0.,0.));
#236=DIRECTION('ref_axis',(0.,1.,0.));
#237=DIRECTION('',(-1.,0.,0.));
#238=DIRECTION('center_axis',(1.,0.,0.));
#239=DIRECTION('ref_axis',(0.,1.,0.));
#240=DIRECTION('center_axis',(1.,0.,0.));
#241=DIRECTION('ref_axis',(0.,1.,0.));
#242=DIRECTION('center_axis',(1.,0.,0.));
#243=DIRECTION('ref_axis',(0.,1.,0.));
#244=DIRECTION('center_axis',(1.,0.,0.));
#245=DIRECTION('ref_axis',(0.,1.,0.));
#246=DIRECTION('',(1.,0.,0.));
#247=DIRECTION('',(-1.,0.,0.));
#248=DIRECTION('',(-1.,0.,0.));
#249=DIRECTION('center_axis',(1.,0.,0.));
#250=DIRECTION('ref_axis',(0.,1.,0.));
#251=DIRECTION('center_axis',(1.,0.,0.));
#252=DIRECTION('ref_axis',(0.,1.,0.));
#253=DIRECTION('center_axis',(0.,0.,1.));
#254=DIRECTION('ref_axis',(1.,0.,0.));
#255=DIRECTION('center_axis',(0.,0.,1.));
#256=DIRECTION('ref_axis',(1.,0.,0.));
#257=DIRECTION('',(0.,0.,-1.));
#258=DIRECTION('center_axis',(0.,0.,1.));
#259=DIRECTION('ref_axis',(1.,0.,0.));
#260=DIRECTION('center_axis',(0.,0.,1.));
#261=DIRECTION('ref_axis',(1.,0.,0.));
#262=DIRECTION('center_axis',(0.,0.,-1.));
#263=DIRECTION('ref_axis',(1.,0.,0.));
#264=DIRECTION('',(0.,0.,-1.));
#265=DIRECTION('center_axis',(0.,0.,-1.));
#266=DIRECTION('ref_axis',(1.,0.,0.));
#267=DIRECTION('center_axis',(1.,0.,0.));
#268=DIRECTION('ref_axis',(0.,-8.82055185704388E-15,-1.));
#269=DIRECTION('center_axis',(0.,0.,1.));
#270=DIRECTION('ref_axis',(1.,0.,0.));
#271=DIRECTION('center_axis',(0.,0.,1.));
#272=DIRECTION('ref_axis',(1.,0.,0.));
#273=DIRECTION('center_axis',(0.,0.,-1.));
#274=DIRECTION('ref_axis',(1.,0.,0.));
#275=DIRECTION('center_axis',(0.,0.,-1.));
#276=DIRECTION('ref_axis',(1.,0.,0.));
#277=DIRECTION('',(0.,0.,1.));
#278=DIRECTION('center_axis',(0.,0.,-1.));
#279=DIRECTION('ref_axis',(1.,0.,0.));
#280=DIRECTION('center_axis',(0.,0.,-1.));
#281=DIRECTION('ref_axis',(1.,0.,0.));
#282=DIRECTION('center_axis',(0.,0.,-1.));
#283=DIRECTION('ref_axis',(1.,0.,0.));
#284=CARTESIAN_POINT('',(0.,0.,0.));
#285=CARTESIAN_POINT('Origin',(0.,0.,93.4235663972116));
#286=CARTESIAN_POINT('',(76.,-1.,93.4235663972116));
#287=CARTESIAN_POINT('',(75.9934207678533,-1.,93.4235663972116));
#288=CARTESIAN_POINT('',(0.,-1.,93.4235663972116));
#289=CARTESIAN_POINT('',(76.,0.,94.4235663972116));
#290=CARTESIAN_POINT('Origin',(76.,0.,93.4235663972116));
#291=CARTESIAN_POINT('Ctrl Pts',(75.9934207678533,-0.999999999999999,93.4235663972116));
#292=CARTESIAN_POINT('Ctrl Pts',(75.9934207678533,-1.,93.5491301833681));
#293=CARTESIAN_POINT('Ctrl Pts',(75.9937639738748,-0.97490575347999,93.6830623931276));
#294=CARTESIAN_POINT('Ctrl Pts',(75.9950046657653,-0.872851645626001,93.9294412878918));
#295=CARTESIAN_POINT('Ctrl Pts',(75.9958843597059,-0.795891864281387,94.0418880953033));
#296=CARTESIAN_POINT('Ctrl Pts',(75.9975365505419,-0.618321698181461,94.2194582614032));
#297=CARTESIAN_POINT('Ctrl Pts',(75.9984162112586,-0.50587489070354,94.2964180427584));
#298=CARTESIAN_POINT('Ctrl Pts',(75.9996568272046,-0.259495995857449,94.3984721507853));
#299=CARTESIAN_POINT('Ctrl Pts',(76.,-0.125563786029569,94.4235663972116));
#300=CARTESIAN_POINT('Ctrl Pts',(76.,-3.46944695195361E-16,94.4235663972116));
#301=CARTESIAN_POINT('Origin',(23.2,0.,93.4235663972116));
#302=CARTESIAN_POINT('',(23.2,-1.,93.4235663972116));
#303=CARTESIAN_POINT('Origin',(23.2,0.,93.4235663972116));
#304=CARTESIAN_POINT('Origin',(0.,0.,93.4235663972116));
#305=CARTESIAN_POINT('',(75.9934216813783,-0.999930575705442,93.4117831987216));
#306=CARTESIAN_POINT('Ctrl Pts',(75.9934216813782,-0.999930575706807,93.4117831987216));
#307=CARTESIAN_POINT('Ctrl Pts',(75.993421071155,-0.999976951880269,93.4157187136727));
#308=CARTESIAN_POINT('Ctrl Pts',(75.9934207678533,-1.,93.4196466421882));
#309=CARTESIAN_POINT('Ctrl Pts',(75.9934207678533,-1.,93.4235663972116));
#310=CARTESIAN_POINT('',(74.9933339627181,-0.999930575705441,93.4117831987216));
#311=CARTESIAN_POINT('',(0.,-0.999930575705442,93.4117831986058));
#312=CARTESIAN_POINT('',(74.9933330370107,-1.,93.4235663972116));
#313=CARTESIAN_POINT('Ctrl Pts',(74.9933330370107,-1.,93.4235663972116));
#314=CARTESIAN_POINT('Ctrl Pts',(74.9933330370107,-1.,93.4196466421601));
#315=CARTESIAN_POINT('Ctrl Pts',(74.9933333443571,-0.99997695187994,93.4157187136448));
#316=CARTESIAN_POINT('Ctrl Pts',(74.9933339627181,-0.999930575706806,93.4117831987216));
#317=CARTESIAN_POINT('',(0.,-1.,93.4235663972116));
#318=CARTESIAN_POINT('',(74.9933339627181,0.999930575705442,93.4117831987216));
#319=CARTESIAN_POINT('Ctrl Pts',(74.9933339627181,0.999930575706807,93.4117831987216));
#320=CARTESIAN_POINT('Ctrl Pts',(74.9933333443571,0.99997695187994,93.4157187136448));
#321=CARTESIAN_POINT('Ctrl Pts',(74.9933330370107,1.,93.4196466421601));
#322=CARTESIAN_POINT('Ctrl Pts',(74.9933330370107,1.,93.4235663972116));
#323=CARTESIAN_POINT('Ctrl Pts',(74.9933330370107,1.,93.5491302250801));
#324=CARTESIAN_POINT('Ctrl Pts',(74.9936808201846,0.974905737177923,93.6830624528402));
#325=CARTESIAN_POINT('Ctrl Pts',(74.9949380572466,0.872851617204393,93.929441336151));
#326=CARTESIAN_POINT('Ctrl Pts',(74.9958294818008,0.795891842189292,94.0418881173954));
#327=CARTESIAN_POINT('Ctrl Pts',(74.9975037033769,0.618321720278441,94.2194582393062));
#328=CARTESIAN_POINT('Ctrl Pts',(74.9983950933604,0.505874938964762,94.2964180143342));
#329=CARTESIAN_POINT('Ctrl Pts',(74.9996522513991,0.259496055566247,94.3984721344867));
#330=CARTESIAN_POINT('Ctrl Pts',(75.,0.125563827734676,94.4235663972116));
#331=CARTESIAN_POINT('Ctrl Pts',(75.,-0.125563827734676,94.4235663972116));
#332=CARTESIAN_POINT('Ctrl Pts',(74.9996522513991,-0.259496055566247,94.3984721344867));
#333=CARTESIAN_POINT('Ctrl Pts',(74.9983950933604,-0.505874938964762,94.2964180143342));
#334=CARTESIAN_POINT('Ctrl Pts',(74.9975037033769,-0.618321720278441,94.2194582393062));
#335=CARTESIAN_POINT('Ctrl Pts',(74.9958294818008,-0.795891842189292,94.0418881173954));
#336=CARTESIAN_POINT('Ctrl Pts',(74.9949380572466,-0.872851617204384,93.9294413361511));
#337=CARTESIAN_POINT('Ctrl Pts',(74.9936808201846,-0.974905737177918,93.6830624528402));
#338=CARTESIAN_POINT('Ctrl Pts',(74.9933330370107,-1.,93.5491302250801));
#339=CARTESIAN_POINT('Ctrl Pts',(74.9933330370107,-1.,93.4235663972116));
#340=CARTESIAN_POINT('',(75.9934216813783,0.999930575705441,93.4117831987216));
#341=CARTESIAN_POINT('',(0.,0.999930575705442,93.4117831986058));
#342=CARTESIAN_POINT('Ctrl Pts',(76.,-3.12250225675825E-16,94.4235663972116));
#343=CARTESIAN_POINT('Ctrl Pts',(76.,0.125563786029568,94.4235663972116));
#344=CARTESIAN_POINT('Ctrl Pts',(75.9996568272046,0.259495995857449,94.3984721507853));
#345=CARTESIAN_POINT('Ctrl Pts',(75.9984162112586,0.505874890703534,94.2964180427584));
#346=CARTESIAN_POINT('Ctrl Pts',(75.9975365505419,0.618321698181461,94.2194582614032));
#347=CARTESIAN_POINT('Ctrl Pts',(75.9958843597059,0.795891864281387,94.0418880953033));
#348=CARTESIAN_POINT('Ctrl Pts',(75.9950046657653,0.87285164562601,93.9294412878918));
#349=CARTESIAN_POINT('Ctrl Pts',(75.9937639738748,0.974905753479995,93.6830623931276));
#350=CARTESIAN_POINT('Ctrl Pts',(75.9934207678533,1.,93.5491301833681));
#351=CARTESIAN_POINT('Ctrl Pts',(75.9934207678533,1.,93.4235663972116));
#352=CARTESIAN_POINT('Ctrl Pts',(75.9934207678533,1.,93.4196466421882));
#353=CARTESIAN_POINT('Ctrl Pts',(75.993421071155,0.999976951880268,93.4157187136727));
#354=CARTESIAN_POINT('Ctrl Pts',(75.9934216813782,0.999930575706806,93.4117831987216));
#355=CARTESIAN_POINT('Origin',(76.,0.,93.4235663972116));
#356=CARTESIAN_POINT('Origin',(76.,0.,93.4235663972116));
#357=CARTESIAN_POINT('Origin',(0.,0.,0.));
#358=CARTESIAN_POINT('',(-76.,-9.30731567351989E-15,280.1));
#359=CARTESIAN_POINT('Origin',(0.,0.,280.1));
#360=CARTESIAN_POINT('',(-76.,-9.30731567351989E-15,0.));
#361=CARTESIAN_POINT('',(-76.,-9.30731567351989E-15,0.));
#362=CARTESIAN_POINT('Origin',(0.,0.,0.));
#363=CARTESIAN_POINT('',(75.9934207678533,0.999999999999999,93.4));
#364=CARTESIAN_POINT('Ctrl Pts',(75.9934216813783,0.999930575704076,93.4117831987216));
#365=CARTESIAN_POINT('Ctrl Pts',(75.993421071155,0.999976951879363,93.407847683693));
#366=CARTESIAN_POINT('Ctrl Pts',(75.9934207678533,0.999999999999999,93.4039197551003));
#367=CARTESIAN_POINT('Ctrl Pts',(75.9934207678533,0.999999999999999,93.4));
#368=CARTESIAN_POINT('Ctrl Pts',(75.9934207678533,0.999999999999999,93.4));
#369=CARTESIAN_POINT('Ctrl Pts',(75.9934207678533,0.999999999999999,93.2744362138435));
#370=CARTESIAN_POINT('Ctrl Pts',(75.9937639738748,0.974905753479984,93.1405040040841));
#371=CARTESIAN_POINT('Ctrl Pts',(75.9950046657653,0.872851645625996,92.8941251093198));
#372=CARTESIAN_POINT('Ctrl Pts',(75.9958843597059,0.795891864281387,92.7816783019083));
#373=CARTESIAN_POINT('Ctrl Pts',(75.9975365505419,0.618321698181461,92.6041081358084));
#374=CARTESIAN_POINT('Ctrl Pts',(75.9984162112586,0.505874890703545,92.5271483544532));
#375=CARTESIAN_POINT('Ctrl Pts',(75.9996568272046,0.259495995857455,92.4250942464263));
#376=CARTESIAN_POINT('Ctrl Pts',(76.,0.125563786029569,92.4));
#377=CARTESIAN_POINT('Ctrl Pts',(76.,-0.125563786029569,92.4));
#378=CARTESIAN_POINT('Ctrl Pts',(75.9996568272046,-0.259495995857455,92.4250942464263));
#379=CARTESIAN_POINT('Ctrl Pts',(75.9984162112586,-0.505874890703545,92.5271483544532));
#380=CARTESIAN_POINT('Ctrl Pts',(75.9975365505419,-0.618321698181461,92.6041081358084));
#381=CARTESIAN_POINT('Ctrl Pts',(75.9958843597059,-0.795891864281386,92.7816783019083));
#382=CARTESIAN_POINT('Ctrl Pts',(75.9950046657653,-0.872851645625996,92.8941251093198));
#383=CARTESIAN_POINT('Ctrl Pts',(75.9937639738748,-0.974905753479984,93.1405040040841));
#384=CARTESIAN_POINT('Ctrl Pts',(75.9934207678533,-0.999999999999999,93.2744362138435));
#385=CARTESIAN_POINT('Ctrl Pts',(75.9934207678533,-0.999999999999999,93.4039197551003));
#386=CARTESIAN_POINT('Ctrl Pts',(75.993421071155,-0.999976951879363,93.407847683693));
#387=CARTESIAN_POINT('Ctrl Pts',(75.9934216813783,-0.999930575704076,93.4117831987216));
#388=CARTESIAN_POINT('Origin',(0.,0.,0.));
#389=CARTESIAN_POINT('',(-75.,-9.18485099360515E-15,280.1));
#390=CARTESIAN_POINT('Origin',(0.,0.,280.1));
#391=CARTESIAN_POINT('',(-75.,-9.18485099360515E-15,0.));
#392=CARTESIAN_POINT('',(-75.,-9.18485099360515E-15,0.));
#393=CARTESIAN_POINT('Origin',(0.,0.,0.));
#394=CARTESIAN_POINT('',(74.9933330370107,1.,93.4));
#395=CARTESIAN_POINT('Ctrl Pts',(74.9933339627181,-0.999930575704077,93.4117831987216));
#396=CARTESIAN_POINT('Ctrl Pts',(74.9933333443571,-0.999976951879035,93.4078476837209));
#397=CARTESIAN_POINT('Ctrl Pts',(74.9933330370107,-0.999999999999999,93.4039197551283));
#398=CARTESIAN_POINT('Ctrl Pts',(74.9933330370107,-0.999999999999999,93.2744361721315));
#399=CARTESIAN_POINT('Ctrl Pts',(74.9936808201847,-0.974905737177925,93.1405039443715));
#400=CARTESIAN_POINT('Ctrl Pts',(74.9949380572466,-0.872851617204411,92.8941250610606));
#401=CARTESIAN_POINT('Ctrl Pts',(74.9958294818008,-0.795891842189291,92.7816782798162));
#402=CARTESIAN_POINT('Ctrl Pts',(74.9975037033769,-0.618321720278441,92.6041081579054));
#403=CARTESIAN_POINT('Ctrl Pts',(74.9983950933604,-0.505874938964758,92.5271483828774));
#404=CARTESIAN_POINT('Ctrl Pts',(74.9996522513991,-0.259496055566243,92.4250942627249));
#405=CARTESIAN_POINT('Ctrl Pts',(75.,-0.125563827734676,92.4));
#406=CARTESIAN_POINT('Ctrl Pts',(75.,0.125563827734676,92.4));
#407=CARTESIAN_POINT('Ctrl Pts',(74.9996522513991,0.25949605556626,92.425094262725));
#408=CARTESIAN_POINT('Ctrl Pts',(74.9983950933604,0.505874938964773,92.5271483828774));
#409=CARTESIAN_POINT('Ctrl Pts',(74.9975037033769,0.61832172027844,92.6041081579054));
#410=CARTESIAN_POINT('Ctrl Pts',(74.9958294818008,0.795891842189291,92.7816782798162));
#411=CARTESIAN_POINT('Ctrl Pts',(74.9949380572466,0.872851617204392,92.8941250610605));
#412=CARTESIAN_POINT('Ctrl Pts',(74.9936808201846,0.974905737177922,93.1405039443714));
#413=CARTESIAN_POINT('Ctrl Pts',(74.9933330370107,1.,93.2744361721315));
#414=CARTESIAN_POINT('Ctrl Pts',(74.9933330370107,1.,93.4));
#415=CARTESIAN_POINT('Ctrl Pts',(74.9933330370107,0.999999999999999,93.4));
#416=CARTESIAN_POINT('Ctrl Pts',(74.9933330370107,0.999999999999999,93.4039197551284));
#417=CARTESIAN_POINT('Ctrl Pts',(74.9933333443571,0.999976951879034,93.4078476837209));
#418=CARTESIAN_POINT('Ctrl Pts',(74.9933339627181,0.999930575704076,93.4117831987216));
#419=CARTESIAN_POINT('Origin',(0.,0.,93.4));
#420=CARTESIAN_POINT('Origin',(0.,0.,280.1));
#421=CARTESIAN_POINT('Origin',(0.,0.,0.));
#422=CARTESIAN_POINT('Origin',(0.,0.,0.));
#423=CARTESIAN_POINT('',(-75.,9.18485099360515E-15,-2.));
#424=CARTESIAN_POINT('Origin',(0.,0.,-2.));
#425=CARTESIAN_POINT('',(-75.,9.18485099360515E-15,0.));
#426=CARTESIAN_POINT('',(-75.,9.18485099360515E-15,0.));
#427=CARTESIAN_POINT('Origin',(0.,0.,0.));
#428=CARTESIAN_POINT('Origin',(0.,0.,-2.));
#429=CARTESIAN_POINT('Origin',(0.,0.,0.));
#430=UNCERTAINTY_MEASURE_WITH_UNIT(LENGTH_MEASURE(0.01),#434,
'DISTANCE_ACCURACY_VALUE',
'Maximum model space distance between geometric entities at asserted c
onnectivities');
#431=UNCERTAINTY_MEASURE_WITH_UNIT(LENGTH_MEASURE(0.01),#434,
'DISTANCE_ACCURACY_VALUE',
'Maximum model space distance between geometric entities at asserted c
onnectivities');
#432=(
GEOMETRIC_REPRESENTATION_CONTEXT(3)
GLOBAL_UNCERTAINTY_ASSIGNED_CONTEXT((#430))
GLOBAL_UNIT_ASSIGNED_CONTEXT((#434,#436,#437))
REPRESENTATION_CONTEXT('','3D')
);
#433=(
GEOMETRIC_REPRESENTATION_CONTEXT(3)
GLOBAL_UNCERTAINTY_ASSIGNED_CONTEXT((#431))
GLOBAL_UNIT_ASSIGNED_CONTEXT((#434,#436,#437))
REPRESENTATION_CONTEXT('','3D')
);
#434=(
LENGTH_UNIT()
NAMED_UNIT(*)
SI_UNIT(.MILLI.,.METRE.)
);
#435=(
LENGTH_UNIT()
NAMED_UNIT(*)
SI_UNIT($,.METRE.)
);
#436=(
NAMED_UNIT(*)
PLANE_ANGLE_UNIT()
SI_UNIT($,.RADIAN.)
);
#437=(
NAMED_UNIT(*)
SI_UNIT($,.STERADIAN.)
SOLID_ANGLE_UNIT()
);
#438=SHAPE_DEFINITION_REPRESENTATION(#439,#440);
#439=PRODUCT_DEFINITION_SHAPE('',$,#442);
#440=SHAPE_REPRESENTATION('',(#211),#432);
#441=PRODUCT_DEFINITION_CONTEXT('part definition',#446,'design');
#442=PRODUCT_DEFINITION('2026-09-06-22-06-45-876','Caantenna feed',#443,
#441);
#443=PRODUCT_DEFINITION_FORMATION('',$,#448);
#444=PRODUCT_RELATED_PRODUCT_CATEGORY('Caantenna feed','Caantenna feed',
(#448));
#445=APPLICATION_PROTOCOL_DEFINITION('international standard',
'automotive_design',2009,#446);
#446=APPLICATION_CONTEXT(
'Core Data for Automotive Mechanical Design Process');
#447=PRODUCT_CONTEXT('part definition',#446,'mechanical');
#448=PRODUCT('2026-09-06-22-06-45-876','Caantenna feed',$,(#447));
#449=PRESENTATION_STYLE_ASSIGNMENT((#450));
#450=SURFACE_STYLE_USAGE(.BOTH.,#451);
#451=SURFACE_SIDE_STYLE('',(#452));
#452=SURFACE_STYLE_FILL_AREA(#453);
#453=FILL_AREA_STYLE('Steel - Satin',(#454));
#454=FILL_AREA_STYLE_COLOUR('Steel - Satin',#455);
#455=COLOUR_RGB('Steel - Satin',0.627450980392157,0.627450980392157,0.627450980392157);
ENDSEC;
END-ISO-10303-21;
