ISO-10303-21;
HEADER;
/* Generated by software containing ST-Developer
 * from STEP Tools, Inc. (www.steptools.com) 
 */

FILE_DESCRIPTION(
/* description */ (''),
/* implementation_level */ '2;1');

FILE_NAME(
/* name */ 'Altitude Bearing to plank connector.step',
/* time_stamp */ '2026-09-24T19:57:13+05:30',
/* author */ (''),
/* organization */ (''),
/* preprocessor_version */ 'ST-DEVELOPER v20.2',
/* originating_system */ 'Autodesk Translation Framework v15.15.0.0',
/* authorisation */ '');

FILE_SCHEMA (('AUTOMOTIVE_DESIGN { 1 0 10303 214 3 1 1 }'));
ENDSEC;

DATA;
#10=MECHANICAL_DESIGN_GEOMETRIC_PRESENTATION_REPRESENTATION('',(#13),#2034);
#11=SHAPE_REPRESENTATION_RELATIONSHIP('SRR','None',#2041,#12);
#12=ADVANCED_BREP_SHAPE_REPRESENTATION('',(#14),#2033);
#13=STYLED_ITEM('',(#2051),#14);
#14=MANIFOLD_SOLID_BREP('Body1',#1114);
#15=FACE_BOUND('',#320,.T.);
#16=FACE_BOUND('',#321,.T.);
#17=FACE_BOUND('',#325,.T.);
#18=FACE_BOUND('',#326,.T.);
#19=FACE_BOUND('',#343,.T.);
#20=FACE_BOUND('',#344,.T.);
#21=FACE_BOUND('',#359,.T.);
#22=FACE_BOUND('',#360,.T.);
#23=FACE_BOUND('',#377,.T.);
#24=ELLIPSE('',#1141,2.82842712474619,2.);
#25=ELLIPSE('',#1142,2.82842712474619,2.);
#26=ELLIPSE('',#1144,2.82842712474619,2.);
#27=ELLIPSE('',#1170,2.82842712474619,2.);
#28=ELLIPSE('',#1224,2.82842712474619,2.);
#29=ELLIPSE('',#1250,2.82842712474619,2.);
#30=CYLINDRICAL_SURFACE('',#1140,2.);
#31=CYLINDRICAL_SURFACE('',#1143,2.);
#32=CYLINDRICAL_SURFACE('',#1145,2.);
#33=CYLINDRICAL_SURFACE('',#1151,2.);
#34=CYLINDRICAL_SURFACE('',#1157,2.);
#35=CYLINDRICAL_SURFACE('',#1163,2.);
#36=CYLINDRICAL_SURFACE('',#1169,2.);
#37=CYLINDRICAL_SURFACE('',#1171,2.);
#38=CYLINDRICAL_SURFACE('',#1172,5.);
#39=CYLINDRICAL_SURFACE('',#1177,5.);
#40=CYLINDRICAL_SURFACE('',#1190,2.);
#41=CYLINDRICAL_SURFACE('',#1196,2.);
#42=CYLINDRICAL_SURFACE('',#1202,2.);
#43=CYLINDRICAL_SURFACE('',#1207,2.);
#44=CYLINDRICAL_SURFACE('',#1212,2.);
#45=CYLINDRICAL_SURFACE('',#1217,5.);
#46=CYLINDRICAL_SURFACE('',#1221,5.);
#47=CYLINDRICAL_SURFACE('',#1223,2.);
#48=CYLINDRICAL_SURFACE('',#1225,2.);
#49=CYLINDRICAL_SURFACE('',#1231,2.);
#50=CYLINDRICAL_SURFACE('',#1237,2.);
#51=CYLINDRICAL_SURFACE('',#1243,2.);
#52=CYLINDRICAL_SURFACE('',#1249,2.);
#53=CYLINDRICAL_SURFACE('',#1251,2.);
#54=CYLINDRICAL_SURFACE('',#1255,5.);
#55=CYLINDRICAL_SURFACE('',#1257,5.);
#56=CYLINDRICAL_SURFACE('',#1259,5.);
#57=CYLINDRICAL_SURFACE('',#1261,5.);
#58=CYLINDRICAL_SURFACE('',#1267,2.125);
#59=CYLINDRICAL_SURFACE('',#1268,2.125);
#60=CYLINDRICAL_SURFACE('',#1269,2.125);
#61=CYLINDRICAL_SURFACE('',#1270,2.125);
#62=CYLINDRICAL_SURFACE('',#1273,20.);
#63=LINE('',#1706,#140);
#64=LINE('',#1710,#141);
#65=LINE('',#1713,#142);
#66=LINE('',#1716,#143);
#67=LINE('',#1720,#144);
#68=LINE('',#1723,#145);
#69=LINE('',#1727,#146);
#70=LINE('',#1731,#147);
#71=LINE('',#1735,#148);
#72=LINE('',#1738,#149);
#73=LINE('',#1741,#150);
#74=LINE('',#1744,#151);
#75=LINE('',#1755,#152);
#76=LINE('',#1756,#153);
#77=LINE('',#1767,#154);
#78=LINE('',#1768,#155);
#79=LINE('',#1779,#156);
#80=LINE('',#1780,#157);
#81=LINE('',#1789,#158);
#82=LINE('',#1791,#159);
#83=LINE('',#1794,#160);
#84=LINE('',#1795,#161);
#85=LINE('',#1798,#162);
#86=LINE('',#1801,#163);
#87=LINE('',#1804,#164);
#88=LINE('',#1805,#165);
#89=LINE('',#1812,#166);
#90=LINE('',#1816,#167);
#91=LINE('',#1819,#168);
#92=LINE('',#1822,#169);
#93=LINE('',#1824,#170);
#94=LINE('',#1826,#171);
#95=LINE('',#1828,#172);
#96=LINE('',#1845,#173);
#97=LINE('',#1846,#174);
#98=LINE('',#1870,#175);
#99=LINE('',#1871,#176);
#100=LINE('',#1882,#177);
#101=LINE('',#1883,#178);
#102=LINE('',#1893,#179);
#103=LINE('',#1894,#180);
#104=LINE('',#1902,#181);
#105=LINE('',#1910,#182);
#106=LINE('',#1914,#183);
#107=LINE('',#1916,#184);
#108=LINE('',#1918,#185);
#109=LINE('',#1924,#186);
#110=LINE('',#1926,#187);
#111=LINE('',#1929,#188);
#112=LINE('',#1932,#189);
#113=LINE('',#1935,#190);
#114=LINE('',#1938,#191);
#115=LINE('',#1949,#192);
#116=LINE('',#1950,#193);
#117=LINE('',#1961,#194);
#118=LINE('',#1962,#195);
#119=LINE('',#1973,#196);
#120=LINE('',#1974,#197);
#121=LINE('',#1982,#198);
#122=LINE('',#1984,#199);
#123=LINE('',#1987,#200);
#124=LINE('',#1990,#201);
#125=LINE('',#1991,#202);
#126=LINE('',#1997,#203);
#127=LINE('',#1998,#204);
#128=LINE('',#2000,#205);
#129=LINE('',#2002,#206);
#130=LINE('',#2004,#207);
#131=LINE('',#2006,#208);
#132=LINE('',#2008,#209);
#133=LINE('',#2010,#210);
#134=LINE('',#2012,#211);
#135=LINE('',#2019,#212);
#136=LINE('',#2021,#213);
#137=LINE('',#2023,#214);
#138=LINE('',#2025,#215);
#139=LINE('',#2030,#216);
#140=VECTOR('',#1290,10.);
#141=VECTOR('',#1293,10.);
#142=VECTOR('',#1296,10.);
#143=VECTOR('',#1299,10.);
#144=VECTOR('',#1302,10.);
#145=VECTOR('',#1305,10.);
#146=VECTOR('',#1308,10.);
#147=VECTOR('',#1311,10.);
#148=VECTOR('',#1316,10.);
#149=VECTOR('',#1319,10.);
#150=VECTOR('',#1322,10.);
#151=VECTOR('',#1325,10.);
#152=VECTOR('',#1338,10.);
#153=VECTOR('',#1339,10.);
#154=VECTOR('',#1352,10.);
#155=VECTOR('',#1353,10.);
#156=VECTOR('',#1366,10.);
#157=VECTOR('',#1367,10.);
#158=VECTOR('',#1378,10.);
#159=VECTOR('',#1379,10.);
#160=VECTOR('',#1384,10.);
#161=VECTOR('',#1385,10.);
#162=VECTOR('',#1388,10.);
#163=VECTOR('',#1391,10.);
#164=VECTOR('',#1394,10.);
#165=VECTOR('',#1395,10.);
#166=VECTOR('',#1402,10.);
#167=VECTOR('',#1407,10.);
#168=VECTOR('',#1410,10.);
#169=VECTOR('',#1413,10.);
#170=VECTOR('',#1414,10.);
#171=VECTOR('',#1415,10.);
#172=VECTOR('',#1416,10.);
#173=VECTOR('',#1423,10.);
#174=VECTOR('',#1424,10.);
#175=VECTOR('',#1439,10.);
#176=VECTOR('',#1440,10.);
#177=VECTOR('',#1453,10.);
#178=VECTOR('',#1454,10.);
#179=VECTOR('',#1467,10.);
#180=VECTOR('',#1468,10.);
#181=VECTOR('',#1479,10.);
#182=VECTOR('',#1490,10.);
#183=VECTOR('',#1497,10.);
#184=VECTOR('',#1500,10.);
#185=VECTOR('',#1503,10.);
#186=VECTOR('',#1510,10.);
#187=VECTOR('',#1513,10.);
#188=VECTOR('',#1516,10.);
#189=VECTOR('',#1519,10.);
#190=VECTOR('',#1522,10.);
#191=VECTOR('',#1525,10.);
#192=VECTOR('',#1538,10.);
#193=VECTOR('',#1539,10.);
#194=VECTOR('',#1552,10.);
#195=VECTOR('',#1553,10.);
#196=VECTOR('',#1566,10.);
#197=VECTOR('',#1567,10.);
#198=VECTOR('',#1578,10.);
#199=VECTOR('',#1579,10.);
#200=VECTOR('',#1584,10.);
#201=VECTOR('',#1587,10.);
#202=VECTOR('',#1588,10.);
#203=VECTOR('',#1595,10.);
#204=VECTOR('',#1596,10.);
#205=VECTOR('',#1599,10.);
#206=VECTOR('',#1602,10.);
#207=VECTOR('',#1605,10.);
#208=VECTOR('',#1608,10.);
#209=VECTOR('',#1611,10.);
#210=VECTOR('',#1614,10.);
#211=VECTOR('',#1617,10.);
#212=VECTOR('',#1628,2.125);
#213=VECTOR('',#1631,2.125);
#214=VECTOR('',#1634,2.125);
#215=VECTOR('',#1637,2.125);
#216=VECTOR('',#1644,20.);
#217=PLANE('',#1134);
#218=PLANE('',#1137);
#219=PLANE('',#1174);
#220=PLANE('',#1179);
#221=PLANE('',#1181);
#222=PLANE('',#1184);
#223=PLANE('',#1185);
#224=PLANE('',#1216);
#225=PLANE('',#1218);
#226=PLANE('',#1222);
#227=PLANE('',#1252);
#228=PLANE('',#1256);
#229=PLANE('',#1258);
#230=PLANE('',#1260);
#231=PLANE('',#1262);
#232=PLANE('',#1263);
#233=PLANE('',#1264);
#234=PLANE('',#1266);
#235=PLANE('',#1271);
#236=FACE_OUTER_BOUND('',#303,.T.);
#237=FACE_OUTER_BOUND('',#304,.T.);
#238=FACE_OUTER_BOUND('',#305,.T.);
#239=FACE_OUTER_BOUND('',#306,.T.);
#240=FACE_OUTER_BOUND('',#307,.T.);
#241=FACE_OUTER_BOUND('',#308,.T.);
#242=FACE_OUTER_BOUND('',#309,.T.);
#243=FACE_OUTER_BOUND('',#310,.T.);
#244=FACE_OUTER_BOUND('',#311,.T.);
#245=FACE_OUTER_BOUND('',#312,.T.);
#246=FACE_OUTER_BOUND('',#313,.T.);
#247=FACE_OUTER_BOUND('',#314,.T.);
#248=FACE_OUTER_BOUND('',#315,.T.);
#249=FACE_OUTER_BOUND('',#316,.T.);
#250=FACE_OUTER_BOUND('',#317,.T.);
#251=FACE_OUTER_BOUND('',#318,.T.);
#252=FACE_OUTER_BOUND('',#319,.T.);
#253=FACE_OUTER_BOUND('',#322,.T.);
#254=FACE_OUTER_BOUND('',#323,.T.);
#255=FACE_OUTER_BOUND('',#324,.T.);
#256=FACE_OUTER_BOUND('',#327,.T.);
#257=FACE_OUTER_BOUND('',#328,.T.);
#258=FACE_OUTER_BOUND('',#329,.T.);
#259=FACE_OUTER_BOUND('',#330,.T.);
#260=FACE_OUTER_BOUND('',#331,.T.);
#261=FACE_OUTER_BOUND('',#332,.T.);
#262=FACE_OUTER_BOUND('',#333,.T.);
#263=FACE_OUTER_BOUND('',#334,.T.);
#264=FACE_OUTER_BOUND('',#335,.T.);
#265=FACE_OUTER_BOUND('',#336,.T.);
#266=FACE_OUTER_BOUND('',#337,.T.);
#267=FACE_OUTER_BOUND('',#338,.T.);
#268=FACE_OUTER_BOUND('',#339,.T.);
#269=FACE_OUTER_BOUND('',#340,.T.);
#270=FACE_OUTER_BOUND('',#341,.T.);
#271=FACE_OUTER_BOUND('',#342,.T.);
#272=FACE_OUTER_BOUND('',#345,.T.);
#273=FACE_OUTER_BOUND('',#346,.T.);
#274=FACE_OUTER_BOUND('',#347,.T.);
#275=FACE_OUTER_BOUND('',#348,.T.);
#276=FACE_OUTER_BOUND('',#349,.T.);
#277=FACE_OUTER_BOUND('',#350,.T.);
#278=FACE_OUTER_BOUND('',#351,.T.);
#279=FACE_OUTER_BOUND('',#352,.T.);
#280=FACE_OUTER_BOUND('',#353,.T.);
#281=FACE_OUTER_BOUND('',#354,.T.);
#282=FACE_OUTER_BOUND('',#355,.T.);
#283=FACE_OUTER_BOUND('',#356,.T.);
#284=FACE_OUTER_BOUND('',#357,.T.);
#285=FACE_OUTER_BOUND('',#358,.T.);
#286=FACE_OUTER_BOUND('',#361,.T.);
#287=FACE_OUTER_BOUND('',#362,.T.);
#288=FACE_OUTER_BOUND('',#363,.T.);
#289=FACE_OUTER_BOUND('',#364,.T.);
#290=FACE_OUTER_BOUND('',#365,.T.);
#291=FACE_OUTER_BOUND('',#366,.T.);
#292=FACE_OUTER_BOUND('',#367,.T.);
#293=FACE_OUTER_BOUND('',#368,.T.);
#294=FACE_OUTER_BOUND('',#369,.T.);
#295=FACE_OUTER_BOUND('',#370,.T.);
#296=FACE_OUTER_BOUND('',#371,.T.);
#297=FACE_OUTER_BOUND('',#372,.T.);
#298=FACE_OUTER_BOUND('',#373,.T.);
#299=FACE_OUTER_BOUND('',#374,.T.);
#300=FACE_OUTER_BOUND('',#375,.T.);
#301=FACE_OUTER_BOUND('',#376,.T.);
#302=FACE_OUTER_BOUND('',#378,.T.);
#303=EDGE_LOOP('',(#712,#713,#714,#715,#716,#717,#718,#719));
#304=EDGE_LOOP('',(#720,#721,#722,#723,#724,#725));
#305=EDGE_LOOP('',(#726,#727,#728,#729,#730,#731,#732));
#306=EDGE_LOOP('',(#733,#734,#735,#736));
#307=EDGE_LOOP('',(#737,#738,#739,#740));
#308=EDGE_LOOP('',(#741,#742,#743,#744));
#309=EDGE_LOOP('',(#745,#746,#747,#748));
#310=EDGE_LOOP('',(#749,#750,#751,#752));
#311=EDGE_LOOP('',(#753,#754,#755,#756));
#312=EDGE_LOOP('',(#757,#758,#759,#760));
#313=EDGE_LOOP('',(#761,#762,#763,#764));
#314=EDGE_LOOP('',(#765,#766,#767,#768));
#315=EDGE_LOOP('',(#769,#770,#771,#772));
#316=EDGE_LOOP('',(#773,#774,#775,#776));
#317=EDGE_LOOP('',(#777,#778,#779,#780));
#318=EDGE_LOOP('',(#781,#782,#783,#784));
#319=EDGE_LOOP('',(#785,#786,#787,#788));
#320=EDGE_LOOP('',(#789));
#321=EDGE_LOOP('',(#790));
#322=EDGE_LOOP('',(#791,#792,#793,#794));
#323=EDGE_LOOP('',(#795,#796,#797,#798,#799));
#324=EDGE_LOOP('',(#800,#801,#802,#803,#804,#805,#806));
#325=EDGE_LOOP('',(#807));
#326=EDGE_LOOP('',(#808));
#327=EDGE_LOOP('',(#809,#810,#811,#812));
#328=EDGE_LOOP('',(#813,#814,#815,#816,#817,#818,#819,#820,#821,#822,#823,
#824));
#329=EDGE_LOOP('',(#825,#826,#827,#828));
#330=EDGE_LOOP('',(#829,#830,#831,#832));
#331=EDGE_LOOP('',(#833,#834,#835,#836));
#332=EDGE_LOOP('',(#837,#838,#839,#840));
#333=EDGE_LOOP('',(#841,#842,#843,#844));
#334=EDGE_LOOP('',(#845,#846,#847,#848));
#335=EDGE_LOOP('',(#849,#850,#851,#852));
#336=EDGE_LOOP('',(#853,#854,#855,#856));
#337=EDGE_LOOP('',(#857,#858,#859,#860));
#338=EDGE_LOOP('',(#861,#862,#863,#864));
#339=EDGE_LOOP('',(#865,#866,#867,#868));
#340=EDGE_LOOP('',(#869,#870,#871,#872));
#341=EDGE_LOOP('',(#873,#874,#875,#876));
#342=EDGE_LOOP('',(#877,#878,#879,#880));
#343=EDGE_LOOP('',(#881));
#344=EDGE_LOOP('',(#882));
#345=EDGE_LOOP('',(#883,#884,#885,#886));
#346=EDGE_LOOP('',(#887,#888,#889,#890,#891));
#347=EDGE_LOOP('',(#892,#893,#894,#895));
#348=EDGE_LOOP('',(#896,#897,#898,#899));
#349=EDGE_LOOP('',(#900,#901,#902,#903));
#350=EDGE_LOOP('',(#904,#905,#906,#907));
#351=EDGE_LOOP('',(#908,#909,#910,#911));
#352=EDGE_LOOP('',(#912,#913,#914,#915));
#353=EDGE_LOOP('',(#916,#917,#918,#919));
#354=EDGE_LOOP('',(#920,#921,#922,#923));
#355=EDGE_LOOP('',(#924,#925,#926,#927));
#356=EDGE_LOOP('',(#928,#929,#930,#931));
#357=EDGE_LOOP('',(#932,#933,#934,#935));
#358=EDGE_LOOP('',(#936,#937,#938,#939,#940,#941,#942));
#359=EDGE_LOOP('',(#943));
#360=EDGE_LOOP('',(#944));
#361=EDGE_LOOP('',(#945,#946,#947,#948));
#362=EDGE_LOOP('',(#949,#950,#951,#952,#953,#954));
#363=EDGE_LOOP('',(#955,#956,#957,#958));
#364=EDGE_LOOP('',(#959,#960,#961,#962));
#365=EDGE_LOOP('',(#963,#964,#965,#966));
#366=EDGE_LOOP('',(#967,#968,#969,#970,#971,#972));
#367=EDGE_LOOP('',(#973,#974,#975,#976));
#368=EDGE_LOOP('',(#977,#978,#979,#980,#981,#982,#983,#984));
#369=EDGE_LOOP('',(#985,#986,#987,#988,#989,#990,#991,#992,#993,#994,#995,
#996,#997,#998,#999,#1000,#1001,#1002,#1003,#1004));
#370=EDGE_LOOP('',(#1005));
#371=EDGE_LOOP('',(#1006,#1007,#1008,#1009));
#372=EDGE_LOOP('',(#1010,#1011,#1012,#1013));
#373=EDGE_LOOP('',(#1014,#1015,#1016,#1017));
#374=EDGE_LOOP('',(#1018,#1019,#1020,#1021));
#375=EDGE_LOOP('',(#1022,#1023,#1024,#1025));
#376=EDGE_LOOP('',(#1026));
#377=EDGE_LOOP('',(#1027));
#378=EDGE_LOOP('',(#1028,#1029,#1030,#1031));
#379=CIRCLE('',#1129,30.4960927958597);
#380=CIRCLE('',#1130,30.4960927958597);
#381=CIRCLE('',#1131,8.);
#382=CIRCLE('',#1132,22.5);
#383=CIRCLE('',#1133,30.4960927958597);
#384=CIRCLE('',#1135,5.);
#385=CIRCLE('',#1136,5.);
#386=CIRCLE('',#1138,5.);
#387=CIRCLE('',#1139,5.);
#388=CIRCLE('',#1146,2.);
#389=CIRCLE('',#1148,2.);
#390=CIRCLE('',#1149,5.);
#391=CIRCLE('',#1150,3.);
#392=CIRCLE('',#1152,2.);
#393=CIRCLE('',#1154,2.);
#394=CIRCLE('',#1155,5.);
#395=CIRCLE('',#1156,3.);
#396=CIRCLE('',#1158,2.);
#397=CIRCLE('',#1160,2.);
#398=CIRCLE('',#1161,5.);
#399=CIRCLE('',#1162,3.);
#400=CIRCLE('',#1164,2.);
#401=CIRCLE('',#1166,2.);
#402=CIRCLE('',#1167,5.);
#403=CIRCLE('',#1168,3.);
#404=CIRCLE('',#1173,5.);
#405=CIRCLE('',#1175,2.125);
#406=CIRCLE('',#1176,2.125);
#407=CIRCLE('',#1178,5.);
#408=CIRCLE('',#1180,4.);
#409=CIRCLE('',#1182,2.125);
#410=CIRCLE('',#1183,2.125);
#411=CIRCLE('',#1187,2.);
#412=CIRCLE('',#1188,2.);
#413=CIRCLE('',#1189,4.);
#414=CIRCLE('',#1191,2.);
#415=CIRCLE('',#1193,2.);
#416=CIRCLE('',#1194,7.);
#417=CIRCLE('',#1195,5.);
#418=CIRCLE('',#1197,2.);
#419=CIRCLE('',#1199,2.);
#420=CIRCLE('',#1200,7.);
#421=CIRCLE('',#1201,5.);
#422=CIRCLE('',#1203,2.);
#423=CIRCLE('',#1205,2.);
#424=CIRCLE('',#1206,7.);
#425=CIRCLE('',#1208,2.);
#426=CIRCLE('',#1210,2.);
#427=CIRCLE('',#1211,7.);
#428=CIRCLE('',#1213,2.);
#429=CIRCLE('',#1215,2.);
#430=CIRCLE('',#1219,2.125);
#431=CIRCLE('',#1220,2.125);
#432=CIRCLE('',#1226,2.);
#433=CIRCLE('',#1228,2.);
#434=CIRCLE('',#1229,5.);
#435=CIRCLE('',#1230,3.);
#436=CIRCLE('',#1232,2.);
#437=CIRCLE('',#1234,2.);
#438=CIRCLE('',#1235,5.);
#439=CIRCLE('',#1236,3.);
#440=CIRCLE('',#1238,2.);
#441=CIRCLE('',#1240,2.);
#442=CIRCLE('',#1241,5.);
#443=CIRCLE('',#1242,3.);
#444=CIRCLE('',#1244,2.);
#445=CIRCLE('',#1246,2.);
#446=CIRCLE('',#1247,5.);
#447=CIRCLE('',#1248,3.);
#448=CIRCLE('',#1253,2.125);
#449=CIRCLE('',#1254,2.125);
#450=CIRCLE('',#1265,20.);
#451=CIRCLE('',#1272,20.);
#452=B_SPLINE_CURVE_WITH_KNOTS('',3,(#1649,#1650,#1651,#1652,#1653,#1654,
#1655,#1656,#1657,#1658,#1659,#1660,#1661,#1662,#1663,#1664,#1665,#1666,
#1667,#1668,#1669,#1670,#1671),.UNSPECIFIED.,.F.,.F.,(4,2,2,2,2,3,2,2,2,
2,4),(10.9436972659276,11.2229145151189,11.5021317643101,12.0514081326447,
12.326046316812,12.6006845009793,12.8753226851466,13.1499608693139,13.6992372376484,
13.9784544868397,14.2576717360309),.UNSPECIFIED.);
#453=B_SPLINE_CURVE_WITH_KNOTS('',3,(#1675,#1676,#1677,#1678,#1679,#1680,
#1681,#1682,#1683,#1684,#1685,#1686,#1687,#1688,#1689,#1690,#1691,#1692,
#1693,#1694,#1695,#1696,#1697),.UNSPECIFIED.,.F.,.F.,(4,2,2,2,2,3,2,2,2,
2,4),(10.9436972659271,11.2229145151182,11.5021317643094,12.0514081326439,
12.3260463168111,12.6006845009784,12.8753226851456,13.1499608693129,13.6992372376474,
13.9784544868385,14.2576717360297),.UNSPECIFIED.);
#454=B_SPLINE_CURVE_WITH_KNOTS('',3,(#1829,#1830,#1831,#1832,#1833,#1834,
#1835,#1836,#1837,#1838),.UNSPECIFIED.,.F.,.F.,(4,2,2,2,4),(1.01106448007702,
1.08752770663969,1.16399093320236,1.28155375233527,1.39911657146818),
 .UNSPECIFIED.);
#455=B_SPLINE_CURVE_WITH_KNOTS('',3,(#1855,#1856,#1857,#1858,#1859,#1860,
#1861,#1862,#1863,#1864),.UNSPECIFIED.,.F.,.F.,(4,2,2,2,4),(0.,0.117562819132908,
0.235125638265817,0.311588864828486,0.388052091391156),.UNSPECIFIED.);
#456=VERTEX_POINT('',#1647);
#457=VERTEX_POINT('',#1648);
#458=VERTEX_POINT('',#1672);
#459=VERTEX_POINT('',#1674);
#460=VERTEX_POINT('',#1698);
#461=VERTEX_POINT('',#1700);
#462=VERTEX_POINT('',#1705);
#463=VERTEX_POINT('',#1707);
#464=VERTEX_POINT('',#1709);
#465=VERTEX_POINT('',#1711);
#466=VERTEX_POINT('',#1715);
#467=VERTEX_POINT('',#1717);
#468=VERTEX_POINT('',#1719);
#469=VERTEX_POINT('',#1721);
#470=VERTEX_POINT('',#1725);
#471=VERTEX_POINT('',#1726);
#472=VERTEX_POINT('',#1728);
#473=VERTEX_POINT('',#1730);
#474=VERTEX_POINT('',#1734);
#475=VERTEX_POINT('',#1736);
#476=VERTEX_POINT('',#1740);
#477=VERTEX_POINT('',#1742);
#478=VERTEX_POINT('',#1746);
#479=VERTEX_POINT('',#1747);
#480=VERTEX_POINT('',#1752);
#481=VERTEX_POINT('',#1753);
#482=VERTEX_POINT('',#1758);
#483=VERTEX_POINT('',#1759);
#484=VERTEX_POINT('',#1764);
#485=VERTEX_POINT('',#1765);
#486=VERTEX_POINT('',#1770);
#487=VERTEX_POINT('',#1771);
#488=VERTEX_POINT('',#1776);
#489=VERTEX_POINT('',#1777);
#490=VERTEX_POINT('',#1782);
#491=VERTEX_POINT('',#1783);
#492=VERTEX_POINT('',#1788);
#493=VERTEX_POINT('',#1790);
#494=VERTEX_POINT('',#1797);
#495=VERTEX_POINT('',#1799);
#496=VERTEX_POINT('',#1803);
#497=VERTEX_POINT('',#1806);
#498=VERTEX_POINT('',#1808);
#499=VERTEX_POINT('',#1811);
#500=VERTEX_POINT('',#1815);
#501=VERTEX_POINT('',#1817);
#502=VERTEX_POINT('',#1821);
#503=VERTEX_POINT('',#1823);
#504=VERTEX_POINT('',#1825);
#505=VERTEX_POINT('',#1827);
#506=VERTEX_POINT('',#1839);
#507=VERTEX_POINT('',#1841);
#508=VERTEX_POINT('',#1844);
#509=VERTEX_POINT('',#1849);
#510=VERTEX_POINT('',#1850);
#511=VERTEX_POINT('',#1852);
#512=VERTEX_POINT('',#1854);
#513=VERTEX_POINT('',#1867);
#514=VERTEX_POINT('',#1868);
#515=VERTEX_POINT('',#1873);
#516=VERTEX_POINT('',#1874);
#517=VERTEX_POINT('',#1879);
#518=VERTEX_POINT('',#1880);
#519=VERTEX_POINT('',#1885);
#520=VERTEX_POINT('',#1886);
#521=VERTEX_POINT('',#1891);
#522=VERTEX_POINT('',#1896);
#523=VERTEX_POINT('',#1900);
#524=VERTEX_POINT('',#1904);
#525=VERTEX_POINT('',#1908);
#526=VERTEX_POINT('',#1919);
#527=VERTEX_POINT('',#1921);
#528=VERTEX_POINT('',#1928);
#529=VERTEX_POINT('',#1930);
#530=VERTEX_POINT('',#1934);
#531=VERTEX_POINT('',#1936);
#532=VERTEX_POINT('',#1940);
#533=VERTEX_POINT('',#1941);
#534=VERTEX_POINT('',#1946);
#535=VERTEX_POINT('',#1947);
#536=VERTEX_POINT('',#1952);
#537=VERTEX_POINT('',#1953);
#538=VERTEX_POINT('',#1958);
#539=VERTEX_POINT('',#1959);
#540=VERTEX_POINT('',#1964);
#541=VERTEX_POINT('',#1965);
#542=VERTEX_POINT('',#1970);
#543=VERTEX_POINT('',#1971);
#544=VERTEX_POINT('',#1976);
#545=VERTEX_POINT('',#1977);
#546=VERTEX_POINT('',#1983);
#547=VERTEX_POINT('',#1989);
#548=VERTEX_POINT('',#1992);
#549=VERTEX_POINT('',#1994);
#550=VERTEX_POINT('',#2015);
#551=VERTEX_POINT('',#2027);
#552=EDGE_CURVE('',#456,#457,#452,.T.);
#553=EDGE_CURVE('',#457,#458,#379,.T.);
#554=EDGE_CURVE('',#458,#459,#453,.T.);
#555=EDGE_CURVE('',#459,#460,#380,.T.);
#556=EDGE_CURVE('',#460,#461,#381,.T.);
#557=EDGE_CURVE('',#461,#461,#382,.T.);
#558=EDGE_CURVE('',#460,#456,#383,.T.);
#559=EDGE_CURVE('',#457,#462,#63,.T.);
#560=EDGE_CURVE('',#463,#462,#384,.T.);
#561=EDGE_CURVE('',#463,#464,#64,.F.);
#562=EDGE_CURVE('',#465,#464,#385,.T.);
#563=EDGE_CURVE('',#465,#458,#65,.T.);
#564=EDGE_CURVE('',#459,#466,#66,.T.);
#565=EDGE_CURVE('',#467,#466,#386,.T.);
#566=EDGE_CURVE('',#467,#468,#67,.F.);
#567=EDGE_CURVE('',#469,#468,#387,.T.);
#568=EDGE_CURVE('',#469,#456,#68,.T.);
#569=EDGE_CURVE('',#470,#471,#69,.T.);
#570=EDGE_CURVE('',#471,#472,#24,.T.);
#571=EDGE_CURVE('',#472,#473,#70,.T.);
#572=EDGE_CURVE('',#470,#473,#25,.T.);
#573=EDGE_CURVE('',#471,#474,#71,.T.);
#574=EDGE_CURVE('',#474,#475,#26,.T.);
#575=EDGE_CURVE('',#475,#472,#72,.T.);
#576=EDGE_CURVE('',#474,#476,#73,.T.);
#577=EDGE_CURVE('',#476,#477,#388,.T.);
#578=EDGE_CURVE('',#477,#475,#74,.T.);
#579=EDGE_CURVE('',#478,#479,#389,.T.);
#580=EDGE_CURVE('',#479,#477,#390,.T.);
#581=EDGE_CURVE('',#476,#478,#391,.T.);
#582=EDGE_CURVE('',#480,#481,#392,.T.);
#583=EDGE_CURVE('',#481,#479,#75,.T.);
#584=EDGE_CURVE('',#478,#480,#76,.T.);
#585=EDGE_CURVE('',#482,#483,#393,.T.);
#586=EDGE_CURVE('',#483,#481,#394,.T.);
#587=EDGE_CURVE('',#480,#482,#395,.T.);
#588=EDGE_CURVE('',#484,#485,#396,.T.);
#589=EDGE_CURVE('',#485,#483,#77,.T.);
#590=EDGE_CURVE('',#482,#484,#78,.T.);
#591=EDGE_CURVE('',#486,#487,#397,.T.);
#592=EDGE_CURVE('',#487,#485,#398,.T.);
#593=EDGE_CURVE('',#484,#486,#399,.T.);
#594=EDGE_CURVE('',#488,#489,#400,.T.);
#595=EDGE_CURVE('',#489,#487,#79,.T.);
#596=EDGE_CURVE('',#486,#488,#80,.T.);
#597=EDGE_CURVE('',#490,#491,#401,.T.);
#598=EDGE_CURVE('',#491,#489,#402,.T.);
#599=EDGE_CURVE('',#488,#490,#403,.T.);
#600=EDGE_CURVE('',#492,#491,#81,.T.);
#601=EDGE_CURVE('',#490,#493,#82,.T.);
#602=EDGE_CURVE('',#493,#492,#27,.T.);
#603=EDGE_CURVE('',#473,#492,#83,.T.);
#604=EDGE_CURVE('',#493,#470,#84,.T.);
#605=EDGE_CURVE('',#487,#494,#85,.T.);
#606=EDGE_CURVE('',#495,#494,#404,.T.);
#607=EDGE_CURVE('',#495,#485,#86,.T.);
#608=EDGE_CURVE('',#496,#489,#87,.T.);
#609=EDGE_CURVE('',#494,#496,#88,.T.);
#610=EDGE_CURVE('',#497,#497,#405,.F.);
#611=EDGE_CURVE('',#498,#498,#406,.F.);
#612=EDGE_CURVE('',#491,#499,#89,.T.);
#613=EDGE_CURVE('',#496,#499,#407,.T.);
#614=EDGE_CURVE('',#492,#500,#90,.T.);
#615=EDGE_CURVE('',#501,#500,#408,.T.);
#616=EDGE_CURVE('',#499,#501,#91,.T.);
#617=EDGE_CURVE('',#473,#502,#92,.T.);
#618=EDGE_CURVE('',#502,#503,#93,.T.);
#619=EDGE_CURVE('',#504,#503,#94,.F.);
#620=EDGE_CURVE('',#505,#504,#95,.T.);
#621=EDGE_CURVE('',#500,#505,#454,.T.);
#622=EDGE_CURVE('',#506,#506,#409,.T.);
#623=EDGE_CURVE('',#507,#507,#410,.T.);
#624=EDGE_CURVE('',#472,#508,#96,.T.);
#625=EDGE_CURVE('',#508,#502,#97,.T.);
#626=EDGE_CURVE('',#509,#510,#411,.T.);
#627=EDGE_CURVE('',#510,#511,#412,.T.);
#628=EDGE_CURVE('',#511,#512,#455,.T.);
#629=EDGE_CURVE('',#512,#509,#413,.T.);
#630=EDGE_CURVE('',#513,#514,#414,.T.);
#631=EDGE_CURVE('',#514,#510,#98,.T.);
#632=EDGE_CURVE('',#509,#513,#99,.T.);
#633=EDGE_CURVE('',#515,#516,#415,.T.);
#634=EDGE_CURVE('',#516,#514,#416,.T.);
#635=EDGE_CURVE('',#513,#515,#417,.T.);
#636=EDGE_CURVE('',#517,#518,#418,.T.);
#637=EDGE_CURVE('',#518,#516,#100,.T.);
#638=EDGE_CURVE('',#515,#517,#101,.T.);
#639=EDGE_CURVE('',#519,#520,#419,.T.);
#640=EDGE_CURVE('',#520,#518,#420,.T.);
#641=EDGE_CURVE('',#517,#519,#421,.T.);
#642=EDGE_CURVE('',#495,#521,#422,.T.);
#643=EDGE_CURVE('',#521,#520,#102,.T.);
#644=EDGE_CURVE('',#519,#495,#103,.T.);
#645=EDGE_CURVE('',#494,#522,#423,.T.);
#646=EDGE_CURVE('',#522,#521,#424,.T.);
#647=EDGE_CURVE('',#496,#523,#425,.T.);
#648=EDGE_CURVE('',#523,#522,#104,.T.);
#649=EDGE_CURVE('',#499,#524,#426,.T.);
#650=EDGE_CURVE('',#524,#523,#427,.T.);
#651=EDGE_CURVE('',#501,#525,#428,.T.);
#652=EDGE_CURVE('',#525,#524,#105,.T.);
#653=EDGE_CURVE('',#505,#525,#429,.T.);
#654=EDGE_CURVE('',#483,#519,#106,.T.);
#655=EDGE_CURVE('',#517,#481,#107,.T.);
#656=EDGE_CURVE('',#479,#515,#108,.T.);
#657=EDGE_CURVE('',#526,#526,#430,.F.);
#658=EDGE_CURVE('',#527,#527,#431,.F.);
#659=EDGE_CURVE('',#513,#477,#109,.T.);
#660=EDGE_CURVE('',#512,#475,#110,.T.);
#661=EDGE_CURVE('',#510,#528,#111,.T.);
#662=EDGE_CURVE('',#528,#529,#28,.T.);
#663=EDGE_CURVE('',#529,#511,#112,.T.);
#664=EDGE_CURVE('',#528,#530,#113,.T.);
#665=EDGE_CURVE('',#530,#531,#432,.T.);
#666=EDGE_CURVE('',#531,#529,#114,.T.);
#667=EDGE_CURVE('',#532,#533,#433,.T.);
#668=EDGE_CURVE('',#533,#531,#434,.T.);
#669=EDGE_CURVE('',#530,#532,#435,.T.);
#670=EDGE_CURVE('',#534,#535,#436,.T.);
#671=EDGE_CURVE('',#535,#533,#115,.T.);
#672=EDGE_CURVE('',#532,#534,#116,.T.);
#673=EDGE_CURVE('',#536,#537,#437,.T.);
#674=EDGE_CURVE('',#537,#535,#438,.T.);
#675=EDGE_CURVE('',#534,#536,#439,.T.);
#676=EDGE_CURVE('',#538,#539,#440,.T.);
#677=EDGE_CURVE('',#539,#537,#117,.T.);
#678=EDGE_CURVE('',#536,#538,#118,.T.);
#679=EDGE_CURVE('',#540,#541,#441,.T.);
#680=EDGE_CURVE('',#541,#539,#442,.T.);
#681=EDGE_CURVE('',#538,#540,#443,.T.);
#682=EDGE_CURVE('',#542,#543,#444,.T.);
#683=EDGE_CURVE('',#543,#541,#119,.T.);
#684=EDGE_CURVE('',#540,#542,#120,.T.);
#685=EDGE_CURVE('',#544,#545,#445,.T.);
#686=EDGE_CURVE('',#545,#543,#446,.T.);
#687=EDGE_CURVE('',#542,#544,#447,.T.);
#688=EDGE_CURVE('',#504,#545,#121,.T.);
#689=EDGE_CURVE('',#544,#546,#122,.T.);
#690=EDGE_CURVE('',#546,#504,#29,.T.);
#691=EDGE_CURVE('',#546,#525,#123,.T.);
#692=EDGE_CURVE('',#547,#529,#124,.F.);
#693=EDGE_CURVE('',#547,#508,#125,.T.);
#694=EDGE_CURVE('',#548,#548,#448,.T.);
#695=EDGE_CURVE('',#549,#549,#449,.T.);
#696=EDGE_CURVE('',#533,#465,#126,.T.);
#697=EDGE_CURVE('',#464,#531,#127,.T.);
#698=EDGE_CURVE('',#466,#535,#128,.T.);
#699=EDGE_CURVE('',#537,#467,#129,.T.);
#700=EDGE_CURVE('',#468,#539,#130,.T.);
#701=EDGE_CURVE('',#541,#469,#131,.T.);
#702=EDGE_CURVE('',#462,#543,#132,.T.);
#703=EDGE_CURVE('',#545,#463,#133,.T.);
#704=EDGE_CURVE('',#503,#547,#134,.T.);
#705=EDGE_CURVE('',#550,#550,#450,.T.);
#706=EDGE_CURVE('',#549,#526,#135,.T.);
#707=EDGE_CURVE('',#497,#506,#136,.T.);
#708=EDGE_CURVE('',#548,#527,#137,.T.);
#709=EDGE_CURVE('',#498,#507,#138,.T.);
#710=EDGE_CURVE('',#551,#551,#451,.T.);
#711=EDGE_CURVE('',#550,#551,#139,.T.);
#712=ORIENTED_EDGE('',*,*,#552,.T.);
#713=ORIENTED_EDGE('',*,*,#553,.T.);
#714=ORIENTED_EDGE('',*,*,#554,.T.);
#715=ORIENTED_EDGE('',*,*,#555,.T.);
#716=ORIENTED_EDGE('',*,*,#556,.T.);
#717=ORIENTED_EDGE('',*,*,#557,.F.);
#718=ORIENTED_EDGE('',*,*,#556,.F.);
#719=ORIENTED_EDGE('',*,*,#558,.T.);
#720=ORIENTED_EDGE('',*,*,#553,.F.);
#721=ORIENTED_EDGE('',*,*,#559,.T.);
#722=ORIENTED_EDGE('',*,*,#560,.F.);
#723=ORIENTED_EDGE('',*,*,#561,.T.);
#724=ORIENTED_EDGE('',*,*,#562,.F.);
#725=ORIENTED_EDGE('',*,*,#563,.T.);
#726=ORIENTED_EDGE('',*,*,#555,.F.);
#727=ORIENTED_EDGE('',*,*,#564,.T.);
#728=ORIENTED_EDGE('',*,*,#565,.F.);
#729=ORIENTED_EDGE('',*,*,#566,.T.);
#730=ORIENTED_EDGE('',*,*,#567,.F.);
#731=ORIENTED_EDGE('',*,*,#568,.T.);
#732=ORIENTED_EDGE('',*,*,#558,.F.);
#733=ORIENTED_EDGE('',*,*,#569,.T.);
#734=ORIENTED_EDGE('',*,*,#570,.T.);
#735=ORIENTED_EDGE('',*,*,#571,.T.);
#736=ORIENTED_EDGE('',*,*,#572,.F.);
#737=ORIENTED_EDGE('',*,*,#573,.T.);
#738=ORIENTED_EDGE('',*,*,#574,.T.);
#739=ORIENTED_EDGE('',*,*,#575,.T.);
#740=ORIENTED_EDGE('',*,*,#570,.F.);
#741=ORIENTED_EDGE('',*,*,#576,.T.);
#742=ORIENTED_EDGE('',*,*,#577,.T.);
#743=ORIENTED_EDGE('',*,*,#578,.T.);
#744=ORIENTED_EDGE('',*,*,#574,.F.);
#745=ORIENTED_EDGE('',*,*,#579,.T.);
#746=ORIENTED_EDGE('',*,*,#580,.T.);
#747=ORIENTED_EDGE('',*,*,#577,.F.);
#748=ORIENTED_EDGE('',*,*,#581,.T.);
#749=ORIENTED_EDGE('',*,*,#582,.T.);
#750=ORIENTED_EDGE('',*,*,#583,.T.);
#751=ORIENTED_EDGE('',*,*,#579,.F.);
#752=ORIENTED_EDGE('',*,*,#584,.T.);
#753=ORIENTED_EDGE('',*,*,#585,.T.);
#754=ORIENTED_EDGE('',*,*,#586,.T.);
#755=ORIENTED_EDGE('',*,*,#582,.F.);
#756=ORIENTED_EDGE('',*,*,#587,.T.);
#757=ORIENTED_EDGE('',*,*,#588,.T.);
#758=ORIENTED_EDGE('',*,*,#589,.T.);
#759=ORIENTED_EDGE('',*,*,#585,.F.);
#760=ORIENTED_EDGE('',*,*,#590,.T.);
#761=ORIENTED_EDGE('',*,*,#591,.T.);
#762=ORIENTED_EDGE('',*,*,#592,.T.);
#763=ORIENTED_EDGE('',*,*,#588,.F.);
#764=ORIENTED_EDGE('',*,*,#593,.T.);
#765=ORIENTED_EDGE('',*,*,#594,.T.);
#766=ORIENTED_EDGE('',*,*,#595,.T.);
#767=ORIENTED_EDGE('',*,*,#591,.F.);
#768=ORIENTED_EDGE('',*,*,#596,.T.);
#769=ORIENTED_EDGE('',*,*,#597,.T.);
#770=ORIENTED_EDGE('',*,*,#598,.T.);
#771=ORIENTED_EDGE('',*,*,#594,.F.);
#772=ORIENTED_EDGE('',*,*,#599,.T.);
#773=ORIENTED_EDGE('',*,*,#600,.T.);
#774=ORIENTED_EDGE('',*,*,#597,.F.);
#775=ORIENTED_EDGE('',*,*,#601,.T.);
#776=ORIENTED_EDGE('',*,*,#602,.T.);
#777=ORIENTED_EDGE('',*,*,#603,.T.);
#778=ORIENTED_EDGE('',*,*,#602,.F.);
#779=ORIENTED_EDGE('',*,*,#604,.T.);
#780=ORIENTED_EDGE('',*,*,#572,.T.);
#781=ORIENTED_EDGE('',*,*,#592,.F.);
#782=ORIENTED_EDGE('',*,*,#605,.T.);
#783=ORIENTED_EDGE('',*,*,#606,.F.);
#784=ORIENTED_EDGE('',*,*,#607,.T.);
#785=ORIENTED_EDGE('',*,*,#595,.F.);
#786=ORIENTED_EDGE('',*,*,#608,.F.);
#787=ORIENTED_EDGE('',*,*,#609,.F.);
#788=ORIENTED_EDGE('',*,*,#605,.F.);
#789=ORIENTED_EDGE('',*,*,#610,.T.);
#790=ORIENTED_EDGE('',*,*,#611,.T.);
#791=ORIENTED_EDGE('',*,*,#598,.F.);
#792=ORIENTED_EDGE('',*,*,#612,.T.);
#793=ORIENTED_EDGE('',*,*,#613,.F.);
#794=ORIENTED_EDGE('',*,*,#608,.T.);
#795=ORIENTED_EDGE('',*,*,#600,.F.);
#796=ORIENTED_EDGE('',*,*,#614,.T.);
#797=ORIENTED_EDGE('',*,*,#615,.F.);
#798=ORIENTED_EDGE('',*,*,#616,.F.);
#799=ORIENTED_EDGE('',*,*,#612,.F.);
#800=ORIENTED_EDGE('',*,*,#603,.F.);
#801=ORIENTED_EDGE('',*,*,#617,.T.);
#802=ORIENTED_EDGE('',*,*,#618,.T.);
#803=ORIENTED_EDGE('',*,*,#619,.F.);
#804=ORIENTED_EDGE('',*,*,#620,.F.);
#805=ORIENTED_EDGE('',*,*,#621,.F.);
#806=ORIENTED_EDGE('',*,*,#614,.F.);
#807=ORIENTED_EDGE('',*,*,#622,.T.);
#808=ORIENTED_EDGE('',*,*,#623,.T.);
#809=ORIENTED_EDGE('',*,*,#571,.F.);
#810=ORIENTED_EDGE('',*,*,#624,.T.);
#811=ORIENTED_EDGE('',*,*,#625,.T.);
#812=ORIENTED_EDGE('',*,*,#617,.F.);
#813=ORIENTED_EDGE('',*,*,#569,.F.);
#814=ORIENTED_EDGE('',*,*,#604,.F.);
#815=ORIENTED_EDGE('',*,*,#601,.F.);
#816=ORIENTED_EDGE('',*,*,#599,.F.);
#817=ORIENTED_EDGE('',*,*,#596,.F.);
#818=ORIENTED_EDGE('',*,*,#593,.F.);
#819=ORIENTED_EDGE('',*,*,#590,.F.);
#820=ORIENTED_EDGE('',*,*,#587,.F.);
#821=ORIENTED_EDGE('',*,*,#584,.F.);
#822=ORIENTED_EDGE('',*,*,#581,.F.);
#823=ORIENTED_EDGE('',*,*,#576,.F.);
#824=ORIENTED_EDGE('',*,*,#573,.F.);
#825=ORIENTED_EDGE('',*,*,#626,.T.);
#826=ORIENTED_EDGE('',*,*,#627,.T.);
#827=ORIENTED_EDGE('',*,*,#628,.T.);
#828=ORIENTED_EDGE('',*,*,#629,.T.);
#829=ORIENTED_EDGE('',*,*,#630,.T.);
#830=ORIENTED_EDGE('',*,*,#631,.T.);
#831=ORIENTED_EDGE('',*,*,#626,.F.);
#832=ORIENTED_EDGE('',*,*,#632,.T.);
#833=ORIENTED_EDGE('',*,*,#633,.T.);
#834=ORIENTED_EDGE('',*,*,#634,.T.);
#835=ORIENTED_EDGE('',*,*,#630,.F.);
#836=ORIENTED_EDGE('',*,*,#635,.T.);
#837=ORIENTED_EDGE('',*,*,#636,.T.);
#838=ORIENTED_EDGE('',*,*,#637,.T.);
#839=ORIENTED_EDGE('',*,*,#633,.F.);
#840=ORIENTED_EDGE('',*,*,#638,.T.);
#841=ORIENTED_EDGE('',*,*,#639,.T.);
#842=ORIENTED_EDGE('',*,*,#640,.T.);
#843=ORIENTED_EDGE('',*,*,#636,.F.);
#844=ORIENTED_EDGE('',*,*,#641,.T.);
#845=ORIENTED_EDGE('',*,*,#642,.T.);
#846=ORIENTED_EDGE('',*,*,#643,.T.);
#847=ORIENTED_EDGE('',*,*,#639,.F.);
#848=ORIENTED_EDGE('',*,*,#644,.T.);
#849=ORIENTED_EDGE('',*,*,#645,.T.);
#850=ORIENTED_EDGE('',*,*,#646,.T.);
#851=ORIENTED_EDGE('',*,*,#642,.F.);
#852=ORIENTED_EDGE('',*,*,#606,.T.);
#853=ORIENTED_EDGE('',*,*,#647,.T.);
#854=ORIENTED_EDGE('',*,*,#648,.T.);
#855=ORIENTED_EDGE('',*,*,#645,.F.);
#856=ORIENTED_EDGE('',*,*,#609,.T.);
#857=ORIENTED_EDGE('',*,*,#649,.T.);
#858=ORIENTED_EDGE('',*,*,#650,.T.);
#859=ORIENTED_EDGE('',*,*,#647,.F.);
#860=ORIENTED_EDGE('',*,*,#613,.T.);
#861=ORIENTED_EDGE('',*,*,#651,.T.);
#862=ORIENTED_EDGE('',*,*,#652,.T.);
#863=ORIENTED_EDGE('',*,*,#649,.F.);
#864=ORIENTED_EDGE('',*,*,#616,.T.);
#865=ORIENTED_EDGE('',*,*,#621,.T.);
#866=ORIENTED_EDGE('',*,*,#653,.T.);
#867=ORIENTED_EDGE('',*,*,#651,.F.);
#868=ORIENTED_EDGE('',*,*,#615,.T.);
#869=ORIENTED_EDGE('',*,*,#589,.F.);
#870=ORIENTED_EDGE('',*,*,#607,.F.);
#871=ORIENTED_EDGE('',*,*,#644,.F.);
#872=ORIENTED_EDGE('',*,*,#654,.F.);
#873=ORIENTED_EDGE('',*,*,#586,.F.);
#874=ORIENTED_EDGE('',*,*,#654,.T.);
#875=ORIENTED_EDGE('',*,*,#641,.F.);
#876=ORIENTED_EDGE('',*,*,#655,.T.);
#877=ORIENTED_EDGE('',*,*,#583,.F.);
#878=ORIENTED_EDGE('',*,*,#655,.F.);
#879=ORIENTED_EDGE('',*,*,#638,.F.);
#880=ORIENTED_EDGE('',*,*,#656,.F.);
#881=ORIENTED_EDGE('',*,*,#657,.T.);
#882=ORIENTED_EDGE('',*,*,#658,.T.);
#883=ORIENTED_EDGE('',*,*,#580,.F.);
#884=ORIENTED_EDGE('',*,*,#656,.T.);
#885=ORIENTED_EDGE('',*,*,#635,.F.);
#886=ORIENTED_EDGE('',*,*,#659,.T.);
#887=ORIENTED_EDGE('',*,*,#578,.F.);
#888=ORIENTED_EDGE('',*,*,#659,.F.);
#889=ORIENTED_EDGE('',*,*,#632,.F.);
#890=ORIENTED_EDGE('',*,*,#629,.F.);
#891=ORIENTED_EDGE('',*,*,#660,.T.);
#892=ORIENTED_EDGE('',*,*,#627,.F.);
#893=ORIENTED_EDGE('',*,*,#661,.T.);
#894=ORIENTED_EDGE('',*,*,#662,.T.);
#895=ORIENTED_EDGE('',*,*,#663,.T.);
#896=ORIENTED_EDGE('',*,*,#664,.T.);
#897=ORIENTED_EDGE('',*,*,#665,.T.);
#898=ORIENTED_EDGE('',*,*,#666,.T.);
#899=ORIENTED_EDGE('',*,*,#662,.F.);
#900=ORIENTED_EDGE('',*,*,#667,.T.);
#901=ORIENTED_EDGE('',*,*,#668,.T.);
#902=ORIENTED_EDGE('',*,*,#665,.F.);
#903=ORIENTED_EDGE('',*,*,#669,.T.);
#904=ORIENTED_EDGE('',*,*,#670,.T.);
#905=ORIENTED_EDGE('',*,*,#671,.T.);
#906=ORIENTED_EDGE('',*,*,#667,.F.);
#907=ORIENTED_EDGE('',*,*,#672,.T.);
#908=ORIENTED_EDGE('',*,*,#673,.T.);
#909=ORIENTED_EDGE('',*,*,#674,.T.);
#910=ORIENTED_EDGE('',*,*,#670,.F.);
#911=ORIENTED_EDGE('',*,*,#675,.T.);
#912=ORIENTED_EDGE('',*,*,#676,.T.);
#913=ORIENTED_EDGE('',*,*,#677,.T.);
#914=ORIENTED_EDGE('',*,*,#673,.F.);
#915=ORIENTED_EDGE('',*,*,#678,.T.);
#916=ORIENTED_EDGE('',*,*,#679,.T.);
#917=ORIENTED_EDGE('',*,*,#680,.T.);
#918=ORIENTED_EDGE('',*,*,#676,.F.);
#919=ORIENTED_EDGE('',*,*,#681,.T.);
#920=ORIENTED_EDGE('',*,*,#682,.T.);
#921=ORIENTED_EDGE('',*,*,#683,.T.);
#922=ORIENTED_EDGE('',*,*,#679,.F.);
#923=ORIENTED_EDGE('',*,*,#684,.T.);
#924=ORIENTED_EDGE('',*,*,#685,.T.);
#925=ORIENTED_EDGE('',*,*,#686,.T.);
#926=ORIENTED_EDGE('',*,*,#682,.F.);
#927=ORIENTED_EDGE('',*,*,#687,.T.);
#928=ORIENTED_EDGE('',*,*,#688,.T.);
#929=ORIENTED_EDGE('',*,*,#685,.F.);
#930=ORIENTED_EDGE('',*,*,#689,.T.);
#931=ORIENTED_EDGE('',*,*,#690,.T.);
#932=ORIENTED_EDGE('',*,*,#653,.F.);
#933=ORIENTED_EDGE('',*,*,#620,.T.);
#934=ORIENTED_EDGE('',*,*,#690,.F.);
#935=ORIENTED_EDGE('',*,*,#691,.T.);
#936=ORIENTED_EDGE('',*,*,#575,.F.);
#937=ORIENTED_EDGE('',*,*,#660,.F.);
#938=ORIENTED_EDGE('',*,*,#628,.F.);
#939=ORIENTED_EDGE('',*,*,#663,.F.);
#940=ORIENTED_EDGE('',*,*,#692,.F.);
#941=ORIENTED_EDGE('',*,*,#693,.T.);
#942=ORIENTED_EDGE('',*,*,#624,.F.);
#943=ORIENTED_EDGE('',*,*,#694,.T.);
#944=ORIENTED_EDGE('',*,*,#695,.T.);
#945=ORIENTED_EDGE('',*,*,#668,.F.);
#946=ORIENTED_EDGE('',*,*,#696,.T.);
#947=ORIENTED_EDGE('',*,*,#562,.T.);
#948=ORIENTED_EDGE('',*,*,#697,.T.);
#949=ORIENTED_EDGE('',*,*,#671,.F.);
#950=ORIENTED_EDGE('',*,*,#698,.F.);
#951=ORIENTED_EDGE('',*,*,#564,.F.);
#952=ORIENTED_EDGE('',*,*,#554,.F.);
#953=ORIENTED_EDGE('',*,*,#563,.F.);
#954=ORIENTED_EDGE('',*,*,#696,.F.);
#955=ORIENTED_EDGE('',*,*,#674,.F.);
#956=ORIENTED_EDGE('',*,*,#699,.T.);
#957=ORIENTED_EDGE('',*,*,#565,.T.);
#958=ORIENTED_EDGE('',*,*,#698,.T.);
#959=ORIENTED_EDGE('',*,*,#677,.F.);
#960=ORIENTED_EDGE('',*,*,#700,.F.);
#961=ORIENTED_EDGE('',*,*,#566,.F.);
#962=ORIENTED_EDGE('',*,*,#699,.F.);
#963=ORIENTED_EDGE('',*,*,#680,.F.);
#964=ORIENTED_EDGE('',*,*,#701,.T.);
#965=ORIENTED_EDGE('',*,*,#567,.T.);
#966=ORIENTED_EDGE('',*,*,#700,.T.);
#967=ORIENTED_EDGE('',*,*,#683,.F.);
#968=ORIENTED_EDGE('',*,*,#702,.F.);
#969=ORIENTED_EDGE('',*,*,#559,.F.);
#970=ORIENTED_EDGE('',*,*,#552,.F.);
#971=ORIENTED_EDGE('',*,*,#568,.F.);
#972=ORIENTED_EDGE('',*,*,#701,.F.);
#973=ORIENTED_EDGE('',*,*,#686,.F.);
#974=ORIENTED_EDGE('',*,*,#703,.T.);
#975=ORIENTED_EDGE('',*,*,#560,.T.);
#976=ORIENTED_EDGE('',*,*,#702,.T.);
#977=ORIENTED_EDGE('',*,*,#666,.F.);
#978=ORIENTED_EDGE('',*,*,#697,.F.);
#979=ORIENTED_EDGE('',*,*,#561,.F.);
#980=ORIENTED_EDGE('',*,*,#703,.F.);
#981=ORIENTED_EDGE('',*,*,#688,.F.);
#982=ORIENTED_EDGE('',*,*,#619,.T.);
#983=ORIENTED_EDGE('',*,*,#704,.T.);
#984=ORIENTED_EDGE('',*,*,#692,.T.);
#985=ORIENTED_EDGE('',*,*,#652,.F.);
#986=ORIENTED_EDGE('',*,*,#691,.F.);
#987=ORIENTED_EDGE('',*,*,#689,.F.);
#988=ORIENTED_EDGE('',*,*,#687,.F.);
#989=ORIENTED_EDGE('',*,*,#684,.F.);
#990=ORIENTED_EDGE('',*,*,#681,.F.);
#991=ORIENTED_EDGE('',*,*,#678,.F.);
#992=ORIENTED_EDGE('',*,*,#675,.F.);
#993=ORIENTED_EDGE('',*,*,#672,.F.);
#994=ORIENTED_EDGE('',*,*,#669,.F.);
#995=ORIENTED_EDGE('',*,*,#664,.F.);
#996=ORIENTED_EDGE('',*,*,#661,.F.);
#997=ORIENTED_EDGE('',*,*,#631,.F.);
#998=ORIENTED_EDGE('',*,*,#634,.F.);
#999=ORIENTED_EDGE('',*,*,#637,.F.);
#1000=ORIENTED_EDGE('',*,*,#640,.F.);
#1001=ORIENTED_EDGE('',*,*,#643,.F.);
#1002=ORIENTED_EDGE('',*,*,#646,.F.);
#1003=ORIENTED_EDGE('',*,*,#648,.F.);
#1004=ORIENTED_EDGE('',*,*,#650,.F.);
#1005=ORIENTED_EDGE('',*,*,#705,.F.);
#1006=ORIENTED_EDGE('',*,*,#618,.F.);
#1007=ORIENTED_EDGE('',*,*,#625,.F.);
#1008=ORIENTED_EDGE('',*,*,#693,.F.);
#1009=ORIENTED_EDGE('',*,*,#704,.F.);
#1010=ORIENTED_EDGE('',*,*,#695,.F.);
#1011=ORIENTED_EDGE('',*,*,#706,.T.);
#1012=ORIENTED_EDGE('',*,*,#657,.F.);
#1013=ORIENTED_EDGE('',*,*,#706,.F.);
#1014=ORIENTED_EDGE('',*,*,#610,.F.);
#1015=ORIENTED_EDGE('',*,*,#707,.T.);
#1016=ORIENTED_EDGE('',*,*,#622,.F.);
#1017=ORIENTED_EDGE('',*,*,#707,.F.);
#1018=ORIENTED_EDGE('',*,*,#694,.F.);
#1019=ORIENTED_EDGE('',*,*,#708,.T.);
#1020=ORIENTED_EDGE('',*,*,#658,.F.);
#1021=ORIENTED_EDGE('',*,*,#708,.F.);
#1022=ORIENTED_EDGE('',*,*,#611,.F.);
#1023=ORIENTED_EDGE('',*,*,#709,.T.);
#1024=ORIENTED_EDGE('',*,*,#623,.F.);
#1025=ORIENTED_EDGE('',*,*,#709,.F.);
#1026=ORIENTED_EDGE('',*,*,#557,.T.);
#1027=ORIENTED_EDGE('',*,*,#710,.F.);
#1028=ORIENTED_EDGE('',*,*,#705,.T.);
#1029=ORIENTED_EDGE('',*,*,#711,.T.);
#1030=ORIENTED_EDGE('',*,*,#710,.T.);
#1031=ORIENTED_EDGE('',*,*,#711,.F.);
#1032=TOROIDAL_SURFACE('',#1128,30.4960927958597,8.);
#1033=TOROIDAL_SURFACE('',#1147,3.,2.);
#1034=TOROIDAL_SURFACE('',#1153,3.,2.);
#1035=TOROIDAL_SURFACE('',#1159,3.,2.);
#1036=TOROIDAL_SURFACE('',#1165,3.,2.);
#1037=TOROIDAL_SURFACE('',#1186,4.,2.);
#1038=TOROIDAL_SURFACE('',#1192,7.,2.);
#1039=TOROIDAL_SURFACE('',#1198,7.,2.);
#1040=TOROIDAL_SURFACE('',#1204,7.,2.);
#1041=TOROIDAL_SURFACE('',#1209,7.,2.);
#1042=TOROIDAL_SURFACE('',#1214,4.,2.);
#1043=TOROIDAL_SURFACE('',#1227,3.,2.);
#1044=TOROIDAL_SURFACE('',#1233,3.,2.);
#1045=TOROIDAL_SURFACE('',#1239,3.,2.);
#1046=TOROIDAL_SURFACE('',#1245,3.,2.);
#1047=ADVANCED_FACE('',(#236),#1032,.F.);
#1048=ADVANCED_FACE('',(#237),#217,.T.);
#1049=ADVANCED_FACE('',(#238),#218,.T.);
#1050=ADVANCED_FACE('',(#239),#30,.T.);
#1051=ADVANCED_FACE('',(#240),#31,.T.);
#1052=ADVANCED_FACE('',(#241),#32,.T.);
#1053=ADVANCED_FACE('',(#242),#1033,.T.);
#1054=ADVANCED_FACE('',(#243),#33,.T.);
#1055=ADVANCED_FACE('',(#244),#1034,.T.);
#1056=ADVANCED_FACE('',(#245),#34,.T.);
#1057=ADVANCED_FACE('',(#246),#1035,.T.);
#1058=ADVANCED_FACE('',(#247),#35,.T.);
#1059=ADVANCED_FACE('',(#248),#1036,.T.);
#1060=ADVANCED_FACE('',(#249),#36,.T.);
#1061=ADVANCED_FACE('',(#250),#37,.T.);
#1062=ADVANCED_FACE('',(#251),#38,.T.);
#1063=ADVANCED_FACE('',(#252,#15,#16),#219,.T.);
#1064=ADVANCED_FACE('',(#253),#39,.T.);
#1065=ADVANCED_FACE('',(#254),#220,.T.);
#1066=ADVANCED_FACE('',(#255,#17,#18),#221,.T.);
#1067=ADVANCED_FACE('',(#256),#222,.T.);
#1068=ADVANCED_FACE('',(#257),#223,.T.);
#1069=ADVANCED_FACE('',(#258),#1037,.F.);
#1070=ADVANCED_FACE('',(#259),#40,.F.);
#1071=ADVANCED_FACE('',(#260),#1038,.F.);
#1072=ADVANCED_FACE('',(#261),#41,.F.);
#1073=ADVANCED_FACE('',(#262),#1039,.F.);
#1074=ADVANCED_FACE('',(#263),#42,.F.);
#1075=ADVANCED_FACE('',(#264),#1040,.F.);
#1076=ADVANCED_FACE('',(#265),#43,.F.);
#1077=ADVANCED_FACE('',(#266),#1041,.F.);
#1078=ADVANCED_FACE('',(#267),#44,.F.);
#1079=ADVANCED_FACE('',(#268),#1042,.F.);
#1080=ADVANCED_FACE('',(#269),#224,.T.);
#1081=ADVANCED_FACE('',(#270),#45,.T.);
#1082=ADVANCED_FACE('',(#271,#19,#20),#225,.T.);
#1083=ADVANCED_FACE('',(#272),#46,.T.);
#1084=ADVANCED_FACE('',(#273),#226,.T.);
#1085=ADVANCED_FACE('',(#274),#47,.T.);
#1086=ADVANCED_FACE('',(#275),#48,.T.);
#1087=ADVANCED_FACE('',(#276),#1043,.T.);
#1088=ADVANCED_FACE('',(#277),#49,.T.);
#1089=ADVANCED_FACE('',(#278),#1044,.T.);
#1090=ADVANCED_FACE('',(#279),#50,.T.);
#1091=ADVANCED_FACE('',(#280),#1045,.T.);
#1092=ADVANCED_FACE('',(#281),#51,.T.);
#1093=ADVANCED_FACE('',(#282),#1046,.T.);
#1094=ADVANCED_FACE('',(#283),#52,.T.);
#1095=ADVANCED_FACE('',(#284),#53,.T.);
#1096=ADVANCED_FACE('',(#285,#21,#22),#227,.T.);
#1097=ADVANCED_FACE('',(#286),#54,.T.);
#1098=ADVANCED_FACE('',(#287),#228,.F.);
#1099=ADVANCED_FACE('',(#288),#55,.T.);
#1100=ADVANCED_FACE('',(#289),#229,.F.);
#1101=ADVANCED_FACE('',(#290),#56,.T.);
#1102=ADVANCED_FACE('',(#291),#230,.F.);
#1103=ADVANCED_FACE('',(#292),#57,.T.);
#1104=ADVANCED_FACE('',(#293),#231,.F.);
#1105=ADVANCED_FACE('',(#294),#232,.F.);
#1106=ADVANCED_FACE('',(#295),#233,.T.);
#1107=ADVANCED_FACE('',(#296),#234,.F.);
#1108=ADVANCED_FACE('',(#297),#58,.F.);
#1109=ADVANCED_FACE('',(#298),#59,.F.);
#1110=ADVANCED_FACE('',(#299),#60,.F.);
#1111=ADVANCED_FACE('',(#300),#61,.F.);
#1112=ADVANCED_FACE('',(#301,#23),#235,.T.);
#1113=ADVANCED_FACE('',(#302),#62,.T.);
#1114=CLOSED_SHELL('',(#1047,#1048,#1049,#1050,#1051,#1052,#1053,#1054,
#1055,#1056,#1057,#1058,#1059,#1060,#1061,#1062,#1063,#1064,#1065,#1066,
#1067,#1068,#1069,#1070,#1071,#1072,#1073,#1074,#1075,#1076,#1077,#1078,
#1079,#1080,#1081,#1082,#1083,#1084,#1085,#1086,#1087,#1088,#1089,#1090,
#1091,#1092,#1093,#1094,#1095,#1096,#1097,#1098,#1099,#1100,#1101,#1102,
#1103,#1104,#1105,#1106,#1107,#1108,#1109,#1110,#1111,#1112,#1113));
#1115=DERIVED_UNIT_ELEMENT(#1117,1.);
#1116=DERIVED_UNIT_ELEMENT(#2036,-3.);
#1117=(
MASS_UNIT()
NAMED_UNIT(*)
SI_UNIT(.KILO.,.GRAM.)
);
#1118=DERIVED_UNIT((#1115,#1116));
#1119=MEASURE_REPRESENTATION_ITEM('density measure',
POSITIVE_RATIO_MEASURE(7850.),#1118);
#1120=PROPERTY_DEFINITION_REPRESENTATION(#1125,#1122);
#1121=PROPERTY_DEFINITION_REPRESENTATION(#1126,#1123);
#1122=REPRESENTATION('material name',(#1124),#2033);
#1123=REPRESENTATION('density',(#1119),#2033);
#1124=DESCRIPTIVE_REPRESENTATION_ITEM('Steel','Steel');
#1125=PROPERTY_DEFINITION('material property','material name',#2043);
#1126=PROPERTY_DEFINITION('material property','density of part',#2043);
#1127=AXIS2_PLACEMENT_3D('',#1645,#1274,#1275);
#1128=AXIS2_PLACEMENT_3D('',#1646,#1276,#1277);
#1129=AXIS2_PLACEMENT_3D('',#1673,#1278,#1279);
#1130=AXIS2_PLACEMENT_3D('',#1699,#1280,#1281);
#1131=AXIS2_PLACEMENT_3D('',#1701,#1282,#1283);
#1132=AXIS2_PLACEMENT_3D('',#1702,#1284,#1285);
#1133=AXIS2_PLACEMENT_3D('',#1703,#1286,#1287);
#1134=AXIS2_PLACEMENT_3D('',#1704,#1288,#1289);
#1135=AXIS2_PLACEMENT_3D('',#1708,#1291,#1292);
#1136=AXIS2_PLACEMENT_3D('',#1712,#1294,#1295);
#1137=AXIS2_PLACEMENT_3D('',#1714,#1297,#1298);
#1138=AXIS2_PLACEMENT_3D('',#1718,#1300,#1301);
#1139=AXIS2_PLACEMENT_3D('',#1722,#1303,#1304);
#1140=AXIS2_PLACEMENT_3D('',#1724,#1306,#1307);
#1141=AXIS2_PLACEMENT_3D('',#1729,#1309,#1310);
#1142=AXIS2_PLACEMENT_3D('',#1732,#1312,#1313);
#1143=AXIS2_PLACEMENT_3D('',#1733,#1314,#1315);
#1144=AXIS2_PLACEMENT_3D('',#1737,#1317,#1318);
#1145=AXIS2_PLACEMENT_3D('',#1739,#1320,#1321);
#1146=AXIS2_PLACEMENT_3D('',#1743,#1323,#1324);
#1147=AXIS2_PLACEMENT_3D('',#1745,#1326,#1327);
#1148=AXIS2_PLACEMENT_3D('',#1748,#1328,#1329);
#1149=AXIS2_PLACEMENT_3D('',#1749,#1330,#1331);
#1150=AXIS2_PLACEMENT_3D('',#1750,#1332,#1333);
#1151=AXIS2_PLACEMENT_3D('',#1751,#1334,#1335);
#1152=AXIS2_PLACEMENT_3D('',#1754,#1336,#1337);
#1153=AXIS2_PLACEMENT_3D('',#1757,#1340,#1341);
#1154=AXIS2_PLACEMENT_3D('',#1760,#1342,#1343);
#1155=AXIS2_PLACEMENT_3D('',#1761,#1344,#1345);
#1156=AXIS2_PLACEMENT_3D('',#1762,#1346,#1347);
#1157=AXIS2_PLACEMENT_3D('',#1763,#1348,#1349);
#1158=AXIS2_PLACEMENT_3D('',#1766,#1350,#1351);
#1159=AXIS2_PLACEMENT_3D('',#1769,#1354,#1355);
#1160=AXIS2_PLACEMENT_3D('',#1772,#1356,#1357);
#1161=AXIS2_PLACEMENT_3D('',#1773,#1358,#1359);
#1162=AXIS2_PLACEMENT_3D('',#1774,#1360,#1361);
#1163=AXIS2_PLACEMENT_3D('',#1775,#1362,#1363);
#1164=AXIS2_PLACEMENT_3D('',#1778,#1364,#1365);
#1165=AXIS2_PLACEMENT_3D('',#1781,#1368,#1369);
#1166=AXIS2_PLACEMENT_3D('',#1784,#1370,#1371);
#1167=AXIS2_PLACEMENT_3D('',#1785,#1372,#1373);
#1168=AXIS2_PLACEMENT_3D('',#1786,#1374,#1375);
#1169=AXIS2_PLACEMENT_3D('',#1787,#1376,#1377);
#1170=AXIS2_PLACEMENT_3D('',#1792,#1380,#1381);
#1171=AXIS2_PLACEMENT_3D('',#1793,#1382,#1383);
#1172=AXIS2_PLACEMENT_3D('',#1796,#1386,#1387);
#1173=AXIS2_PLACEMENT_3D('',#1800,#1389,#1390);
#1174=AXIS2_PLACEMENT_3D('',#1802,#1392,#1393);
#1175=AXIS2_PLACEMENT_3D('',#1807,#1396,#1397);
#1176=AXIS2_PLACEMENT_3D('',#1809,#1398,#1399);
#1177=AXIS2_PLACEMENT_3D('',#1810,#1400,#1401);
#1178=AXIS2_PLACEMENT_3D('',#1813,#1403,#1404);
#1179=AXIS2_PLACEMENT_3D('',#1814,#1405,#1406);
#1180=AXIS2_PLACEMENT_3D('',#1818,#1408,#1409);
#1181=AXIS2_PLACEMENT_3D('',#1820,#1411,#1412);
#1182=AXIS2_PLACEMENT_3D('',#1840,#1417,#1418);
#1183=AXIS2_PLACEMENT_3D('',#1842,#1419,#1420);
#1184=AXIS2_PLACEMENT_3D('',#1843,#1421,#1422);
#1185=AXIS2_PLACEMENT_3D('',#1847,#1425,#1426);
#1186=AXIS2_PLACEMENT_3D('',#1848,#1427,#1428);
#1187=AXIS2_PLACEMENT_3D('',#1851,#1429,#1430);
#1188=AXIS2_PLACEMENT_3D('',#1853,#1431,#1432);
#1189=AXIS2_PLACEMENT_3D('',#1865,#1433,#1434);
#1190=AXIS2_PLACEMENT_3D('',#1866,#1435,#1436);
#1191=AXIS2_PLACEMENT_3D('',#1869,#1437,#1438);
#1192=AXIS2_PLACEMENT_3D('',#1872,#1441,#1442);
#1193=AXIS2_PLACEMENT_3D('',#1875,#1443,#1444);
#1194=AXIS2_PLACEMENT_3D('',#1876,#1445,#1446);
#1195=AXIS2_PLACEMENT_3D('',#1877,#1447,#1448);
#1196=AXIS2_PLACEMENT_3D('',#1878,#1449,#1450);
#1197=AXIS2_PLACEMENT_3D('',#1881,#1451,#1452);
#1198=AXIS2_PLACEMENT_3D('',#1884,#1455,#1456);
#1199=AXIS2_PLACEMENT_3D('',#1887,#1457,#1458);
#1200=AXIS2_PLACEMENT_3D('',#1888,#1459,#1460);
#1201=AXIS2_PLACEMENT_3D('',#1889,#1461,#1462);
#1202=AXIS2_PLACEMENT_3D('',#1890,#1463,#1464);
#1203=AXIS2_PLACEMENT_3D('',#1892,#1465,#1466);
#1204=AXIS2_PLACEMENT_3D('',#1895,#1469,#1470);
#1205=AXIS2_PLACEMENT_3D('',#1897,#1471,#1472);
#1206=AXIS2_PLACEMENT_3D('',#1898,#1473,#1474);
#1207=AXIS2_PLACEMENT_3D('',#1899,#1475,#1476);
#1208=AXIS2_PLACEMENT_3D('',#1901,#1477,#1478);
#1209=AXIS2_PLACEMENT_3D('',#1903,#1480,#1481);
#1210=AXIS2_PLACEMENT_3D('',#1905,#1482,#1483);
#1211=AXIS2_PLACEMENT_3D('',#1906,#1484,#1485);
#1212=AXIS2_PLACEMENT_3D('',#1907,#1486,#1487);
#1213=AXIS2_PLACEMENT_3D('',#1909,#1488,#1489);
#1214=AXIS2_PLACEMENT_3D('',#1911,#1491,#1492);
#1215=AXIS2_PLACEMENT_3D('',#1912,#1493,#1494);
#1216=AXIS2_PLACEMENT_3D('',#1913,#1495,#1496);
#1217=AXIS2_PLACEMENT_3D('',#1915,#1498,#1499);
#1218=AXIS2_PLACEMENT_3D('',#1917,#1501,#1502);
#1219=AXIS2_PLACEMENT_3D('',#1920,#1504,#1505);
#1220=AXIS2_PLACEMENT_3D('',#1922,#1506,#1507);
#1221=AXIS2_PLACEMENT_3D('',#1923,#1508,#1509);
#1222=AXIS2_PLACEMENT_3D('',#1925,#1511,#1512);
#1223=AXIS2_PLACEMENT_3D('',#1927,#1514,#1515);
#1224=AXIS2_PLACEMENT_3D('',#1931,#1517,#1518);
#1225=AXIS2_PLACEMENT_3D('',#1933,#1520,#1521);
#1226=AXIS2_PLACEMENT_3D('',#1937,#1523,#1524);
#1227=AXIS2_PLACEMENT_3D('',#1939,#1526,#1527);
#1228=AXIS2_PLACEMENT_3D('',#1942,#1528,#1529);
#1229=AXIS2_PLACEMENT_3D('',#1943,#1530,#1531);
#1230=AXIS2_PLACEMENT_3D('',#1944,#1532,#1533);
#1231=AXIS2_PLACEMENT_3D('',#1945,#1534,#1535);
#1232=AXIS2_PLACEMENT_3D('',#1948,#1536,#1537);
#1233=AXIS2_PLACEMENT_3D('',#1951,#1540,#1541);
#1234=AXIS2_PLACEMENT_3D('',#1954,#1542,#1543);
#1235=AXIS2_PLACEMENT_3D('',#1955,#1544,#1545);
#1236=AXIS2_PLACEMENT_3D('',#1956,#1546,#1547);
#1237=AXIS2_PLACEMENT_3D('',#1957,#1548,#1549);
#1238=AXIS2_PLACEMENT_3D('',#1960,#1550,#1551);
#1239=AXIS2_PLACEMENT_3D('',#1963,#1554,#1555);
#1240=AXIS2_PLACEMENT_3D('',#1966,#1556,#1557);
#1241=AXIS2_PLACEMENT_3D('',#1967,#1558,#1559);
#1242=AXIS2_PLACEMENT_3D('',#1968,#1560,#1561);
#1243=AXIS2_PLACEMENT_3D('',#1969,#1562,#1563);
#1244=AXIS2_PLACEMENT_3D('',#1972,#1564,#1565);
#1245=AXIS2_PLACEMENT_3D('',#1975,#1568,#1569);
#1246=AXIS2_PLACEMENT_3D('',#1978,#1570,#1571);
#1247=AXIS2_PLACEMENT_3D('',#1979,#1572,#1573);
#1248=AXIS2_PLACEMENT_3D('',#1980,#1574,#1575);
#1249=AXIS2_PLACEMENT_3D('',#1981,#1576,#1577);
#1250=AXIS2_PLACEMENT_3D('',#1985,#1580,#1581);
#1251=AXIS2_PLACEMENT_3D('',#1986,#1582,#1583);
#1252=AXIS2_PLACEMENT_3D('',#1988,#1585,#1586);
#1253=AXIS2_PLACEMENT_3D('',#1993,#1589,#1590);
#1254=AXIS2_PLACEMENT_3D('',#1995,#1591,#1592);
#1255=AXIS2_PLACEMENT_3D('',#1996,#1593,#1594);
#1256=AXIS2_PLACEMENT_3D('',#1999,#1597,#1598);
#1257=AXIS2_PLACEMENT_3D('',#2001,#1600,#1601);
#1258=AXIS2_PLACEMENT_3D('',#2003,#1603,#1604);
#1259=AXIS2_PLACEMENT_3D('',#2005,#1606,#1607);
#1260=AXIS2_PLACEMENT_3D('',#2007,#1609,#1610);
#1261=AXIS2_PLACEMENT_3D('',#2009,#1612,#1613);
#1262=AXIS2_PLACEMENT_3D('',#2011,#1615,#1616);
#1263=AXIS2_PLACEMENT_3D('',#2013,#1618,#1619);
#1264=AXIS2_PLACEMENT_3D('',#2014,#1620,#1621);
#1265=AXIS2_PLACEMENT_3D('',#2016,#1622,#1623);
#1266=AXIS2_PLACEMENT_3D('',#2017,#1624,#1625);
#1267=AXIS2_PLACEMENT_3D('',#2018,#1626,#1627);
#1268=AXIS2_PLACEMENT_3D('',#2020,#1629,#1630);
#1269=AXIS2_PLACEMENT_3D('',#2022,#1632,#1633);
#1270=AXIS2_PLACEMENT_3D('',#2024,#1635,#1636);
#1271=AXIS2_PLACEMENT_3D('',#2026,#1638,#1639);
#1272=AXIS2_PLACEMENT_3D('',#2028,#1640,#1641);
#1273=AXIS2_PLACEMENT_3D('',#2029,#1642,#1643);
#1274=DIRECTION('axis',(0.,0.,1.));
#1275=DIRECTION('refdir',(1.,0.,0.));
#1276=DIRECTION('center_axis',(0.,0.,1.));
#1277=DIRECTION('ref_axis',(-6.25553462489015E-14,-1.,0.));
#1278=DIRECTION('center_axis',(0.,0.,1.));
#1279=DIRECTION('ref_axis',(-6.25553462489014E-14,-1.,0.));
#1280=DIRECTION('center_axis',(0.,0.,1.));
#1281=DIRECTION('ref_axis',(-6.25553462489014E-14,-1.,0.));
#1282=DIRECTION('center_axis',(-1.,6.24328815689867E-14,0.));
#1283=DIRECTION('ref_axis',(6.24328815689867E-14,1.,0.));
#1284=DIRECTION('center_axis',(0.,0.,1.));
#1285=DIRECTION('ref_axis',(-1.,0.,0.));
#1286=DIRECTION('center_axis',(0.,0.,1.));
#1287=DIRECTION('ref_axis',(-6.25553462489014E-14,-1.,0.));
#1288=DIRECTION('center_axis',(0.,0.,1.));
#1289=DIRECTION('ref_axis',(1.,0.,0.));
#1290=DIRECTION('',(4.93432455388958E-17,-1.,0.));
#1291=DIRECTION('center_axis',(0.,0.,-1.));
#1292=DIRECTION('ref_axis',(-0.707106781186547,-0.707106781186547,0.));
#1293=DIRECTION('',(-1.,0.,0.));
#1294=DIRECTION('center_axis',(0.,0.,-1.));
#1295=DIRECTION('ref_axis',(0.707106781186547,-0.707106781186547,0.));
#1296=DIRECTION('',(-1.97372982155583E-16,1.,0.));
#1297=DIRECTION('center_axis',(0.,0.,1.));
#1298=DIRECTION('ref_axis',(1.,0.,0.));
#1299=DIRECTION('',(-1.97372982155583E-16,1.,0.));
#1300=DIRECTION('center_axis',(0.,0.,-1.));
#1301=DIRECTION('ref_axis',(0.707106781186547,0.707106781186547,0.));
#1302=DIRECTION('',(1.,-7.105427357601E-16,0.));
#1303=DIRECTION('center_axis',(0.,0.,-1.));
#1304=DIRECTION('ref_axis',(-0.707106781186547,0.707106781186547,0.));
#1305=DIRECTION('',(4.93432455388958E-17,-1.,0.));
#1306=DIRECTION('center_axis',(-1.,0.,0.));
#1307=DIRECTION('ref_axis',(0.,-0.707106781186548,-0.707106781186548));
#1308=DIRECTION('',(1.,0.,0.));
#1309=DIRECTION('center_axis',(-0.707106781186548,0.707106781186547,1.57009245868377E-15));
#1310=DIRECTION('ref_axis',(0.707106781186547,0.707106781186548,1.57009245868377E-15));
#1311=DIRECTION('',(-1.,0.,0.));
#1312=DIRECTION('center_axis',(-0.707106781186548,-0.707106781186547,1.57009245868377E-15));
#1313=DIRECTION('ref_axis',(-0.707106781186547,0.707106781186548,1.57009245868377E-15));
#1314=DIRECTION('center_axis',(0.,1.,0.));
#1315=DIRECTION('ref_axis',(-0.707106781186548,0.,-0.707106781186548));
#1316=DIRECTION('',(0.,-1.,0.));
#1317=DIRECTION('center_axis',(-0.707106781186548,0.707106781186548,0.));
#1318=DIRECTION('ref_axis',(-0.707106781186548,-0.707106781186548,0.));
#1319=DIRECTION('',(0.,1.,0.));
#1320=DIRECTION('center_axis',(-1.,0.,0.));
#1321=DIRECTION('ref_axis',(0.,-0.707106781186546,-0.707106781186549));
#1322=DIRECTION('',(1.,0.,0.));
#1323=DIRECTION('center_axis',(-1.,0.,0.));
#1324=DIRECTION('ref_axis',(0.,0.,-1.));
#1325=DIRECTION('',(-1.,0.,0.));
#1326=DIRECTION('center_axis',(0.,0.,1.));
#1327=DIRECTION('ref_axis',(1.,0.,0.));
#1328=DIRECTION('center_axis',(0.,-1.,0.));
#1329=DIRECTION('ref_axis',(0.,0.,-1.));
#1330=DIRECTION('center_axis',(0.,0.,-1.));
#1331=DIRECTION('ref_axis',(0.707106781186547,-0.707106781186548,0.));
#1332=DIRECTION('center_axis',(0.,0.,1.));
#1333=DIRECTION('ref_axis',(0.707106781186547,-0.707106781186548,0.));
#1334=DIRECTION('center_axis',(1.56737368182375E-16,-1.,0.));
#1335=DIRECTION('ref_axis',(0.707106781186547,0.,-0.707106781186548));
#1336=DIRECTION('center_axis',(0.,-1.,0.));
#1337=DIRECTION('ref_axis',(0.,0.,-1.));
#1338=DIRECTION('',(1.56737368182375E-16,-1.,0.));
#1339=DIRECTION('',(-1.56737368182375E-16,1.,0.));
#1340=DIRECTION('center_axis',(0.,0.,1.));
#1341=DIRECTION('ref_axis',(1.,0.,0.));
#1342=DIRECTION('center_axis',(1.,0.,0.));
#1343=DIRECTION('ref_axis',(0.,0.,-1.));
#1344=DIRECTION('center_axis',(0.,0.,-1.));
#1345=DIRECTION('ref_axis',(0.707106781186547,0.707106781186548,0.));
#1346=DIRECTION('center_axis',(0.,0.,1.));
#1347=DIRECTION('ref_axis',(0.707106781186547,0.707106781186548,0.));
#1348=DIRECTION('center_axis',(1.,0.,0.));
#1349=DIRECTION('ref_axis',(0.,0.707106781186546,-0.707106781186549));
#1350=DIRECTION('center_axis',(1.,0.,0.));
#1351=DIRECTION('ref_axis',(0.,0.,-1.));
#1352=DIRECTION('',(1.,0.,0.));
#1353=DIRECTION('',(-1.,0.,0.));
#1354=DIRECTION('center_axis',(0.,0.,1.));
#1355=DIRECTION('ref_axis',(1.,0.,0.));
#1356=DIRECTION('center_axis',(0.,1.,0.));
#1357=DIRECTION('ref_axis',(0.,0.,-1.));
#1358=DIRECTION('center_axis',(0.,0.,-1.));
#1359=DIRECTION('ref_axis',(-0.707106781186547,0.707106781186548,0.));
#1360=DIRECTION('center_axis',(0.,0.,1.));
#1361=DIRECTION('ref_axis',(-0.707106781186547,0.707106781186548,0.));
#1362=DIRECTION('center_axis',(-2.61228946970625E-17,1.,0.));
#1363=DIRECTION('ref_axis',(-0.707106781186547,0.,-0.707106781186548));
#1364=DIRECTION('center_axis',(0.,1.,0.));
#1365=DIRECTION('ref_axis',(0.,0.,-1.));
#1366=DIRECTION('',(-2.61228946970625E-17,1.,0.));
#1367=DIRECTION('',(2.61228946970625E-17,-1.,0.));
#1368=DIRECTION('center_axis',(0.,0.,1.));
#1369=DIRECTION('ref_axis',(1.,0.,0.));
#1370=DIRECTION('center_axis',(-1.,0.,0.));
#1371=DIRECTION('ref_axis',(0.,0.,-1.));
#1372=DIRECTION('center_axis',(0.,0.,-1.));
#1373=DIRECTION('ref_axis',(-0.707106781186547,-0.707106781186548,0.));
#1374=DIRECTION('center_axis',(0.,0.,1.));
#1375=DIRECTION('ref_axis',(-0.707106781186547,-0.707106781186548,0.));
#1376=DIRECTION('center_axis',(-1.,0.,0.));
#1377=DIRECTION('ref_axis',(0.,-0.707106781186546,-0.707106781186549));
#1378=DIRECTION('',(-1.,0.,0.));
#1379=DIRECTION('',(1.,0.,0.));
#1380=DIRECTION('center_axis',(-0.707106781186548,-0.707106781186547,0.));
#1381=DIRECTION('ref_axis',(0.707106781186547,-0.707106781186548,0.));
#1382=DIRECTION('center_axis',(5.9211894646675E-17,-1.,0.));
#1383=DIRECTION('ref_axis',(0.707106781186548,0.,-0.707106781186548));
#1384=DIRECTION('',(5.9211894646675E-17,-1.,0.));
#1385=DIRECTION('',(-5.9211894646675E-17,1.,0.));
#1386=DIRECTION('center_axis',(0.,0.,-1.));
#1387=DIRECTION('ref_axis',(-0.707106781186547,0.707106781186547,0.));
#1388=DIRECTION('',(0.,0.,1.));
#1389=DIRECTION('center_axis',(0.,0.,1.));
#1390=DIRECTION('ref_axis',(-0.707106781186547,0.707106781186548,0.));
#1391=DIRECTION('',(0.,0.,-1.));
#1392=DIRECTION('center_axis',(-1.,-2.61228946970625E-17,0.));
#1393=DIRECTION('ref_axis',(-2.61228946970625E-17,1.,0.));
#1394=DIRECTION('',(0.,0.,-1.));
#1395=DIRECTION('',(2.61228946970625E-17,-1.,0.));
#1396=DIRECTION('center_axis',(-1.,-2.61228946970625E-17,0.));
#1397=DIRECTION('ref_axis',(0.,-1.,0.));
#1398=DIRECTION('center_axis',(-1.,-2.61228946970625E-17,0.));
#1399=DIRECTION('ref_axis',(0.,-1.,0.));
#1400=DIRECTION('center_axis',(0.,0.,-1.));
#1401=DIRECTION('ref_axis',(-0.707106781186547,-0.707106781186547,0.));
#1402=DIRECTION('',(0.,0.,1.));
#1403=DIRECTION('center_axis',(0.,0.,1.));
#1404=DIRECTION('ref_axis',(-0.707106781186547,-0.707106781186548,0.));
#1405=DIRECTION('center_axis',(0.,-1.,0.));
#1406=DIRECTION('ref_axis',(-1.,0.,0.));
#1407=DIRECTION('',(0.,0.,1.));
#1408=DIRECTION('center_axis',(0.,-1.,0.));
#1409=DIRECTION('ref_axis',(0.707106781186547,0.,-0.707106781186548));
#1410=DIRECTION('',(1.,0.,0.));
#1411=DIRECTION('center_axis',(1.,5.9211894646675E-17,0.));
#1412=DIRECTION('ref_axis',(5.9211894646675E-17,-1.,0.));
#1413=DIRECTION('',(0.,0.,1.));
#1414=DIRECTION('',(0.,-1.,0.));
#1415=DIRECTION('',(0.,0.,-1.));
#1416=DIRECTION('',(5.9211894646675E-17,-1.,0.));
#1417=DIRECTION('center_axis',(-1.,-5.9211894646675E-17,0.));
#1418=DIRECTION('ref_axis',(0.,-1.,0.));
#1419=DIRECTION('center_axis',(-1.,-5.9211894646675E-17,0.));
#1420=DIRECTION('ref_axis',(0.,-1.,0.));
#1421=DIRECTION('center_axis',(0.,-1.,0.));
#1422=DIRECTION('ref_axis',(-1.,0.,0.));
#1423=DIRECTION('',(0.,0.,1.));
#1424=DIRECTION('',(-1.,0.,0.));
#1425=DIRECTION('center_axis',(0.,0.,-1.));
#1426=DIRECTION('ref_axis',(-1.,0.,0.));
#1427=DIRECTION('center_axis',(0.,-1.,0.));
#1428=DIRECTION('ref_axis',(0.,0.,-1.));
#1429=DIRECTION('center_axis',(1.,0.,0.));
#1430=DIRECTION('ref_axis',(0.,1.,0.));
#1431=DIRECTION('center_axis',(0.,1.,0.));
#1432=DIRECTION('ref_axis',(-0.707106781186547,0.,-0.707106781186548));
#1433=DIRECTION('center_axis',(0.,-1.,0.));
#1434=DIRECTION('ref_axis',(-0.707106781186547,0.,-0.707106781186548));
#1435=DIRECTION('center_axis',(1.,0.,0.));
#1436=DIRECTION('ref_axis',(0.,0.707106781186546,0.707106781186549));
#1437=DIRECTION('center_axis',(1.,0.,0.));
#1438=DIRECTION('ref_axis',(0.,1.,0.));
#1439=DIRECTION('',(-1.,0.,0.));
#1440=DIRECTION('',(1.,0.,0.));
#1441=DIRECTION('center_axis',(0.,0.,-1.));
#1442=DIRECTION('ref_axis',(-1.,0.,0.));
#1443=DIRECTION('center_axis',(2.22044604925031E-15,1.,0.));
#1444=DIRECTION('ref_axis',(-1.,2.22044604925031E-15,0.));
#1445=DIRECTION('center_axis',(0.,0.,-1.));
#1446=DIRECTION('ref_axis',(0.707106781186548,-0.707106781186548,0.));
#1447=DIRECTION('center_axis',(0.,0.,1.));
#1448=DIRECTION('ref_axis',(0.707106781186547,-0.707106781186547,0.));
#1449=DIRECTION('center_axis',(-1.56737368182375E-16,1.,0.));
#1450=DIRECTION('ref_axis',(-0.707106781186548,0.,0.707106781186547));
#1451=DIRECTION('center_axis',(0.,1.,0.));
#1452=DIRECTION('ref_axis',(-1.,0.,0.));
#1453=DIRECTION('',(1.56737368182375E-16,-1.,0.));
#1454=DIRECTION('',(-1.56737368182375E-16,1.,0.));
#1455=DIRECTION('center_axis',(0.,0.,-1.));
#1456=DIRECTION('ref_axis',(-1.,0.,0.));
#1457=DIRECTION('center_axis',(-1.,0.,0.));
#1458=DIRECTION('ref_axis',(0.,-1.,0.));
#1459=DIRECTION('center_axis',(0.,0.,-1.));
#1460=DIRECTION('ref_axis',(0.707106781186547,0.707106781186548,0.));
#1461=DIRECTION('center_axis',(0.,0.,1.));
#1462=DIRECTION('ref_axis',(0.707106781186547,0.707106781186548,0.));
#1463=DIRECTION('center_axis',(-1.,0.,0.));
#1464=DIRECTION('ref_axis',(0.,-0.707106781186546,0.707106781186549));
#1465=DIRECTION('center_axis',(-1.,0.,0.));
#1466=DIRECTION('ref_axis',(0.,-1.,0.));
#1467=DIRECTION('',(1.,0.,0.));
#1468=DIRECTION('',(-1.,0.,0.));
#1469=DIRECTION('center_axis',(0.,0.,-1.));
#1470=DIRECTION('ref_axis',(-1.,0.,0.));
#1471=DIRECTION('center_axis',(-4.44089209850063E-15,-1.,0.));
#1472=DIRECTION('ref_axis',(1.,-4.44089209850063E-15,0.));
#1473=DIRECTION('center_axis',(0.,0.,-1.));
#1474=DIRECTION('ref_axis',(-0.707106781186547,0.707106781186548,0.));
#1475=DIRECTION('center_axis',(2.61228946970625E-17,-1.,0.));
#1476=DIRECTION('ref_axis',(0.707106781186548,0.,0.707106781186547));
#1477=DIRECTION('center_axis',(0.,-1.,0.));
#1478=DIRECTION('ref_axis',(1.,0.,0.));
#1479=DIRECTION('',(-2.61228946970625E-17,1.,0.));
#1480=DIRECTION('center_axis',(0.,0.,-1.));
#1481=DIRECTION('ref_axis',(-1.,0.,0.));
#1482=DIRECTION('center_axis',(1.,0.,0.));
#1483=DIRECTION('ref_axis',(0.,1.,0.));
#1484=DIRECTION('center_axis',(0.,0.,-1.));
#1485=DIRECTION('ref_axis',(-0.707106781186547,-0.707106781186548,0.));
#1486=DIRECTION('center_axis',(1.,0.,0.));
#1487=DIRECTION('ref_axis',(0.,0.707106781186546,0.707106781186549));
#1488=DIRECTION('center_axis',(1.,0.,0.));
#1489=DIRECTION('ref_axis',(0.,1.,0.));
#1490=DIRECTION('',(-1.,0.,0.));
#1491=DIRECTION('center_axis',(0.,-1.,0.));
#1492=DIRECTION('ref_axis',(0.,0.,-1.));
#1493=DIRECTION('center_axis',(0.,1.,0.));
#1494=DIRECTION('ref_axis',(0.707106781186547,0.,-0.707106781186548));
#1495=DIRECTION('center_axis',(0.,1.,0.));
#1496=DIRECTION('ref_axis',(1.,0.,0.));
#1497=DIRECTION('',(0.,0.,1.));
#1498=DIRECTION('center_axis',(0.,0.,-1.));
#1499=DIRECTION('ref_axis',(0.707106781186547,0.707106781186547,0.));
#1500=DIRECTION('',(0.,0.,-1.));
#1501=DIRECTION('center_axis',(1.,1.56737368182375E-16,0.));
#1502=DIRECTION('ref_axis',(1.56737368182375E-16,-1.,0.));
#1503=DIRECTION('',(0.,0.,1.));
#1504=DIRECTION('center_axis',(1.,1.56737368182375E-16,0.));
#1505=DIRECTION('ref_axis',(0.,-1.,0.));
#1506=DIRECTION('center_axis',(1.,1.56737368182375E-16,0.));
#1507=DIRECTION('ref_axis',(0.,-1.,0.));
#1508=DIRECTION('center_axis',(0.,0.,-1.));
#1509=DIRECTION('ref_axis',(0.707106781186547,-0.707106781186547,0.));
#1510=DIRECTION('',(0.,0.,-1.));
#1511=DIRECTION('center_axis',(0.,-1.,0.));
#1512=DIRECTION('ref_axis',(-1.,0.,0.));
#1513=DIRECTION('',(0.,0.,-1.));
#1514=DIRECTION('center_axis',(0.,1.,0.));
#1515=DIRECTION('ref_axis',(-0.707106781186548,0.,-0.707106781186547));
#1516=DIRECTION('',(0.,-1.,0.));
#1517=DIRECTION('center_axis',(-0.707106781186548,0.707106781186547,7.85046229341888E-16));
#1518=DIRECTION('ref_axis',(-0.707106781186547,-0.707106781186548,7.85046229341887E-16));
#1519=DIRECTION('',(0.,1.,0.));
#1520=DIRECTION('center_axis',(-1.,0.,0.));
#1521=DIRECTION('ref_axis',(0.,-0.707106781186549,-0.707106781186546));
#1522=DIRECTION('',(1.,0.,0.));
#1523=DIRECTION('center_axis',(-1.,0.,0.));
#1524=DIRECTION('ref_axis',(0.,0.,-1.));
#1525=DIRECTION('',(-1.,0.,0.));
#1526=DIRECTION('center_axis',(0.,0.,1.));
#1527=DIRECTION('ref_axis',(1.,0.,0.));
#1528=DIRECTION('center_axis',(0.,-1.,0.));
#1529=DIRECTION('ref_axis',(0.,0.,-1.));
#1530=DIRECTION('center_axis',(0.,0.,-1.));
#1531=DIRECTION('ref_axis',(0.707106781186547,-0.707106781186548,0.));
#1532=DIRECTION('center_axis',(0.,0.,1.));
#1533=DIRECTION('ref_axis',(0.707106781186547,-0.707106781186548,0.));
#1534=DIRECTION('center_axis',(1.97372982155583E-16,-1.,0.));
#1535=DIRECTION('ref_axis',(0.707106781186548,0.,-0.707106781186547));
#1536=DIRECTION('center_axis',(0.,-1.,0.));
#1537=DIRECTION('ref_axis',(0.,0.,-1.));
#1538=DIRECTION('',(1.97372982155583E-16,-1.,0.));
#1539=DIRECTION('',(-1.97372982155583E-16,1.,0.));
#1540=DIRECTION('center_axis',(0.,0.,1.));
#1541=DIRECTION('ref_axis',(1.,0.,0.));
#1542=DIRECTION('center_axis',(1.,-2.22044604925031E-15,0.));
#1543=DIRECTION('ref_axis',(0.,0.,-1.));
#1544=DIRECTION('center_axis',(0.,0.,-1.));
#1545=DIRECTION('ref_axis',(0.707106781186547,0.707106781186548,0.));
#1546=DIRECTION('center_axis',(0.,0.,1.));
#1547=DIRECTION('ref_axis',(0.707106781186547,0.707106781186548,0.));
#1548=DIRECTION('center_axis',(1.,-7.105427357601E-16,0.));
#1549=DIRECTION('ref_axis',(1.57009245868378E-15,0.707106781186546,-0.707106781186549));
#1550=DIRECTION('center_axis',(1.,-1.11022302462516E-15,0.));
#1551=DIRECTION('ref_axis',(0.,0.,-1.));
#1552=DIRECTION('',(1.,-7.105427357601E-16,0.));
#1553=DIRECTION('',(-1.,7.105427357601E-16,0.));
#1554=DIRECTION('center_axis',(0.,0.,1.));
#1555=DIRECTION('ref_axis',(1.,0.,0.));
#1556=DIRECTION('center_axis',(0.,1.,0.));
#1557=DIRECTION('ref_axis',(0.,0.,-1.));
#1558=DIRECTION('center_axis',(0.,0.,-1.));
#1559=DIRECTION('ref_axis',(-0.707106781186547,0.707106781186547,0.));
#1560=DIRECTION('center_axis',(0.,0.,1.));
#1561=DIRECTION('ref_axis',(-0.707106781186548,0.707106781186548,0.));
#1562=DIRECTION('center_axis',(-4.93432455388958E-17,1.,0.));
#1563=DIRECTION('ref_axis',(-0.707106781186548,0.,-0.707106781186547));
#1564=DIRECTION('center_axis',(0.,1.,0.));
#1565=DIRECTION('ref_axis',(0.,0.,-1.));
#1566=DIRECTION('',(-4.93432455388958E-17,1.,0.));
#1567=DIRECTION('',(4.93432455388958E-17,-1.,0.));
#1568=DIRECTION('center_axis',(0.,0.,1.));
#1569=DIRECTION('ref_axis',(1.,0.,0.));
#1570=DIRECTION('center_axis',(-1.,0.,0.));
#1571=DIRECTION('ref_axis',(0.,0.,-1.));
#1572=DIRECTION('center_axis',(0.,0.,-1.));
#1573=DIRECTION('ref_axis',(-0.707106781186547,-0.707106781186548,0.));
#1574=DIRECTION('center_axis',(0.,0.,1.));
#1575=DIRECTION('ref_axis',(-0.707106781186547,-0.707106781186548,0.));
#1576=DIRECTION('center_axis',(-1.,0.,0.));
#1577=DIRECTION('ref_axis',(0.,-0.707106781186549,-0.707106781186546));
#1578=DIRECTION('',(-1.,0.,0.));
#1579=DIRECTION('',(1.,0.,0.));
#1580=DIRECTION('center_axis',(-0.707106781186548,-0.707106781186548,0.));
#1581=DIRECTION('ref_axis',(0.707106781186547,-0.707106781186547,0.));
#1582=DIRECTION('center_axis',(5.9211894646675E-17,-1.,0.));
#1583=DIRECTION('ref_axis',(0.707106781186548,0.,-0.707106781186547));
#1584=DIRECTION('',(-5.9211894646675E-17,1.,0.));
#1585=DIRECTION('center_axis',(-1.,0.,0.));
#1586=DIRECTION('ref_axis',(0.,1.,0.));
#1587=DIRECTION('',(0.,0.,1.));
#1588=DIRECTION('',(0.,1.,0.));
#1589=DIRECTION('center_axis',(1.,0.,0.));
#1590=DIRECTION('ref_axis',(0.,-1.,0.));
#1591=DIRECTION('center_axis',(1.,0.,0.));
#1592=DIRECTION('ref_axis',(0.,-1.,0.));
#1593=DIRECTION('center_axis',(0.,0.,-1.));
#1594=DIRECTION('ref_axis',(0.707106781186547,-0.707106781186547,0.));
#1595=DIRECTION('',(0.,0.,1.));
#1596=DIRECTION('',(0.,0.,-1.));
#1597=DIRECTION('center_axis',(-1.,-1.97372982155583E-16,0.));
#1598=DIRECTION('ref_axis',(-1.97372982155583E-16,1.,0.));
#1599=DIRECTION('',(0.,0.,-1.));
#1600=DIRECTION('center_axis',(0.,0.,-1.));
#1601=DIRECTION('ref_axis',(0.707106781186547,0.707106781186547,0.));
#1602=DIRECTION('',(0.,0.,1.));
#1603=DIRECTION('center_axis',(-7.105427357601E-16,-1.,0.));
#1604=DIRECTION('ref_axis',(-1.,7.105427357601E-16,0.));
#1605=DIRECTION('',(0.,0.,-1.));
#1606=DIRECTION('center_axis',(0.,0.,1.));
#1607=DIRECTION('ref_axis',(-0.707106781186547,0.707106781186547,0.));
#1608=DIRECTION('',(0.,0.,1.));
#1609=DIRECTION('center_axis',(1.,4.93432455388958E-17,0.));
#1610=DIRECTION('ref_axis',(4.93432455388958E-17,-1.,0.));
#1611=DIRECTION('',(0.,0.,-1.));
#1612=DIRECTION('center_axis',(0.,0.,-1.));
#1613=DIRECTION('ref_axis',(-0.707106781186547,-0.707106781186547,0.));
#1614=DIRECTION('',(0.,0.,1.));
#1615=DIRECTION('center_axis',(0.,1.,0.));
#1616=DIRECTION('ref_axis',(1.,0.,0.));
#1617=DIRECTION('',(1.,0.,0.));
#1618=DIRECTION('center_axis',(0.,0.,1.));
#1619=DIRECTION('ref_axis',(1.,0.,0.));
#1620=DIRECTION('center_axis',(0.,0.,1.));
#1621=DIRECTION('ref_axis',(-1.,0.,0.));
#1622=DIRECTION('center_axis',(0.,0.,-1.));
#1623=DIRECTION('ref_axis',(-1.,0.,0.));
#1624=DIRECTION('center_axis',(0.,0.,1.));
#1625=DIRECTION('ref_axis',(1.,0.,0.));
#1626=DIRECTION('center_axis',(1.,0.,0.));
#1627=DIRECTION('ref_axis',(0.,-1.,0.));
#1628=DIRECTION('',(1.,0.,0.));
#1629=DIRECTION('center_axis',(1.,0.,0.));
#1630=DIRECTION('ref_axis',(0.,-1.,0.));
#1631=DIRECTION('',(1.,0.,0.));
#1632=DIRECTION('center_axis',(1.,0.,0.));
#1633=DIRECTION('ref_axis',(0.,-1.,0.));
#1634=DIRECTION('',(1.,0.,0.));
#1635=DIRECTION('center_axis',(1.,0.,0.));
#1636=DIRECTION('ref_axis',(0.,-1.,0.));
#1637=DIRECTION('',(1.,0.,0.));
#1638=DIRECTION('center_axis',(0.,0.,1.));
#1639=DIRECTION('ref_axis',(-1.,0.,0.));
#1640=DIRECTION('center_axis',(0.,0.,1.));
#1641=DIRECTION('ref_axis',(-1.,0.,0.));
#1642=DIRECTION('center_axis',(0.,0.,1.));
#1643=DIRECTION('ref_axis',(-1.,0.,0.));
#1644=DIRECTION('',(0.,0.,-1.));
#1645=CARTESIAN_POINT('',(0.,0.,0.));
#1646=CARTESIAN_POINT('Origin',(0.,0.,28.));
#1647=CARTESIAN_POINT('',(-24.9999999999989,17.464583470949,20.));
#1648=CARTESIAN_POINT('',(-24.9999999999989,-17.464583470949,20.));
#1649=CARTESIAN_POINT('Ctrl Pts',(-24.9999999999989,17.464583470949,20.));
#1650=CARTESIAN_POINT('Ctrl Pts',(-24.9999999999989,16.5338593069782,20.));
#1651=CARTESIAN_POINT('Ctrl Pts',(-24.9999999999989,15.5130573398663,20.0571501089698));
#1652=CARTESIAN_POINT('Ctrl Pts',(-24.9999999999989,13.4795331824587,20.2649976571925));
#1653=CARTESIAN_POINT('Ctrl Pts',(-24.9999999999989,12.4665977500462,20.4136034764754));
#1654=CARTESIAN_POINT('Ctrl Pts',(-24.9999999999989,9.74261229642313,20.8681235731037));
#1655=CARTESIAN_POINT('Ctrl Pts',(-24.9999999999989,7.77319793541418,21.2863392182216));
#1656=CARTESIAN_POINT('Ctrl Pts',(-24.9999999999989,4.80853118876771,21.7939779188864));
#1657=CARTESIAN_POINT('Ctrl Pts',(-24.9999999999989,3.81763066070116,21.9400113337264));
#1658=CARTESIAN_POINT('Ctrl Pts',(-24.9999999999989,1.87114433514564,22.1369211760613));
#1659=CARTESIAN_POINT('Ctrl Pts',(-24.9999999999989,0.915460613890962,22.1868284061722));
#1660=CARTESIAN_POINT('Ctrl Pts',(-24.9999999999989,-1.23358113847234E-15,
22.1868284061722));
#1661=CARTESIAN_POINT('Ctrl Pts',(-24.9999999999989,-0.915460613890963,
22.1868284061722));
#1662=CARTESIAN_POINT('Ctrl Pts',(-24.9999999999989,-1.87114433514564,22.1369211760613));
#1663=CARTESIAN_POINT('Ctrl Pts',(-24.9999999999989,-3.81763066070116,21.9400113337264));
#1664=CARTESIAN_POINT('Ctrl Pts',(-24.9999999999989,-4.80853118876772,21.7939779188864));
#1665=CARTESIAN_POINT('Ctrl Pts',(-24.9999999999989,-7.77319793541418,21.2863392182216));
#1666=CARTESIAN_POINT('Ctrl Pts',(-24.9999999999989,-9.74261229642313,20.8681235731037));
#1667=CARTESIAN_POINT('Ctrl Pts',(-24.9999999999989,-12.4665977500462,20.4136034764754));
#1668=CARTESIAN_POINT('Ctrl Pts',(-24.9999999999989,-13.4795331824587,20.2649976571925));
#1669=CARTESIAN_POINT('Ctrl Pts',(-24.9999999999989,-15.5130573398663,20.0571501089698));
#1670=CARTESIAN_POINT('Ctrl Pts',(-24.9999999999989,-16.5338593069782,20.));
#1671=CARTESIAN_POINT('Ctrl Pts',(-24.9999999999989,-17.464583470949,20.));
#1672=CARTESIAN_POINT('',(25.0000000000011,-17.4645834709458,20.));
#1673=CARTESIAN_POINT('Origin',(0.,0.,20.));
#1674=CARTESIAN_POINT('',(25.0000000000011,17.4645834709458,20.));
#1675=CARTESIAN_POINT('Ctrl Pts',(25.0000000000011,-17.4645834709458,20.));
#1676=CARTESIAN_POINT('Ctrl Pts',(25.0000000000011,-16.5338593069753,20.));
#1677=CARTESIAN_POINT('Ctrl Pts',(25.0000000000011,-15.5130573398637,20.0571501089697));
#1678=CARTESIAN_POINT('Ctrl Pts',(25.0000000000011,-13.4795331824567,20.2649976571923));
#1679=CARTESIAN_POINT('Ctrl Pts',(25.0000000000011,-12.4665977500445,20.413603476475));
#1680=CARTESIAN_POINT('Ctrl Pts',(25.0000000000011,-9.74261229642193,20.8681235731029));
#1681=CARTESIAN_POINT('Ctrl Pts',(25.0000000000011,-7.77319793541321,21.2863392182204));
#1682=CARTESIAN_POINT('Ctrl Pts',(25.0000000000011,-4.80853118876708,21.7939779188847));
#1683=CARTESIAN_POINT('Ctrl Pts',(25.0000000000011,-3.81763066070064,21.9400113337246));
#1684=CARTESIAN_POINT('Ctrl Pts',(25.0000000000011,-1.87114433514537,22.1369211760592));
#1685=CARTESIAN_POINT('Ctrl Pts',(25.0000000000011,-0.915460613890821,22.1868284061701));
#1686=CARTESIAN_POINT('Ctrl Pts',(25.0000000000011,4.93432455388981E-15,
22.1868284061701));
#1687=CARTESIAN_POINT('Ctrl Pts',(25.0000000000011,0.915460613890831,22.1868284061701));
#1688=CARTESIAN_POINT('Ctrl Pts',(25.0000000000011,1.87114433514538,22.1369211760592));
#1689=CARTESIAN_POINT('Ctrl Pts',(25.0000000000011,3.81763066070065,21.9400113337246));
#1690=CARTESIAN_POINT('Ctrl Pts',(25.0000000000011,4.80853118876709,21.7939779188847));
#1691=CARTESIAN_POINT('Ctrl Pts',(25.0000000000011,7.77319793541322,21.2863392182204));
#1692=CARTESIAN_POINT('Ctrl Pts',(25.0000000000011,9.74261229642194,20.8681235731029));
#1693=CARTESIAN_POINT('Ctrl Pts',(25.0000000000011,12.4665977500445,20.413603476475));
#1694=CARTESIAN_POINT('Ctrl Pts',(25.0000000000011,13.4795331824567,20.2649976571923));
#1695=CARTESIAN_POINT('Ctrl Pts',(25.0000000000011,15.5130573398637,20.0571501089697));
#1696=CARTESIAN_POINT('Ctrl Pts',(25.0000000000011,16.5338593069753,20.));
#1697=CARTESIAN_POINT('Ctrl Pts',(25.0000000000011,17.4645834709458,20.));
#1698=CARTESIAN_POINT('',(1.90395894984074E-12,30.4960927958597,20.));
#1699=CARTESIAN_POINT('Origin',(0.,0.,20.));
#1700=CARTESIAN_POINT('',(1.4047398353022E-12,22.5,27.75));
#1701=CARTESIAN_POINT('Origin',(1.90395894984074E-12,30.4960927958597,28.));
#1702=CARTESIAN_POINT('Origin',(0.,0.,27.75));
#1703=CARTESIAN_POINT('Origin',(0.,0.,20.));
#1704=CARTESIAN_POINT('Origin',(0.,0.,20.));
#1705=CARTESIAN_POINT('',(-24.9999999999989,-48.2500000000028,20.));
#1706=CARTESIAN_POINT('',(-24.9999999999989,22.4999999999986,20.));
#1707=CARTESIAN_POINT('',(-19.9999999999989,-53.2500000000028,20.));
#1708=CARTESIAN_POINT('Origin',(-19.9999999999989,-48.2500000000028,20.));
#1709=CARTESIAN_POINT('',(20.0000000000011,-53.2500000000028,20.));
#1710=CARTESIAN_POINT('',(-12.4999999999994,-53.2500000000028,20.));
#1711=CARTESIAN_POINT('',(25.0000000000011,-48.2500000000028,20.));
#1712=CARTESIAN_POINT('Origin',(20.0000000000011,-48.2500000000028,20.));
#1713=CARTESIAN_POINT('',(25.0000000000011,-22.5000000000014,20.));
#1714=CARTESIAN_POINT('Origin',(0.,0.,20.));
#1715=CARTESIAN_POINT('',(25.0000000000011,48.2499999999971,20.));
#1716=CARTESIAN_POINT('',(25.0000000000011,-22.5000000000014,20.));
#1717=CARTESIAN_POINT('',(20.0000000000011,53.2499999999971,20.));
#1718=CARTESIAN_POINT('Origin',(20.0000000000011,48.2499999999971,20.));
#1719=CARTESIAN_POINT('',(-19.9999999999989,53.2499999999972,20.));
#1720=CARTESIAN_POINT('',(12.5000000000006,53.2499999999971,20.));
#1721=CARTESIAN_POINT('',(-24.9999999999989,48.2499999999972,20.));
#1722=CARTESIAN_POINT('Origin',(-19.9999999999989,48.2499999999972,20.));
#1723=CARTESIAN_POINT('',(-24.9999999999989,22.4999999999986,20.));
#1724=CARTESIAN_POINT('Origin',(4.62500000039736,39.4999999990647,-23.));
#1725=CARTESIAN_POINT('',(-11.2500000001625,39.4999999990647,-25.));
#1726=CARTESIAN_POINT('',(11.2499999998375,39.4999999990647,-25.));
#1727=CARTESIAN_POINT('',(4.62500000039736,39.4999999990647,-25.));
#1728=CARTESIAN_POINT('',(9.2499999998375,37.4999999990647,-23.));
#1729=CARTESIAN_POINT('Origin',(11.2499999998375,39.4999999990647,-23.));
#1730=CARTESIAN_POINT('',(-9.2500000001625,37.4999999990647,-23.));
#1731=CARTESIAN_POINT('',(4.62500000039736,37.4999999990647,-23.));
#1732=CARTESIAN_POINT('Origin',(-11.2500000001625,39.4999999990647,-23.));
#1733=CARTESIAN_POINT('Origin',(11.2499999998375,-18.7499999999143,-23.));
#1734=CARTESIAN_POINT('',(11.2499999998375,-40.4999999988932,-25.));
#1735=CARTESIAN_POINT('',(11.2499999998375,-18.7499999999143,-25.));
#1736=CARTESIAN_POINT('',(9.2499999998375,-42.4999999988932,-23.));
#1737=CARTESIAN_POINT('Origin',(11.2499999998375,-40.4999999988932,-23.));
#1738=CARTESIAN_POINT('',(9.2499999998375,-18.7499999999143,-23.));
#1739=CARTESIAN_POINT('Origin',(7.12500000095722,-40.4999999988932,-23.));
#1740=CARTESIAN_POINT('',(14.2500000009572,-40.4999999988932,-25.));
#1741=CARTESIAN_POINT('',(7.12500000095722,-40.4999999988932,-25.));
#1742=CARTESIAN_POINT('',(14.2500000009572,-42.4999999988932,-23.));
#1743=CARTESIAN_POINT('Origin',(14.2500000009572,-40.4999999988932,-23.));
#1744=CARTESIAN_POINT('',(7.12500000095722,-42.4999999988932,-23.));
#1745=CARTESIAN_POINT('Origin',(14.2500000009572,-37.4999999988932,-23.));
#1746=CARTESIAN_POINT('',(17.2500000009572,-37.4999999988932,-25.));
#1747=CARTESIAN_POINT('',(19.2500000009572,-37.4999999988932,-23.));
#1748=CARTESIAN_POINT('Origin',(17.2500000009572,-37.4999999988932,-23.));
#1749=CARTESIAN_POINT('Origin',(14.2500000009572,-37.4999999988932,-23.));
#1750=CARTESIAN_POINT('Origin',(14.2500000009572,-37.4999999988932,-25.));
#1751=CARTESIAN_POINT('Origin',(17.2500000009572,21.2500000011068,-23.));
#1752=CARTESIAN_POINT('',(17.2500000009572,42.5000000011068,-25.));
#1753=CARTESIAN_POINT('',(19.2500000009572,42.5000000011068,-23.));
#1754=CARTESIAN_POINT('Origin',(17.2500000009572,42.5000000011068,-23.));
#1755=CARTESIAN_POINT('',(19.2500000009572,21.2500000011068,-23.));
#1756=CARTESIAN_POINT('',(17.2500000009572,21.2500000011068,-25.));
#1757=CARTESIAN_POINT('Origin',(14.2500000009572,42.5000000011068,-23.));
#1758=CARTESIAN_POINT('',(14.2500000009572,45.5000000011068,-25.));
#1759=CARTESIAN_POINT('',(14.2500000009572,47.5000000011068,-23.));
#1760=CARTESIAN_POINT('Origin',(14.2500000009572,45.5000000011068,-23.));
#1761=CARTESIAN_POINT('Origin',(14.2500000009572,42.5000000011068,-23.));
#1762=CARTESIAN_POINT('Origin',(14.2500000009572,42.5000000011068,-25.));
#1763=CARTESIAN_POINT('Origin',(-7.12499999904279,45.5000000011068,-23.));
#1764=CARTESIAN_POINT('',(-14.2499999990428,45.5000000011068,-25.));
#1765=CARTESIAN_POINT('',(-14.2499999990428,47.5000000011068,-23.));
#1766=CARTESIAN_POINT('Origin',(-14.2499999990428,45.5000000011068,-23.));
#1767=CARTESIAN_POINT('',(-7.12499999904279,47.5000000011068,-23.));
#1768=CARTESIAN_POINT('',(-7.12499999904279,45.5000000011068,-25.));
#1769=CARTESIAN_POINT('Origin',(-14.2499999990428,42.5000000011068,-23.));
#1770=CARTESIAN_POINT('',(-17.2499999990428,42.5000000011068,-25.));
#1771=CARTESIAN_POINT('',(-19.2499999990428,42.5000000011068,-23.));
#1772=CARTESIAN_POINT('Origin',(-17.2499999990428,42.5000000011068,-23.));
#1773=CARTESIAN_POINT('Origin',(-14.2499999990428,42.5000000011068,-23.));
#1774=CARTESIAN_POINT('Origin',(-14.2499999990428,42.5000000011068,-25.));
#1775=CARTESIAN_POINT('Origin',(-17.2499999990428,-21.2499999988932,-23.));
#1776=CARTESIAN_POINT('',(-17.2499999990428,-37.4999999988932,-25.));
#1777=CARTESIAN_POINT('',(-19.2499999990428,-37.4999999988932,-23.));
#1778=CARTESIAN_POINT('Origin',(-17.2499999990428,-37.4999999988932,-23.));
#1779=CARTESIAN_POINT('',(-19.2499999990428,-21.2499999988932,-23.));
#1780=CARTESIAN_POINT('',(-17.2499999990428,-21.2499999988932,-25.));
#1781=CARTESIAN_POINT('Origin',(-14.2499999990428,-37.4999999988932,-23.));
#1782=CARTESIAN_POINT('',(-14.2499999990428,-40.4999999988932,-25.));
#1783=CARTESIAN_POINT('',(-14.2499999990428,-42.4999999988932,-23.));
#1784=CARTESIAN_POINT('Origin',(-14.2499999990428,-40.4999999988932,-23.));
#1785=CARTESIAN_POINT('Origin',(-14.2499999990428,-37.4999999988932,-23.));
#1786=CARTESIAN_POINT('Origin',(-14.2499999990428,-37.4999999988932,-25.));
#1787=CARTESIAN_POINT('Origin',(7.12500000095722,-40.4999999988932,-23.));
#1788=CARTESIAN_POINT('',(-9.25000000016249,-42.4999999988932,-23.));
#1789=CARTESIAN_POINT('',(7.12500000095722,-42.4999999988932,-23.));
#1790=CARTESIAN_POINT('',(-11.2500000001625,-40.4999999988932,-25.));
#1791=CARTESIAN_POINT('',(7.12500000095722,-40.4999999988932,-25.));
#1792=CARTESIAN_POINT('Origin',(-11.2500000001625,-40.4999999988932,-23.));
#1793=CARTESIAN_POINT('Origin',(-11.2500000001625,18.7500000000857,-23.));
#1794=CARTESIAN_POINT('',(-9.25000000016249,18.7500000000857,-23.));
#1795=CARTESIAN_POINT('',(-11.2500000001625,18.7500000000857,-25.));
#1796=CARTESIAN_POINT('Origin',(-14.2499999990428,42.5000000011068,0.));
#1797=CARTESIAN_POINT('',(-19.2499999990428,42.5000000011068,-2.));
#1798=CARTESIAN_POINT('',(-19.2499999990428,42.5000000011068,0.));
#1799=CARTESIAN_POINT('',(-14.2499999990428,47.5000000011068,-2.));
#1800=CARTESIAN_POINT('Origin',(-14.2499999990428,42.5000000011068,-2.));
#1801=CARTESIAN_POINT('',(-14.2499999990428,47.5000000011068,0.));
#1802=CARTESIAN_POINT('Origin',(-19.2499999990428,-42.4999999988932,0.));
#1803=CARTESIAN_POINT('',(-19.2499999990428,-37.4999999988932,-2.));
#1804=CARTESIAN_POINT('',(-19.2499999990428,-37.4999999988932,0.));
#1805=CARTESIAN_POINT('',(-19.2499999990428,-21.2499999994466,-2.));
#1806=CARTESIAN_POINT('',(-19.2499999990428,17.9583333344401,-12.5));
#1807=CARTESIAN_POINT('Origin',(-19.2499999990428,15.8333333344401,-12.5));
#1808=CARTESIAN_POINT('',(-19.2499999990428,-13.7083333322265,-12.5));
#1809=CARTESIAN_POINT('Origin',(-19.2499999990428,-15.8333333322265,-12.5));
#1810=CARTESIAN_POINT('Origin',(-14.2499999990428,-37.4999999988932,0.));
#1811=CARTESIAN_POINT('',(-14.2499999990428,-42.4999999988932,-2.));
#1812=CARTESIAN_POINT('',(-14.2499999990428,-42.4999999988932,0.));
#1813=CARTESIAN_POINT('Origin',(-14.2499999990428,-37.4999999988932,-2.));
#1814=CARTESIAN_POINT('Origin',(14.2500000009572,-42.4999999988932,0.));
#1815=CARTESIAN_POINT('',(-9.25000000016249,-42.4999999988932,-1.46410161513776));
#1816=CARTESIAN_POINT('',(-9.25000000016249,-42.4999999988932,3.75));
#1817=CARTESIAN_POINT('',(-11.2500000001625,-42.4999999988932,-2.));
#1818=CARTESIAN_POINT('Origin',(-11.2500000001625,-42.4999999988932,2.));
#1819=CARTESIAN_POINT('',(7.12500000047861,-42.4999999988932,-2.));
#1820=CARTESIAN_POINT('Origin',(-9.2500000001625,37.4999999990647,0.));
#1821=CARTESIAN_POINT('',(-9.2500000001625,37.4999999990647,7.5));
#1822=CARTESIAN_POINT('',(-9.2500000001625,37.4999999990647,0.));
#1823=CARTESIAN_POINT('',(-9.25000000016249,-53.2500000000028,7.5));
#1824=CARTESIAN_POINT('',(-9.25000000016249,-37.5000000009353,7.5));
#1825=CARTESIAN_POINT('',(-9.25000000016249,-53.2500000000028,2.));
#1826=CARTESIAN_POINT('',(-9.25000000016249,-53.2500000000028,10.));
#1827=CARTESIAN_POINT('',(-9.25000000016249,-44.4999999988932,2.));
#1828=CARTESIAN_POINT('',(-9.25000000016249,18.7499999995323,2.));
#1829=CARTESIAN_POINT('Ctrl Pts',(-9.25000000016249,-42.4999999988932,-1.46410161513776));
#1830=CARTESIAN_POINT('Ctrl Pts',(-9.25000000016249,-42.4999999988932,-1.20922419326219));
#1831=CARTESIAN_POINT('Ctrl Pts',(-9.25000000016249,-42.538908655156,-0.933902051859575));
#1832=CARTESIAN_POINT('Ctrl Pts',(-9.25000000016249,-42.6891622606068,-0.401882934151257));
#1833=CARTESIAN_POINT('Ctrl Pts',(-9.25000000016249,-42.7999378205428,-0.145025314585613));
#1834=CARTESIAN_POINT('Ctrl Pts',(-9.25000000016249,-43.1064531044563,0.424481886361255));
#1835=CARTESIAN_POINT('Ctrl Pts',(-9.25000000016249,-43.3578775354467,0.770287077698295));
#1836=CARTESIAN_POINT('Ctrl Pts',(-9.25000000016249,-43.9173180241811,1.41844932803705));
#1837=CARTESIAN_POINT('Ctrl Pts',(-9.25000000016249,-44.2229017768122,1.72290177791904));
#1838=CARTESIAN_POINT('Ctrl Pts',(-9.25000000016249,-44.4999999988932,2.));
#1839=CARTESIAN_POINT('',(-9.2500000001625,17.9583333344401,-12.5));
#1840=CARTESIAN_POINT('Origin',(-9.2500000001625,15.8333333344401,-12.5));
#1841=CARTESIAN_POINT('',(-9.2500000001625,-13.7083333322265,-12.5));
#1842=CARTESIAN_POINT('Origin',(-9.2500000001625,-15.8333333322265,-12.5));
#1843=CARTESIAN_POINT('Origin',(9.2499999998375,37.4999999990647,0.));
#1844=CARTESIAN_POINT('',(9.2499999998375,37.4999999990647,7.5));
#1845=CARTESIAN_POINT('',(9.2499999998375,37.4999999990647,0.));
#1846=CARTESIAN_POINT('',(4.62499999991875,37.4999999990647,7.5));
#1847=CARTESIAN_POINT('Origin',(9.57212087371317E-10,1.10680353770931E-9,
-25.));
#1848=CARTESIAN_POINT('Origin',(11.2499999998375,-44.4999999988932,2.));
#1849=CARTESIAN_POINT('',(11.2499999998375,-42.4999999988932,-2.));
#1850=CARTESIAN_POINT('',(11.2499999998375,-44.4999999988932,0.));
#1851=CARTESIAN_POINT('Origin',(11.2499999998375,-44.4999999988932,-2.));
#1852=CARTESIAN_POINT('',(9.2499999998375,-44.4999999988932,2.));
#1853=CARTESIAN_POINT('Origin',(11.2499999998375,-44.4999999988932,2.));
#1854=CARTESIAN_POINT('',(9.2499999998375,-42.4999999988932,-1.46410161513775));
#1855=CARTESIAN_POINT('Ctrl Pts',(9.2499999998375,-44.4999999988932,2.));
#1856=CARTESIAN_POINT('Ctrl Pts',(9.2499999998375,-44.2229017768123,1.72290177791904));
#1857=CARTESIAN_POINT('Ctrl Pts',(9.24999999983751,-43.9173180241811,1.41844932803705));
#1858=CARTESIAN_POINT('Ctrl Pts',(9.24999999983751,-43.3578775354467,0.770287077698297));
#1859=CARTESIAN_POINT('Ctrl Pts',(9.2499999998375,-43.1064531044563,0.424481886361255));
#1860=CARTESIAN_POINT('Ctrl Pts',(9.2499999998375,-42.7999378205428,-0.145025314585614));
#1861=CARTESIAN_POINT('Ctrl Pts',(9.24999999983751,-42.6891622606068,-0.401882934151258));
#1862=CARTESIAN_POINT('Ctrl Pts',(9.24999999983751,-42.538908655156,-0.933902051859575));
#1863=CARTESIAN_POINT('Ctrl Pts',(9.2499999998375,-42.4999999988932,-1.20922419326219));
#1864=CARTESIAN_POINT('Ctrl Pts',(9.2499999998375,-42.4999999988932,-1.46410161513775));
#1865=CARTESIAN_POINT('Origin',(11.2499999998375,-42.4999999988932,2.));
#1866=CARTESIAN_POINT('Origin',(7.12500000047861,-44.4999999988932,-2.));
#1867=CARTESIAN_POINT('',(14.2500000009572,-42.4999999988932,-2.));
#1868=CARTESIAN_POINT('',(14.2500000009572,-44.4999999988932,0.));
#1869=CARTESIAN_POINT('Origin',(14.2500000009572,-44.4999999988932,-2.));
#1870=CARTESIAN_POINT('',(7.12500000047861,-44.4999999988932,0.));
#1871=CARTESIAN_POINT('',(7.12500000047861,-42.4999999988932,-2.));
#1872=CARTESIAN_POINT('Origin',(14.2500000009572,-37.4999999988932,-2.));
#1873=CARTESIAN_POINT('',(19.2500000009572,-37.4999999988932,-2.));
#1874=CARTESIAN_POINT('',(21.2500000009572,-37.4999999988932,0.));
#1875=CARTESIAN_POINT('Origin',(21.2500000009572,-37.4999999988932,-2.));
#1876=CARTESIAN_POINT('Origin',(14.2500000009572,-37.4999999988932,0.));
#1877=CARTESIAN_POINT('Origin',(14.2500000009572,-37.4999999988932,-2.));
#1878=CARTESIAN_POINT('Origin',(21.2500000009572,21.2500000005534,-2.));
#1879=CARTESIAN_POINT('',(19.2500000009572,42.5000000011068,-2.));
#1880=CARTESIAN_POINT('',(21.2500000009572,42.5000000011068,0.));
#1881=CARTESIAN_POINT('Origin',(21.2500000009572,42.5000000011068,-2.));
#1882=CARTESIAN_POINT('',(21.2500000009572,21.2500000005534,0.));
#1883=CARTESIAN_POINT('',(19.2500000009572,21.2500000005534,-2.));
#1884=CARTESIAN_POINT('Origin',(14.2500000009572,42.5000000011068,-2.));
#1885=CARTESIAN_POINT('',(14.2500000009572,47.5000000011068,-2.));
#1886=CARTESIAN_POINT('',(14.2500000009572,49.5000000011068,0.));
#1887=CARTESIAN_POINT('Origin',(14.2500000009572,49.5000000011068,-2.));
#1888=CARTESIAN_POINT('Origin',(14.2500000009572,42.5000000011068,0.));
#1889=CARTESIAN_POINT('Origin',(14.2500000009572,42.5000000011068,-2.));
#1890=CARTESIAN_POINT('Origin',(-7.1249999995214,49.5000000011068,-2.));
#1891=CARTESIAN_POINT('',(-14.2499999990428,49.5000000011068,0.));
#1892=CARTESIAN_POINT('Origin',(-14.2499999990428,49.5000000011068,-2.));
#1893=CARTESIAN_POINT('',(-7.1249999995214,49.5000000011068,0.));
#1894=CARTESIAN_POINT('',(-7.1249999995214,47.5000000011068,-2.));
#1895=CARTESIAN_POINT('Origin',(-14.2499999990428,42.5000000011068,-2.));
#1896=CARTESIAN_POINT('',(-21.2499999990428,42.5000000011068,0.));
#1897=CARTESIAN_POINT('Origin',(-21.2499999990428,42.5000000011068,-2.));
#1898=CARTESIAN_POINT('Origin',(-14.2499999990428,42.5000000011068,0.));
#1899=CARTESIAN_POINT('Origin',(-21.2499999990428,-21.2499999994466,-2.));
#1900=CARTESIAN_POINT('',(-21.2499999990428,-37.4999999988932,0.));
#1901=CARTESIAN_POINT('Origin',(-21.2499999990428,-37.4999999988932,-2.));
#1902=CARTESIAN_POINT('',(-21.2499999990428,-21.2499999994466,0.));
#1903=CARTESIAN_POINT('Origin',(-14.2499999990428,-37.4999999988932,-2.));
#1904=CARTESIAN_POINT('',(-14.2499999990428,-44.4999999988932,0.));
#1905=CARTESIAN_POINT('Origin',(-14.2499999990428,-44.4999999988932,-2.));
#1906=CARTESIAN_POINT('Origin',(-14.2499999990428,-37.4999999988932,0.));
#1907=CARTESIAN_POINT('Origin',(7.12500000047861,-44.4999999988932,-2.));
#1908=CARTESIAN_POINT('',(-11.2500000001625,-44.4999999988932,0.));
#1909=CARTESIAN_POINT('Origin',(-11.2500000001625,-44.4999999988932,-2.));
#1910=CARTESIAN_POINT('',(7.12500000047861,-44.4999999988932,0.));
#1911=CARTESIAN_POINT('Origin',(-11.2500000001625,-44.4999999988932,2.));
#1912=CARTESIAN_POINT('Origin',(-11.2500000001625,-44.4999999988932,2.));
#1913=CARTESIAN_POINT('Origin',(-14.2499999990428,47.5000000011068,0.));
#1914=CARTESIAN_POINT('',(14.2500000009572,47.5000000011068,0.));
#1915=CARTESIAN_POINT('Origin',(14.2500000009572,42.5000000011068,0.));
#1916=CARTESIAN_POINT('',(19.2500000009572,42.5000000011068,0.));
#1917=CARTESIAN_POINT('Origin',(19.2500000009572,42.5000000011068,0.));
#1918=CARTESIAN_POINT('',(19.2500000009572,-37.4999999988932,0.));
#1919=CARTESIAN_POINT('',(19.2500000009572,17.9583333344401,-12.5));
#1920=CARTESIAN_POINT('Origin',(19.2500000009572,15.8333333344401,-12.5));
#1921=CARTESIAN_POINT('',(19.2500000009572,-13.7083333322265,-12.5));
#1922=CARTESIAN_POINT('Origin',(19.2500000009572,-15.8333333322265,-12.5));
#1923=CARTESIAN_POINT('Origin',(14.2500000009572,-37.4999999988932,0.));
#1924=CARTESIAN_POINT('',(14.2500000009572,-42.4999999988932,0.));
#1925=CARTESIAN_POINT('Origin',(14.2500000009572,-42.4999999988932,0.));
#1926=CARTESIAN_POINT('',(9.2499999998375,-42.4999999988932,-12.5));
#1927=CARTESIAN_POINT('Origin',(11.2499999998375,-18.7500000004677,2.));
#1928=CARTESIAN_POINT('',(11.2499999998375,-51.2500000000028,0.));
#1929=CARTESIAN_POINT('',(11.2499999998375,-18.7500000004677,0.));
#1930=CARTESIAN_POINT('',(9.24999999983751,-53.2500000000028,2.));
#1931=CARTESIAN_POINT('Origin',(11.2499999998375,-51.2500000000028,2.));
#1932=CARTESIAN_POINT('',(9.2499999998375,-18.7500000004677,2.));
#1933=CARTESIAN_POINT('Origin',(-12.4999999999994,-51.2500000000028,2.));
#1934=CARTESIAN_POINT('',(20.0000000000011,-51.2500000000028,0.));
#1935=CARTESIAN_POINT('',(-12.4999999999994,-51.2500000000028,0.));
#1936=CARTESIAN_POINT('',(20.0000000000011,-53.2500000000028,2.));
#1937=CARTESIAN_POINT('Origin',(20.0000000000011,-51.2500000000028,2.));
#1938=CARTESIAN_POINT('',(-12.4999999999994,-53.2500000000028,2.));
#1939=CARTESIAN_POINT('Origin',(20.0000000000011,-48.2500000000028,2.));
#1940=CARTESIAN_POINT('',(23.0000000000011,-48.2500000000028,0.));
#1941=CARTESIAN_POINT('',(25.0000000000011,-48.2500000000028,2.));
#1942=CARTESIAN_POINT('Origin',(23.0000000000011,-48.2500000000028,2.));
#1943=CARTESIAN_POINT('Origin',(20.0000000000011,-48.2500000000028,2.));
#1944=CARTESIAN_POINT('Origin',(20.0000000000011,-48.2500000000028,0.));
#1945=CARTESIAN_POINT('Origin',(23.0000000000011,-22.5000000000014,2.));
#1946=CARTESIAN_POINT('',(23.0000000000011,48.2499999999971,0.));
#1947=CARTESIAN_POINT('',(25.0000000000011,48.2499999999971,2.));
#1948=CARTESIAN_POINT('Origin',(23.0000000000011,48.2499999999971,2.));
#1949=CARTESIAN_POINT('',(25.0000000000011,-22.5000000000014,2.));
#1950=CARTESIAN_POINT('',(23.0000000000011,-22.5000000000014,0.));
#1951=CARTESIAN_POINT('Origin',(20.0000000000011,48.2499999999971,2.));
#1952=CARTESIAN_POINT('',(20.0000000000011,51.2499999999971,0.));
#1953=CARTESIAN_POINT('',(20.0000000000011,53.2499999999971,2.));
#1954=CARTESIAN_POINT('Origin',(20.0000000000011,51.2499999999971,2.));
#1955=CARTESIAN_POINT('Origin',(20.0000000000011,48.2499999999971,2.));
#1956=CARTESIAN_POINT('Origin',(20.0000000000011,48.2499999999971,0.));
#1957=CARTESIAN_POINT('Origin',(12.5000000000006,51.2499999999971,2.));
#1958=CARTESIAN_POINT('',(-19.9999999999989,51.2499999999972,0.));
#1959=CARTESIAN_POINT('',(-19.9999999999989,53.2499999999972,2.));
#1960=CARTESIAN_POINT('Origin',(-19.9999999999989,51.2499999999972,2.));
#1961=CARTESIAN_POINT('',(12.5000000000006,53.2499999999971,2.));
#1962=CARTESIAN_POINT('',(12.5000000000006,51.2499999999971,0.));
#1963=CARTESIAN_POINT('Origin',(-19.9999999999989,48.2499999999972,2.));
#1964=CARTESIAN_POINT('',(-22.9999999999989,48.2499999999972,0.));
#1965=CARTESIAN_POINT('',(-24.9999999999989,48.2499999999972,2.));
#1966=CARTESIAN_POINT('Origin',(-22.9999999999989,48.2499999999972,2.));
#1967=CARTESIAN_POINT('Origin',(-19.9999999999989,48.2499999999972,2.));
#1968=CARTESIAN_POINT('Origin',(-19.9999999999989,48.2499999999972,0.));
#1969=CARTESIAN_POINT('Origin',(-22.9999999999989,22.4999999999986,2.));
#1970=CARTESIAN_POINT('',(-22.9999999999989,-48.2500000000028,0.));
#1971=CARTESIAN_POINT('',(-24.9999999999989,-48.2500000000028,2.));
#1972=CARTESIAN_POINT('Origin',(-22.9999999999989,-48.2500000000028,2.));
#1973=CARTESIAN_POINT('',(-24.9999999999989,22.4999999999986,2.));
#1974=CARTESIAN_POINT('',(-22.9999999999989,22.4999999999986,0.));
#1975=CARTESIAN_POINT('Origin',(-19.9999999999989,-48.2500000000028,2.));
#1976=CARTESIAN_POINT('',(-19.9999999999989,-51.2500000000028,0.));
#1977=CARTESIAN_POINT('',(-19.9999999999989,-53.2500000000028,2.));
#1978=CARTESIAN_POINT('Origin',(-19.9999999999989,-51.2500000000028,2.));
#1979=CARTESIAN_POINT('Origin',(-19.9999999999989,-48.2500000000028,2.));
#1980=CARTESIAN_POINT('Origin',(-19.9999999999989,-48.2500000000028,0.));
#1981=CARTESIAN_POINT('Origin',(-12.4999999999994,-51.2500000000028,2.));
#1982=CARTESIAN_POINT('',(-12.4999999999994,-53.2500000000028,2.));
#1983=CARTESIAN_POINT('',(-11.2500000001625,-51.2500000000028,0.));
#1984=CARTESIAN_POINT('',(-12.4999999999994,-51.2500000000028,0.));
#1985=CARTESIAN_POINT('Origin',(-11.2500000001625,-51.2500000000028,2.));
#1986=CARTESIAN_POINT('Origin',(-11.2500000001625,18.7499999995323,2.));
#1987=CARTESIAN_POINT('',(-11.2500000001625,18.7499999995323,0.));
#1988=CARTESIAN_POINT('Origin',(9.2499999998375,-37.5000000009353,0.));
#1989=CARTESIAN_POINT('',(9.24999999983751,-53.2500000000028,7.5));
#1990=CARTESIAN_POINT('',(9.24999999983751,-53.2500000000028,10.));
#1991=CARTESIAN_POINT('',(9.2499999998375,-18.7500000004677,7.5));
#1992=CARTESIAN_POINT('',(9.24999999983751,-13.7083333322265,-12.5));
#1993=CARTESIAN_POINT('Origin',(9.24999999983751,-15.8333333322265,-12.5));
#1994=CARTESIAN_POINT('',(9.24999999983751,17.9583333344401,-12.5));
#1995=CARTESIAN_POINT('Origin',(9.24999999983751,15.8333333344401,-12.5));
#1996=CARTESIAN_POINT('Origin',(20.0000000000011,-48.2500000000028,20.));
#1997=CARTESIAN_POINT('',(25.0000000000011,-48.2500000000028,20.));
#1998=CARTESIAN_POINT('',(20.0000000000011,-53.2500000000028,20.));
#1999=CARTESIAN_POINT('Origin',(25.0000000000011,-45.0000000000028,20.));
#2000=CARTESIAN_POINT('',(25.0000000000011,48.2499999999971,20.));
#2001=CARTESIAN_POINT('Origin',(20.0000000000011,48.2499999999971,20.));
#2002=CARTESIAN_POINT('',(20.0000000000011,53.2499999999971,20.));
#2003=CARTESIAN_POINT('Origin',(25.0000000000011,53.2499999999971,20.));
#2004=CARTESIAN_POINT('',(-19.9999999999989,53.2499999999972,20.));
#2005=CARTESIAN_POINT('Origin',(-19.9999999999989,48.2499999999972,20.));
#2006=CARTESIAN_POINT('',(-24.9999999999989,48.2499999999972,20.));
#2007=CARTESIAN_POINT('Origin',(-24.9999999999989,44.9999999999972,20.));
#2008=CARTESIAN_POINT('',(-24.9999999999989,-48.2500000000028,20.));
#2009=CARTESIAN_POINT('Origin',(-19.9999999999989,-48.2500000000028,20.));
#2010=CARTESIAN_POINT('',(-19.9999999999989,-53.2500000000028,20.));
#2011=CARTESIAN_POINT('Origin',(-24.9999999999989,-53.2500000000028,20.));
#2012=CARTESIAN_POINT('',(-12.4999999999994,-53.2500000000028,7.5));
#2013=CARTESIAN_POINT('Origin',(0.,0.,0.));
#2014=CARTESIAN_POINT('Origin',(0.,0.,42.25));
#2015=CARTESIAN_POINT('',(20.,2.44929359829471E-15,42.25));
#2016=CARTESIAN_POINT('Origin',(0.,0.,42.25));
#2017=CARTESIAN_POINT('Origin',(0.,0.,7.5));
#2018=CARTESIAN_POINT('Origin',(-14.2499999990428,15.8333333344401,-12.5));
#2019=CARTESIAN_POINT('',(-14.2499999990428,17.9583333344401,-12.5));
#2020=CARTESIAN_POINT('Origin',(-14.2499999990428,15.8333333344401,-12.5));
#2021=CARTESIAN_POINT('',(-14.2499999990428,17.9583333344401,-12.5));
#2022=CARTESIAN_POINT('Origin',(-14.2499999990428,-15.8333333322265,-12.5));
#2023=CARTESIAN_POINT('',(-14.2499999990428,-13.7083333322265,-12.5));
#2024=CARTESIAN_POINT('Origin',(-14.2499999990428,-15.8333333322265,-12.5));
#2025=CARTESIAN_POINT('',(-14.2499999990428,-13.7083333322265,-12.5));
#2026=CARTESIAN_POINT('Origin',(0.,0.,27.75));
#2027=CARTESIAN_POINT('',(20.,2.44929359829471E-15,27.75));
#2028=CARTESIAN_POINT('Origin',(0.,0.,27.75));
#2029=CARTESIAN_POINT('Origin',(0.,0.,20.));
#2030=CARTESIAN_POINT('',(20.,2.44929359829471E-15,20.));
#2031=UNCERTAINTY_MEASURE_WITH_UNIT(LENGTH_MEASURE(0.01),#2035,
'DISTANCE_ACCURACY_VALUE',
'Maximum model space distance between geometric entities at asserted c
onnectivities');
#2032=UNCERTAINTY_MEASURE_WITH_UNIT(LENGTH_MEASURE(0.01),#2035,
'DISTANCE_ACCURACY_VALUE',
'Maximum model space distance between geometric entities at asserted c
onnectivities');
#2033=(
GEOMETRIC_REPRESENTATION_CONTEXT(3)
GLOBAL_UNCERTAINTY_ASSIGNED_CONTEXT((#2031))
GLOBAL_UNIT_ASSIGNED_CONTEXT((#2035,#2037,#2038))
REPRESENTATION_CONTEXT('','3D')
);
#2034=(
GEOMETRIC_REPRESENTATION_CONTEXT(3)
GLOBAL_UNCERTAINTY_ASSIGNED_CONTEXT((#2032))
GLOBAL_UNIT_ASSIGNED_CONTEXT((#2035,#2037,#2038))
REPRESENTATION_CONTEXT('','3D')
);
#2035=(
LENGTH_UNIT()
NAMED_UNIT(*)
SI_UNIT(.MILLI.,.METRE.)
);
#2036=(
LENGTH_UNIT()
NAMED_UNIT(*)
SI_UNIT($,.METRE.)
);
#2037=(
NAMED_UNIT(*)
PLANE_ANGLE_UNIT()
SI_UNIT($,.RADIAN.)
);
#2038=(
NAMED_UNIT(*)
SI_UNIT($,.STERADIAN.)
SOLID_ANGLE_UNIT()
);
#2039=SHAPE_DEFINITION_REPRESENTATION(#2040,#2041);
#2040=PRODUCT_DEFINITION_SHAPE('',$,#2043);
#2041=SHAPE_REPRESENTATION('',(#1127),#2033);
#2042=PRODUCT_DEFINITION_CONTEXT('part definition',#2047,'design');
#2043=PRODUCT_DEFINITION('2026-04-13-22-22-46-411',
'Altitude Bearing to plank connector',#2044,#2042);
#2044=PRODUCT_DEFINITION_FORMATION('',$,#2049);
#2045=PRODUCT_RELATED_PRODUCT_CATEGORY(
'Altitude Bearing to plank connector',
'Altitude Bearing to plank connector',(#2049));
#2046=APPLICATION_PROTOCOL_DEFINITION('international standard',
'automotive_design',2009,#2047);
#2047=APPLICATION_CONTEXT(
'Core Data for Automotive Mechanical Design Process');
#2048=PRODUCT_CONTEXT('part definition',#2047,'mechanical');
#2049=PRODUCT('2026-04-13-22-22-46-411',
'Altitude Bearing to plank connector',$,(#2048));
#2050=PRESENTATION_STYLE_ASSIGNMENT((#2052));
#2051=PRESENTATION_STYLE_ASSIGNMENT((#2053));
#2052=SURFACE_STYLE_USAGE(.BOTH.,#2054);
#2053=SURFACE_STYLE_USAGE(.BOTH.,#2055);
#2054=SURFACE_SIDE_STYLE('',(#2056));
#2055=SURFACE_SIDE_STYLE('',(#2057));
#2056=SURFACE_STYLE_FILL_AREA(#2058);
#2057=SURFACE_STYLE_FILL_AREA(#2059);
#2058=FILL_AREA_STYLE('Steel - Satin',(#2060));
#2059=FILL_AREA_STYLE('ABS (White)',(#2061));
#2060=FILL_AREA_STYLE_COLOUR('Steel - Satin',#2062);
#2061=FILL_AREA_STYLE_COLOUR('ABS (White)',#2063);
#2062=COLOUR_RGB('Steel - Satin',0.627450980392157,0.627450980392157,0.627450980392157);
#2063=COLOUR_RGB('ABS (White)',0.964705882352941,0.964705882352941,0.952941176470588);
ENDSEC;
END-ISO-10303-21;
